<svg width="89" height="43" viewBox="0 0 89 43" fill="none" xmlns="http://www.w3.org/2000/svg">
<path d="M54.2554 33.4895C47.3254 33.4895 42.1278 28.292 42.1278 21.362C42.1278 14.432 47.3254 9.23452 54.2554 9.23452C61.1853 9.23452 66.3829 14.432 66.3829 21.362C66.3829 28.292 61.1853 33.4895 54.2554 33.4895ZM54.2554 42.152C65.8054 42.152 75.0453 32.912 75.0453 21.362C75.0453 9.81202 65.8054 0.572021 54.2554 0.572021C42.7053 0.572021 33.4654 9.81202 33.4654 21.362C33.4654 32.912 42.7053 42.152 54.2554 42.152ZM88.9053 1.72702H78.5104V6.34702C78.5104 7.50202 79.0879 8.07952 79.6654 9.23452C80.2429 10.3895 80.8204 11.5445 80.8204 12.6995V40.997H88.9053V1.72702ZM10.9429 1.72702H0.547852V6.34702C0.547852 7.50202 1.12535 8.07952 1.70285 9.23452C2.28035 10.3895 2.85785 11.5445 2.85785 12.6995V40.997H10.9429V21.362L20.7604 36.377C23.0704 39.2645 25.9579 40.997 29.4229 40.997H34.0429L20.7604 21.362L34.0429 1.72702H29.4229C25.9579 1.72702 22.4929 3.45952 20.7604 6.34702L10.9429 21.362V1.72702Z" fill="#F93F12"/>
</svg>
