<svg width="84" height="84" viewBox="0 0 84 84" fill="none" xmlns="http://www.w3.org/2000/svg">
<g clip-path="url(#clip0_2374_15351)">
<path d="M12.8991 13.2898L12.8992 13.2897C20.5743 5.61463 30.7717 1.39062 41.625 1.39062C52.4784 1.39062 62.6775 5.61467 70.3508 13.2896L70.3509 13.2897C78.0259 20.9648 82.25 31.1622 82.25 42.0155C82.25 52.8689 78.0259 63.068 70.3509 70.7413L70.3509 70.7414C62.6758 78.4165 52.4784 82.6405 41.625 82.6405C30.7716 82.6405 20.5726 78.4164 12.8993 70.7414L12.8991 70.7413C5.22416 63.068 1.00012 52.8689 1.00012 42.0155C1.00012 31.1621 5.22416 20.9631 12.8991 13.2898Z" fill="white" stroke="#0B0F5A" stroke-width="2"/>
<path d="M50.3838 72.739C50.3872 73.1959 50.2884 73.6478 50.0976 74.0646C49.7378 74.8663 48.9544 75.3969 48.0774 75.4321C47.7644 75.4622 47.4464 75.4354 47.1417 75.3551C46.3601 75.1609 45.7391 74.5701 45.5031 73.8018C45.2655 73.1105 45.2621 72.359 45.4931 71.6644C45.7793 70.7237 46.6195 70.0609 47.602 70.0023C48.1276 69.9454 48.6582 70.0509 49.1218 70.3036C49.7411 70.6534 50.1713 71.261 50.2935 71.9607C50.3453 72.2151 50.3554 72.4795 50.3855 72.739H50.3838ZM47.1099 72.7105L47.1535 72.7139C47.1535 72.9147 47.1401 73.1156 47.1568 73.3147C47.1602 73.6646 47.2338 74.0093 47.3761 74.329C47.4581 74.5098 47.6338 74.627 47.8313 74.632C48.0389 74.6454 48.2331 74.5282 48.3167 74.3357C48.387 74.1951 48.4372 74.0462 48.4674 73.8939C48.5862 73.1959 48.5996 72.4845 48.5059 71.7832C48.4741 71.559 48.4155 71.3397 48.3318 71.1305C48.2665 70.933 48.0807 70.7991 47.8715 70.8041C47.6556 70.7957 47.4564 70.9212 47.3711 71.1204C47.3125 71.2275 47.2723 71.343 47.2522 71.4635C47.1953 71.877 47.1551 72.2921 47.1083 72.7072L47.1099 72.7105Z" fill="#0B0F5A"/>
<path d="M44.8437 72.7377C44.8721 73.2014 44.7817 73.665 44.5792 74.0834C44.2043 74.9002 43.3908 75.4258 42.4937 75.4342C42.092 75.4643 41.6886 75.4007 41.3137 75.2467C40.681 74.9873 40.1973 74.4584 39.9931 73.8039C39.7588 73.121 39.7521 72.3795 39.9713 71.6916C40.2542 70.7091 41.1413 70.0245 42.164 69.9978C42.964 69.9576 43.6653 70.1769 44.2093 70.7945C44.5826 71.228 44.8035 71.772 44.8387 72.3427C44.852 72.4733 44.842 72.6038 44.842 72.7361L44.8437 72.7377ZM43.0712 72.7846C43.0477 72.4147 43.046 72.1335 43.0076 71.859C42.9741 71.618 42.9155 71.3803 42.8352 71.151C42.7715 70.9418 42.5791 70.7995 42.3598 70.8012C42.1322 70.7911 41.9263 70.9334 41.8527 71.1476C41.7723 71.3217 41.7204 71.5075 41.7003 71.6983C41.6685 72.264 41.6485 72.8298 41.6568 73.3955C41.6518 73.7202 41.7238 74.0416 41.8711 74.3312C41.9849 74.5906 42.2878 74.7078 42.5473 74.5923C42.6561 74.5437 42.7448 74.46 42.7983 74.3546C42.882 74.2106 42.9373 74.0533 42.9607 73.8893C43.0142 73.4926 43.0427 73.0926 43.0712 72.7829V72.7846Z" fill="#0B0F5A"/>
<path d="M29.9739 71.2258C30.0024 71.2375 30.0342 71.2475 30.0643 71.2542C30.3689 71.2492 30.62 71.4936 30.6233 71.7982C30.6233 71.8166 30.6233 71.835 30.6216 71.8534C30.6468 72.2099 30.4041 72.528 30.0559 72.5999C29.9354 72.62 29.8132 72.6267 29.691 72.6183C29.3061 72.61 28.9897 72.3104 28.9596 71.9271C28.8893 71.4316 29.0717 70.9345 29.4467 70.6031C29.8417 70.2516 30.3455 70.0441 30.8744 70.014C31.5121 69.9269 32.1615 70.0541 32.7172 70.3788C33.3315 70.7303 33.6328 71.4534 33.4486 72.1363C33.3583 72.4895 33.1273 72.7891 32.8093 72.9648C32.4461 73.1757 32.0577 73.3397 31.6527 73.4502C31.3598 73.5389 31.0652 73.6193 30.779 73.7264C30.5112 73.8017 30.2802 73.9758 30.1329 74.2134C30.1898 74.2001 30.2467 74.1833 30.302 74.1632C30.7723 73.9406 31.3062 73.8938 31.81 74.0277C31.9707 74.0712 32.1331 74.1063 32.2954 74.1331C32.6503 74.1867 32.7908 74.0695 32.8344 73.7046C32.8411 73.6527 32.8427 73.6009 32.8511 73.5155C33.1223 73.4971 33.3951 73.4988 33.6679 73.5188C33.6997 73.9942 33.6997 74.4511 33.4671 74.8746C33.2495 75.2713 32.8762 75.3985 32.4594 75.4353C32.0577 75.4621 31.6544 75.4135 31.2694 75.2914C31.0183 75.2194 30.7673 75.139 30.5112 75.0855C30.2584 75.0336 29.9973 75.0001 29.84 75.2796H28.9713C28.9328 74.883 29.0081 74.4846 29.1856 74.1298C29.4098 73.7214 29.7362 73.3782 30.1312 73.1305C30.4258 72.928 30.7355 72.7456 31.0367 72.5514C31.1489 72.4828 31.256 72.4075 31.3598 72.3271C31.5857 72.153 31.7113 71.8785 31.6962 71.594C31.7012 71.3329 31.5456 71.0952 31.3062 70.9931C30.8576 70.7822 30.3254 70.876 29.9756 71.2258H29.9739Z" fill="#0B0F5A"/>
<path d="M35.6045 70.1447C35.6146 70.3121 35.6229 70.446 35.633 70.6134C35.6681 70.5849 35.6999 70.5548 35.7301 70.523C36.0531 70.0811 36.505 69.9773 37.0105 70.0644C37.2649 70.1213 37.5177 70.1932 37.7637 70.282C37.9143 70.3271 38.0616 70.379 38.2106 70.4326C38.3328 70.4811 38.4717 70.4527 38.5654 70.3606L38.6541 70.1564H39.3153C39.3621 70.3004 39.3538 70.456 39.2952 70.5949C39.1412 70.9464 38.9889 71.2979 38.8098 71.636C38.5805 72.0679 38.316 72.4796 38.0817 72.9081C37.747 73.5542 37.5712 74.2705 37.5645 74.9986C37.5612 75.084 37.5561 75.1694 37.5495 75.2698H35.8589C35.8171 75.0739 35.8121 74.8714 35.8405 74.6722C35.8908 73.9224 36.2155 73.2177 36.7527 72.6939C37.1076 72.3457 37.4775 72.011 37.839 71.6678C37.921 71.5908 37.9947 71.5071 38.1169 71.3799C38.0131 71.4034 37.9696 71.4084 37.9277 71.4235C37.5662 71.5306 37.1846 71.5473 36.8147 71.4703C36.6172 71.4318 36.4197 71.405 36.2188 71.39C35.9443 71.3565 35.6949 71.5523 35.6631 71.8268C35.6631 71.8285 35.6631 71.8319 35.6631 71.8335C35.638 71.9624 35.6229 72.0913 35.6146 72.2218C35.6062 72.3072 35.6062 72.3926 35.6012 72.4913H34.6957V70.1531C34.8463 70.1497 34.9903 70.143 35.1359 70.1414C35.2815 70.1397 35.4305 70.1414 35.6062 70.1414L35.6045 70.1447Z" fill="#0B0F5A"/>
<path d="M51.743 70.814C52.23 70.737 52.7138 70.6634 52.9598 70.1562H54.272C54.2754 70.2533 54.2821 70.3454 54.2838 70.4374C54.2838 71.6241 54.2838 72.8125 54.2838 73.9992C54.2838 74.0612 54.2838 74.1214 54.2838 74.1833C54.2921 74.4495 54.3758 74.5398 54.647 74.5566C54.7758 74.565 54.9064 74.5566 55.0487 74.5566C55.0771 74.7842 55.0838 75.0135 55.0704 75.2428C54.8629 75.2947 52.1748 75.3115 51.7446 75.2663V74.5884C51.9857 74.5114 52.2652 74.6269 52.538 74.4478C52.5732 74.3557 52.5966 74.2587 52.6066 74.1599C52.6133 73.3297 52.6117 72.5012 52.61 71.671C52.605 71.6275 52.5949 71.5856 52.5832 71.5438H51.7396V70.809L51.743 70.814Z" fill="#0B0F5A"/>
<path d="M41.62 16.5947C55.4738 16.6081 66.693 27.8491 66.6813 41.7029C66.6679 55.5567 55.4269 66.776 41.5731 66.7643C27.7361 66.7509 16.5218 55.5349 16.5118 41.6979C16.4984 27.8475 27.716 16.6081 41.5664 16.5947C41.5848 16.5947 41.6016 16.5947 41.62 16.5947ZM33.1875 54.5591C38.6273 52.6259 44.5658 52.6243 50.0056 54.5558L50.7872 51.615C51.1471 51.615 51.4785 51.6066 51.8116 51.6166C52.1547 51.5882 52.5012 51.6083 52.8376 51.6769C52.6033 52.8971 52.3053 54.1055 51.9471 55.2956C52.8744 55.8061 53.7933 56.2714 54.6704 56.807C55.5474 57.3426 56.3743 57.9485 57.2195 58.5226C67.3893 49.2031 66.7566 33.3508 57.1793 24.8113C55.5625 26.0833 53.8017 27.1596 51.9338 28.0182C52.2886 29.2769 52.6284 30.482 52.8526 31.7256H50.7705C50.6433 31.2235 50.5278 30.7464 50.4023 30.2694C50.2935 29.774 50.1478 29.2852 49.9671 28.8116C44.539 30.7347 38.6156 30.7314 33.1909 28.8015L32.4076 31.7507C32.0477 31.7507 31.7146 31.7524 31.3815 31.7507C31.0418 31.749 30.7037 31.7407 30.3003 31.7356L31.246 28.0065C29.3814 27.1529 27.6256 26.0766 26.0171 24.8046C15.9109 34.0203 16.336 49.8709 26.0171 58.5444C27.6373 57.2723 29.4015 56.1927 31.2728 55.3324C30.8962 54.1139 30.5865 52.8787 30.3405 51.6267H32.4176L33.1909 54.5591H33.1875ZM49.2875 26.8533C49.2758 26.7712 49.2591 26.6909 49.2356 26.6106C48.5979 24.8949 47.7259 23.2747 46.6413 21.7985C45.945 20.8294 45.0646 20.0042 44.052 19.3715C42.6393 18.456 40.8333 18.4057 39.3738 19.2426C38.4348 19.7699 37.6063 20.4745 36.9351 21.3181C35.8572 22.6521 34.9785 24.1334 34.3257 25.7201C34.1717 26.075 34.0311 26.4365 33.8688 26.8365C38.8516 28.6241 44.3014 28.6291 49.2875 26.8516V26.8533ZM33.8922 56.5041C33.9274 56.6246 33.9424 56.6932 33.9675 56.7585C34.5617 58.3502 35.3568 59.8616 36.3326 61.2525C36.9719 62.1714 37.7536 62.9832 38.6491 63.6561C40.5287 65.0286 42.569 65.047 44.4687 63.708C45.1182 63.2426 45.7057 62.6953 46.2162 62.0794C47.5133 60.4726 48.536 58.6632 49.2423 56.7216C49.2624 56.648 49.2758 56.571 49.2842 56.494C44.3064 54.7248 38.87 54.7282 33.8939 56.5024L33.8922 56.5041ZM47.4648 63.8837C50.4123 63.1422 53.174 61.7982 55.5775 59.937C54.2586 58.9109 52.8259 58.0389 51.3111 57.3359C50.7353 58.5092 50.2064 59.6541 49.6189 60.7671C49.0114 61.8769 48.2883 62.9213 47.4648 63.882V63.8837ZM35.7518 63.8921C34.9182 62.9414 34.1918 61.902 33.5876 60.7922C32.9884 59.6708 32.4611 58.5109 31.8854 57.3342C30.3689 58.0372 28.9362 58.9109 27.6156 59.937C30.0275 61.8015 32.7959 63.1472 35.7518 63.8921ZM51.2358 26.0147C52.3438 25.6398 55.1273 23.9175 55.5139 23.3668C53.1221 21.5256 50.3755 20.1967 47.4481 19.4636C49.1386 21.3984 50.2968 23.6279 51.2358 26.0147ZM35.7116 19.4786C32.7791 20.2151 30.0325 21.5508 27.639 23.3986C28.4976 24.197 31.1589 25.7938 31.9707 25.9946C32.8411 23.6262 34.1064 21.4235 35.7116 19.477V19.4786Z" fill="#0B0F5A"/>
<path d="M41.3304 6.07129L41.9698 8.68237H42.0635L42.7715 6.11146H44.5223V10.552H43.436V7.40863C43.041 8.42461 42.8033 9.48243 42.4803 10.5369H41.4811L40.7078 7.34335H40.6157C40.6107 7.60446 40.6057 7.86389 40.6023 8.12165C40.599 8.37942 40.5973 8.64387 40.594 8.90665C40.5906 9.18282 40.5956 9.459 40.5839 9.73517C40.5722 9.99293 40.5438 10.249 40.5187 10.5469L39.5529 10.4934C39.4575 10.1754 39.4608 6.7408 39.5546 6.07129H41.3304Z" fill="#0B0F5A"/>
<path d="M63.9816 20.0331L63.0309 19.1828L63.4175 16.2939L63.3405 16.2621L61.7421 18.0128L60.8047 17.1475L63.8226 13.8184L64.7599 14.6921L64.3582 17.5843L64.4285 17.6245L66.047 15.8587L66.9994 16.7123L63.9816 20.0331Z" fill="#0B0F5A"/>
<path d="M22.6647 14.3471L21.2821 12.4658L22.3048 11.6992L24.9728 15.3045L23.9468 16.0761L21.088 15.0853C21.5767 15.8234 22.0755 16.431 22.5441 17.1021L21.5231 17.8637L18.8518 14.2584L19.8778 13.4985L22.5893 14.4375L22.663 14.3471H22.6647Z" fill="#0B0F5A"/>
<path d="M74.486 43.4015C73.9755 43.979 73.5169 44.2618 72.4591 44.6485V43.1739L73.8818 42.4458C74.1044 42.3655 74.2751 42.1847 74.3404 41.9571C74.3488 41.87 74.3488 41.7813 74.3421 41.6926H72.5712C72.5244 41.2373 72.5227 40.7787 72.5646 40.3218C74.0592 40.2699 75.5271 40.4155 77.0251 40.3971C77.0251 40.8356 77.0335 41.2239 77.0235 41.6123C77.0118 42.091 76.985 42.5697 76.9632 43.0467C76.9599 43.1337 76.9565 43.2208 76.9448 43.3078C76.8494 43.9606 76.5013 44.3388 75.9456 44.3957C75.333 44.5246 74.722 44.1614 74.5446 43.5605C74.5279 43.5103 74.5095 43.4601 74.486 43.3998V43.4015ZM75.9004 42.9797C76.1414 42.6299 76.1749 42.3772 76.0627 41.7696L75.2443 41.7144C75.1455 41.9738 75.1254 42.2567 75.1873 42.5278C75.2794 42.9948 75.3899 43.0668 75.902 42.9797H75.9004Z" fill="#0B0F5A"/>
<path d="M33.8939 6.8597C34.6839 6.72914 35.4237 6.60194 36.1652 6.48477C36.4079 6.44125 36.6523 6.41615 36.8983 6.40945C37.4272 6.36928 37.9093 6.71073 38.0449 7.22458C38.224 7.75182 38.0298 8.33429 37.5729 8.65063C37.4942 8.70586 37.4122 8.7544 37.3185 8.81633C37.9796 9.19293 38.2708 9.51262 38.9236 10.5587C38.6725 10.6056 38.4382 10.6508 38.2022 10.6926C37.9595 10.7345 37.7168 10.7713 37.4473 10.8148C37.1126 10.3847 36.7745 9.95282 36.438 9.51931C36.2874 9.25653 35.961 9.15443 35.6865 9.28164L35.9594 11.0575L34.6237 11.2801L33.8956 6.8597H33.8939ZM36.7728 7.89743C36.7326 7.54092 36.5736 7.35011 36.2874 7.3702C35.9778 7.36015 35.6681 7.42376 35.3886 7.55766L35.551 8.42467C36.0464 8.34768 36.5284 8.39287 36.7711 7.89743H36.7728Z" fill="#0B0F5A"/>
<path d="M28.5144 9.90323C28.5211 8.38345 29.9103 7.74574 31.0719 7.71561C32.5164 7.67879 33.2194 8.97094 33.2595 10.2614C33.3031 11.6925 32.0628 12.4005 30.6669 12.4474C29.3312 12.4925 28.5814 11.2322 28.5144 9.90323ZM31.9255 10.4505C31.9071 9.98524 31.7548 9.53667 31.4887 9.15505C31.246 8.82867 30.8142 8.70816 30.4392 8.86382C30.066 8.98266 29.8183 9.33749 29.8367 9.72916C29.8551 10.2095 30.0225 10.6732 30.3171 11.0531C30.5531 11.3661 30.9765 11.4732 31.3314 11.3075C31.7096 11.2021 31.959 10.8422 31.9255 10.4505Z" fill="#0B0F5A"/>
<path d="M61.824 13.3955C61.7721 14.3697 61.2198 15.2484 60.3645 15.717C59.921 15.9514 59.3987 15.9882 58.9267 15.8191C58.3828 15.6518 57.8924 15.3421 57.5107 14.9203C57.0588 14.4466 56.8881 13.7704 57.0605 13.1394C57.2011 12.5402 57.5275 12.0013 57.9928 11.5996C58.5267 11.1008 59.3 10.9501 59.9829 11.2113C60.5386 11.3937 61.029 11.7318 61.3989 12.1837C61.6851 12.5218 61.8374 12.952 61.8257 13.3955H61.824ZM60.5553 13.2231C60.5553 12.5921 59.8222 11.9745 59.2079 12.3544C58.6857 12.6641 58.3426 13.203 58.284 13.8073C58.2187 14.4433 58.9803 14.9873 59.5326 14.6944C60.0766 14.3814 60.4515 13.8407 60.5536 13.2214L60.5553 13.2231Z" fill="#0B0F5A"/>
<path d="M8.64508 48.2351C7.49855 48.2351 6.76544 47.6861 6.5127 46.6249C6.41562 46.2466 6.38382 45.855 6.41729 45.465C6.52609 44.4758 7.03324 43.9318 8.00068 43.6891C8.4074 43.5786 8.83087 43.5485 9.24931 43.5987C10.0092 43.6724 10.6503 44.1963 10.8712 44.9277C11.0386 45.3947 11.0955 45.8935 11.0419 46.3872C10.9833 47.0852 10.5448 47.6944 9.90041 47.9706C9.50874 48.1564 9.07859 48.2485 8.64508 48.2367V48.2351ZM8.97983 44.9177C8.5865 44.9076 8.19651 44.9963 7.84669 45.1771C7.53035 45.3746 7.36799 45.7479 7.43997 46.1144C7.48014 46.4893 7.76635 46.7923 8.1396 46.8492C8.59989 46.9362 9.07524 46.881 9.50205 46.6885C9.85354 46.5513 10.0695 46.1964 10.031 45.8215C10.0042 45.2323 9.64432 44.9193 8.98151 44.916L8.97983 44.9177Z" fill="#0B0F5A"/>
<path d="M76.9633 38.6452C76.6436 38.6988 76.3624 38.7507 76.0795 38.7908C75.477 38.8795 74.8744 38.9716 74.2702 39.0452C73.3982 39.154 72.4659 38.7624 72.25 37.6878C72.1596 37.2627 72.1144 36.8292 72.1127 36.3957C72.0876 35.7446 72.501 35.1587 73.1203 34.9612C73.5773 34.8206 74.0442 34.7202 74.5179 34.66C75.1037 34.5646 75.6946 34.4976 76.2821 34.4189C76.4528 34.8391 76.5214 35.2943 76.4846 35.7462C75.8653 35.8366 75.236 35.927 74.6066 36.0191C74.3338 36.0592 74.0576 36.0793 73.7898 36.1396C73.3697 36.1948 73.0735 36.5815 73.1287 37.0016C73.1404 37.0953 73.1705 37.184 73.2141 37.2677C73.3128 37.5556 73.5974 37.7347 73.8986 37.7012C74.2736 37.6711 74.6468 37.6192 75.0201 37.5673C75.4937 37.502 75.9657 37.4284 76.4394 37.3631C76.5465 37.3564 76.6536 37.3547 76.7608 37.3614L76.9583 38.6452H76.9633Z" fill="#0B0F5A"/>
<path d="M71.8298 28.5134L70.859 26.5684L70.0355 26.9752L71.0917 29.1176L70.2347 29.5544C70.1945 29.5042 70.1577 29.4507 70.1242 29.3954C69.602 28.3426 69.0798 27.2882 68.5308 26.1801L72.5646 24.1934L74.1999 27.5141L73.3781 27.9309L72.3269 25.8454L71.6608 26.1684L72.6115 28.115L71.8298 28.515V28.5134Z" fill="#0B0F5A"/>
<path d="M70.7402 23.5269L70.0071 22.5946C70.2481 22.0188 70.1878 21.6372 69.833 21.4313C69.6372 21.3175 69.5485 21.3493 69.3175 21.6422L69.5116 22.2314C69.6305 22.5896 69.7694 22.9411 69.8615 23.3059C70.0071 23.7629 69.8682 24.2633 69.5083 24.5814C69.13 24.9412 68.5794 25.055 68.0889 24.8759C67.8965 24.8107 67.719 24.7102 67.5617 24.583C67.0512 24.1663 66.678 23.6089 66.4855 22.9796C66.3047 22.377 66.5424 21.7276 67.0696 21.3828L67.8295 22.3402C67.627 22.6331 67.4261 22.931 67.5969 23.2993C67.6906 23.5671 67.9232 23.7612 68.2028 23.8031C68.5927 23.6524 68.6932 23.4951 68.5944 23.1218C68.5358 22.8975 68.4203 22.69 68.3668 22.4657C68.268 22.1042 68.1994 21.736 68.1609 21.3627C68.109 20.6196 68.9041 20.1191 69.5702 20.2982C69.7259 20.3333 69.8749 20.3953 70.0088 20.4823C70.6615 20.9325 71.1134 21.6205 71.2658 22.3988C71.3427 22.7904 71.167 23.1402 70.7435 23.5269H70.7402Z" fill="#0B0F5A"/>
<path d="M8.33381 49.5843L8.76397 50.751C8.43758 50.9953 8.26184 51.2849 8.44763 51.6916C8.55642 51.9293 8.63509 51.9745 8.96147 51.9644C9.19413 51.7837 9.13052 51.5309 9.12717 51.2866C9.10709 50.8397 9.11211 50.3911 9.14057 49.9442C9.24266 48.8763 10.5231 48.5499 11.2863 49.1324C11.4504 49.2529 11.5893 49.4036 11.6981 49.576C12.0931 50.1936 12.2672 50.9267 12.1902 51.6565C12.1199 52.2356 11.7182 52.5486 11.1859 52.798L10.7457 51.633C11.452 51.0238 11.442 50.4129 10.739 50.0999C10.3507 50.2137 10.2771 50.289 10.2653 50.6572C10.2553 50.9468 10.2854 51.238 10.272 51.5293C10.2704 51.8038 10.2386 52.0783 10.18 52.3477C10.031 52.957 9.41674 53.3319 8.80748 53.1829C8.66521 53.1478 8.53131 53.0875 8.41415 53.0022C8.25682 52.8984 8.12124 52.7645 8.01412 52.6088C7.60907 52.0147 7.42663 51.2983 7.49692 50.5819C7.55551 50.1132 7.88356 49.7233 8.33548 49.586L8.33381 49.5843Z" fill="#0B0F5A"/>
<path d="M49.7964 11.5512L48.4306 11.2884C48.387 11.0022 48.3519 10.7628 48.3134 10.5134L46.7668 10.2188L46.3568 10.9017L45.0261 10.639L47.515 6.55664L48.9745 6.83449C49.2725 8.37937 49.5319 9.92761 49.7964 11.5512ZM48.2113 9.5393C48.2046 8.99197 48.1176 8.44967 47.9519 7.92913L47.2137 9.33175L48.2096 9.5393H48.2113Z" fill="#0B0F5A"/>
<path d="M13.0137 27.77C12.776 27.7148 12.5299 27.6779 12.299 27.601C11.7349 27.4118 11.2093 27.1206 10.749 26.744C10.1448 26.3339 9.93225 25.5439 10.2486 24.8878C10.349 24.6317 10.4829 24.3907 10.6486 24.1697C10.9733 23.7027 11.5508 23.4818 12.1048 23.614C12.8898 23.7747 13.6179 24.1446 14.2104 24.6852C14.7828 25.1154 14.9469 25.9038 14.592 26.5247C14.4698 26.7858 14.3158 27.0319 14.1334 27.2578C13.8556 27.5876 13.4438 27.7767 13.012 27.7717L13.0137 27.77ZM13.1827 26.6285C13.5041 26.6402 13.6781 26.5532 13.7618 26.3523C13.8589 26.1314 13.7936 25.8703 13.6011 25.723C13.0555 25.2443 12.4077 24.8945 11.7081 24.7053C11.4755 24.63 11.2227 24.7304 11.1072 24.9464C11.0001 25.1271 11.0202 25.3548 11.1558 25.5154C11.1976 25.574 11.2462 25.6276 11.3031 25.6744C11.8069 26.0661 12.3676 26.3758 12.9668 26.5917C13.0371 26.6118 13.1091 26.6251 13.1827 26.6302V26.6285Z" fill="#0B0F5A"/>
<path d="M73.1204 32.6716V33.7896C72.3889 33.9771 71.6257 33.6189 71.3027 32.936C71.0901 32.5226 70.9645 32.0673 70.9344 31.6037C70.8675 30.8572 71.2508 30.1425 71.9102 29.7877C72.4191 29.4696 73.0116 29.3106 73.6108 29.3274C74.1129 29.3274 74.5899 29.5416 74.923 29.9149C75.4134 30.4622 75.6695 31.1819 75.636 31.9167C75.6059 32.4925 75.2896 33.0147 74.7941 33.3076L74.1966 32.2749C74.2535 32.2113 74.3004 32.1611 74.3472 32.1058C74.6703 31.751 74.6435 31.202 74.2903 30.8806C74.1012 30.7082 73.8451 30.6279 73.5924 30.6614C73.1806 30.74 72.7806 30.8723 72.404 31.0564C72.0659 31.2037 71.8935 31.5803 72.004 31.9334C72.0609 32.2899 72.3421 32.5678 72.6986 32.623C72.8241 32.6465 72.953 32.6515 73.122 32.6716H73.1204Z" fill="#0B0F5A"/>
<path d="M11.0369 31.7556C10.2201 31.6686 9.44182 31.3673 8.78069 30.8802C8.33714 30.5722 8.12959 30.0216 8.25847 29.4977C8.3204 29.1864 8.41915 28.8851 8.55138 28.5955C8.80412 28.0131 9.42006 27.6766 10.0477 27.7804C10.816 27.8507 11.5541 28.1185 12.1902 28.557C12.7977 28.9018 13.0655 29.6366 12.8212 30.291C12.7659 30.4852 12.6956 30.676 12.6103 30.8601C12.3257 31.4811 11.8253 31.7606 11.0369 31.7556ZM11.3382 30.6258C11.688 30.6225 11.8738 30.5053 11.9541 30.2844C12.0345 30.0718 11.9575 29.8324 11.7684 29.7069C11.6378 29.5931 11.4905 29.4977 11.3332 29.424C10.9884 29.2751 10.6335 29.1462 10.2787 29.0223C10.113 28.9671 9.94395 28.9286 9.77156 28.9068C9.50543 28.8566 9.2393 28.9989 9.13218 29.2466C9.04682 29.4609 9.11209 29.6533 9.35144 29.8492C9.45019 29.9345 9.56066 30.0048 9.6795 30.0584C10.123 30.2325 10.5716 30.3982 11.0202 30.5572C11.124 30.5873 11.2311 30.6107 11.3382 30.6241V30.6258Z" fill="#0B0F5A"/>
<path d="M7.68601 39.1321L7.48014 40.2702C6.59639 40.0878 6.20138 39.6107 6.22314 38.732C6.23151 38.3688 6.2834 38.009 6.37713 37.6591C6.53614 36.9813 7.21401 36.5611 7.89189 36.7202C8.07265 36.762 8.24171 36.844 8.38732 36.9595C8.71538 37.224 8.98653 37.5537 9.18236 37.9269C9.34974 38.1947 9.51879 38.4625 9.71295 38.7722C9.92384 38.4458 9.82844 38.1328 9.8753 37.8466C9.92384 37.5487 9.94225 37.2457 9.98075 36.8892L10.9532 36.9411C10.8394 38.2031 10.7323 39.4116 10.6201 40.6669C10.19 40.5765 9.79664 40.3623 9.48866 40.0493C9.1991 39.7262 8.94804 39.3697 8.69195 39.0199C8.53796 38.809 8.40239 38.5847 8.25677 38.3688C8.20823 38.2968 8.153 38.2282 8.09274 38.1663C7.93373 37.9671 7.67262 37.8817 7.42825 37.947C7.21569 38.0223 7.07174 38.2198 7.06337 38.4441C7.055 38.7002 7.21234 38.9312 7.45336 39.0166C7.51864 39.045 7.58057 39.0785 7.68601 39.1304V39.1321Z" fill="#0B0F5A"/>
<path d="M27.3144 10.9743L27.7161 11.7358L26.1762 12.5694L27.0148 14.1946L25.8163 14.834L23.7275 10.8588L26.747 9.27539L27.1939 10.0872L25.3962 11.0479L25.7628 11.776L27.3127 10.9743H27.3144Z" fill="#0B0F5A"/>
<path d="M71.3829 55.2489L69.6673 54.4974L70.2079 53.2588L71.947 53.9969L75.0234 53.4529L74.4225 54.8171L72.6499 55.0598L73.676 56.5176L73.0818 57.8968L71.3829 55.2506V55.2489Z" fill="#0B0F5A"/>
<path d="M52.1865 12.4065L50.9077 11.9713L51.9806 8.79782C51.5806 8.53002 51.1002 8.49152 50.66 8.25887L51.0048 7.26465L54.9867 8.61873L54.6419 9.63136L53.2895 9.19283L52.1848 12.4048L52.1865 12.4065Z" fill="#0B0F5A"/>
<path d="M71.6792 48.7022L74.9648 49.5608L75.3481 48.1934L76.3791 48.4645L75.3196 52.5184L74.2752 52.264L74.625 50.8865L71.3428 50.0111L71.6792 48.7005V48.7022Z" fill="#0B0F5A"/>
<path d="M7.63916 35.6029L6.67004 35.3719L7.46341 31.8486L8.25008 32.021C8.9765 33.2094 10.1297 34.0764 11.4721 34.4463L11.2127 35.6046C9.9975 35.2263 8.93633 34.4681 8.1848 33.4404C7.93709 34.1785 7.86679 34.8832 7.63916 35.6029Z" fill="#0B0F5A"/>
<path d="M14.1518 21.6263C14.0648 22.0581 13.9945 22.4263 13.9158 22.7946C13.8907 22.8699 13.8572 22.9419 13.8187 23.0105L13.0438 22.4431C13.2597 21.7836 13.3484 21.1308 12.9835 20.4898L13.5878 19.668L17.2567 22.3728L16.5353 23.3687L14.1518 21.6263Z" fill="#0B0F5A"/>
<path d="M20.7314 18.5747L19.7958 19.5773L16.7094 16.3318L17.655 15.3477L20.7314 18.573V18.5747Z" fill="#0B0F5A"/>
<path d="M55.4185 13.8044L54.1899 13.2136L56.1031 9.16309L57.3416 9.73886L55.4185 13.8044Z" fill="#0B0F5A"/>
<path d="M12.9317 53.115L13.469 54.3669L9.35151 56.1461L8.81256 54.8942L12.9317 53.1133V53.115Z" fill="#0B0F5A"/>
<path d="M72.111 46.5731L72.3069 45.2559C73.7848 45.4333 75.2326 45.6559 76.7306 45.8819L76.5482 47.2041C75.0535 47.02 73.6007 46.8058 72.1127 46.5731H72.111Z" fill="#0B0F5A"/>
<path d="M61.0541 41.7011C61.0675 42.8694 60.8081 44.0243 60.2959 45.0738C59.6414 46.3559 58.5401 47.3535 57.2011 47.879C56.2286 48.264 55.1959 48.4799 54.1498 48.5167C52.9313 48.6121 51.7061 48.4799 50.5361 48.1267C48.0071 47.315 46.4906 45.6111 46.1057 42.9548C45.9149 41.7447 45.9919 40.5094 46.3316 39.3328C46.8455 37.5385 48.1795 36.0957 49.9269 35.4429C51.4266 34.8722 53.0418 34.6747 54.6352 34.8655C55.5491 34.9274 56.4462 35.1433 57.2881 35.5065C59.2832 36.33 60.6758 38.1712 60.9235 40.3136C60.9922 40.7722 61.0106 41.2375 61.0524 41.6995L61.0541 41.7011ZM56.0847 41.7011C56.0428 41.0802 56.0227 40.4559 55.9558 39.8366C55.9039 39.1403 55.7164 38.4607 55.4018 37.8381C55.052 37.1435 54.3306 36.7167 53.5539 36.7434C52.7622 36.7033 52.0208 37.1284 51.6559 37.8314C51.3998 38.3201 51.2324 38.8507 51.1621 39.3997C50.9563 40.7488 50.9328 42.1196 51.0902 43.4753C51.1387 44.098 51.2877 44.7106 51.532 45.2847C52.0024 46.386 53.2778 46.8965 54.3791 46.4245C54.8628 46.217 55.2545 45.842 55.4821 45.3684C55.6177 45.0788 55.7215 44.7775 55.7934 44.4662C55.9893 43.5573 56.088 42.6301 56.0864 41.7011H56.0847Z" fill="#0B0F5A"/>
<path d="M42.0803 39.5935C41.9949 39.3541 41.9279 39.1633 41.8576 38.9742C41.3806 37.6938 40.4232 37.0427 39.0993 36.9004C38.5955 36.8217 38.08 36.8502 37.5862 36.9824C37.2632 37.0761 36.9719 37.2552 36.7426 37.5013C36.2706 38.0235 36.3225 38.611 36.9217 38.9759C37.2715 39.1817 37.6481 39.3374 38.0398 39.4412C38.865 39.6688 39.7069 39.8312 40.5337 40.0538C41.4944 40.2864 42.4133 40.6697 43.2552 41.1886C44.1608 41.751 44.7399 42.7134 44.8135 43.7762C44.9675 44.8541 44.6646 45.9471 43.9783 46.794C43.4561 47.4066 42.7782 47.8652 42.0167 48.1213C40.9957 48.4645 39.9178 48.6017 38.8432 48.5247C37.5795 48.4561 36.3409 48.1364 35.2011 47.584C35.1509 47.5606 35.0956 47.5472 35.0119 47.5171L34.5265 48.1983H32.8143V43.4616C33.1105 43.4164 33.4101 43.4046 33.7081 43.4247C33.9976 43.4164 34.2872 43.4247 34.6119 43.4247C34.6722 43.5804 34.7257 43.7277 34.7843 43.8716C35.3802 45.2927 36.3811 46.2434 37.926 46.5413C38.4381 46.6601 38.9721 46.6484 39.4792 46.5078C39.7571 46.4258 40.0165 46.2936 40.2441 46.1178C40.6877 45.8032 40.7915 45.1872 40.4768 44.7437C40.4132 44.6533 40.3328 44.5746 40.2425 44.5093C39.8692 44.2348 39.4575 44.0189 39.0189 43.8683C38.1703 43.5737 37.295 43.3578 36.438 43.0833C35.8405 42.9042 35.253 42.6916 34.6789 42.4489C33.5876 41.9635 32.7875 41.1752 32.5448 39.9751C32.1565 38.0603 32.9616 36.3932 34.719 35.4676C35.4722 35.0843 36.2991 34.8684 37.1443 34.835C38.7444 34.7178 40.3496 35.0074 41.8074 35.6802C41.8593 35.7053 41.9146 35.7221 42.0116 35.7589L42.3665 35.1664H44.1691V39.5868C43.8344 39.5901 43.4929 39.5952 43.1515 39.5968C42.8 39.5968 42.4518 39.5968 42.0819 39.5968L42.0803 39.5935Z" fill="#0B0F5A"/>
<path d="M31.2795 46.3397V48.1206H23.6605V46.3397C23.8965 46.3397 24.1242 46.3447 24.3518 46.3397C24.5108 46.3397 24.6715 46.3263 24.8288 46.3012C25.0698 46.2778 25.2623 46.0886 25.2908 45.8476C25.3259 45.6635 25.3494 45.476 25.3577 45.2869C25.3627 42.875 25.3627 40.4631 25.3577 38.0512C25.356 37.1976 25.1518 37.0034 24.2999 36.9883C24.0974 36.985 23.8965 36.9883 23.6605 36.9883V35.2158H31.2243C31.323 35.7916 31.3314 36.3808 31.2494 36.9582C31.1439 36.9683 31.0335 36.9816 30.9213 36.9883C30.8092 36.995 30.6887 36.9883 30.5732 36.9917C29.7949 37.0201 29.6124 37.1875 29.6124 37.9524C29.6041 40.4229 29.6041 42.8917 29.6124 45.3622C29.6141 46.1539 29.8016 46.3246 30.5983 46.3397C30.8142 46.343 31.0285 46.3397 31.2795 46.3397Z" fill="#0B0F5A"/>
</g>
<defs>
<clipPath id="clip0_2374_15351">
<rect width="83.2499" height="83.2499" fill="white" transform="translate(6.10352e-05 0.390625)"/>
</clipPath>
</defs>
</svg>
