<svg width="83" height="84" viewBox="0 0 83 84" fill="none" xmlns="http://www.w3.org/2000/svg">
<circle cx="41.9749" cy="41.7906" r="40.025" fill="white" stroke="#0B0F5A" stroke-width="2"/>
<path d="M42.4718 61.3667C42.5863 61.0143 43.0849 61.0143 43.1994 61.3667L43.995 63.8153C44.0462 63.9729 44.193 64.0796 44.3588 64.0796H46.9333C47.3039 64.0796 47.458 64.5538 47.1582 64.7716L45.0753 66.2849C44.9412 66.3823 44.8851 66.555 44.9363 66.7126L45.7319 69.1611C45.8464 69.5136 45.4431 69.8066 45.1433 69.5888L43.0604 68.0755C42.9263 67.9781 42.7448 67.9781 42.6107 68.0755L40.5278 69.5888C40.2281 69.8066 39.8247 69.5136 39.9392 69.1611L40.7348 66.7126C40.786 66.555 40.7299 66.3823 40.5958 66.2849L38.513 64.7716C38.2132 64.5538 38.3672 64.0796 38.7378 64.0796H41.3124C41.4781 64.0796 41.625 63.9729 41.6762 63.8153L42.4718 61.3667Z" fill="#0B0F5A"/>
<path d="M32.335 62.897C32.4495 62.5446 32.9481 62.5446 33.0626 62.897L33.5147 64.2883C33.5659 64.4459 33.7128 64.5526 33.8785 64.5526H35.3414C35.712 64.5526 35.866 65.0268 35.5662 65.2446L34.3827 66.1045C34.2486 66.2019 34.1925 66.3746 34.2437 66.5322L34.6958 67.9235C34.8103 68.2759 34.407 68.569 34.1072 68.3512L32.9236 67.4913C32.7896 67.3939 32.608 67.3939 32.474 67.4913L31.2904 68.3512C30.9907 68.569 30.5873 68.2759 30.7018 67.9235L31.1539 66.5322C31.2051 66.3746 31.149 66.2019 31.0149 66.1045L29.8314 65.2446C29.5316 65.0268 29.6857 64.5526 30.0562 64.5526H31.5191C31.6849 64.5526 31.8317 64.4459 31.8829 64.2883L32.335 62.897Z" fill="#0B0F5A"/>
<path d="M52.6085 62.897C52.723 62.5446 53.2215 62.5446 53.336 62.897L53.7881 64.2883C53.8393 64.4459 53.9862 64.5526 54.1519 64.5526H55.6148C55.9854 64.5526 56.1395 65.0268 55.8397 65.2446L54.6561 66.1045C54.5221 66.2019 54.466 66.3746 54.5172 66.5322L54.9693 67.9235C55.0838 68.2759 54.6804 68.569 54.3806 68.3512L53.1971 67.4913C53.063 67.3939 52.8815 67.3939 52.7474 67.4913L51.5639 68.3512C51.2641 68.569 50.8607 68.2759 50.9752 67.9235L51.4273 66.5322C51.4785 66.3746 51.4224 66.2019 51.2884 66.1045L50.1048 65.2446C49.805 65.0268 49.9591 64.5526 50.3297 64.5526H51.7926C51.9583 64.5526 52.1052 64.4459 52.1564 64.2883L52.6085 62.897Z" fill="#0B0F5A"/>
<path d="M31.4439 18.6141L33.2647 23.166H32.4388L32.0876 22.2556H30.1628L29.8052 23.166H28.9988L30.8131 18.6141H31.4439ZM30.4294 21.5728H31.821L31.1252 19.7846L30.4294 21.5728ZM35.1689 18.6141H35.9297V23.166H35.1689V18.6141ZM40.3263 23.231C39.0258 23.231 38.0374 22.2166 38.0374 20.8835C38.0374 19.557 39.0258 18.549 40.3263 18.549C41.3733 18.549 42.2967 19.2253 42.4398 20.1617H41.6009C41.4513 19.648 40.9376 19.2903 40.3263 19.2903C39.4745 19.2903 38.8242 19.9796 38.8242 20.8835C38.8242 21.7939 39.4745 22.4897 40.3263 22.4897C40.9441 22.4897 41.4708 22.1126 41.6074 21.5598H42.4528C42.2707 22.5482 41.3993 23.231 40.3263 23.231ZM46.3074 20.6819C46.7041 20.6819 46.9967 20.3893 46.9967 20.0057C46.9967 19.6285 46.7041 19.3424 46.3074 19.3424H45.3255V20.6819H46.3074ZM44.5646 23.166V18.6141H46.3074C47.1463 18.6141 47.764 19.2058 47.764 20.0057C47.764 20.8185 47.1463 21.4103 46.3074 21.4103H45.3255V23.166H44.5646ZM51.2198 18.6141L53.0405 23.166H52.2147L51.8635 22.2556H49.9387L49.581 23.166H48.7747L50.589 18.6141H51.2198ZM50.2053 21.5728H51.5969L50.9011 19.7846L50.2053 21.5728Z" fill="#0B0F5A"/>
<path d="M57.8563 45.2758V44.9958L64.4304 38.1821C66.1208 36.432 66.6373 35.3586 66.6373 34.3086C66.6373 33.1885 65.9565 32.2318 64.5008 32.2318C63.0686 32.2318 62.1294 33.2819 61.6599 34.8453L58.3259 34.1919C58.9833 31.3218 61.1199 29.2217 64.5243 29.2217C67.9052 29.2217 69.9948 31.3451 69.9948 34.2853C69.9948 36.0353 69.173 37.5988 67.3182 39.5355L65.346 41.5889C64.8999 42.0323 64.219 42.499 64.219 42.499C64.219 42.499 64.9469 42.4057 65.5338 42.4057H69.9009V45.2758H57.8563Z" fill="#0B0F5A"/>
<path d="M50.3788 45.4894C45.8186 45.4894 42.1938 42.0283 42.1938 37.3277C42.1938 32.6272 45.8186 29.1895 50.3788 29.1895C53.2553 29.1895 55.3132 30.2184 56.7398 32.4401L54.2375 34.2174C53.4891 33.0013 52.2029 32.1361 50.3788 32.1361C47.5024 32.1361 45.5614 34.3577 45.5614 37.3277C45.5614 40.2977 47.5024 42.5662 50.3788 42.5662C52.4368 42.5662 53.5827 41.5839 54.4714 40.2276L57.0204 41.9815C55.6406 44.133 53.4424 45.4894 50.3788 45.4894Z" fill="#0B0F5A"/>
<path d="M32.7751 45.4893C28.1915 45.4893 24.5433 42.0282 24.5433 37.3277C24.5433 32.6271 28.1915 29.166 32.7751 29.166C37.3587 29.166 41.0069 32.6271 41.0069 37.3277C41.0069 42.0282 37.3587 45.4893 32.7751 45.4893ZM32.7751 42.5661C35.6749 42.5661 37.6393 40.2977 37.6393 37.3277C37.6393 34.3577 35.6749 32.0892 32.7751 32.0892C29.8752 32.0892 27.9108 34.3577 27.9108 37.3277C27.9108 40.2977 29.8752 42.5661 32.7751 42.5661Z" fill="#0B0F5A"/>
<path d="M18.0068 45.4894C14.9666 45.4894 13.0022 44.0395 12.0434 42.1452L14.7094 40.6017C15.411 41.7476 16.323 42.5895 17.9366 42.5895C19.293 42.5895 20.1583 41.9113 20.1583 40.9759C20.1583 39.8534 19.2696 39.4558 17.7729 38.801L16.9544 38.4502C14.5924 37.4447 13.0256 36.1818 13.0256 33.5158C13.0256 31.0603 14.8965 29.1895 17.8197 29.1895C19.901 29.1895 21.3977 29.9144 22.4735 31.8087L19.9244 33.4457C19.3632 32.4401 18.7551 32.0425 17.8197 32.0425C16.8609 32.0425 16.2528 32.6506 16.2528 33.4457C16.2528 34.4279 16.8609 34.8254 18.264 35.4335L19.0825 35.7843C21.8654 36.9769 23.4323 38.193 23.4323 40.9291C23.4323 43.8758 21.1171 45.4894 18.0068 45.4894Z" fill="#0B0F5A"/>
<path d="M22.7477 56.5543C21.4471 56.5543 20.4587 55.5398 20.4587 54.2068C20.4587 52.8802 21.4471 51.8723 22.7477 51.8723C23.7946 51.8723 24.718 52.5486 24.8611 53.485H24.0222C23.8727 52.9712 23.359 52.6136 22.7477 52.6136C21.8958 52.6136 21.2455 53.3029 21.2455 54.2068C21.2455 55.1172 21.8958 55.813 22.7477 55.813C23.3655 55.813 23.8922 55.4358 24.0287 54.8831H24.8741C24.692 55.8715 23.8207 56.5543 22.7477 56.5543ZM26.986 51.9373H29.6717V52.6656H27.7468V53.7386H29.4636V54.4669H27.7468V55.7609H29.6717V56.4893H26.986V51.9373ZM31.8141 56.4893V51.9373H33.5243C34.2851 51.9373 34.9224 52.5291 34.9224 53.2899C34.9224 53.9207 34.5908 54.3954 34.0575 54.5774L35.2996 56.4893H34.3762L33.2447 54.662H32.5749V56.4893H31.8141ZM32.5749 53.9337H33.4983C33.8755 53.9337 34.1551 53.6605 34.1551 53.2899C34.1551 52.9322 33.8755 52.6721 33.4983 52.6721H32.5749V53.9337ZM38.7888 56.4893H38.028V52.6656H36.6299V51.9373H40.1869V52.6656H38.7888V56.4893ZM42.1942 51.9373H42.955V56.4893H42.1942V51.9373ZM45.2187 51.9373H47.9044V52.6656H45.9796V53.8426H47.6963V54.5709H45.9796V56.4893H45.2187V51.9373ZM49.9579 51.9373H50.7187V56.4893H49.9579V51.9373ZM52.9825 51.9373H55.6681V52.6656H53.7433V53.7386H55.46V54.4669H53.7433V55.7609H55.6681V56.4893H52.9825V51.9373ZM59.3062 51.9373C60.6002 51.9373 61.5822 52.8932 61.5822 54.1938C61.5822 55.5073 60.6002 56.4893 59.3062 56.4893H57.8105V51.9373H59.3062ZM58.5714 55.7609H59.3582C60.1841 55.7609 60.8018 55.0912 60.8018 54.1938C60.8018 53.3029 60.1906 52.6656 59.3582 52.6656H58.5714V55.7609Z" fill="#0B0F5A"/>
</svg>
