<svg width="38" height="38" viewBox="0 0 38 38" fill="none" xmlns="http://www.w3.org/2000/svg">
<g clip-path="url(#clip0_6547_53391)">
<path d="M36.1101 4.45675L28.4847 0.784726C27.6001 0.359037 26.5451 0.540417 25.8529 1.23262L0.88531 23.9977C0.215313 24.6085 0.215313 25.6672 0.88531 26.2779L2.92491 28.1325C3.47646 28.6322 4.30192 28.6692 4.89419 28.2213L34.9626 5.40808C35.9732 4.64184 37.4205 5.36366 37.4205 6.62962V6.54078C37.4205 5.65238 36.9097 4.84172 36.1101 4.45675Z" fill="#0065A9"/>
<path d="M36.1101 33.4813L28.4847 37.1534C27.6001 37.5791 26.5451 37.3977 25.8529 36.7055L0.88531 13.9404C0.215313 13.3296 0.215313 12.2709 0.88531 11.6602L2.92491 9.80564C3.47646 9.30592 4.30192 9.2689 4.89419 9.7168L34.9626 32.5263C35.9732 33.2926 37.4205 32.5707 37.4205 31.3048V31.3936C37.4205 32.282 36.9097 33.0927 36.1101 33.4776V33.4813Z" fill="#007ACC"/>
<path d="M28.4847 37.1533C27.6 37.579 26.545 37.3976 25.8528 36.7054C26.7079 37.5604 28.1663 36.9534 28.1663 35.7466V2.18757C28.1663 0.98083 26.7079 0.373761 25.8528 1.22884C26.545 0.536633 27.6 0.355253 28.4847 0.780942L36.11 4.44927C36.9096 4.83424 37.4204 5.6449 37.4204 6.53329V31.3972C37.4204 32.2856 36.9096 33.0963 36.11 33.4812L28.4847 37.1496V37.1533Z" fill="#1F9CF0"/>
<g style="mix-blend-mode:overlay" opacity="0.25">
<path fill-rule="evenodd" clip-rule="evenodd" d="M26.6303 37.2236C27.2152 37.4494 27.8778 37.4346 28.4663 37.1533L36.088 33.485C36.8876 33.1 37.3984 32.2893 37.3984 31.401V6.53703C37.3984 5.64863 36.8876 4.83797 36.088 4.453L28.4663 0.784677C27.6927 0.414513 26.7895 0.503352 26.1121 0.99567C26.0158 1.066 25.9233 1.14374 25.8382 1.23258L11.25 14.54L4.89428 9.71674C4.30202 9.26884 3.47655 9.30585 2.92501 9.80558L0.885401 11.6601C0.211702 12.2709 0.211702 13.3295 0.885401 13.9403L6.39714 18.9671L0.885401 23.9977C0.215404 24.6084 0.215404 25.6671 0.885401 26.2779L2.92501 28.1324C3.47285 28.6321 4.30202 28.6691 4.89428 28.2212L11.25 23.398L25.8382 36.7091C26.0677 36.9386 26.3416 37.1126 26.6303 37.2273V37.2236ZM28.1517 10.5644L17.0801 18.9671L28.1517 27.3699V10.5644Z" fill="url(#paint0_linear_6547_53391)"/>
</g>
</g>
<defs>
<linearGradient id="paint0_linear_6547_53391" x1="18.8902" y1="0.555175" x2="18.8902" y2="37.3791" gradientUnits="userSpaceOnUse">
<stop stop-color="white"/>
<stop offset="1" stop-color="white" stop-opacity="0"/>
</linearGradient>
<clipPath id="clip0_6547_53391">
<rect width="37.0386" height="36.8239" fill="white" transform="translate(0.381836 0.555176)"/>
</clipPath>
</defs>
</svg>
