<svg width="38" height="37" viewBox="0 0 38 37" fill="none" xmlns="http://www.w3.org/2000/svg">
<g clip-path="url(#clip0_6547_53382)">
<path d="M19.1228 27.1621C24.0934 27.1621 28.1228 23.1327 28.1228 18.1621C28.1228 13.1915 24.0934 9.16211 19.1228 9.16211C14.1522 9.16211 10.1228 13.1915 10.1228 18.1621C10.1228 23.1327 14.1522 27.1621 19.1228 27.1621Z" fill="white"/>
<path d="M19.1228 9.16216H34.7078C29.7428 0.559664 18.7403 -2.39534 10.1303 2.57716C7.39278 4.15966 5.12028 6.43216 3.53778 9.16966L11.3303 22.6697C8.84028 18.3722 10.3028 12.8747 14.6003 10.3847C15.9728 9.58966 17.5328 9.16966 19.1228 9.16966V9.16216Z" fill="url(#paint0_linear_6547_53382)"/>
<path d="M19.1228 25.2871C23.0578 25.2871 26.2478 22.0971 26.2478 18.1621C26.2478 14.2271 23.0578 11.0371 19.1228 11.0371C15.1878 11.0371 11.9978 14.2271 11.9978 18.1621C11.9978 22.0971 15.1878 25.2871 19.1228 25.2871Z" fill="#1A73E8"/>
<path d="M26.9228 22.6697L19.1303 36.1697C29.0678 36.1697 37.1303 28.1147 37.1303 18.1772C37.1303 15.0122 36.2978 11.9072 34.7153 9.16968H19.1303C24.0953 9.16968 28.1303 13.1822 28.1378 18.1472C28.1378 19.7372 27.7253 21.2972 26.9303 22.6697H26.9228Z" fill="url(#paint1_linear_6547_53382)"/>
<path d="M11.3303 22.6697L3.53778 9.16968C-1.43472 17.7797 1.51279 28.7822 10.1228 33.7547C12.8603 35.3372 15.9653 36.1697 19.1303 36.1697L26.9228 22.6697C24.4478 26.9672 18.9578 28.4522 14.6528 25.9772C13.2728 25.1897 12.1328 24.0422 11.3453 22.6697H11.3303Z" fill="url(#paint2_linear_6547_53382)"/>
</g>
<defs>
<linearGradient id="paint0_linear_6547_53382" x1="3.53778" y1="11.4122" x2="34.7153" y2="11.4122" gradientUnits="userSpaceOnUse">
<stop stop-color="#D93025"/>
<stop offset="1" stop-color="#EA4335"/>
</linearGradient>
<linearGradient id="paint1_linear_6547_53382" x1="16.6703" y1="35.9297" x2="32.2553" y2="8.92968" gradientUnits="userSpaceOnUse">
<stop stop-color="#FCC934"/>
<stop offset="1" stop-color="#FBBC04"/>
</linearGradient>
<linearGradient id="paint2_linear_6547_53382" x1="21.0728" y1="35.0447" x2="5.48779" y2="8.04468" gradientUnits="userSpaceOnUse">
<stop stop-color="#1E8E3E"/>
<stop offset="1" stop-color="#34A853"/>
</linearGradient>
<clipPath id="clip0_6547_53382">
<rect width="36.0075" height="36.0075" fill="white" transform="translate(1.12286 0.162109)"/>
</clipPath>
</defs>
</svg>
