<svg width="50" height="37" viewBox="0 0 50 37" fill="none" xmlns="http://www.w3.org/2000/svg">
<path d="M16.0693 15.4056H34.4229C36.4543 15.4058 38.0957 17.0199 38.0957 19.0052V32.5052C38.0957 34.4907 36.4543 36.1047 34.4229 36.1049H16.0693C14.0379 36.1047 12.3965 34.4906 12.3965 32.5052V19.0052C12.3965 17.0198 14.0379 15.4058 16.0693 15.4056Z" fill="#F93F0F" stroke="#22019D" stroke-width="0.3"/>
<path d="M25.2578 21.1504C26.7424 21.1562 27.9442 22.215 28.083 23.5498L28.0957 23.8203C28.0893 24.8196 27.4843 25.7373 26.5195 26.1895L26.418 26.2363L26.4346 26.3477L26.8975 29.3809V29.3818L26.9023 29.4424C26.9003 29.6334 26.7511 29.8037 26.541 29.8418L26.4473 29.8496H24.0459L23.9814 29.8457C23.7591 29.8161 23.6087 29.6478 23.5967 29.4619L23.6006 29.3818L24.0635 26.3486L24.0801 26.2373L23.9785 26.1904C23.0628 25.7661 22.4693 24.9218 22.4023 23.9863L22.3965 23.7979C22.4026 22.4299 23.5205 21.2947 24.9648 21.1631L25.2578 21.1504Z" fill="#FCFAF6" stroke="#22019D" stroke-width="0.3"/>
<path d="M23.0186 10.889C36.4013 7.49193 48.3518 9.07825 49.7106 14.4313C51.069 19.7843 41.3221 26.8779 27.9398 30.2749C14.5571 33.6719 2.60661 32.0856 1.24779 26.7325C-0.11073 21.3795 9.63605 14.286 23.0186 10.889ZM47.3065 14.3359C46.1823 9.90862 35.4348 8.81653 23.3005 11.8967C11.1662 14.9768 2.24023 21.0628 3.36364 25.4903C4.4875 29.9177 15.2362 31.0097 27.3707 27.9294C39.505 24.8492 48.4304 18.7633 47.3065 14.3359Z" fill="#FDD970"/>
<path d="M23.0186 10.889L22.9817 10.7436L23.0186 10.889ZM49.7106 14.4313L49.856 14.3944L49.856 14.3944L49.7106 14.4313ZM27.9398 30.2749L27.9767 30.4203L27.9767 30.4203L27.9398 30.2749ZM1.24779 26.7325L1.1024 26.7694L1.1024 26.7695L1.24779 26.7325ZM47.3065 14.3359L47.4519 14.299L47.4519 14.299L47.3065 14.3359ZM23.3005 11.8967L23.2636 11.7513L23.3005 11.8967ZM3.36364 25.4903L3.21824 25.5271L3.21825 25.5272L3.36364 25.4903ZM27.3707 27.9294L27.4076 28.0748L27.4076 28.0748L27.3707 27.9294ZM23.0186 10.889L23.0555 11.0344C29.7331 9.33934 36.0467 8.88955 40.8538 9.52755C43.2578 9.84661 45.2771 10.4367 46.7756 11.2728C48.2737 12.1087 49.2389 13.1828 49.5652 14.4682L49.7106 14.4313L49.856 14.3944C49.5029 13.0033 48.4648 11.8717 46.9218 11.0108C45.3791 10.1501 43.3196 9.55218 40.8933 9.23016C36.0397 8.58599 29.6868 9.04157 22.9817 10.7436L23.0186 10.889ZM49.7106 14.4313L49.5652 14.4682C49.8914 15.7536 49.5552 17.1581 48.6372 18.6072C47.7188 20.0567 46.2254 21.5384 44.2647 22.9653C40.3439 25.8187 34.5803 28.4345 27.9029 30.1295L27.9398 30.2749L27.9767 30.4203C34.6816 28.7183 40.4826 26.0888 44.4412 23.2079C46.4202 21.7677 47.9452 20.26 48.8906 18.7677C49.8362 17.2752 50.209 15.7855 49.856 14.3944L49.7106 14.4313ZM27.9398 30.2749L27.9029 30.1295C21.2254 31.8245 14.9117 32.2743 10.1046 31.6363C7.70061 31.3173 5.6813 30.7272 4.18282 29.8911C2.68473 29.0552 1.71947 27.9811 1.39318 26.6956L1.24779 26.7325L1.1024 26.7695C1.45553 28.1606 2.49364 29.2921 4.03665 30.1531C5.57928 31.0138 7.6388 31.6117 10.0651 31.9337C14.9187 32.5779 21.2716 32.1223 27.9767 30.4203L27.9398 30.2749ZM1.24779 26.7325L1.39318 26.6956C1.06697 25.4102 1.40309 24.0058 2.32115 22.5567C3.23944 21.1071 4.73282 19.6255 6.69355 18.1985C10.6143 15.3452 16.378 12.7294 23.0555 11.0344L23.0186 10.889L22.9817 10.7436C16.2766 12.4456 10.4757 15.0751 6.51703 17.956C4.53807 19.3962 3.01307 20.9039 2.06772 22.3961C1.12214 23.8887 0.749357 25.3783 1.1024 26.7694L1.24779 26.7325ZM47.3065 14.3359L47.4519 14.299C47.1561 13.134 46.2315 12.2073 44.8547 11.5197C43.4774 10.8318 41.6297 10.3735 39.4474 10.1518C35.0817 9.70817 29.3431 10.2081 23.2636 11.7513L23.3005 11.8967L23.3374 12.0421C29.3921 10.5052 35.0945 10.011 39.4171 10.4502C41.5791 10.6699 43.3875 11.1222 44.7207 11.7881C46.0544 12.4541 46.8948 13.3241 47.1611 14.3728L47.3065 14.3359ZM23.3005 11.8967L23.2636 11.7513C17.184 13.2945 11.9017 15.5921 8.27593 18.0643C6.46358 19.3 5.05812 20.5841 4.17554 21.8456C3.29331 23.1066 2.92265 24.3622 3.21824 25.5271L3.36364 25.4903L3.50903 25.4534C3.24292 24.4046 3.56674 23.2391 4.42136 22.0176C5.27564 20.7965 6.64943 19.5364 8.44493 18.3122C12.0349 15.8645 17.2827 13.579 23.3374 12.0421L23.3005 11.8967ZM3.36364 25.4903L3.21825 25.5272C3.51397 26.6921 4.43855 27.6189 5.81543 28.3066C7.19284 28.9944 9.04062 29.4527 11.223 29.6745C15.589 30.118 21.3279 29.6181 27.4076 28.0748L27.3707 27.9294L27.3338 27.784C21.2789 29.321 15.5762 29.8152 11.2533 29.376C9.09123 29.1563 7.28271 28.704 5.94947 28.0382C4.61568 27.3721 3.77524 26.5021 3.50903 25.4533L3.36364 25.4903ZM27.3707 27.9294L27.4076 28.0748C33.4872 26.5315 38.7693 24.2339 42.3949 21.7618C44.2072 20.5261 45.6125 19.242 46.495 17.9805C47.3771 16.7195 47.7476 15.4639 47.4519 14.299L47.3065 14.3359L47.1611 14.3728C47.4273 15.4215 47.1036 16.587 46.2491 17.8085C45.395 19.0296 44.0213 20.2897 42.2259 21.5139C38.6362 23.9616 33.3885 26.2471 27.3338 27.784L27.3707 27.9294Z" fill="#22019D"/>
<path d="M25.2461 0.150391C30.521 0.156601 34.8137 4.0696 35.083 8.97656L35.0957 9.45508V15.3496H30.7803V9.4541C30.78 6.55197 28.2946 4.21387 25.2461 4.21387C22.1976 4.21387 19.7121 6.55197 19.7119 9.4541V15.3496H15.3965V9.45508C15.4029 4.48677 19.5305 0.418133 24.7393 0.163086L25.2461 0.150391Z" fill="#F93F0F" stroke="#22019D" stroke-width="0.3"/>
</svg>
