<svg width="43" height="48" viewBox="0 0 43 48" fill="none" xmlns="http://www.w3.org/2000/svg">
<path d="M17.3507 8.24317C16.5982 8.13515 16.2057 7.95819 16.0155 7.83856C15.9452 7.79437 15.9777 7.71227 16.0607 7.71227L28.0172 7.71225C28.1152 7.71225 28.148 7.82736 28.0611 7.8727C27.7323 8.04431 27.1236 8.307 26.3102 8.42015C25.052 8.59517 18.5697 8.41815 17.3507 8.24317Z" fill="#F93F0F" stroke="#22019D" stroke-width="0.3"/>
<path d="M17.8672 11.1874V13.3359L1.00781 17.1435V7.37982L17.8672 11.1874Z" fill="#FDD970" stroke="#22019D" stroke-width="0.3"/>
<path d="M25.9902 11.1874V13.3359L42.8496 17.1435V7.37982L25.9902 11.1874Z" fill="#FDD970" stroke="#22019D" stroke-width="0.3"/>
<path d="M22.0967 1.10281C22.4731 1.10376 22.8186 1.20442 23.0977 1.37332L23.2129 1.45047C23.4528 1.62397 23.6277 1.84977 23.7188 2.10184H20.4756C20.6799 1.53869 21.3131 1.1054 22.0967 1.10281Z" fill="#FDD970" stroke="#22019D" stroke-width="0.3"/>
<path d="M26.9434 7.08255L27.915 18.482H16.2812L17.2529 7.08255H26.9434Z" fill="#F93F0F" stroke="#22019D" stroke-width="0.3"/>
<path d="M22.0693 40.3613C27.1238 40.3613 31.6957 40.7823 35 41.4619C36.6533 41.8019 37.9814 42.2053 38.8926 42.6484C39.3485 42.8701 39.6922 43.0983 39.9199 43.3271C40.147 43.5554 40.2489 43.7733 40.249 43.9804C40.249 44.1877 40.1472 44.4063 39.9199 44.6347C39.6922 44.8636 39.3484 45.0918 38.8926 45.3134C37.9814 45.7565 36.6533 46.1599 35 46.5C31.6957 47.1796 27.1238 47.6006 22.0693 47.6006C17.0149 47.6005 12.443 47.1796 9.13867 46.5C7.48537 46.1599 6.15724 45.7565 5.24609 45.3134C4.7902 45.0918 4.44645 44.8636 4.21875 44.6347C3.99153 44.4063 3.89062 44.1877 3.89062 43.9804C3.89073 43.7734 3.99177 43.5553 4.21875 43.3271C4.44643 43.0983 4.79027 42.8701 5.24609 42.6484C6.15722 42.2054 7.4854 41.8019 9.13867 41.4619C12.443 40.7823 17.0149 40.3613 22.0693 40.3613Z" fill="#FDD970" stroke="#22019D" stroke-width="0.3"/>
<path d="M22.0693 39.3214C27.1236 39.3214 31.6951 39.7571 34.999 40.46C36.652 40.8117 37.9797 41.2284 38.8906 41.6866C39.3462 41.9158 39.6901 42.1518 39.918 42.3887C40.1451 42.6249 40.2489 42.8524 40.249 43.0704C40.249 43.2884 40.1453 43.5166 39.918 43.753C39.6901 43.9899 39.3462 44.226 38.8906 44.4551C37.9797 44.9133 36.652 45.33 34.999 45.6817C31.6951 46.3847 27.1236 46.8204 22.0693 46.8204C17.0152 46.8204 12.4435 46.3847 9.13965 45.6817C7.48668 45.33 6.15888 44.9133 5.24805 44.4551C4.79241 44.2259 4.44862 43.9899 4.2207 43.753C3.99338 43.5166 3.89062 43.2884 3.89062 43.0704C3.89076 42.8524 3.99353 42.6249 4.2207 42.3887C4.44862 42.1518 4.79238 41.9158 5.24805 41.6866C6.15888 41.2284 7.48666 40.8117 9.13965 40.46C12.4435 39.7571 17.0152 39.3214 22.0693 39.3214Z" fill="#FDD970" stroke="#22019D" stroke-width="0.3"/>
<path d="M22.0967 1.88284C23.2951 1.88655 24.3951 2.29779 25.2666 2.98441L25.4385 3.12503C26.289 3.85688 26.8933 4.8617 27.1172 6.00198H17.0771C17.5371 3.66089 19.6069 1.8917 22.0967 1.88284Z" fill="#F93F0F" stroke="#22019D" stroke-width="0.3"/>
<path d="M28.084 18.2623L29.2197 43.358C29.2143 43.3589 29.2089 43.3609 29.2031 43.3619C29.1072 43.3789 28.9652 43.4039 28.7822 43.4332C28.4163 43.4918 27.8862 43.5698 27.2305 43.648C25.9184 43.8045 24.1041 43.9605 22.0967 43.9605C20.0894 43.9605 18.2758 43.8045 16.9639 43.648C16.3082 43.5698 15.778 43.4918 15.4121 43.4332C15.2292 43.4039 15.0872 43.3789 14.9912 43.3619C14.9848 43.3607 14.9787 43.359 14.9727 43.358L16.1104 18.2623H28.084Z" fill="#F93F0F" stroke="#22019D" stroke-width="0.3"/>
<path d="M21.9678 39.1091C22.4284 39.1091 22.853 39.2951 23.1875 39.611L23.3252 39.7546C23.677 40.157 23.8975 40.7165 23.8975 41.3376V43.9411C23.8418 43.9512 23.7602 43.9657 23.6436 43.9782C23.3477 44.01 22.833 44.0427 21.9678 44.0427L21.3828 44.0368C20.8592 44.0262 20.5139 44.002 20.292 43.9782C20.1754 43.9657 20.0938 43.9512 20.0381 43.9411V41.3376L20.0479 41.1061C20.1487 39.9683 20.9855 39.1091 21.9678 39.1091Z" fill="#FCFAF6" stroke="#22019D" stroke-width="0.3"/>
<path d="M15.4854 24.1641H28.71C28.8462 24.1643 28.9659 24.2473 29.0156 24.3702L29.0322 24.4249C29.0763 24.6305 28.9202 24.824 28.71 24.8243H15.4854C15.3012 24.8243 15.1576 24.676 15.1543 24.501L15.1621 24.4249C15.1948 24.2726 15.3296 24.1641 15.4854 24.1641Z" fill="#FDD970" stroke="#22019D" stroke-width="0.3"/>
<path d="M15.8652 35.6948H29.0898C29.2261 35.6949 29.3458 35.778 29.3955 35.9008L29.4121 35.9555C29.4562 36.1611 29.3 36.3547 29.0898 36.3549H15.8652C15.6811 36.3549 15.5375 36.2067 15.5342 36.0317L15.542 35.9555C15.5747 35.8032 15.7095 35.6948 15.8652 35.6948Z" fill="#FDD970" stroke="#22019D" stroke-width="0.3"/>
<rect x="20.1676" y="27.0464" width="3.85983" height="6.19974" rx="1.92992" fill="#FCFAF6" stroke="#22019D" stroke-width="0.3"/>
<rect x="15.2281" y="20.3418" width="13.7394" height="1.77992" rx="0.85" fill="#F93F0F" stroke="#22019D" stroke-width="0.3"/>
<rect x="15.7477" y="5.78229" width="12.6995" height="2.03991" rx="0.85" fill="#F93F0F" stroke="#22019D" stroke-width="0.3"/>
<circle cx="21.9969" cy="11.5222" r="2.73267" fill="#FCFAF6" stroke="#22019D" stroke-width="0.3"/>
<path d="M19.5298 15.7718H16.0781C15.5258 15.7718 15.0781 16.2195 15.0781 16.7718V18.3717H19.5298M19.5298 15.7718V18.3717M19.5298 15.7718H24.656M19.5298 18.3717H24.656M24.656 15.7718H28.3775C28.9298 15.7718 29.3775 16.2195 29.3775 16.7718V18.3717H24.656M24.656 15.7718V18.3717" stroke="#22019D" stroke-width="0.3"/>
<rect x="14.4479" y="18.2619" width="15.2994" height="2.03991" rx="0.85" fill="#F93F0F" stroke="#22019D" stroke-width="0.3"/>
</svg>
