<svg width="52" height="52" viewBox="0 0 52 52" fill="none" xmlns="http://www.w3.org/2000/svg">
<path d="M32.5342 25.6597L32.5 25.7134L32.5342 25.7671L43.6758 43.3892L26.0537 32.2476L26 32.2134L25.9463 32.2476L8.32324 43.3892L19.4658 25.7671L19.5 25.7134L19.4658 25.6597L8.32324 8.03662L25.9463 19.1792L26 19.2134L26.0537 19.1792L43.6758 8.03662L32.5342 25.6597Z" fill="#FDD970" stroke="#0007A0" stroke-width="0.2"/>
<path d="M43.2783 42.9922L8.72116 8.43502" stroke="#0007A0" stroke-width="0.2"/>
<path d="M8.7207 42.9922L43.2779 8.43502" stroke="#0007A0" stroke-width="0.2"/>
<circle cx="26.032" cy="25.7461" r="17.5784" fill="#FDD970" stroke="#0007A0" stroke-width="0.2"/>
<mask id="path-5-inside-1_8244_116" fill="white">
<path d="M43.3569 25.6784C43.3569 35.442 35.442 43.3569 25.6784 43.3569C15.9149 43.3569 8 35.442 8 25.6784C8 15.9149 15.9149 8 25.6784 8C35.442 8 43.3569 15.9149 43.3569 25.6784ZM9.76784 25.6784C9.76784 34.4656 16.8913 41.589 25.6784 41.589C34.4656 41.589 41.589 34.4656 41.589 25.6784C41.589 16.8913 34.4656 9.76784 25.6784 9.76784C16.8913 9.76784 9.76784 16.8913 9.76784 25.6784Z"/>
</mask>
<path d="M43.3569 25.6784C43.3569 35.442 35.442 43.3569 25.6784 43.3569C15.9149 43.3569 8 35.442 8 25.6784C8 15.9149 15.9149 8 25.6784 8C35.442 8 43.3569 15.9149 43.3569 25.6784ZM9.76784 25.6784C9.76784 34.4656 16.8913 41.589 25.6784 41.589C34.4656 41.589 41.589 34.4656 41.589 25.6784C41.589 16.8913 34.4656 9.76784 25.6784 9.76784C16.8913 9.76784 9.76784 16.8913 9.76784 25.6784Z" fill="#FD3806" stroke="#0007A0" stroke-width="0.4" mask="url(#path-5-inside-1_8244_116)"/>
<path d="M30.582 21.0557L30.5957 21.1172L30.6582 21.1309L51 25.7129L30.6582 30.2959L30.5957 30.3096L30.582 30.3721L25.999 50.7139L21.417 30.3721L21.4033 30.3096L21.3418 30.2959L0.999023 25.7129L21.3418 21.1309L21.4033 21.1172L21.417 21.0557L25.999 0.712891L30.582 21.0557Z" fill="#FD3806" stroke="#0007A0" stroke-width="0.2"/>
<path d="M26 1.27808V50.1493" stroke="#0007A0" stroke-width="0.2"/>
<path d="M50.4355 25.7136L1.56433 25.7136" stroke="#0007A0" stroke-width="0.2"/>
<path d="M30.5596 21.1538L21.5058 30.2076" stroke="#0007A0" stroke-width="0.2"/>
<path d="M30.5771 30.3569L21.3564 21.1362" stroke="#0007A0" stroke-width="0.2"/>
<path d="M27.1826 24.4546L27.1973 24.5171L27.2588 24.5308L32.5088 25.7134L27.2588 26.896L27.1973 26.9106L27.1826 26.9722L26 32.2222L24.8174 26.9722L24.8037 26.9106L24.7412 26.896L19.4902 25.7134L24.7412 24.5308L24.8037 24.5171L24.8174 24.4546L26 19.2036L27.1826 24.4546Z" fill="#FCFAF6" stroke="#0007A0" stroke-width="0.2"/>
</svg>
