<svg width="31" height="43" viewBox="0 0 31 43" fill="none" xmlns="http://www.w3.org/2000/svg">
<rect x="3.28906" y="17" width="23" height="24" fill="#FCFAF6"/>
<path d="M13.083 2.07629C12.9792 5.08693 4.60481 10.9438 0.884766 13.496H29.8232C25.4111 10.9006 16.8464 5.06098 16.7166 2.07629H13.083Z" fill="#F93F0F" stroke="#22019D" stroke-width="0.3"/>
<path d="M14.8994 0.150391C15.8915 0.150391 16.6962 0.954204 16.6963 1.94629V2.23926H13.1035V1.94629L13.1123 1.7627C13.2044 0.85693 13.9694 0.150516 14.8994 0.150391Z" fill="#F93F0F" stroke="#22019D" stroke-width="0.3"/>
<path d="M14.957 14.4838C15.5963 14.4838 16.0977 14.9667 16.0977 15.5424V24.5942H13.8174V15.5424C13.8174 14.9669 14.318 14.4841 14.957 14.4838Z" fill="#FAD752" stroke="#22019D" stroke-width="0.3"/>
<path d="M15.1006 23.7473C17.4556 23.7475 19.3701 25.6495 19.3701 27.9846V29.8791L19.377 30.2336C19.441 31.8836 19.9512 33.4645 20.8652 34.844L21.0674 35.136L21.1172 35.2053H9.08301L9.13281 35.136C10.2429 33.5932 10.83 31.7752 10.8301 29.8791V27.9846C10.8301 25.7222 12.6272 23.8658 14.8809 23.7522L15.1006 23.7473Z" fill="#FAD752" stroke="#22019D" stroke-width="0.3"/>
<path d="M17.8115 35.5049C17.7331 36.9335 16.5493 38.0721 15.1016 38.0723C13.6536 38.0723 12.47 36.9336 12.3916 35.5049H17.8115Z" fill="#FAD752" stroke="#22019D" stroke-width="0.3"/>
<rect x="7.79453" y="33.9524" width="14.8993" height="1.70745" rx="0.853726" fill="#FAD752" stroke="#22019D" stroke-width="0.3"/>
<mask id="path-8-inside-1_8244_174" fill="white">
<path d="M28.5254 40.6116H25.1514V28.9377C25.1513 23.4193 20.6777 18.9456 15.1592 18.9456C9.64074 18.9456 5.16709 23.4193 5.16699 28.9377V40.6116H2.05273V15.8313H28.5254V40.6116Z"/>
</mask>
<path d="M28.5254 40.6116H25.1514V28.9377C25.1513 23.4193 20.6777 18.9456 15.1592 18.9456C9.64074 18.9456 5.16709 23.4193 5.16699 28.9377V40.6116H2.05273V15.8313H28.5254V40.6116Z" fill="#F93F0F"/>
<path d="M28.5254 40.6116V40.9116H28.8254V40.6116H28.5254ZM25.1514 40.6116H24.8514V40.9116H25.1514V40.6116ZM25.1514 28.9377H25.4514V28.9377L25.1514 28.9377ZM15.1592 18.9456V18.6456H15.1592L15.1592 18.9456ZM5.16699 28.9377L4.86699 28.9377V28.9377H5.16699ZM5.16699 40.6116V40.9116H5.46699V40.6116H5.16699ZM2.05273 40.6116H1.75273V40.9116H2.05273V40.6116ZM2.05273 15.8313V15.5313H1.75273V15.8313H2.05273ZM28.5254 15.8313H28.8254V15.5313H28.5254V15.8313ZM28.5254 40.6116V40.3116H25.1514V40.6116V40.9116H28.5254V40.6116ZM25.1514 40.6116H25.4514V28.9377H25.1514H24.8514V40.6116H25.1514ZM25.1514 28.9377L25.4514 28.9377C25.4513 23.2536 20.8434 18.6456 15.1592 18.6456V18.9456V19.2456C20.512 19.2456 24.8513 23.585 24.8514 28.9377L25.1514 28.9377ZM15.1592 18.9456L15.1592 18.6456C9.47505 18.6456 4.86709 23.2536 4.86699 28.9377L5.16699 28.9377L5.46699 28.9377C5.46709 23.585 9.80643 19.2456 15.1592 19.2456L15.1592 18.9456ZM5.16699 28.9377H4.86699V40.6116H5.16699H5.46699V28.9377H5.16699ZM5.16699 40.6116V40.3116H2.05273V40.6116V40.9116H5.16699V40.6116ZM2.05273 40.6116H2.35273V15.8313H2.05273H1.75273V40.6116H2.05273ZM2.05273 15.8313V16.1313H28.5254V15.8313V15.5313H2.05273V15.8313ZM28.5254 15.8313H28.2254V40.6116H28.5254H28.8254V15.8313H28.5254Z" fill="#22019D" mask="url(#path-8-inside-1_8244_174)"/>
<rect x="0.15" y="13.5278" width="30.2778" height="2.56667" fill="#F93F0F" stroke="#22019D" stroke-width="0.3"/>
<rect x="0.15" y="40.2833" width="30.2778" height="2.56667" fill="#F93F0F" stroke="#22019D" stroke-width="0.3"/>
</svg>
