<svg width="108" height="75" viewBox="0 0 108 75" fill="none" xmlns="http://www.w3.org/2000/svg">
<path d="M49.3047 0.897461C61.4052 1.18918 71.2756 10.4701 72.5 22.3174C73.383 22.1632 74.2911 22.082 75.2178 22.082C82.6999 22.082 88.9577 27.3107 90.5439 34.3125C99.7171 34.8077 107.003 42.4027 107.003 51.6992L106.99 52.3574C106.74 59.0905 102.665 64.8426 96.8779 67.5137C94.1653 70.8431 90.0783 73.0109 85.4795 73.1445L85.0283 73.1514C81.2209 73.1514 77.7378 71.7576 75.0625 69.4541C71.7622 72.0957 67.5756 73.6777 63.0195 73.6777C57.5098 73.6777 52.5397 71.3668 49.0254 67.6631C46.067 70.6849 41.9429 72.5635 37.3789 72.5635C31.7899 72.5634 26.8579 69.7504 23.9219 65.4648C21.5619 66.9602 18.7645 67.8281 15.7646 67.8281C7.33421 67.8281 0.5 60.9939 0.5 52.5635L0.512695 51.9414C0.764581 45.6595 4.8135 40.3588 10.4248 38.2627C11.231 30.9355 17.3234 25.2008 24.8057 24.9561C24.8054 24.9052 24.8047 24.8544 24.8047 24.8037L24.8125 24.1865C25.1401 11.2651 35.7174 0.890625 48.7178 0.890625L49.3047 0.897461Z" fill="white" stroke="#8C87DF"/>
<path d="M10.3975 38.8066C13.7631 43.357 18.6155 48.8122 23.6855 49.7676C22.2491 52.6882 23.7155 66.8573 39.9189 67.7354C47.2554 67.7353 47.4602 64.4555 46.835 56.792C50.7731 60.7833 60.6131 68.5739 68.4678 67.8076C76.3223 67.0412 80.6271 62.6985 81.7979 60.623C84.299 61.847 90.4672 64.2797 95.1289 64.2158C97.0593 64.1894 99.3573 63.9411 101.588 63.6143C100.148 65.0639 98.4489 66.2559 96.5635 67.1104C93.8547 70.4877 89.6946 72.6512 85.0283 72.6514C81.1952 72.6514 77.7026 71.1919 75.0762 68.7988C71.8132 71.5317 67.6088 73.1777 63.0195 73.1777C57.4636 73.1777 52.4711 70.7661 49.0312 66.9326C46.1425 70.0855 41.9921 72.0635 37.3789 72.0635C31.7865 72.0634 26.8727 69.1581 24.0645 64.7744C21.6991 66.3853 18.8423 67.3281 15.7646 67.3281C7.61035 67.3281 1 60.7178 1 52.5635C1.00001 51.7822 1.0608 51.0151 1.17773 50.2666C4.41623 57.5976 12.2027 65.6269 22.8076 62.9385C21.7221 59.618 21.983 55.2225 22.249 53.4395C18.9818 51.6513 12.7087 46.2773 8.80566 39.5391C9.31874 39.2644 9.85041 39.0202 10.3975 38.8066Z" fill="#C5C1EF"/>
<path d="M25.6582 20.7305C28.4555 27.5474 34.4624 35.8229 45.7656 39.6055C46.2686 41.806 45.9753 42.3049 45.7656 42.2793C43.197 40.9688 37.3676 38.9924 34.5996 41.5713C32.126 38.9628 28.2447 31.6168 25.2549 25.4473H25.3125C25.3067 25.2336 25.3047 25.0188 25.3047 24.8037C25.3047 23.4144 25.4261 22.0533 25.6582 20.7305Z" fill="#C5C1EF"/>
</svg>
