<svg width="81" height="62" viewBox="0 0 81 62" fill="none" xmlns="http://www.w3.org/2000/svg">
<path d="M38.6309 0.942383C47.547 0.942383 55.1588 6.51152 58.1865 14.3584C59.4396 13.9878 60.7658 13.7881 62.1377 13.7881L62.4971 13.793C70.0132 13.9836 76.0477 20.1362 76.0479 27.6982C76.0479 27.9899 76.0354 28.279 76.0176 28.5654C78.3851 30.6611 79.8808 33.7226 79.8809 37.1348C79.8809 40.0053 78.8196 42.6265 77.0742 44.6348C75.0914 50.0734 70.0273 54.0282 63.9902 54.3848C61.9242 55.5977 59.5409 56.3291 56.9941 56.417L56.4736 56.4258C54.9188 56.4258 53.4196 56.1834 52.0098 55.7402C49.3477 58.7927 45.4709 60.7615 41.1309 60.8848L40.6973 60.8906C34.7511 60.8906 29.615 57.4316 27.1855 52.4189C24.6429 54.1143 21.623 55.1511 18.3701 55.2812L17.6729 55.2949C8.18912 55.2949 0.5 47.6068 0.5 38.123L0.505859 37.6797C0.741178 28.4009 8.33743 20.9512 17.6729 20.9512H17.6943C18.1901 9.81703 27.3746 0.942383 38.6309 0.942383Z" fill="white" stroke="#8C87DF"/>
<path d="M1.49219 34.0879C3.40469 42.5291 9.94885 51.6923 26.7734 49.5264C25.8388 47.9908 26.384 43.6411 26.7734 41.6582C25.5592 40.7794 22.9373 38.5386 22.1641 36.6055C23.5699 37.7653 26.4112 38.7285 27.6562 39.0654C26.4553 43.957 28.7198 55.4366 41.7158 56.5527C50.688 57.046 53.4475 52.8764 54.4141 50.1816C53.2278 50.8553 49.8439 52.2031 45.8018 52.2031C40.749 52.2029 30.4681 48.4234 31.7422 38.2744C33.8072 42.4923 39.0761 48.8711 50.6885 48.1006C55.5533 47.7777 58.914 45.668 59.9434 44.377C60.004 44.2917 60.0645 44.2053 60.125 44.1182C60.076 44.1998 60.0155 44.2864 59.9434 44.377C58.8163 45.9627 57.7395 47.2177 59.5117 47.5654C61.2063 47.8978 65.222 47.8869 67.1221 47.0664C65.9285 47.9537 65.1852 49.6022 67.4395 49.75C69.1491 49.862 71.7605 49.2554 74.2832 48.5654C71.7936 51.6472 68.0582 53.6804 63.8408 53.8945C61.6863 55.1836 59.1669 55.9257 56.4736 55.9258C54.8546 55.9258 53.2978 55.6576 51.8457 55.1641C49.1845 58.357 45.1788 60.3906 40.6973 60.3906C34.7422 60.3906 29.626 56.8019 27.3906 51.6699C24.6546 53.6362 21.2993 54.7948 17.6729 54.7949C8.46523 54.7949 1 47.3307 1 38.123C1.00002 36.7316 1.17094 35.38 1.49219 34.0879Z" fill="#C5C1EF"/>
</svg>
