<svg width="83" height="83" viewBox="0 0 83 83" fill="none" xmlns="http://www.w3.org/2000/svg">
<circle cx="41.5092" cy="41.5328" r="40.025" fill="white" stroke="#0B0F5A" stroke-width="2"/>
<path d="M39.0668 18.0948L41.6075 16.7715L44.1482 18.0948L43.6718 15.2365L45.7361 13.2251L42.8779 12.8016L41.6075 10.208L40.3372 12.8016L37.4789 13.2251L39.5432 15.2365L39.0668 18.0948ZM55.2108 13.8603L53.9405 16.4539L51.0822 16.8773L53.1465 18.8887L52.6701 21.747L55.2108 20.4237L57.7515 21.747L57.2751 18.8887L59.3395 16.8773L56.4812 16.4539L55.2108 13.8603ZM62.6212 31.6981L65.1619 30.3748L67.7026 31.6981L67.2262 28.8398L69.2905 26.8284L66.4322 26.4049L65.1619 23.8113L63.8915 26.4049L61.0332 26.8284L63.0976 28.8398L62.6212 31.6981ZM14.4538 43.9781L16.9945 45.3014L16.5181 42.4431L18.5825 40.4317L15.7242 40.0083L14.4538 37.4146L13.1835 40.0083L10.3252 40.4317L12.3895 42.4431L11.9131 45.3014L14.4538 43.9781ZM15.5124 31.6981L18.0531 30.3748L20.5938 31.6981L20.1175 28.8398L22.1818 26.8284L19.3764 26.4049L18.1061 23.8113L16.8357 26.4049L13.9774 26.8284L16.0418 28.8398L15.5124 31.6981ZM25.4635 21.747L28.0042 20.4237L30.5449 21.747L30.0685 18.8887L32.1328 16.8773L29.2745 16.4539L28.0042 13.8603L26.7339 16.4539L23.8756 16.8773L25.9399 18.8887L25.4635 21.747ZM72.9428 40.4317L70.0845 40.0083L68.8141 37.4146L67.5438 40.0083L64.6855 40.4317L66.7498 42.4431L66.2734 45.3014L68.8141 43.9781L71.3548 45.3014L70.8784 42.4431L72.9428 40.4317ZM66.4322 53.6116L65.1619 51.0179L63.8915 53.6116L61.0332 54.035L63.0976 56.0464L62.6212 58.9047L65.1619 57.5814L67.7026 58.9047L67.2262 56.0464L69.2905 54.035L66.4322 53.6116ZM56.4812 63.5626L55.2108 60.969L53.9405 63.5626L51.0822 63.9861L53.1465 65.9975L52.6701 68.8557L55.2108 67.5325L57.7515 68.8557L57.2751 65.9975L59.3395 63.9861L56.4812 63.5626ZM29.3275 63.5626L28.0571 60.969L26.7868 63.5626L23.9285 63.9861L25.9928 65.9975L25.5164 68.8557L28.0571 67.5325L30.5978 68.8557L30.1215 65.9975L32.1858 63.9861L29.3275 63.5626ZM19.3764 53.6116L18.1061 51.0179L16.8357 53.6116L13.9774 54.035L16.0418 56.0464L15.5654 58.9047L18.1061 57.5814L20.6468 58.9047L20.1704 56.0464L22.2347 54.035L19.3764 53.6116ZM42.9308 67.2149L41.6604 64.6213L40.3901 67.2149L37.5318 67.6383L39.5961 69.6497L39.1198 72.508L41.6604 71.1847L44.2011 72.508L43.7248 69.6497L45.7891 67.6383L42.9308 67.2149Z" fill="#0B0F5A"/>
<path d="M30.8928 40.2952C30.8166 40.0481 30.7113 39.827 30.5771 39.6318C30.446 39.4335 30.2873 39.2642 30.1013 39.1239C29.9183 38.9836 29.7078 38.8784 29.4699 38.8082C29.2319 38.735 28.9727 38.6984 28.692 38.6984C28.1888 38.6984 27.7404 38.825 27.3469 39.0782C26.9534 39.3313 26.6438 39.7035 26.4181 40.1946C26.1954 40.6826 26.0841 41.2774 26.0841 41.979C26.0841 42.6866 26.1954 43.286 26.4181 43.7771C26.6407 44.2682 26.9503 44.6419 27.3469 44.8981C27.7434 45.1513 28.204 45.2778 28.7287 45.2778C29.2045 45.2778 29.6163 45.1863 29.964 45.0033C30.3148 44.8203 30.5847 44.561 30.7739 44.2255C30.963 43.8869 31.0575 43.4904 31.0575 43.0359L31.4419 43.0954H28.8979V41.7685H32.7001V42.894C32.7001 43.6963 32.5293 44.3902 32.1877 44.9759C31.846 45.5615 31.3763 46.013 30.7784 46.3302C30.1806 46.6444 29.4943 46.8015 28.7195 46.8015C27.8563 46.8015 27.0983 46.6078 26.4455 46.2204C25.7958 45.8299 25.2879 45.2763 24.9219 44.5595C24.5589 43.8396 24.3774 42.9856 24.3774 41.9973C24.3774 41.2408 24.4842 40.5652 24.6977 39.9704C24.9143 39.3756 25.2163 38.8707 25.6036 38.4559C25.991 38.038 26.4455 37.7208 26.9671 37.5042C27.4887 37.2846 28.0561 37.1748 28.6692 37.1748C29.1877 37.1748 29.6712 37.251 30.1196 37.4036C30.568 37.553 30.966 37.7665 31.3138 38.0441C31.6645 38.3217 31.9528 38.6511 32.1785 39.0324C32.4042 39.4137 32.5522 39.8346 32.6223 40.2952H30.8928ZM37.5169 46.6733H34.3415V37.3029H37.5809C38.5113 37.3029 39.3104 37.4905 39.9784 37.8657C40.6495 38.2378 41.165 38.7731 41.5249 39.4716C41.8849 40.1702 42.0648 41.0059 42.0648 41.979C42.0648 42.9551 41.8833 43.7939 41.5204 44.4954C41.1604 45.197 40.6404 45.7354 39.9601 46.1106C39.283 46.4857 38.4686 46.6733 37.5169 46.6733ZM36.039 45.2046H37.4345C38.0873 45.2046 38.6317 45.0857 39.0679 44.8478C39.5041 44.6068 39.832 44.2484 40.0517 43.7725C40.2713 43.2936 40.3811 42.6958 40.3811 41.979C40.3811 41.2622 40.2713 40.6673 40.0517 40.1946C39.832 39.7187 39.5072 39.3634 39.0771 39.1285C38.6501 38.8906 38.1193 38.7716 37.4848 38.7716H36.039V45.2046ZM43.6777 46.6733V37.3029H47.1916C47.9114 37.3029 48.5154 37.4371 49.0034 37.7055C49.4945 37.974 49.8651 38.343 50.1153 38.8128C50.3684 39.2795 50.495 39.8102 50.495 40.405C50.495 41.0059 50.3684 41.5397 50.1153 42.0064C49.8621 42.4731 49.4884 42.8407 48.9943 43.1091C48.5002 43.3745 47.8916 43.5072 47.1687 43.5072H44.8398V42.1117H46.9399C47.3609 42.1117 47.7056 42.0384 47.974 41.892C48.2424 41.7456 48.4407 41.5443 48.5688 41.2881C48.6999 41.0319 48.7655 40.7375 48.7655 40.405C48.7655 40.0725 48.6999 39.7797 48.5688 39.5265C48.4407 39.2734 48.2409 39.0766 47.9694 38.9363C47.701 38.793 47.3548 38.7213 46.9308 38.7213H45.3751V46.6733H43.6777ZM51.9695 46.6733V37.3029H55.4834C56.2032 37.3029 56.8072 37.428 57.2952 37.6781C57.7863 37.9282 58.1569 38.279 58.4071 38.7304C58.6602 39.1788 58.7868 39.7019 58.7868 40.2998C58.7868 40.9007 58.6587 41.4223 58.4025 41.8646C58.1493 42.3038 57.7757 42.6439 57.2815 42.8849C56.7874 43.1228 56.1804 43.2418 55.4605 43.2418H52.9577V41.8326H55.2317C55.6527 41.8326 55.9973 41.7746 56.2658 41.6587C56.5342 41.5397 56.7325 41.3674 56.8606 41.1417C56.9917 40.9129 57.0573 40.6323 57.0573 40.2998C57.0573 39.9673 56.9917 39.6836 56.8606 39.4488C56.7294 39.2108 56.5296 39.0309 56.2612 38.9089C55.9928 38.7838 55.6466 38.7213 55.2226 38.7213H53.6669V46.6733H51.9695ZM56.8102 42.4274L59.13 46.6733H57.2358L54.9572 42.4274H56.8102Z" fill="#0B0F5A"/>
</svg>
