<svg width="48" height="48" viewBox="0 0 48 48" fill="none" xmlns="http://www.w3.org/2000/svg">
<path d="M43.0608 35.5256C42.4284 35.8542 41.7763 36.1433 41.1083 36.3913C38.9928 37.1787 36.7527 37.5781 34.4955 37.5702C25.7828 37.5702 18.1938 31.5837 18.1938 23.8841C18.2051 22.8531 18.4909 21.8438 19.0219 20.9599C19.5529 20.0761 20.3097 19.3497 21.2147 18.8555C13.3309 19.187 11.3047 27.4024 11.3047 32.21C11.3047 45.8408 23.8487 47.2039 26.5565 47.2039C28.0116 47.2039 30.2036 46.7802 31.5299 46.3565L31.7693 46.2829C36.8448 44.5289 41.1715 41.0986 44.037 36.5571C44.1203 36.4191 44.1561 36.2576 44.1388 36.0974C44.1215 35.9371 44.0521 35.787 43.9414 35.6699C43.8306 35.5529 43.6845 35.4753 43.5254 35.4493C43.3663 35.4232 43.2031 35.45 43.0608 35.5256Z" fill="url(#paint0_linear_9246_5601)"/>
<path opacity="0.35" d="M43.0608 35.5256C42.4284 35.8542 41.7763 36.1433 41.1083 36.3913C38.9928 37.1787 36.7527 37.5781 34.4955 37.5702C25.7828 37.5702 18.1938 31.5837 18.1938 23.8841C18.2051 22.8531 18.4909 21.8438 19.0219 20.9599C19.5529 20.0761 20.3097 19.3497 21.2147 18.8555C13.3309 19.187 11.3047 27.4024 11.3047 32.21C11.3047 45.8408 23.8487 47.2039 26.5565 47.2039C28.0116 47.2039 30.2036 46.7802 31.5299 46.3565L31.7693 46.2829C36.8448 44.5289 41.1715 41.0986 44.037 36.5571C44.1203 36.4191 44.1561 36.2576 44.1388 36.0974C44.1215 35.9371 44.0521 35.787 43.9414 35.6699C43.8306 35.5529 43.6845 35.4753 43.5254 35.4493C43.3663 35.4232 43.2031 35.45 43.0608 35.5256Z" fill="url(#paint1_radial_9246_5601)"/>
<path d="M19.9623 44.8829C18.3227 43.8645 16.9014 42.5309 15.7809 40.9594C14.5014 39.208 13.6206 37.1978 13.2004 35.0699C12.7802 32.9419 12.8308 30.7478 13.3486 28.6415C13.8664 26.5352 14.8389 24.5677 16.1978 22.8772C17.5567 21.1866 19.2691 19.8139 21.2148 18.8554C21.8043 18.5791 22.7805 18.1002 24.0884 18.1186C25.0086 18.1257 25.9148 18.3456 26.736 18.761C27.5572 19.1764 28.2713 19.7761 28.8223 20.5132C29.5634 21.5099 29.9697 22.7158 29.9828 23.9577C29.9828 23.9209 34.4957 9.29541 15.2467 9.29541C7.16037 9.29541 0.510744 16.9581 0.510744 23.6999C0.47858 27.2611 1.23995 30.7848 2.73956 34.0151C5.19545 39.2446 9.48596 43.3903 14.7966 45.6653C20.1073 47.9404 26.0684 48.1863 31.5485 46.3565C29.6286 46.9628 27.5999 47.1451 25.6027 46.8907C23.6054 46.6362 21.6873 45.9512 19.9807 44.8829H19.9623Z" fill="url(#paint2_linear_9246_5601)"/>
<path opacity="0.41" d="M19.9623 44.8829C18.3227 43.8645 16.9014 42.5309 15.7809 40.9594C14.5014 39.208 13.6206 37.1978 13.2004 35.0699C12.7802 32.9419 12.8308 30.7478 13.3486 28.6415C13.8664 26.5352 14.8389 24.5677 16.1978 22.8772C17.5567 21.1866 19.2691 19.8139 21.2148 18.8554C21.8043 18.5791 22.7805 18.1002 24.0884 18.1186C25.0086 18.1257 25.9148 18.3456 26.736 18.761C27.5572 19.1764 28.2713 19.7761 28.8223 20.5132C29.5634 21.5099 29.9697 22.7158 29.9828 23.9577C29.9828 23.9209 34.4957 9.29541 15.2467 9.29541C7.16037 9.29541 0.510744 16.9581 0.510744 23.6999C0.47858 27.2611 1.23995 30.7848 2.73956 34.0151C5.19545 39.2446 9.48596 43.3903 14.7966 45.6653C20.1073 47.9404 26.0684 48.1863 31.5485 46.3565C29.6286 46.9628 27.5999 47.1451 25.6027 46.8907C23.6054 46.6362 21.6873 45.9512 19.9807 44.8829H19.9623Z" fill="url(#paint3_radial_9246_5601)"/>
<path d="M28.5643 27.8443C28.3985 28.0285 27.938 28.3048 27.938 28.8758C27.938 29.3547 28.2511 29.8336 28.8222 30.2205C31.4562 32.0625 36.448 31.8046 36.4665 31.8046C38.4301 31.8033 40.3575 31.2753 42.0477 30.2757C43.7494 29.2804 45.1613 27.8576 46.1435 26.1484C47.1258 24.4392 47.6442 22.5029 47.6474 20.5315C47.7027 16.4054 46.1738 13.6609 45.5659 12.4451C41.6425 4.81926 33.2245 0.435303 24.0698 0.435303C17.8737 0.43469 11.9263 2.87319 7.51405 7.22339C3.1018 11.5736 0.579321 17.4858 0.492188 23.6814C0.584288 16.958 7.27075 11.5241 15.2282 11.5241C15.8729 11.5241 19.5569 11.5794 22.9646 13.3661C25.3587 14.5558 27.3412 16.4357 28.6564 18.7632C29.78 20.7157 29.9826 23.2024 29.9826 24.1971C29.9826 25.1918 29.4853 26.647 28.5459 27.8627L28.5643 27.8443Z" fill="url(#paint4_radial_9246_5601)"/>
<path d="M28.5643 27.8443C28.3985 28.0285 27.938 28.3048 27.938 28.8758C27.938 29.3547 28.2511 29.8336 28.8222 30.2205C31.4562 32.0625 36.448 31.8046 36.4665 31.8046C38.4301 31.8033 40.3575 31.2753 42.0477 30.2757C43.7494 29.2804 45.1613 27.8576 46.1435 26.1484C47.1258 24.4392 47.6442 22.5029 47.6474 20.5315C47.7027 16.4054 46.1738 13.6609 45.5659 12.4451C41.6425 4.81926 33.2245 0.435303 24.0698 0.435303C17.8737 0.43469 11.9263 2.87319 7.51405 7.22339C3.1018 11.5736 0.579321 17.4858 0.492188 23.6814C0.584288 16.958 7.27075 11.5241 15.2282 11.5241C15.8729 11.5241 19.5569 11.5794 22.9646 13.3661C25.3587 14.5558 27.3412 16.4357 28.6564 18.7632C29.78 20.7157 29.9826 23.2024 29.9826 24.1971C29.9826 25.1918 29.4853 26.647 28.5459 27.8627L28.5643 27.8443Z" fill="url(#paint5_radial_9246_5601)"/>
<defs>
<linearGradient id="paint0_linear_9246_5601" x1="11.3047" y1="33.0389" x2="44.166" y2="33.0389" gradientUnits="userSpaceOnUse">
<stop stop-color="#0C59A4"/>
<stop offset="1" stop-color="#114A8B"/>
</linearGradient>
<radialGradient id="paint1_radial_9246_5601" cx="0" cy="0" r="1" gradientUnits="userSpaceOnUse" gradientTransform="translate(29.4484 33.2866) scale(17.5727 16.6941)">
<stop offset="0.7" stop-opacity="0"/>
<stop offset="0.9" stop-opacity="0.5"/>
<stop offset="1"/>
</radialGradient>
<linearGradient id="paint2_linear_9246_5601" x1="28.6197" y1="18.7817" x2="8.11821" y2="41.1252" gradientUnits="userSpaceOnUse">
<stop stop-color="#1B9DE2"/>
<stop offset="0.2" stop-color="#1595DF"/>
<stop offset="0.7" stop-color="#0680D7"/>
<stop offset="1" stop-color="#0078D4"/>
</linearGradient>
<radialGradient id="paint3_radial_9246_5601" cx="0" cy="0" r="1" gradientTransform="matrix(3.95662 -26.1137 -21.102 -3.16529 13.4886 37.0796)" gradientUnits="userSpaceOnUse">
<stop offset="0.8" stop-opacity="0"/>
<stop offset="0.9" stop-opacity="0.5"/>
<stop offset="1"/>
</radialGradient>
<radialGradient id="paint4_radial_9246_5601" cx="0" cy="0" r="1" gradientTransform="matrix(-1.49128 37.2821 79.4109 2.98257 5.26113 9.15091)" gradientUnits="userSpaceOnUse">
<stop stop-color="#35C1F1"/>
<stop offset="0.1" stop-color="#34C1ED"/>
<stop offset="0.2" stop-color="#2FC2DF"/>
<stop offset="0.3" stop-color="#2BC3D2"/>
<stop offset="0.7" stop-color="#36C752"/>
</radialGradient>
<radialGradient id="paint5_radial_9246_5601" cx="0" cy="0" r="1" gradientTransform="matrix(5.01835 17.2058 13.9797 -4.12221 44.7113 14.674)" gradientUnits="userSpaceOnUse">
<stop stop-color="#66EB6E"/>
<stop offset="1" stop-color="#66EB6E" stop-opacity="0"/>
</radialGradient>
</defs>
</svg>
