<svg width="34" height="52" viewBox="0 0 34 52" fill="none" xmlns="http://www.w3.org/2000/svg">
<path d="M26.2787 17.3083C26.4217 13.5787 25.4797 12.0731 24.7727 10.9968C24.0553 9.99246 22.3342 8.41448 20.2194 8.34834C18.2196 8.28603 17.7385 9.39128 15.8935 9.45811C15.591 6.09816 18.1266 4.25456 18.1266 4.25456C18.1266 4.25456 17.4332 3.27463 16.8595 3.03548C16.1995 3.62205 14.617 5.3069 14.2786 7.56892C13.9221 4.23716 12.2564 2.10638 8.56368 0.621338C7.51482 4.29042 10.9778 7.71826 13.2277 9.07206C12.035 8.67138 11.0001 8.14191 9.6101 8.41552C7.18064 8.89383 5.17796 10.3625 4.03651 13.5857C2.8954 16.8088 4.43962 20.5691 4.7752 21.643C5.11112 22.718 7.59558 27.2834 9.54291 27.9549C11.4899 28.6271 11.4906 28.3243 12.5314 27.9219C13.5723 27.5191 15.1499 26.7801 17.4673 27.6201C19.7829 28.459 20.0851 28.6602 21.5283 27.7203C22.973 26.7804 24.8524 23.8598 25.2886 23.0201C25.7252 22.1812 25.9601 21.7443 26.0952 21.3081C26.263 20.0306 26.1499 20.6512 26.2787 17.3083Z" fill="#D1D2D3"/>
<path d="M26.4173 22.4697V24.2935C26.4173 24.7206 26.7636 25.067 27.1908 25.067H30.0606C30.9834 25.067 31.869 25.4339 32.5217 26.0866C33.1748 26.7396 33.5417 27.6249 33.5417 28.5481L33.5415 36.9592C33.5415 37.0528 33.5415 37.1462 33.5415 37.2392L33.5413 39.1335C33.5413 39.2203 33.5413 39.3065 33.5412 39.3921L33.5411 40.3874C33.5411 40.4675 33.5411 40.5468 33.5411 40.6253L33.541 41.0867C33.541 42.0119 33.173 42.8993 32.5172 43.5523C31.8617 44.2054 30.973 44.5705 30.0477 44.5674C29.0779 44.5698 28.0579 44.5681 27.2071 44.5563C26.9989 44.5521 26.7981 44.6315 26.6494 44.7773C26.5011 44.9228 26.4173 45.1219 26.4173 45.3294L26.4172 46.2501C26.4172 46.2874 26.4172 46.3248 26.4172 46.3625L26.417 46.8203C26.417 46.8587 26.417 46.8971 26.417 46.9355L26.4168 47.1651C26.4164 47.8127 26.4155 48.426 26.4138 48.7959C26.4138 49.025 26.3118 49.2422 26.1356 49.3884C25.249 50.0581 22.1515 51.5425 15.2234 51.5425C8.43841 51.5425 5.20725 50.4341 4.19913 49.8503C3.97668 49.7086 3.84197 49.4629 3.84127 49.1997C3.83821 47.6956 3.82679 42.3402 3.81496 36.8138L3.81334 36.0595C3.79961 29.6447 3.7858 23.225 3.78431 22.5315L3.78418 22.4697H26.4173ZM29.8479 28.166H27.384C27.1449 28.166 26.9146 28.2551 26.7377 28.4142L26.7007 28.4493C26.5314 28.6189 26.4313 28.844 26.4187 29.0821L26.4173 29.1334V40.386C26.4173 40.6251 26.5062 40.8555 26.6655 41.0326L26.7007 41.0697C26.8696 41.239 27.0953 41.3388 27.3329 41.3514L27.384 41.3527H29.8479C30.0871 41.3527 30.3174 41.2642 30.4945 41.1049L30.5316 41.0697C30.7006 40.9004 30.8007 40.6747 30.8133 40.4371L30.8146 40.386V29.1334C30.8146 28.8936 30.7258 28.6638 30.5668 28.4865L30.5316 28.4493C30.3624 28.2804 30.1367 28.18 29.899 28.1673L29.8479 28.166Z" fill="#FEFEFE"/>
<path d="M6.01562 22.2456V46.2238C6.01562 46.5005 6.16322 46.756 6.40307 46.8942C7.38161 47.3607 10.2211 48.4743 15.1995 48.4743C20.2105 48.4743 22.9655 47.1212 23.8883 46.5635C24.1086 46.4219 24.2413 46.1775 24.2413 45.9157C24.2434 42.7361 24.2434 22.2456 24.2434 22.2456H6.01562Z" fill="#FAAF41"/>
<path d="M8.69495 25.2344C9.26619 25.2344 9.73336 25.681 9.76608 26.2442L9.76782 26.3072V44.8375C9.76782 45.43 9.28743 45.9104 8.69495 45.9104C8.12335 45.9104 7.65653 45.4637 7.62381 44.9009L7.62207 44.8375V26.3072C7.62207 25.7148 8.10246 25.2344 8.69495 25.2344Z" fill="#FFDA95"/>
<path d="M18.9937 27.1661C18.9937 26.7794 18.7661 26.3175 18.3922 26.0856C17.7837 25.7177 17.3085 25.153 17.0499 24.4805C12.1004 24.6469 7.58337 23.778 5.30743 23.1643C4.7233 22.9986 4.13151 22.8611 3.5338 22.7525C2.172 22.482 1.13672 21.2859 1.13672 19.8478C1.13672 18.265 2.3927 16.9787 3.96163 16.9223C4.26414 15.2482 5.72551 13.9773 7.48694 13.9773C9.46769 13.9773 11.0735 15.5831 11.0735 17.5639C11.0735 17.9806 10.9983 18.3795 10.8678 18.752L10.8782 18.7537C11.3207 17.3703 12.6156 16.3678 14.1459 16.3678C15.6661 16.3678 16.9545 17.3585 17.4043 18.729C17.391 18.6054 17.3844 18.4798 17.3844 18.3523C17.3844 16.2922 19.0543 14.6227 21.1141 14.6227C22.7815 14.6227 24.1927 15.7171 24.6704 17.2262L24.9951 17.1413C25.4205 16.9018 25.9096 16.7632 26.4325 16.7632C28.0512 16.7632 29.3632 18.0756 29.3625 19.6936C29.3625 21.1762 28.2622 22.4012 26.8335 22.5968C26.5098 22.6425 26.1926 22.725 25.8873 22.8426C25.038 23.1625 24.1698 23.4278 23.2929 23.6467C23.249 24.0791 23.1202 24.4864 22.9235 24.8519C22.5678 25.5196 22.4083 26.2743 22.4633 27.0286C22.463 27.0742 22.4647 27.3137 22.4647 27.3597C22.4647 28.318 21.6877 28.9011 20.7284 28.9011C19.7707 28.9011 18.9937 28.1248 18.9937 27.1661Z" fill="#FEFEFE"/>
<path d="M18.2969 22.9333L18.3171 22.9952L18.3106 22.9333H18.2969Z" fill="#010202"/>
<path d="M8.25936 0L8.73627 0.191461C11.8014 1.42412 13.5858 3.11698 14.3596 5.61293C14.8491 4.52822 15.5923 3.5636 16.456 2.77548L16.7693 2.49595L17.038 2.60769C17.1539 2.65643 17.2695 2.72292 17.3865 2.80612C17.5682 2.93526 17.7523 3.10305 17.9389 3.30113C18.0806 3.45116 18.2157 3.6106 18.3406 3.76968L18.4095 3.85845L18.4865 3.96184L18.7688 4.36043L18.3988 4.62952L18.3483 4.6685L18.2787 4.72559L18.193 4.80113L18.0924 4.89408C17.848 5.12592 17.6026 5.40267 17.3736 5.72189C16.7327 6.61479 16.3477 7.64728 16.3317 8.81902L16.3313 8.95548L16.4316 8.93912C16.7766 8.87611 17.101 8.75532 17.5758 8.53914L17.847 8.41487C18.7643 7.99957 19.3136 7.85684 20.2336 7.88539C22.1876 7.94666 24.0674 9.21273 25.1598 10.7427C25.1841 10.7799 25.2088 10.8172 25.2325 10.8548L25.3731 11.0776L25.5072 11.299C26.3419 12.7168 26.744 14.0932 26.7586 16.3166C28.48 16.4806 29.8265 17.9298 29.8258 19.6936C29.8258 21.3952 28.5667 22.827 26.8982 23.0553C26.8923 23.0564 26.8867 23.0578 26.8805 23.0588V24.2936C26.8805 24.4648 27.0197 24.6041 27.191 24.6041H30.0608C31.1069 24.6041 32.1101 25.0194 32.8499 25.7591C33.5896 26.4992 34.0049 27.5024 34.0049 28.5482L34.0045 41.0867C34.0045 42.1352 33.5872 43.1406 32.8443 43.8803C32.1014 44.6204 31.095 45.0343 30.0493 45.0305C29.9017 45.0308 29.7569 45.0312 29.6145 45.0315L28.7707 45.0312L27.7452 45.0256L27.1976 45.0193C27.114 45.0176 27.0336 45.0496 26.9738 45.1081C26.9142 45.1666 26.8805 45.2463 26.8805 45.3295L26.8794 47.8655L26.877 48.796C26.877 49.1629 26.7137 49.5103 26.4147 49.7578C25.9931 50.0763 25.4334 50.3778 24.7392 50.6507L24.5029 50.7402C24.1408 50.8735 23.7454 50.9992 23.3172 51.1154L23.0265 51.1917L22.7265 51.2651C22.4215 51.3372 22.102 51.4051 21.7681 51.4681L21.4294 51.5297L21.0813 51.5878C20.7868 51.6348 20.4829 51.6787 20.1692 51.7184L19.7877 51.7643L19.3971 51.8068L18.9972 51.8451L18.5878 51.8799L18.169 51.9105L17.7408 51.937C17.6688 51.9412 17.5964 51.945 17.5236 51.9488L17.0819 51.969L16.6311 51.985C16.4789 51.9892 16.3258 51.9934 16.1709 51.9965L15.7016 52.0031C15.5439 52.0049 15.3845 52.0056 15.2236 52.0056H14.9789C14.8167 52.0045 14.6555 52.0031 14.4961 52.0014L14.0223 51.9937L13.5576 51.9826C13.4041 51.9784 13.2523 51.9732 13.1019 51.968L12.6556 51.9495C12.5818 51.946 12.5087 51.9429 12.4356 51.9391L12.0029 51.9154L11.5796 51.8889L11.1657 51.8587C11.0971 51.8538 11.0296 51.8482 10.9621 51.8426L10.5621 51.8082C10.4963 51.8019 10.4309 51.796 10.3658 51.7894L9.98006 51.7504L9.6041 51.7083C9.54214 51.701 9.48053 51.6937 9.41961 51.686L9.05792 51.6393L8.70598 51.5906L8.36414 51.5387C8.19565 51.5119 8.03065 51.4848 7.86947 51.4562L7.55234 51.3981C7.50013 51.3884 7.44861 51.3783 7.39743 51.3682L7.09493 51.3066L6.80286 51.2429L6.52089 51.1764L6.24902 51.1085C5.98237 51.0392 5.73103 50.9668 5.49571 50.892L5.26526 50.8161C5.15247 50.7778 5.04421 50.7388 4.93943 50.6988L4.73544 50.619C4.43745 50.4975 4.17568 50.3712 3.95045 50.241C3.59503 50.0144 3.37955 49.6221 3.3785 49.2005L3.32281 23.1772C1.78799 22.8144 0.67334 21.4464 0.67334 19.8478C0.67334 18.2894 1.72811 16.9752 3.16894 16.5808C3.15119 16.1067 3.16198 15.6388 3.21106 15.1773C3.27651 14.5667 3.40426 13.9836 3.5999 13.4308C4.72186 10.2619 6.71862 8.51234 9.52056 7.96093C10.0208 7.86276 10.4786 7.85162 10.9596 7.91637C10.5962 7.57627 10.2474 7.21249 9.92994 6.83514C8.24648 4.83246 7.50639 2.63415 8.11802 0.493968L8.25936 0ZM25.9541 23.3112L25.7317 23.393C25.6847 23.4101 25.6346 23.4243 25.5869 23.441C25.1524 23.5939 24.7065 23.7328 24.2529 23.8626C23.9724 23.943 23.9724 23.943 23.705 24.0189L23.6841 24.1247C23.6208 24.4084 23.5247 24.6821 23.398 24.9414L23.2751 25.1812C23.2525 25.2275 23.2371 25.2766 23.217 25.324C22.9882 25.8496 22.8835 26.4254 22.9263 27.0283L22.9266 27.0962L22.9277 27.3594C22.9277 28.5558 21.9718 29.3645 20.7283 29.3645C20.0972 29.3645 19.5294 29.0968 19.1287 28.6703C18.8363 28.3591 18.6344 27.964 18.562 27.5237C18.5429 27.4071 18.5303 27.288 18.5303 27.1662C18.5303 26.918 18.3678 26.6158 18.1523 26.4818C17.5584 26.1225 17.078 25.6014 16.7665 24.9828L16.7515 24.9522L16.4469 24.9588C12.9338 25.0187 9.35799 24.5888 6.42273 23.9173C6.08158 23.8393 5.7467 23.7585 5.424 23.6743L5.18102 23.6099C5.1744 23.6078 5.16709 23.6064 5.16013 23.6043C4.85902 23.5197 4.55512 23.4431 4.24948 23.3732L4.30482 49.1987C4.30482 49.3042 4.35913 49.4031 4.43154 49.4494C4.56591 49.5274 4.71664 49.6039 4.88408 49.6791L5.05674 49.7533C5.23497 49.8271 5.42922 49.8991 5.63983 49.9698L5.85531 50.0391C5.96566 50.0732 6.08019 50.107 6.19854 50.1404L6.44048 50.2058L6.69286 50.2695L6.95534 50.3318L7.2286 50.3917C7.27455 50.4018 7.32155 50.4116 7.36889 50.4213L7.65712 50.4784C7.7546 50.4972 7.85416 50.516 7.95546 50.5341L8.26388 50.587C8.36831 50.6044 8.47449 50.6215 8.5824 50.6378L8.91067 50.6862L9.24903 50.7325C9.30612 50.7398 9.36356 50.7475 9.4217 50.7545L9.77468 50.7973L10.1374 50.837L10.5095 50.8735C10.5725 50.8798 10.6359 50.8853 10.6993 50.8913L11.086 50.9243L11.4822 50.9543L11.8877 50.9811L12.3027 51.0047L12.727 51.0256C12.7984 51.0288 12.8704 51.0315 12.9425 51.0347L13.3808 51.0507C13.4542 51.0531 13.5284 51.0552 13.6032 51.0573L14.055 51.0681C14.1309 51.0695 14.2072 51.0709 14.2841 51.0723L14.7495 51.0775C14.9058 51.0785 15.0639 51.0792 15.2236 51.0792L15.4558 51.0789C15.8415 51.0768 16.2175 51.0705 16.5841 51.0594L17.0192 51.0444C17.0909 51.042 17.1623 51.0389 17.2333 51.0354L17.6545 51.0145L18.0667 50.9894C18.1345 50.9849 18.2024 50.9804 18.2693 50.9755L18.6678 50.9445C18.7329 50.9393 18.7984 50.9337 18.8631 50.9282L19.2475 50.892C19.3105 50.8853 19.3735 50.8791 19.4361 50.8725L19.8058 50.8314C19.8667 50.8241 19.9273 50.8168 19.9875 50.8095L20.3433 50.7632L20.6897 50.7134L21.0266 50.6612C21.1373 50.6431 21.2466 50.6243 21.3539 50.6058L21.6717 50.5473C21.7758 50.5271 21.8788 50.5069 21.9798 50.4861L22.2784 50.422L22.567 50.3559C22.7564 50.311 22.9388 50.264 23.1153 50.2163L23.3746 50.1428C23.4171 50.1303 23.4589 50.1174 23.5007 50.1049L23.7454 50.0286L23.98 49.95C24.7848 49.6718 25.4069 49.3592 25.84 49.0317C25.9099 48.9735 25.9507 48.8872 25.9507 48.7939L25.9541 45.3295C25.9541 44.9971 26.0882 44.6785 26.3256 44.4463C26.563 44.2135 26.8839 44.0864 27.2136 44.0934L27.756 44.0993L28.5601 44.1042L29.6159 44.1052L30.0497 44.1042C30.8517 44.1069 31.6221 43.7905 32.1905 43.2245C32.7587 42.6581 33.0782 41.8891 33.0782 41.0867L33.0786 28.5482C33.0786 27.7479 32.7607 26.9803 32.1947 26.4142C31.6287 25.8482 30.8611 25.5304 30.0608 25.5304H27.191C26.508 25.5304 25.9541 24.9766 25.9541 24.2936V23.3112ZM29.8481 27.7031C30.2272 27.7031 30.591 27.8538 30.8594 28.1222C31.1278 28.3902 31.2781 28.754 31.2781 29.1334V40.3861C31.2781 40.7652 31.1278 41.129 30.859 41.3974C30.591 41.6654 30.2272 41.8158 29.8481 41.8158H27.3845C27.0054 41.8158 26.6417 41.6654 26.3729 41.397C26.1049 41.129 25.9541 40.7652 25.9541 40.3861V29.1334C25.9541 28.754 26.1049 28.3902 26.3733 28.1218C26.6417 27.8538 27.0054 27.7031 27.3845 27.7031H29.8481ZM29.8481 28.6297H27.3845C27.2509 28.6297 27.1227 28.6826 27.0284 28.7766C26.9341 28.8713 26.8805 28.9998 26.8805 29.1334V40.3861C26.8805 40.5198 26.9341 40.6479 27.0281 40.7419C27.1227 40.8366 27.2509 40.8898 27.3845 40.8898H29.8481C29.9818 40.8898 30.1099 40.8366 30.2039 40.7422C30.2986 40.6479 30.3518 40.5198 30.3518 40.3861V29.1334C30.3518 28.9998 30.2986 28.8713 30.2042 28.777C30.1099 28.6826 29.9818 28.6297 29.8481 28.6297ZM7.4869 14.4403C5.97192 14.4403 4.68426 15.5288 4.41726 17.0048L4.35112 17.3717L4.15792 17.379L3.9783 17.3853C3.72035 17.3944 3.47319 17.4441 3.24135 17.5263C2.28335 17.8661 1.59966 18.7785 1.59966 19.8478C1.59966 20.9381 2.31433 21.8839 3.32072 22.2164C3.41714 22.2481 3.51531 22.2763 3.61696 22.2965C3.9508 22.3574 4.2822 22.4287 4.61151 22.5067C4.88582 22.5715 5.15839 22.6407 5.42818 22.717C5.5441 22.7483 5.66802 22.7772 5.78743 22.8078C5.95243 22.8496 6.1143 22.8924 6.28348 22.9331C9.37122 23.6736 13.2694 24.1442 17.0342 24.0175L17.3635 24.0064L17.4818 24.3141C17.7025 24.8881 18.1091 25.3727 18.6365 25.6919C19.1329 26 19.4567 26.6026 19.4567 27.1662L19.4584 27.2337C19.4702 27.4596 19.5451 27.6678 19.66 27.8478C19.8862 28.2011 20.2779 28.4382 20.7283 28.4382C21.491 28.4382 22.0014 28.0065 22.0014 27.3594L22 27.0938L22.0014 27.0624C21.993 26.9521 21.9895 26.8421 21.9895 26.7324C21.9906 26.0021 22.1698 25.2808 22.5155 24.6319L22.5702 24.5247C22.7101 24.2358 22.7992 23.9239 22.8316 23.6001L22.8643 23.276L23.1804 23.1974C23.5031 23.1166 23.8157 23.0247 24.1283 22.9331C24.4026 22.8527 24.6738 22.7695 24.9418 22.6825C25.2061 22.5965 25.4661 22.5064 25.7209 22.4103L25.8664 22.3567C25.9761 22.3187 26.0878 22.2888 26.1996 22.2589C26.3872 22.2084 26.5769 22.1652 26.7705 22.1377L26.8526 22.1252C26.8624 22.1234 26.8714 22.121 26.8805 22.1193C28.0386 21.9069 28.8995 20.8925 28.8995 19.6933C28.8998 18.437 27.9593 17.4017 26.7444 17.2482C26.642 17.2353 26.5383 17.2266 26.4324 17.2266C26.2218 17.2266 26.0151 17.2537 25.8152 17.3056C25.6088 17.3592 25.41 17.4393 25.2228 17.5447L25.1702 17.5743L24.3612 17.7849L24.2286 17.3658C23.8025 16.0193 22.5486 15.0857 21.114 15.0857C19.3101 15.0857 17.8477 16.5481 17.8477 18.3524C17.8477 18.4631 17.8536 18.5727 17.8648 18.6806L18.2136 22.0065L18.3107 22.9331H18.2968L17.9925 22.0065L16.9639 18.8731C16.5674 17.6645 15.4367 16.8311 14.1459 16.8311C12.8457 16.8311 11.7095 17.6753 11.3196 18.8947L11.1978 19.2752L10.2478 19.1196L10.4305 18.5985C10.5489 18.2612 10.6101 17.9141 10.6101 17.5635C10.6101 15.8387 9.21179 14.4403 7.4869 14.4403ZM16.9176 3.61234L16.8041 3.72339C15.7691 4.75658 14.7996 6.48668 14.7408 7.55225C14.6816 8.61781 14.8553 9.94063 14.8553 9.94063L14.2019 9.81566C13.92 9.7617 13.6662 9.698 13.3727 9.60679L13.1701 9.54205C13.135 9.53056 13.0995 9.51837 13.0629 9.50619L13.025 9.49296L12.8339 9.42682L12.0708 9.1539L11.8613 9.08289C11.0094 8.8044 10.4055 8.7313 9.69949 8.87019C7.22129 9.35789 5.48701 10.8774 4.47331 13.7399C4.30239 14.2224 4.1903 14.7348 4.13216 15.2758C4.13112 15.2848 4.13112 15.2942 4.13007 15.3036C4.843 14.2447 6.03772 13.5498 7.38212 13.5154L7.4869 13.514C9.48261 13.514 11.141 14.9576 11.4752 16.8576L11.4905 16.9512L11.5904 16.8607C12.2557 16.2825 13.1141 15.9306 14.0415 15.9062L14.1459 15.9048C15.2752 15.9048 16.3111 16.3908 17.0303 17.1848L17.0725 17.2325L17.0989 17.1413C17.6089 15.4481 19.1608 14.206 21.0089 14.1604L21.114 14.1594C22.7749 14.1594 24.247 15.1337 24.9209 16.5937L24.9439 16.6456L24.9885 16.6236C25.2562 16.4973 25.5406 16.4103 25.8327 16.3577C25.8239 14.2377 25.4508 12.9967 24.656 11.6787L24.529 11.4734L24.3957 11.2659C23.4665 9.96535 21.8287 8.86219 20.2048 8.81136C19.4132 8.78665 18.9801 8.91023 18.0963 9.3196L17.949 9.38714C17.1393 9.75474 16.668 9.89329 15.9101 9.92079L15.4715 9.9368L15.4322 9.49958C15.2825 7.84014 15.7514 6.39304 16.6213 5.18162C16.9158 4.7712 17.2114 4.44397 17.4704 4.20169L17.4857 4.18672L17.3844 4.06767L17.265 3.93643C17.1661 3.83165 17.0704 3.7394 16.9802 3.66316L16.9176 3.61234ZM8.89361 1.26294L8.88178 1.33848C8.64402 2.95998 9.29846 4.64448 10.6394 6.23918C11.4578 7.21284 12.5105 8.09286 13.4107 8.64531C13.5506 8.7313 13.6874 8.81067 13.8187 8.87994L13.8942 8.91928L13.8939 8.84617C13.8879 8.37066 13.8601 7.9202 13.8096 7.49237C13.4563 4.50524 11.9838 2.64007 8.942 1.28453L8.89361 1.26294Z" fill="#010202"/>
</svg>
