<svg width="44" height="44" viewBox="0 0 44 44" fill="none" xmlns="http://www.w3.org/2000/svg">
<path d="M21.7491 34.1005C28.4311 34.1005 33.8477 28.6835 33.8477 22.0015C33.8477 15.3195 28.4311 9.90259 21.7491 9.90259C15.0671 9.90259 9.65039 15.3195 9.65039 22.0015C9.65039 28.6835 15.0671 34.1005 21.7491 34.1005Z" fill="white"/>
<path d="M6.10165 16.0566C5.1991 14.4933 4.13819 12.8526 2.9189 11.1343C1.01001 14.4396 0.00488281 18.1891 0.00488281 22.0062C0.00488281 25.8233 1.00955 29.5728 2.91821 32.8781C4.82688 36.1834 7.57219 38.9283 10.8779 40.836C14.1837 42.7438 17.9337 43.7477 21.7505 43.7469C23.7518 40.9399 25.1106 38.9162 25.8269 37.6755C27.2027 35.2925 28.982 31.8808 31.1649 27.4404V27.4379C30.2113 29.0916 28.8391 30.4649 27.1864 31.4198C23.8225 33.3633 19.6773 33.3639 16.3129 31.4214C14.6599 30.467 13.2873 29.0941 12.3332 27.4409C9.36837 21.9117 7.29118 18.1169 6.10165 16.0566Z" fill="#229342"/>
<path d="M21.75 43.7452C25.5668 43.7459 29.3166 42.7413 32.6221 40.833C35.9276 38.9248 38.6725 36.1798 40.5807 32.874C42.4888 29.5683 43.493 25.8185 43.4925 22.0016C43.4918 18.1848 42.4862 14.4352 40.5768 11.1302C36.4578 10.7242 33.4178 10.5212 31.457 10.5212C29.2337 10.5212 25.9975 10.7242 21.7484 11.1302L21.7461 11.1318C23.6548 11.1309 25.5302 11.6326 27.1835 12.5864C28.837 13.5404 30.2099 14.9126 31.1645 16.5656C33.1075 19.9298 33.1074 24.0752 31.1643 27.4393L21.75 43.7452Z" fill="#FBC116"/>
<path d="M21.749 30.6112C26.5027 30.6112 30.3563 26.7576 30.3563 22.0036C30.3563 17.2496 26.5027 13.3962 21.749 13.3962C16.9952 13.3962 13.1416 17.2499 13.1416 22.0036C13.1416 26.7573 16.9952 30.6112 21.749 30.6112Z" fill="#1A73E8"/>
<path d="M21.749 11.1314H40.5774C38.6695 7.82564 35.9248 5.08033 32.6193 3.17166C29.3139 1.26313 25.5642 0.258499 21.7474 0.258789C17.9305 0.258789 14.181 1.26414 10.8759 3.17326C7.57075 5.08227 4.82644 7.82784 2.91895 11.1339L12.3333 27.4401L12.3358 27.4414C10.3917 24.0779 10.3904 19.9325 12.3324 16.5677C13.2864 14.9145 14.6592 13.5416 16.3122 12.5874C17.9652 11.6332 19.8406 11.1307 21.7494 11.1312L21.749 11.1314Z" fill="#E33B2E"/>
</svg>
