<svg width="129" height="20" viewBox="0 0 129 20" fill="none" xmlns="http://www.w3.org/2000/svg">
<path d="M17.4576 0.922341C17.3759 2.23131 17.1986 3.53144 16.9275 4.81087C14.9073 3.65015 12.0657 3.31678 9.89983 4.39963C8.38463 5.01771 7.13107 6.71621 6.77161 8.33683C6.48267 9.80659 7.32445 11.0403 8.38463 11.7363C10.4299 12.7412 13.0281 12.2254 15.1484 11.9163L14.4477 15.9314C10.0204 16.3694 5.06075 16.6784 1.81195 13.279C0.824569 12.0453 0.319503 10.6291 0.465108 8.90381C0.751767 4.96418 3.97782 2.00519 7.29942 0.922341C10.3571 -0.0802097 14.425 -0.364915 17.4576 0.922341ZM84.7065 0.253163C84.0558 5.40218 83.0457 10.5512 82.2016 15.6978H77.0759L79.6035 0.382132C80.3019 0.124194 81.1915 0.331031 81.915 0.175295L84.7065 0.253163ZM54.307 1.48932C54.3734 1.7077 54.3767 1.94241 54.3167 2.16289C54.2566 2.38336 54.1359 2.5794 53.9703 2.72547C52.9829 3.62825 51.5632 3.80589 50.2642 3.52362C49.7818 3.31921 49.204 3.03451 48.9401 2.5454C48.7239 1.98086 49.0356 1.48932 49.3974 1.10484C50.7215 0.021992 53.2718 -0.131311 54.307 1.48932ZM62.0559 1.05131C61.9831 2.1585 61.7419 3.31678 61.5986 4.4483L64.0761 4.57727C63.9806 5.34865 63.86 6.25143 63.4983 6.79164H61.1868L59.5738 15.7513L54.5436 15.8292C54.8803 12.8434 55.4809 9.83093 55.9882 6.86951L54.1363 6.79407L54.473 4.5797L56.325 4.50427C56.588 3.7746 56.7653 3.01279 56.8528 2.23636C58.616 1.90056 60.2995 1.36035 62.0559 1.05131ZM53.6108 4.6308C53.1035 8.2614 52.3345 12.0185 51.8294 15.7513L46.7992 15.8292C47.2565 12.0721 47.955 8.28573 48.6511 4.57727C50.3097 4.57727 51.9978 4.5286 53.6108 4.6308ZM101.747 2.95664C102.543 4.3461 103.046 5.86452 103.071 7.58979C104.491 7.51192 105.79 6.81841 107.164 6.4315C107.02 8.20786 106.37 10.0353 106.078 11.8628C108.005 9.88203 109.664 7.64089 112.146 6.48504C112.769 6.43393 113.468 6.20276 113.975 6.74054C114.744 7.71876 114.023 8.95491 113.928 10.011L112.146 17.2454C112.194 17.5301 112.169 17.8903 112.481 17.9925C113.516 17.9146 114.069 16.6784 114.503 15.8803C114.239 12.1232 116.453 8.85271 119.463 7.05201C120.739 6.30497 122.88 6.02269 124.083 7.05201C125.021 7.82339 124.88 9.23962 124.563 10.32C122.928 13.1257 119.727 13.5905 116.765 13.846C116.332 14.8242 116.501 16.1626 117.056 17.0629C117.775 18.119 119.051 18.3769 120.232 18.0411C121.471 17.522 122.537 16.6166 123.289 15.4423C123.433 15.4691 123.556 15.6224 123.701 15.7513C122.641 18.0679 120.45 19.8954 117.923 19.8467C116.721 19.7177 115.566 19.0218 114.963 17.8635L114.626 16.9875C113.734 18.1458 112.822 19.7177 111.279 19.8467C110.752 19.7688 110.101 19.4866 110.003 18.8417L110.051 17.1676L112.023 9.65086C112.071 9.13741 112.264 8.3125 111.614 8.15676C110.747 8.18353 110.074 8.77484 109.473 9.34182L105.79 13.3593L104.634 19.2797L102.661 19.3308C103.312 15.8292 104.131 12.2497 104.852 8.72374C104.586 8.05456 103.744 8.4147 103.239 8.4147L103.119 8.1592C102.925 12.459 101.121 16.5251 97.4128 18.6105C94.983 19.9489 91.2996 20.3115 88.8448 18.7906C86.0784 16.9631 85.1615 13.6684 85.571 10.14C86.0783 6.25386 88.747 2.10739 92.262 0.744704C95.3925 -0.647186 99.7743 -0.184845 101.747 2.95664ZM97.5106 1.48932C96.3548 0.640069 94.4529 0.69117 93.2494 1.41388C89.8572 3.57715 88.6287 7.66766 88.2692 11.6852C88.2943 14.284 89.0632 16.8342 91.2769 18.1725C93.2994 19.1775 95.6086 18.3258 97.1238 16.7563C99.8698 13.5126 101.048 8.3636 99.6514 4.1928C99.1964 3.19025 98.4502 2.08306 97.5106 1.48932ZM121.026 7.17855C119.003 8.2614 117.584 10.8091 116.983 13.0989C118.717 12.97 120.33 12.5587 121.604 11.2983C122.47 10.3444 123.048 9.13498 122.709 7.79662C122.445 7.04958 121.604 6.99848 121.026 7.17855ZM46.6286 6.92061C47.4226 9.18608 46.797 11.7363 45.4729 13.5394C43.7893 15.6735 41.3345 16.1893 38.8297 15.8803C38.0334 15.6759 37.2166 15.3644 36.6888 14.6441C36.3043 16.2915 36.0632 17.99 35.7742 19.6399C34.1362 19.691 32.5254 19.8199 30.8646 19.7688V19.2262L33.2944 4.70867L37.724 4.6308C37.7717 5.19535 37.435 5.71122 37.5556 6.25386C39.4576 4.50427 42.5357 3.88619 44.945 5.02014C45.6185 5.47762 46.3397 6.09813 46.6286 6.92061ZM39.5781 7.28075C39.0408 7.37868 38.5421 7.64329 38.1441 8.04172C37.7461 8.44015 37.4663 8.95484 37.3395 9.52189C37.1233 10.3711 37.1711 11.4516 37.724 12.0453C38.3974 12.5855 39.5281 12.4833 40.2766 12.2254C41.4073 11.7363 41.8418 10.449 41.9601 9.26395C41.9852 8.59477 41.7213 8.05456 41.2617 7.58979C40.8044 7.25642 40.1788 7.28075 39.5781 7.28075ZM77.0054 6.1249L77.1259 7.05201L75.9224 14.5955C75.7791 15.0335 76.3319 15.3669 76.3797 15.7538L71.1812 15.8316C70.9423 15.4715 71.1562 14.9313 71.0128 14.5176C69.7138 15.0067 68.3897 15.8049 66.8494 15.8827C64.9953 15.9338 62.95 16.0628 61.9398 14.3375C61.4097 13.5418 61.6759 12.3057 62.1082 11.5562C64.538 8.62154 68.6786 9.85769 71.8091 8.59721C71.9345 8.47087 72.027 8.3117 72.0772 8.13544C72.1275 7.95918 72.1339 7.77193 72.0958 7.59222C71.7113 6.99848 70.9901 6.97414 70.3167 6.92304C68.1258 6.94981 66.0805 7.30995 64.083 7.79662C64.2513 6.89628 64.5903 5.89373 64.9498 5.01771L65.2387 4.81087C68.6809 4.45073 72.5326 3.62825 75.8064 4.81087C76.2819 5.11991 76.837 5.53115 77.0054 6.1249ZM71.4678 10.6802C70.0482 11.2228 68.3396 11.0914 67.1361 11.9942C67.0155 12.3276 66.8221 12.8167 67.1839 13.1014C68.1235 13.6684 69.4225 13.3837 70.3121 12.9724C71.1562 12.532 71.4428 11.5294 71.4678 10.6802ZM31.2719 6.04703L31.4402 7.10311L30.1662 14.6977C30.0934 15.1868 30.6235 15.3912 30.694 15.8292L25.4249 15.8803L25.3021 14.593C23.1135 15.9071 19.8874 16.4984 17.2893 15.5202C16.7592 15.0821 16.0835 14.5687 15.8924 13.846C15.749 13.0478 16.038 12.2765 16.3519 11.6073C18.8295 8.87948 22.9451 9.83093 26.1234 8.64587C26.3145 8.3636 26.4828 8.05456 26.4123 7.66766L25.8799 7.17855C23.3546 6.76731 20.7292 7.28075 18.3722 7.89883C18.4928 6.94494 18.9478 5.96673 19.239 5.01528C22.8495 4.5505 27.3974 3.34112 30.744 5.32188L31.2719 6.04703ZM21.4526 12.1232C21.2843 12.4565 21.2365 12.8945 21.5004 13.1525C22.2694 13.7438 23.4251 13.3837 24.2692 13.2279C25.2065 12.8434 25.7844 11.8896 25.7844 10.8091C24.4148 11.4272 22.6311 11.0403 21.4526 12.1232ZM126.707 16.5568C127.121 16.5568 127.471 16.7125 127.762 17.024C127.903 17.1692 128.014 17.3437 128.088 17.5366C128.163 17.7296 128.2 17.9369 128.197 18.1458C128.2 18.3565 128.164 18.5658 128.089 18.7608C128.014 18.9558 127.903 19.1324 127.762 19.2797C127.626 19.4311 127.462 19.5507 127.28 19.6311C127.098 19.7115 126.903 19.7509 126.707 19.7469C126.51 19.7505 126.315 19.7108 126.133 19.6305C125.952 19.5501 125.788 19.4307 125.651 19.2797C125.511 19.132 125.4 18.9552 125.327 18.7602C125.253 18.5652 125.217 18.3561 125.221 18.1458C125.221 17.7078 125.364 17.333 125.653 17.024C125.79 16.8736 125.954 16.7546 126.135 16.6743C126.316 16.594 126.511 16.554 126.707 16.5568ZM128.44 18.1458C128.444 17.9031 128.401 17.6622 128.314 17.4382C128.226 17.2141 128.097 17.0118 127.933 16.8439C127.774 16.6697 127.583 16.5321 127.373 16.4396C127.162 16.3471 126.936 16.3017 126.709 16.3061C126.482 16.3017 126.257 16.3472 126.048 16.4397C125.839 16.5322 125.649 16.6698 125.492 16.8439C125.329 17.0124 125.199 17.2149 125.112 17.4388C125.025 17.6626 124.981 17.9032 124.984 18.1458C124.984 18.6592 125.15 19.0948 125.487 19.4574C125.824 19.8199 126.229 20 126.709 20C127.187 20 127.596 19.8175 127.933 19.4574C128.097 19.2873 128.226 19.0833 128.313 18.8577C128.401 18.6321 128.444 18.3898 128.44 18.1458ZM127.168 17.7467C127.173 17.8151 127.155 17.883 127.12 17.9399C127.084 17.9967 127.031 18.0392 126.97 18.0606C126.866 18.0972 126.757 18.1129 126.647 18.1068H126.343V17.3793H126.632C126.818 17.3793 126.955 17.406 127.039 17.4547C127.123 17.5058 127.168 17.6031 127.168 17.7467ZM126.01 17.1286V19.1556H126.343V18.3575H126.609C126.788 18.3575 126.914 18.3794 126.984 18.4207C127.105 18.4962 127.166 18.6495 127.166 18.8831V19.0437L127.173 19.1094C127.173 19.1169 127.175 19.1243 127.178 19.1313C127.178 19.1388 127.18 19.1462 127.182 19.1532H127.494L127.48 19.1289C127.47 19.0951 127.464 19.0598 127.464 19.0242L127.46 18.8733V18.7249C127.455 18.6118 127.419 18.5026 127.357 18.411C127.318 18.3556 127.269 18.3095 127.213 18.2756C127.156 18.2417 127.094 18.2206 127.03 18.2139C127.126 18.2002 127.22 18.1672 127.305 18.1166C127.43 18.0314 127.491 17.8976 127.491 17.7151C127.491 17.462 127.391 17.2892 127.196 17.2016C127.028 17.144 126.851 17.1193 126.675 17.1286H126.01Z" fill="#050618"/>
</svg>
