<svg width="115" height="115" viewBox="0 0 115 115" fill="none" xmlns="http://www.w3.org/2000/svg">
<path d="M96.3153 37.6574L105.357 33.937L106.114 35.7766C106.813 37.4736 106.221 38.944 104.446 39.6742C102.658 40.4097 101.164 39.7975 100.466 38.1004L100.216 37.4916L96.8216 38.888L96.3153 37.6574ZM105.002 36.1283L104.789 35.6101L101.291 37.0492L101.504 37.5674C101.93 38.6037 102.774 38.9232 103.901 38.4595C105.041 37.9905 105.428 37.1646 105.002 36.1283ZM99.0845 44.6654L108.639 42.5874L109.133 44.8596C109.475 46.4337 108.811 47.5961 107.278 47.9296C106.1 48.1856 105.159 47.7453 104.677 46.8467L104.649 46.8526C104.64 47.9298 104.055 48.6018 102.631 48.9114L100.127 49.4562L99.8437 48.1559L102.239 47.6349C103.553 47.3491 103.989 46.7813 103.771 45.782L103.611 45.0429L99.3674 45.9658L99.0845 44.6654ZM107.992 44.821L107.84 44.1229L104.815 44.7809L104.964 45.4653C105.164 46.3824 105.856 46.8626 106.855 46.6453C107.84 46.4309 108.198 45.7655 107.992 44.821ZM100.639 52.2761L110.405 51.7882L110.589 55.4817L109.344 55.5439L109.226 53.1795L106.246 53.3284L106.354 55.4969L105.151 55.5571L105.043 53.3885L101.951 53.543L102.072 55.9774L100.827 56.0396L100.639 52.2761ZM100.645 60.032C100.696 59.4881 100.861 58.9267 101.147 58.4328L102.611 58.5699C102.138 59.1165 101.908 59.6156 101.865 60.0758C101.8 60.7732 102.153 61.355 102.99 61.4333C103.562 61.4868 104.06 61.2801 104.661 60.8721L106.292 59.8288C107.012 59.3476 107.684 59.0868 108.521 59.1651C109.957 59.2996 110.664 60.3224 110.534 61.7031C110.495 62.1216 110.386 62.5334 110.222 62.9401L108.966 62.8226C109.184 62.4491 109.35 62.0285 109.385 61.6519C109.448 60.9824 109.112 60.5148 108.429 60.4509C107.996 60.4104 107.618 60.5438 107.122 60.8773L105.564 61.8992C104.621 62.5004 103.883 62.8675 102.851 62.7709C101.289 62.6247 100.507 61.5104 100.645 60.032ZM99.7841 66.2847C99.9138 65.754 100.159 65.2227 100.514 64.7758L101.942 65.1251C101.394 65.5968 101.094 66.0571 100.985 66.5061C100.818 67.1865 101.083 67.8136 101.899 68.0132C102.457 68.1497 102.98 68.0178 103.634 67.7019L105.4 66.9079C106.183 66.5369 106.885 66.377 107.702 66.5766C109.103 66.9193 109.653 68.0343 109.323 69.3814C109.223 69.7896 109.056 70.1812 108.833 70.5595L107.609 70.26C107.879 69.9223 108.104 69.5304 108.194 69.163C108.354 68.5098 108.09 67.9982 107.423 67.8352C107.001 67.732 106.607 67.8088 106.068 68.0664L104.377 68.8498C103.357 69.3069 102.573 69.5624 101.566 69.3162C100.042 68.9436 99.4314 67.727 99.7841 66.2847ZM97.0126 75.2331L105.6 79.9084L104.649 81.6554C103.771 83.2671 102.257 83.7345 100.572 82.8169C98.8737 81.8925 98.4074 80.3467 99.2849 78.7351L99.5997 78.1568L96.3763 76.4019L97.0126 75.2331ZM103.675 81.0134L103.943 80.5213L100.621 78.7128L100.353 79.2049C99.817 80.1891 100.101 81.0453 101.171 81.628C102.254 82.2174 103.139 81.9976 103.675 81.0134ZM93.3276 81.807L101.089 87.7533L100.28 88.8097L93.508 83.6216L92.2898 85.2117L91.3001 84.4535L93.3276 81.807ZM90.0287 86.0995L95.2717 94.6334L93.9636 95.9004L85.5913 90.3974L86.5774 89.4424L88.116 90.4873L90.0681 88.5966L89.0828 87.0156L90.0287 86.0995ZM93.5946 94.1906L90.6672 89.5374L89.0372 91.1162L93.5745 94.2101L93.5946 94.1906ZM83.1114 92.286L85.0094 95.061L90.3541 99.1782L89.1863 99.977L85.3754 96.7624L85.3523 96.7782L86.9085 101.535L85.8101 102.286L83.9225 95.8044L82.0246 93.0294L83.1114 92.286ZM53.4841 100.745L51.9705 110.405L50.0053 110.097C48.1924 109.813 47.2427 108.544 47.5398 106.648C47.839 104.738 49.1378 103.779 50.9508 104.063L51.6012 104.165L52.1694 100.539L53.4841 100.745ZM50.2822 108.964L50.8357 109.05L51.4212 105.314L50.8677 105.227C49.7605 105.054 49.0497 105.609 48.861 106.813C48.6702 108.03 49.175 108.79 50.2822 108.964ZM46.0583 99.474L42.8626 108.715L40.665 107.955C39.1425 107.428 38.4956 106.256 39.0083 104.773C39.4021 103.635 40.2679 103.059 41.2862 103.115L41.2954 103.089C40.3803 102.52 40.1107 101.671 40.5869 100.294L41.4247 97.8716L42.6824 98.3065L41.8812 100.623C41.4417 101.894 41.7 102.562 42.6664 102.896L43.3813 103.143L44.8006 99.0391L46.0583 99.474ZM41.2914 107L41.9666 107.234L42.9784 104.308L42.3165 104.079C41.4295 103.772 40.6593 104.114 40.3251 105.08C39.9954 106.033 40.378 106.684 41.2914 107ZM38.751 96.8433L34.0945 105.441L30.8427 103.68L31.4364 102.583L33.5181 103.711L34.9391 101.087L33.0298 100.053L33.6036 98.9939L35.5128 100.028L36.9871 97.3058L34.8438 96.145L35.4376 95.0487L38.751 96.8433ZM32.1256 92.8147C32.5628 93.1422 32.9553 93.5763 33.2273 94.0777L32.3453 95.2548C32.1265 94.5657 31.8209 94.1092 31.4509 93.832C30.8904 93.412 30.2096 93.4095 29.7056 94.0822C29.3613 94.5418 29.2775 95.0742 29.3115 95.7998L29.3488 97.7357C29.3829 98.6013 29.2543 99.3102 28.7504 99.9828C27.8852 101.138 26.6441 101.205 25.5343 100.374C25.198 100.122 24.9037 99.8138 24.6429 99.4609L25.3989 98.452C25.6036 98.8329 25.8755 99.1942 26.1782 99.421C26.7163 99.8241 27.2906 99.7818 27.7022 99.2325C27.9626 98.885 28.0464 98.4927 28.0209 97.896L27.964 96.0329C27.9438 94.9151 28.0163 94.0942 28.6378 93.2646C29.5786 92.009 30.9373 91.9243 32.1256 92.8147ZM27.2422 88.8154C27.6274 89.2028 27.9529 89.689 28.1495 90.2245L27.1065 91.2616C26.9897 90.5481 26.7533 90.0521 26.4274 89.7243C25.9335 89.2277 25.2603 89.1267 24.6643 89.7194C24.257 90.1244 24.0971 90.639 24.0257 91.3619L23.7826 93.2828C23.691 94.1443 23.4613 94.8271 22.8653 95.4197C21.8422 96.4371 20.6043 96.3247 19.6265 95.3413C19.3302 95.0433 19.0835 94.6959 18.8766 94.309L19.7706 93.4201C19.918 93.8266 20.1348 94.2234 20.4015 94.4916C20.8756 94.9684 21.45 95.0096 21.9367 94.5257C22.2446 94.2195 22.3844 93.8434 22.4455 93.2493L22.6587 91.3976C22.8005 90.2886 22.9909 89.4868 23.726 88.7559C24.8385 87.6497 26.1952 87.7625 27.2422 88.8154ZM21.0438 81.7907L12.591 86.7051L11.5912 84.9855C10.6688 83.3991 11.0552 81.8619 12.7143 80.8974C14.3855 79.9257 15.9489 80.3293 16.8712 81.9157L17.2021 82.4849L20.3749 80.6403L21.0438 81.7907ZM12.6456 84.4859L12.9272 84.9703L16.197 83.0693L15.9153 82.5849C15.3521 81.6161 14.4731 81.4142 13.4195 82.0267C12.3538 82.6463 12.0823 83.5171 12.6456 84.4859ZM17.3366 75.2299L8.22862 78.7863L7.74459 77.5467L15.6912 74.4438L14.9626 72.5778L16.1239 72.1244L17.3366 75.2299ZM15.3752 70.1832L5.35936 70.1815L4.96489 68.4037L14.037 64.1523L14.3344 65.4925L12.6385 66.2562L13.2272 68.9093L15.0899 68.8977L15.3752 70.1832ZM6.61476 68.9847L12.1119 68.9272L11.6203 66.7117L6.60869 68.9573L6.61476 68.9847ZM13.72 61.0509L10.3625 61.225L4.06346 63.6414L3.99023 62.2285L8.71967 60.6508L8.71822 60.6229L3.84739 59.4726L3.77851 58.1437L10.2944 59.91L13.6518 59.736L13.72 61.0509ZM21.9134 31.3506L14.4618 25.0201L15.7496 23.5041C16.9377 22.1056 18.5157 21.9574 19.9783 23.1999C21.4516 24.4515 21.5923 26.0599 20.4042 27.4584L19.978 27.9602L22.775 30.3364L21.9134 31.3506ZM16.5722 24.3316L16.2094 24.7587L19.0919 27.2074L19.4547 26.7804C20.1802 25.9263 20.0775 25.0303 19.1487 24.2413C18.2093 23.4432 17.2978 23.4776 16.5722 24.3316ZM26.8711 25.6773L20.6392 18.143L22.431 16.6609C23.6723 15.6342 25.0101 15.6911 26.0101 16.9C26.7779 17.8283 26.8189 18.867 26.2419 19.7078L26.2597 19.7294C27.2211 19.2433 28.0866 19.4545 29.0151 20.5771L30.649 22.5524L29.6236 23.4006L28.0611 21.5116C27.204 20.4754 26.4996 20.3491 25.7116 21.0008L25.1288 21.4829L27.8965 24.8291L26.8711 25.6773ZM22.9204 17.6922L22.3699 18.1476L24.3431 20.5331L24.8828 20.0867C25.606 19.4885 25.7149 18.6531 25.0631 17.8651C24.4203 17.0879 23.6652 17.0762 22.9204 17.6922ZM32.9181 20.8017L27.9839 12.3604L31.1766 10.4942L31.8057 11.5705L29.7619 12.7652L31.2676 15.3411L33.1422 14.2454L33.7501 15.2854L31.8756 16.3811L33.4379 19.0538L35.5421 17.8238L36.1713 18.9001L32.9181 20.8017ZM39.801 17.2297C39.2939 17.4329 38.7191 17.5424 38.1494 17.5141L37.6024 16.1487C38.3049 16.32 38.8537 16.2963 39.2828 16.1244C39.933 15.864 40.2891 15.2837 39.9765 14.5035C39.7629 13.9704 39.3518 13.622 38.7143 13.2738L37.0412 12.2992C36.284 11.8782 35.7453 11.3998 35.4327 10.6196C34.8962 9.28027 35.4835 8.18484 36.7708 7.66913C37.1609 7.51285 37.5771 7.42159 38.0141 7.38234L38.4829 8.55266C38.0511 8.52947 37.6011 8.57393 37.25 8.71458C36.6258 8.96462 36.3634 9.4772 36.6186 10.1144C36.7801 10.5175 37.0716 10.7931 37.5946 11.0815L39.2156 12.0015C40.181 12.5655 40.8446 13.0542 41.2301 14.0164C41.8135 15.4728 41.1794 16.6775 39.801 17.2297ZM45.7578 15.1407C45.2264 15.2673 44.6417 15.2914 44.0823 15.1799L43.7414 13.7491C44.4111 14.0216 44.9575 14.0786 45.4072 13.9714C46.0885 13.8091 46.5258 13.2873 46.331 12.4697C46.1978 11.911 45.8422 11.5061 45.2626 11.0682L43.7504 9.85891C43.0632 9.33147 42.6004 8.77932 42.4056 7.96173C42.0711 6.55819 42.8127 5.56068 44.1617 5.23924C44.5705 5.14183 44.9955 5.11256 45.4336 5.13779L45.7258 6.36418C45.302 6.27795 44.8504 6.25596 44.4825 6.34363C43.8284 6.49948 43.4936 6.96805 43.6527 7.63576C43.7534 8.05818 44.0013 8.37351 44.4764 8.73552L45.9451 9.88319C46.8173 10.5826 47.4021 11.1632 47.6424 12.1716C48.006 13.6978 47.2022 14.7965 45.7578 15.1407ZM54.9857 13.5231L55.2278 3.74844L57.2164 3.79769C59.0509 3.84312 60.1578 4.97752 60.1102 6.89603C60.0624 8.82856 58.8996 9.94877 57.0651 9.90334L56.407 9.88704L56.3161 13.556L54.9857 13.5231ZM57.0895 4.95757L56.5294 4.9437L56.4357 8.72472L56.9959 8.7386C58.1162 8.76634 58.7487 8.12343 58.7788 6.9051C58.8094 5.67276 58.2098 4.98532 57.0895 4.95757ZM62.5163 13.7971L64.1748 4.1611L65.4862 4.38682L64.0392 12.7941L66.0134 13.1339L65.8019 14.3625L62.5163 13.7971ZM67.8505 14.7241L73.0566 6.16757L74.7805 6.75436L73.6986 16.7146L72.399 16.2723L72.6278 14.4265L70.0551 13.5508L69.097 15.1484L67.8505 14.7241ZM73.4268 7.86211L70.6194 12.5887L72.7677 13.3199L73.4533 7.87114L73.4268 7.86211ZM76.5108 18.0622L78.1167 15.1086L79.3476 8.47519L80.5906 9.15101L79.4646 14.0079L79.4892 14.0212L83.015 10.4692L84.1841 11.1049L79.2735 15.7376L77.6676 18.6912L76.5108 18.0622Z" fill="#0B0F5A"/>
<circle cx="9.81351" cy="43.086" r="1.75101" fill="#0B0F5A"/>
<circle cx="92.1114" cy="22.9493" r="1.75101" fill="#0B0F5A"/>
<circle cx="69.3467" cy="104.372" r="1.75101" fill="#0B0F5A"/>
</svg>
