<svg width="48" height="44" viewBox="0 0 48 44" fill="none" xmlns="http://www.w3.org/2000/svg">
<path d="M47.0329 32.1226C46.912 31.6661 46.7161 31.2331 46.4533 30.8408C46.5096 30.6341 46.5524 30.4242 46.5812 30.2123C46.7677 28.8665 46.3013 27.6338 45.4219 26.6812C44.9456 26.1606 44.4351 25.8169 43.8944 25.6059C44.2493 24.0875 44.429 22.5343 44.4299 20.9737C44.4299 20.2616 44.3896 19.564 44.3221 18.8767C44.2867 18.5335 44.2441 18.191 44.1944 17.8496C44.0394 16.8423 43.8097 15.8479 43.5071 14.8748C43.3087 14.2355 43.0792 13.6061 42.8196 12.989C42.4302 12.0752 41.9755 11.1906 41.4592 10.343C41.1203 9.77866 40.7514 9.23279 40.3539 8.70787C40.1591 8.44282 39.9562 8.18407 39.745 7.93185C39.1194 7.17137 38.4398 6.45751 37.7108 5.79544C37.469 5.5729 37.2201 5.35812 36.9645 5.15116C36.713 4.94133 36.4558 4.73816 36.1935 4.54201C35.6654 4.14905 35.1195 3.78018 34.5579 3.43699C31.4547 1.55212 27.8156 0.471191 23.9243 0.471191C12.5993 0.471191 3.42039 9.65008 3.42039 20.9751C3.4201 22.5541 3.60304 24.1278 3.96558 25.6636C3.47916 25.8748 3.01279 26.2038 2.58064 26.6801C1.70149 27.6329 1.23489 28.8607 1.42157 30.2066C1.44972 30.4206 1.49251 30.6323 1.54926 30.8403C1.28668 31.2328 1.09076 31.6661 0.969608 32.1226C0.699376 33.1497 0.788327 34.0759 1.13175 34.888C0.758601 35.9488 0.851832 37.0784 1.33802 38.0609C1.69158 38.7782 2.19759 39.3328 2.82115 39.8289C3.56271 40.4183 4.49096 40.9193 5.6113 41.3997C6.94714 41.9694 8.5771 42.5047 9.31798 42.701C11.2335 43.1972 13.0697 43.5115 14.9321 43.5266C17.5848 43.5514 19.8683 42.9276 21.5032 41.3316C22.3065 41.4301 23.1149 41.4794 23.924 41.4791C24.7791 41.4773 25.6332 41.4233 26.4822 41.3179C28.1135 42.924 30.4051 43.5534 33.0669 43.528C34.9281 43.5133 36.7646 43.199 38.6742 42.7022C39.4207 42.5058 41.05 41.9705 42.3876 41.401C43.5075 40.9195 44.4356 40.4187 45.1823 39.8301C45.8011 39.3342 46.3067 38.7793 46.6605 38.0621C47.1516 37.08 47.2401 35.9504 46.8717 34.8891C47.212 34.0777 47.3002 33.1495 47.0302 32.1237L47.0329 32.1226ZM45.1325 34.8181C45.5088 35.5322 45.5329 36.3391 45.2008 37.0904C44.6972 38.2294 43.4465 39.1263 41.0167 40.0899C39.5063 40.6892 38.1229 41.072 38.1117 41.0756C36.1138 41.5938 34.3059 41.8568 32.7431 41.8568C30.1533 41.8568 28.2257 41.1423 27.0029 39.7307C24.9358 40.0827 22.8255 40.0947 20.7538 39.7661C19.5301 41.1542 17.6146 41.8568 15.0451 41.8568C13.4807 41.8568 11.674 41.5938 9.67649 41.0756C9.6641 41.072 8.28164 40.6892 6.77149 40.0899C4.34166 39.1268 3.09183 38.2303 2.5874 37.0904C2.25524 36.3389 2.27933 35.532 2.65563 34.8181C2.69054 34.7519 2.72769 34.6871 2.76755 34.6247C2.54191 34.286 2.3908 33.9032 2.3237 33.5019C2.25663 33.1006 2.2753 32.6894 2.37846 32.2958C2.52799 31.7278 2.83696 31.2554 3.25627 30.916C3.05436 30.5841 2.92186 30.2147 2.86668 29.8301C2.74598 28.9937 3.02342 28.1585 3.6481 27.4768C4.1343 26.947 4.82181 26.6553 5.58319 26.6553H5.60346C5.02944 24.8157 4.73849 22.8991 4.74029 20.9715C4.74029 10.4617 13.2616 1.94035 23.7714 1.94035C34.2834 1.94035 42.8025 10.4617 42.8025 20.9715C42.8039 22.9036 42.5109 24.8245 41.9335 26.6688C42.0254 26.6598 42.1154 26.6551 42.2037 26.6551C42.9649 26.6551 43.6526 26.9465 44.1388 27.4764C44.763 28.1567 45.0411 28.9926 44.9202 29.8297C44.865 30.2143 44.7326 30.5838 44.5306 30.9158C44.9499 31.2549 45.2589 31.7274 45.4084 32.2955C45.5114 32.6892 45.53 33.1002 45.4629 33.5017C45.3958 33.903 45.2447 34.2856 45.0193 34.6245C45.0592 34.6862 45.0968 34.751 45.1312 34.8172L45.1325 34.8181Z" fill="white"/>
<path d="M45.006 34.6226C45.2315 34.2837 45.3826 33.9011 45.4497 33.4998C45.5168 33.0983 45.4981 32.6873 45.3952 32.2937C45.2456 31.7257 44.9367 31.2533 44.5174 30.9139C44.7191 30.582 44.8518 30.2126 44.907 29.828C45.0277 28.9916 44.7502 28.1564 44.1255 27.4747C43.6393 26.9449 42.9516 26.6532 42.1904 26.6532C42.1019 26.6532 42.0121 26.6577 41.9202 26.667C42.4969 24.8231 42.7895 22.9017 42.7877 20.9696C42.7877 10.4598 34.2663 1.93848 23.7566 1.93848C13.2468 1.93848 4.72546 10.4575 4.72546 20.9696C4.72363 22.8966 5.0146 24.8136 5.58862 26.6535H5.56836C4.8072 26.6535 4.11969 26.9451 3.63349 27.475C3.00926 28.1553 2.73137 28.991 2.85207 29.8282C2.90718 30.2129 3.0397 30.5822 3.24166 30.9141C2.82235 31.2535 2.51338 31.7259 2.36408 32.2941C2.26098 32.6877 2.24238 33.099 2.30954 33.5005C2.37669 33.9018 2.52804 34.2846 2.75362 34.6233C2.71331 34.6857 2.67638 34.7505 2.6417 34.8167C2.26562 35.5308 2.2413 36.3377 2.57346 37.0889C3.07677 38.2277 4.32772 39.1251 6.75756 40.0885C8.26793 40.6877 9.65129 41.0706 9.66255 41.0742C11.6605 41.5924 13.4683 41.8556 15.0312 41.8556C17.6006 41.8556 19.517 41.153 20.7398 39.7647C22.8107 40.0932 24.9217 40.0813 26.9889 39.7293C28.2111 41.1408 30.1394 41.8556 32.7291 41.8556C34.2933 41.8556 36.1003 41.5924 38.0977 41.0742C38.1099 41.0706 39.4926 40.6877 41.0027 40.0885C43.4326 39.1256 44.6824 38.2282 45.1868 37.0889C45.519 36.3375 45.4949 35.5306 45.1186 34.8167C45.0841 34.7498 45.0463 34.6852 45.0064 34.6233L45.006 34.6226ZM19.8744 37.5907C19.7691 37.7751 19.6562 37.955 19.536 38.13C19.2196 38.5932 18.8034 38.947 18.3206 39.2103C17.3971 39.7136 16.2286 39.8897 15.0418 39.8897C13.1664 39.8897 11.2428 39.4508 10.1664 39.1711C10.1134 39.1573 3.56143 37.3065 4.39014 35.7301C4.52976 35.4653 4.75969 35.3594 5.04883 35.3594C6.21691 35.3594 8.34341 37.0988 9.2577 37.0988C9.46173 37.0988 9.60585 37.0117 9.66462 36.7998C10.0542 35.4025 3.74429 34.8152 4.27574 32.7913C4.36965 32.4333 4.62389 32.288 4.98173 32.288C6.52588 32.2878 9.99228 35.0039 10.7174 35.0039C10.773 35.0039 10.8129 34.9876 10.8345 34.9534L10.844 34.9379C11.184 34.376 10.989 33.9675 8.65778 32.5396L8.43394 32.4033C5.86899 30.8506 4.06744 29.9172 5.09207 28.8025C5.20985 28.6737 5.37672 28.6167 5.57962 28.6167C5.82035 28.6167 6.11152 28.6973 6.4322 28.8322C7.78696 29.4035 9.66372 30.9616 10.4496 31.6404C10.6809 31.8417 10.8172 31.9647 10.8172 31.9647C10.8172 31.9647 11.8103 32.9974 12.4109 32.9974C12.5491 32.9974 12.6662 32.9431 12.7457 32.8082C13.1718 32.0903 8.79132 28.7705 8.54361 27.4013C8.37629 26.4731 8.66116 26.0031 9.18834 26.0031C9.43876 26.0031 9.74457 26.1096 10.0821 26.3238C11.1293 26.9886 13.1515 30.4628 13.8924 31.814C14.1406 32.2671 14.5642 32.4585 14.9459 32.4585C15.7032 32.4585 16.2952 31.7057 15.0152 30.7491C13.0914 29.3094 13.7665 26.9568 14.6846 26.8127C14.7238 26.8066 14.7635 26.8034 14.8029 26.8032C15.6379 26.8032 16.0063 28.2422 16.0063 28.2422C16.0063 28.2422 17.0857 30.9535 18.9406 32.8069C20.6234 34.4888 20.8583 35.8695 19.878 37.59L19.8744 37.5907ZM25.8713 37.9082L25.7752 37.9197L25.611 37.9386C25.5248 37.9474 25.4385 37.9559 25.3518 37.964L25.2672 37.9717L25.1901 37.9782L25.0805 37.987C25.0402 37.9899 24.9999 37.9931 24.9595 37.9956L24.8388 38.0037L24.8123 38.0052L24.7172 38.0109L24.6769 38.0129L24.5643 38.0185L24.4335 38.0239L24.3146 38.028L24.2353 38.0302H24.1952C24.1705 38.0302 24.1459 38.0316 24.1211 38.0318H24.0817C24.057 38.0318 24.0324 38.0318 24.0076 38.0332L23.907 38.0343H23.766C23.6554 38.0343 23.5453 38.0332 23.4352 38.0311L23.346 38.0291C23.3208 38.0291 23.2954 38.0278 23.2701 38.0271L23.1758 38.0242L23.0582 38.0197L22.9526 38.0151L22.9251 38.014L22.8245 38.0086C22.7966 38.007 22.7686 38.0057 22.7409 38.0039L22.6759 38.0001C22.5941 37.9949 22.5124 37.989 22.4306 37.9827L22.345 37.976L22.237 37.9667L22.1106 37.955C22.0401 37.9485 21.9696 37.9413 21.8992 37.9334H21.8958C22.9249 35.6364 22.4045 33.4926 20.3248 31.4163C18.9611 30.0543 18.0526 28.0429 17.8657 27.6015C17.4847 26.2943 16.4761 24.8407 14.8008 24.8407C14.6592 24.8409 14.518 24.8521 14.3781 24.8742C13.6442 24.9895 13.0029 25.412 12.5453 26.0475C12.051 25.4325 11.5702 24.9436 11.1356 24.6673C10.4803 24.252 9.82654 24.0412 9.18924 24.0412C8.39431 24.0412 7.68337 24.3677 7.18795 24.96L7.17556 24.9751L7.14764 24.8578L7.14651 24.8528C7.05229 24.4497 6.97313 24.043 6.90916 23.6341C6.90916 23.6311 6.90916 23.6284 6.90781 23.6257L6.89384 23.5332C6.8863 23.4832 6.87894 23.433 6.87178 23.383C6.86592 23.3413 6.86007 23.2997 6.85466 23.2582C6.84926 23.2168 6.8434 23.1751 6.83845 23.1335C6.83304 23.0916 6.82809 23.0499 6.82313 23.0083C6.81838 22.9686 6.81381 22.929 6.8094 22.8894L6.80807 22.8792C6.78776 22.6964 6.77035 22.5133 6.7558 22.33L6.74792 22.2239C6.74567 22.1949 6.74364 22.1656 6.74184 22.1361C6.74184 22.1293 6.74094 22.1223 6.74049 22.116L6.73308 21.9985C6.73038 21.9559 6.72833 21.9134 6.72608 21.8708C6.72382 21.8285 6.72157 21.7859 6.71977 21.7431L6.71527 21.6316L6.71391 21.5979L6.71054 21.4947L6.70808 21.4074C6.70808 21.3725 6.70648 21.3373 6.70581 21.3024L6.70401 21.1923C6.70356 21.1556 6.70401 21.1191 6.70311 21.0824C6.70198 21.0455 6.70311 21.0088 6.70311 20.9718C6.70311 11.5475 14.3439 3.90667 23.7705 3.90667C33.1971 3.90667 40.8379 11.5475 40.8379 20.9718V21.1923C40.8379 21.229 40.837 21.2659 40.8361 21.3024C40.8361 21.333 40.835 21.363 40.8341 21.3936C40.8341 21.4209 40.833 21.4479 40.8319 21.4742C40.8319 21.5087 40.8298 21.5429 40.8287 21.5774V21.5803C40.8258 21.6551 40.8226 21.7298 40.8195 21.8046L40.8181 21.8294L40.8123 21.9411L40.8069 22.0296C40.7942 22.2392 40.7778 22.4489 40.7578 22.6581V22.661C40.7542 22.7002 40.7501 22.7396 40.7458 22.7788C40.7359 22.87 40.7258 22.9612 40.7157 23.0524L40.7042 23.144L40.69 23.2517C40.685 23.2911 40.6796 23.3303 40.674 23.3695C40.6679 23.4134 40.6614 23.4571 40.6551 23.5008L40.6393 23.6039L40.6208 23.721C40.6145 23.76 40.6082 23.7987 40.6008 23.8376C40.5931 23.8764 40.5873 23.9151 40.5805 23.9541C40.567 24.0315 40.5531 24.1088 40.538 24.186C40.508 24.3398 40.4767 24.4932 40.4436 24.6463C40.4353 24.6844 40.4267 24.7227 40.4179 24.7607C39.9376 24.2939 39.3017 24.0396 38.6 24.0396C37.9633 24.0396 37.3089 24.2502 36.6538 24.6657C36.219 24.9418 35.7387 25.4309 35.2439 26.0459C34.7856 25.4102 34.1443 24.9879 33.4113 24.8724C33.2714 24.8506 33.13 24.8393 32.9884 24.8391C31.3131 24.8391 30.3041 26.2923 29.9235 27.6C29.7345 28.0416 28.827 30.0523 27.4621 31.417C25.384 33.4883 24.8589 35.6236 25.8727 37.9093L25.8713 37.9082ZM43.4905 33.312L43.4837 33.332C43.479 33.3449 43.4743 33.3577 43.4691 33.3703C43.461 33.3895 43.4524 33.4081 43.4434 33.4268C43.4216 33.4714 43.3968 33.5147 43.3696 33.5561C43.332 33.6122 43.2907 33.6658 43.2459 33.7162C43.2356 33.7279 43.2257 33.7394 43.214 33.7509C43.1982 33.7682 43.1813 33.7851 43.1646 33.802C42.8613 34.1026 42.3992 34.3659 41.8768 34.6077C41.8175 34.6345 41.7576 34.6613 41.6968 34.6881L41.6365 34.7149C41.5962 34.7327 41.5561 34.7505 41.5137 34.7679C41.4725 34.7854 41.4311 34.8028 41.3897 34.8199L41.264 34.8719C40.9701 34.9928 40.669 35.1079 40.3752 35.2218L40.2497 35.2705L40.1254 35.3191C40.043 35.3513 39.9615 35.3835 39.8811 35.4157L39.7615 35.4639L39.6442 35.5121L39.5863 35.5362C39.548 35.5524 39.5102 35.5682 39.4728 35.5844C38.6085 35.9551 37.987 36.3323 38.1176 36.8005C38.1212 36.8137 38.1253 36.8264 38.1298 36.8385C38.1415 36.8732 38.1575 36.9061 38.1773 36.9367C38.189 36.9552 38.2025 36.9725 38.2176 36.9883C38.3712 37.1477 38.6506 37.1225 39.0031 36.9959C39.0317 36.9856 39.0609 36.9745 39.0904 36.9628C39.1107 36.9552 39.1307 36.9471 39.151 36.9389L39.1814 36.9261C39.262 36.8919 39.3474 36.8538 39.4348 36.8122C39.4566 36.802 39.4787 36.7921 39.5007 36.7804C39.9315 36.5699 40.42 36.2859 40.9046 36.0276C40.9789 35.9873 41.0534 35.9488 41.1275 35.9105C41.2487 35.8477 41.371 35.7871 41.4944 35.7292C41.9533 35.5135 42.3846 35.3603 42.7316 35.3603C42.8942 35.3603 43.0381 35.3937 43.1576 35.4702L43.1777 35.4835C43.2383 35.5263 43.291 35.5788 43.334 35.6391C43.3439 35.6533 43.3542 35.668 43.363 35.683C43.3725 35.6986 43.3815 35.7146 43.39 35.7308C43.5614 36.056 43.418 36.3931 43.0824 36.7234C42.7602 37.0405 42.2589 37.3515 41.6889 37.6395C41.6468 37.6609 41.6043 37.6823 41.5615 37.703C39.8655 38.5358 37.6454 39.163 37.6138 39.1708C37.022 39.3242 36.1758 39.5257 35.2223 39.6764L35.0811 39.6982L35.0581 39.7016C34.8419 39.7341 34.6251 39.7627 34.4078 39.7874L34.3877 39.7895C33.9925 39.8345 33.5872 39.8671 33.1811 39.8809H33.1751C33.0291 39.8863 32.8834 39.8888 32.7375 39.8888H32.5695C32.347 39.8856 32.1247 39.8757 31.9029 39.8586C31.8978 39.8586 31.8923 39.8586 31.8869 39.8575C31.8077 39.8514 31.7282 39.8439 31.6491 39.8352C31.5131 39.8205 31.3773 39.8025 31.242 39.7813C31.1893 39.7726 31.133 39.7633 31.0787 39.7539C31.054 39.7494 31.0294 39.7449 31.0049 39.7399L30.999 39.7388C30.9209 39.7239 30.8432 39.7075 30.7657 39.6897C30.7209 39.6796 30.6759 39.6694 30.6315 39.6575L30.6049 39.6505C30.5828 39.6451 30.5612 39.6392 30.5396 39.6334L30.5277 39.6302L30.4581 39.6102C30.4329 39.603 30.4079 39.5956 30.3827 39.5881L30.3736 39.5854L30.3081 39.5654C30.2833 39.5577 30.2588 39.5496 30.2342 39.5417C30.214 39.535 30.1939 39.528 30.1737 39.5215L30.1293 39.5059C30.0865 39.4911 30.0442 39.4753 30.0018 39.4591L29.9618 39.4436L29.9287 39.4303C29.8649 39.4046 29.8014 39.3778 29.7386 39.3496L29.6967 39.3296L29.6897 39.3265C29.6749 39.3195 29.6602 39.3125 29.6454 39.3062C29.6163 39.2922 29.5875 39.2778 29.5589 39.2632L29.5503 39.2589L29.5089 39.237C29.4353 39.1988 29.363 39.1578 29.2923 39.1141L29.2535 39.0905C29.2335 39.0783 29.2152 39.0659 29.1961 39.0535L29.1457 39.02C29.1274 39.0078 29.1092 38.9954 29.0914 38.9826L29.059 38.9596C29.0247 38.9351 28.9912 38.9101 28.9581 38.8842C28.9405 38.8707 28.9232 38.8567 28.9058 38.8439C28.8673 38.813 28.8297 38.7813 28.7926 38.7486L28.791 38.7473C28.7547 38.716 28.7194 38.6835 28.6849 38.6504L28.6831 38.6482C28.6651 38.6311 28.6475 38.6139 28.63 38.5961C28.6126 38.5784 28.5951 38.5608 28.5782 38.543C28.5611 38.525 28.5439 38.5067 28.5273 38.4881C28.5111 38.4705 28.4953 38.4527 28.4795 38.4347L28.4741 38.4286C28.3928 38.3343 28.3167 38.2354 28.2462 38.1325L28.2183 38.0913C28.1998 38.064 28.1816 38.0365 28.1636 38.0091L28.1104 37.9273C28.0843 37.8875 28.0589 37.8472 28.0341 37.8066C28.0163 37.7778 27.9988 37.749 27.9814 37.7199C27.9668 37.6952 27.9521 37.6706 27.9382 37.6463C27.9303 37.633 27.9229 37.6195 27.9154 37.606C27.908 37.592 27.8992 37.5778 27.8913 37.5636L27.8787 37.5413C27.8744 37.5339 27.8731 37.5317 27.8708 37.5267C27.8555 37.4999 27.8407 37.4727 27.8263 37.445C27.8197 37.433 27.8132 37.4209 27.8062 37.4089L27.7859 37.3702L27.7659 37.3317L27.7272 37.2535C27.7209 37.2407 27.7148 37.2279 27.7087 37.215C27.6954 37.1873 27.6828 37.1601 27.6702 37.1328C27.6652 37.1218 27.6601 37.1108 27.6556 37.0997C27.6382 37.0621 27.6218 37.0241 27.6062 36.9856C27.5957 36.9601 27.586 36.9349 27.5756 36.9097C27.5466 36.8354 27.5193 36.7604 27.4943 36.6845C27.4869 36.662 27.4795 36.6397 27.4729 36.6171C27.4567 36.566 27.4421 36.5145 27.429 36.4624C27.413 36.4019 27.3988 36.3406 27.3869 36.2791C27.3792 36.2429 27.3725 36.2064 27.3669 36.1697C27.3608 36.1334 27.3556 36.0972 27.3513 36.0611C27.3421 35.9893 27.3356 35.9172 27.3317 35.845C27.3317 35.833 27.3306 35.8209 27.3304 35.8089C27.3293 35.7851 27.3286 35.7612 27.3284 35.7373C27.3157 34.7753 27.8028 33.85 28.8439 32.8098C30.6981 30.9571 31.7782 28.2451 31.7782 28.2451C31.7782 28.2451 31.8072 28.1314 31.8678 27.9679C31.8881 27.9136 31.9092 27.8596 31.9315 27.8062C31.957 27.7459 31.9842 27.6862 32.0135 27.6276L32.0221 27.6105C32.0597 27.5358 32.1004 27.463 32.1448 27.3921C32.1549 27.3757 32.1648 27.3592 32.1765 27.343C32.2094 27.2939 32.2443 27.2464 32.281 27.2002C32.3094 27.1649 32.3396 27.1306 32.3713 27.0982C32.479 26.9874 32.6017 26.8969 32.7407 26.8485L32.7582 26.8428C32.7699 26.839 32.7814 26.8354 32.7933 26.832C32.8073 26.8284 32.8213 26.8251 32.8352 26.8221L32.8415 26.821C32.871 26.8151 32.9005 26.8111 32.9305 26.8091H32.9332C32.9487 26.8091 32.9643 26.8075 32.9803 26.8075C33.0201 26.8077 33.0598 26.8109 33.0992 26.817C33.2663 26.8433 33.4255 26.9428 33.5624 27.0964L33.5808 27.118C33.6254 27.1703 33.666 27.2261 33.702 27.2847C33.729 27.3281 33.7545 27.3739 33.7786 27.4218C33.7883 27.4421 33.7975 27.4606 33.8067 27.4804C33.8112 27.4905 33.8157 27.5004 33.82 27.5108C33.829 27.5308 33.8373 27.5511 33.8457 27.5723C33.8927 27.693 33.9292 27.8175 33.9549 27.9445C33.9821 28.0816 33.9979 28.2208 34.0024 28.3607C34.004 28.4221 34.004 28.4843 34.0024 28.5473C34.0013 28.5712 34.0002 28.5953 33.9984 28.6194C33.9799 28.8872 33.9216 29.1506 33.8252 29.4013C33.8155 29.426 33.8049 29.4513 33.795 29.4765C33.7466 29.5922 33.6903 29.7044 33.6268 29.8125C33.5905 29.8742 33.5513 29.9354 33.5095 29.9962L33.4838 30.0327C33.3845 30.1714 33.2737 30.3016 33.1525 30.4219C33.0332 30.5414 32.9053 30.652 32.7699 30.7531C32.6341 30.8533 32.5069 30.9646 32.3893 31.0855C32.0509 31.4409 31.9721 31.7541 32.0482 31.9917C32.0572 32.0185 32.0678 32.0448 32.0799 32.0703C32.1081 32.1254 32.1446 32.1761 32.1883 32.2202L32.2002 32.2322C32.2126 32.2441 32.2256 32.2556 32.2389 32.2666L32.2524 32.2777C32.2853 32.3029 32.32 32.3254 32.3562 32.345C32.3666 32.3506 32.3763 32.3563 32.3882 32.3617C32.438 32.3864 32.49 32.4063 32.5436 32.4213L32.5585 32.4252L32.5785 32.4306L32.5961 32.4349L32.6148 32.4389L32.6335 32.4427L32.6513 32.4457C32.6645 32.4481 32.678 32.4502 32.6913 32.452L32.7044 32.4538L32.7276 32.4562L32.742 32.4576L32.7659 32.4594H32.7796L32.8044 32.4605H32.8825L32.9048 32.4594L32.9305 32.4578L32.9618 32.4549L32.9911 32.4513C32.9976 32.4513 33.0044 32.4495 33.0111 32.4484C33.1142 32.4333 33.2147 32.4042 33.3097 32.3619C33.33 32.3533 33.35 32.3439 33.3685 32.334C33.4081 32.3142 33.4466 32.2919 33.4836 32.2673C33.5351 32.2335 33.5838 32.1955 33.6295 32.154L33.6612 32.1239C33.6662 32.1189 33.6714 32.1142 33.6761 32.109C33.7072 32.0779 33.7365 32.045 33.7637 32.0106C33.8119 31.9498 33.8547 31.8852 33.8918 31.8172C34.3325 31.0159 34.7944 30.2264 35.277 29.4504L35.3432 29.3443L35.4101 29.238C35.4436 29.1844 35.4772 29.1313 35.5108 29.0788L35.5448 29.0259L35.6125 28.9203C35.7035 28.7795 35.7947 28.6403 35.8866 28.5025L35.9553 28.3998C36.0931 28.1958 36.2307 27.9972 36.3667 27.8083L36.4347 27.715C36.5827 27.5105 36.7369 27.3108 36.897 27.1158L36.9608 27.0397C36.9711 27.0268 36.9808 27.0144 36.9923 27.0021L37.0547 26.9298C37.065 26.9178 37.075 26.9061 37.0858 26.8946L37.1461 26.8264L37.1765 26.7935C37.2058 26.7618 37.2355 26.7305 37.2657 26.6994C37.286 26.6794 37.3046 26.6591 37.3242 26.6404C37.4384 26.5235 37.5643 26.4188 37.7001 26.3281L37.7314 26.308L37.7631 26.2877C37.7834 26.2751 37.8039 26.263 37.8248 26.2515C38.3572 25.9495 38.7981 25.9272 39.0517 26.1808C39.2055 26.3346 39.2904 26.5893 39.2859 26.9435C39.2859 26.9593 39.2859 26.9748 39.2845 26.991V27.0086C39.2845 27.0246 39.2832 27.041 39.2821 27.0575C39.2821 27.0775 39.2796 27.0978 39.2776 27.1178C39.2755 27.1381 39.2746 27.1534 39.2726 27.1712C39.2726 27.1764 39.2715 27.1815 39.2708 27.1867C39.2692 27.2025 39.2672 27.2185 39.2652 27.2342C39.2652 27.2392 39.2652 27.2439 39.2632 27.2489C39.2609 27.2703 39.2578 27.2917 39.2539 27.3128C39.2514 27.3324 39.2483 27.352 39.2445 27.3716C39.2429 27.3829 39.2406 27.3939 39.2388 27.4052C39.233 27.4371 39.2253 27.4689 39.2161 27.5C39.1987 27.5581 39.1776 27.615 39.1526 27.6704C39.1418 27.6945 39.1303 27.7186 39.1186 27.7423C39.0943 27.7911 39.0668 27.8411 39.0366 27.8929C39.0215 27.9184 39.006 27.9447 38.9893 27.9711L38.9641 28.0112C38.9384 28.0515 38.9116 28.0922 38.8837 28.1334C38.8558 28.1746 38.8258 28.2168 38.7936 28.2593C38.752 28.3161 38.7081 28.3739 38.6617 28.4325L38.6265 28.4769C38.5272 28.6005 38.4254 28.7221 38.3214 28.8417L38.2388 28.9351L38.1966 28.9824C38.1392 29.0466 38.0816 29.1103 38.0235 29.1736L37.9789 29.2218C37.9494 29.2538 37.9185 29.2862 37.889 29.3184C37.8588 29.3511 37.8282 29.3835 37.7976 29.4159L37.7048 29.5136L37.6109 29.6116C37.5796 29.6443 37.5481 29.6774 37.5163 29.71L37.3251 29.9071C36.412 30.8436 35.4497 31.7771 35.1241 32.3594C35.1025 32.3975 35.0829 32.4364 35.0651 32.4763C35.0189 32.5821 34.9996 32.6727 35.0126 32.7458C35.0169 32.7699 35.0255 32.7931 35.0378 32.8141C35.0563 32.8458 35.0786 32.8751 35.1043 32.9012C35.1162 32.9129 35.1286 32.924 35.1421 32.9339C35.209 32.9816 35.2901 33.0062 35.3723 33.0037H35.3979L35.4243 33.0019L35.4509 32.9987L35.4727 32.9956C35.4756 32.9954 35.4786 32.9947 35.4815 32.994L35.5015 32.9902L35.5069 32.9888L35.529 32.9841L35.5605 32.976L35.5887 32.9677C35.6071 32.962 35.6256 32.9557 35.6445 32.9487C35.6853 32.9343 35.7251 32.9177 35.7641 32.899C35.774 32.8943 35.7841 32.8897 35.7938 32.8846L35.8238 32.8697C35.863 32.8499 35.9019 32.8285 35.9411 32.8053C35.9724 32.7868 36.0035 32.7679 36.0346 32.7479L36.0647 32.7278C36.0746 32.7215 36.0848 32.715 36.0947 32.7076L36.1246 32.6875L36.1404 32.6765L36.1836 32.6463C36.2239 32.6184 36.2616 32.5898 36.2998 32.5607L36.3032 32.5583L36.3636 32.5114C36.4462 32.4461 36.5248 32.3804 36.5957 32.3184L36.643 32.2768L36.6475 32.2727L36.6721 32.2509C36.7302 32.1989 36.782 32.1502 36.8252 32.1099L36.8428 32.0928L36.8853 32.0525L36.9108 32.0277L36.9196 32.0187L36.922 32.0162C36.9437 31.9946 36.9437 31.9946 36.9653 31.9728L36.9671 31.971L36.9752 31.9638C36.9777 31.961 36.981 31.9583 36.9849 31.955L36.988 31.952L36.9966 31.9444L37.0423 31.9041L37.068 31.8809C37.0806 31.8701 37.0943 31.8577 37.1083 31.8444L37.1391 31.8174C37.1445 31.8129 37.1499 31.8077 37.1556 31.8027L37.1878 31.7746L37.2353 31.7332L37.2603 31.7113C37.3582 31.626 37.4776 31.523 37.6143 31.4071L37.6704 31.3598L37.7631 31.2821L37.8577 31.2028C37.9816 31.1001 38.1149 30.9909 38.2559 30.8774L38.3484 30.8031C38.4272 30.7405 38.5083 30.6763 38.5903 30.6119C38.6232 30.586 38.6567 30.5601 38.6909 30.5344C38.7749 30.4696 38.8594 30.405 38.9441 30.3412C39.1373 30.1953 39.3366 30.0492 39.5381 29.9066L39.6248 29.8465C39.6852 29.8046 39.7455 29.7629 39.8061 29.7222L39.8608 29.685C39.9691 29.6121 40.0784 29.5407 40.1885 29.4709L40.2432 29.4364L40.2975 29.4026C40.3517 29.3691 40.406 29.3357 40.4596 29.3035L40.5134 29.2716L40.6213 29.2087C40.6567 29.1882 40.6918 29.1682 40.7269 29.1484L40.7481 29.1364L40.8319 29.0907C40.8665 29.0718 40.9014 29.0536 40.9359 29.0358L40.9877 29.0092L41.0377 28.9838C41.1521 28.9263 41.2685 28.8732 41.387 28.8246C41.4032 28.8178 41.4192 28.8113 41.4351 28.8043C41.4669 28.791 41.4984 28.7788 41.5297 28.768C41.561 28.7574 41.5919 28.7464 41.6223 28.7356C41.65 28.7264 41.6768 28.7178 41.7029 28.7097L41.7117 28.707C41.7256 28.7027 41.7396 28.6987 41.7536 28.6951L41.7576 28.6939C41.786 28.6858 41.8144 28.6784 41.843 28.6716H41.8452C41.8873 28.6615 41.9283 28.653 41.9684 28.6462C41.9821 28.6439 41.9957 28.6417 42.0087 28.6399C42.0477 28.634 42.0869 28.63 42.126 28.6273C42.1508 28.6255 42.1758 28.6248 42.2006 28.6248H42.2195C42.2447 28.6248 42.269 28.6264 42.2931 28.6289C42.3042 28.6289 42.3152 28.6309 42.326 28.6325H42.3305C42.3413 28.6336 42.3524 28.6354 42.3629 28.6376C42.3735 28.6399 42.3843 28.6415 42.3947 28.6439H42.3983C42.4087 28.6462 42.4183 28.6491 42.4291 28.6521C42.5152 28.6753 42.5942 28.7189 42.6597 28.7793L42.6656 28.7851L42.6771 28.7964L42.6883 28.8083C42.7787 28.9034 42.8534 29.0121 42.9097 29.1306L42.9185 29.1506C42.9376 29.1957 42.9527 29.2423 42.9633 29.29C42.9926 29.4231 42.9847 29.5618 42.9403 29.6906C42.9212 29.7467 42.8978 29.8012 42.8701 29.8535L42.8516 29.8868C42.7814 30.0046 42.6985 30.1142 42.6041 30.2138L42.5839 30.2352C42.5395 30.2822 42.4933 30.3279 42.4458 30.3719C42.4307 30.386 42.4152 30.4002 42.3994 30.4144L42.3756 30.436C42.326 30.4799 42.2753 30.5227 42.224 30.5646C42.215 30.5718 42.2058 30.579 42.197 30.5867C42.1612 30.6155 42.1242 30.6448 42.086 30.6741C41.954 30.775 41.8196 30.8722 41.6826 30.9661C41.602 31.0213 41.5187 31.0769 41.4327 31.1335C41.2723 31.2386 41.1109 31.3415 40.9478 31.4424C40.9008 31.4715 40.8535 31.501 40.8053 31.5303C40.3623 31.8027 39.8712 32.0941 39.3474 32.411L39.2118 32.4934C39.0634 32.5839 38.9233 32.6704 38.7916 32.7526L38.7252 32.7945L38.5995 32.8751C38.5497 32.9066 38.5013 32.9377 38.4543 32.9683C38.4187 32.9911 38.384 33.0136 38.35 33.0359L38.2829 33.08C38.2502 33.1014 38.2178 33.1228 38.1854 33.1447L38.1539 33.1647C38.1205 33.187 38.0881 33.2088 38.0566 33.2305L38.005 33.2656L37.9444 33.3077L37.8886 33.3467C37.8003 33.4086 37.7131 33.4719 37.6267 33.5363L37.5965 33.5592C37.5625 33.5849 37.5296 33.6106 37.4979 33.6356L37.4564 33.6687C37.3866 33.7248 37.3233 33.7786 37.2661 33.8299L37.2382 33.8556C37.2222 33.8702 37.2065 33.8849 37.1916 33.8993C37.181 33.9092 37.1713 33.9193 37.1607 33.9292L37.1461 33.9436C37.1139 33.9759 37.0826 34.009 37.0522 34.043L37.0373 34.0601C37.0042 34.0984 36.9754 34.1351 36.95 34.1709L36.9387 34.1871C36.9094 34.2299 36.8835 34.2751 36.8615 34.3222L36.8538 34.3386L36.8491 34.3501L36.8453 34.36L36.8401 34.3738C36.8385 34.3785 36.8353 34.3868 36.8335 34.394C36.8243 34.4208 36.8176 34.4485 36.8131 34.4767L36.8108 34.4918L36.809 34.5055L36.8079 34.5188V34.5895C36.8079 34.5954 36.8079 34.6014 36.8092 34.6075C36.8094 34.6111 36.8099 34.6147 36.8103 34.6183C36.8103 34.6242 36.8119 34.63 36.8126 34.6361L36.8169 34.6609V34.662C36.8185 34.6699 36.82 34.6778 36.8221 34.6857C36.8241 34.6935 36.8261 34.7023 36.8286 34.7107C36.8358 34.7361 36.8446 34.7613 36.8547 34.7859C36.8547 34.7877 36.8563 34.7897 36.857 34.7915C36.8597 34.7976 36.8621 34.8039 36.8651 34.81C36.8761 34.8356 36.8885 34.8606 36.902 34.8852L36.9162 34.9106L36.9311 34.9363L36.9466 34.962C36.9493 34.9663 36.9522 34.9701 36.9556 34.9739L36.9608 34.9793L36.9662 34.9843L36.9723 34.989C36.9763 34.9919 36.9806 34.9944 36.9851 34.9969C36.9896 34.9989 36.9946 35.0012 36.9995 35.003C37.0049 35.0048 37.0103 35.0063 37.0157 35.0077C37.1457 35.037 37.4127 34.9293 37.7674 34.742L37.8312 34.7082L37.939 34.6494L37.9919 34.6201C38.0293 34.5999 38.0678 34.5773 38.1068 34.5551L38.1782 34.5147C38.6473 34.2447 39.2078 33.8977 39.787 33.559C39.841 33.5273 39.8955 33.4957 39.95 33.4642L40.0594 33.3944C40.1142 33.3629 40.1687 33.3318 40.2234 33.3012C40.4562 33.1688 40.6922 33.0415 40.9307 32.9197L41.0377 32.8654C41.1088 32.8303 41.1793 32.7961 41.2489 32.7627C41.3838 32.6988 41.52 32.6382 41.6576 32.5808L41.7331 32.5502L41.7423 32.5466C42.1418 32.3882 42.5041 32.2903 42.7973 32.2903C42.8608 32.2898 42.9241 32.295 42.9867 32.3058H42.9885C43.0088 32.3094 43.027 32.3135 43.0455 32.3182H43.0489C43.0759 32.3247 43.1025 32.3331 43.1282 32.3434C43.1486 32.3509 43.1685 32.3596 43.1876 32.37C43.2716 32.4126 43.3434 32.4754 43.397 32.5529C43.4015 32.5594 43.4058 32.5661 43.4099 32.5731C43.4297 32.6033 43.4468 32.6351 43.4608 32.6684C43.4691 32.6875 43.4768 32.7073 43.484 32.7287C43.4912 32.7503 43.4975 32.7711 43.504 32.7934C43.5517 32.9641 43.547 33.1447 43.4905 33.3127V33.312Z" fill="#FF9D00"/>
<path d="M40.8178 21.0749V20.9646C40.8178 11.5402 33.1792 3.89941 23.7526 3.89941C14.3283 3.89941 6.68519 11.5402 6.68519 20.9646L6.68471 21.0015C6.68471 21.0261 6.68471 21.0504 6.68471 21.0749C6.68605 21.1116 6.68643 21.1483 6.68609 21.185L6.68745 21.2661L6.6879 21.2954L6.68902 21.3355C6.68947 21.3571 6.69015 21.3785 6.69015 21.4001L6.6924 21.4877L6.696 21.5906L6.69713 21.6244L6.70163 21.7309V21.7359L6.70794 21.8604V21.8636C6.71019 21.9061 6.71244 21.9487 6.71514 21.991C6.7174 22.0304 6.71987 22.0696 6.72258 22.1088L6.72325 22.1158C6.72523 22.1493 6.72749 22.1831 6.73001 22.2167L6.73068 22.2254C6.73293 22.2579 6.73541 22.2905 6.73811 22.3227L6.73856 22.329L6.74307 22.3853C6.75656 22.5477 6.77232 22.7101 6.79036 22.872L6.79149 22.8821L6.805 23.001L6.82054 23.1262C6.83096 23.2095 6.84209 23.2926 6.85386 23.3757C6.86089 23.4259 6.86819 23.4759 6.87571 23.5259L6.87683 23.532C6.89366 23.6451 6.91181 23.7581 6.93133 23.8707C6.98734 24.1975 7.05312 24.5226 7.1286 24.8456L7.12973 24.8507L7.13693 24.8811C7.14369 24.91 7.15044 24.9388 7.15765 24.9678L7.17004 24.9528C7.66546 24.3605 8.37617 24.034 9.17133 24.034C9.80863 24.034 10.4626 24.2445 11.1177 24.66C11.5523 24.9361 12.0329 25.4252 12.5274 26.0402C12.985 25.4045 13.6263 24.9823 14.36 24.867C14.5001 24.8449 14.6415 24.8336 14.7829 24.8334C16.4577 24.8334 17.4672 26.2868 17.8478 27.5943C18.0358 28.0361 18.9434 30.0466 20.3114 31.4091C22.3911 33.4869 22.9124 35.6314 21.8824 37.9262H21.8858C21.956 37.9338 22.0265 37.941 22.0972 37.9475C22.1393 37.9516 22.1814 37.9557 22.2235 37.9593L22.2384 37.9606C22.2693 37.9635 22.3003 37.9662 22.3314 37.9685L22.417 37.9755C22.4985 37.9818 22.5803 37.9874 22.6624 37.9928L22.7273 37.9966L22.7789 37.9996L22.8111 38.0014L22.9115 38.0068L22.939 38.0079L23.0448 38.0124L23.1622 38.0169L23.2567 38.0196L23.2725 38.0203C23.2923 38.021 23.3126 38.0219 23.3326 38.0219L23.354 38.0223C23.4869 38.0255 23.6195 38.027 23.7524 38.027H23.8934L23.9942 38.0259C24.019 38.0246 24.0436 38.0246 24.0683 38.0246H24.1075L24.1415 38.0239C24.1548 38.0234 24.1683 38.023 24.1816 38.023H24.2219L24.301 38.0207L24.4199 38.0167L24.5509 38.0111C24.5885 38.0095 24.6259 38.0077 24.6635 38.0056L24.7038 38.0034L24.7635 38L24.7989 37.998L24.8252 37.9964L24.9461 37.9883C24.9864 37.9858 25.0268 37.9827 25.0671 37.9795L25.1765 37.971L25.2537 37.9644L25.3382 37.9568C25.4249 37.9487 25.5114 37.9401 25.5974 37.9311C25.6523 37.925 25.7068 37.9189 25.7616 37.9124L25.8577 37.9009C24.8446 35.6152 25.369 33.4804 27.4404 31.4109C28.8055 30.0469 29.7126 28.0352 29.9017 27.5938C30.283 26.2866 31.2907 24.833 32.9666 24.833C33.1083 24.8332 33.2497 24.8442 33.3895 24.8665C34.1225 24.9818 34.7641 25.4043 35.2224 26.0398C35.7171 25.4248 36.1975 24.9356 36.6321 24.6596C37.2872 24.2441 37.9416 24.0335 38.5782 24.0335C39.2799 24.0335 39.9161 24.288 40.3964 24.7546C40.4228 24.637 40.4482 24.5195 40.4726 24.4015C40.4874 24.3278 40.5021 24.254 40.5165 24.1799C40.534 24.0889 40.5507 23.9975 40.566 23.9061C40.5701 23.8813 40.5743 23.8565 40.5791 23.8315C40.5865 23.7926 40.593 23.754 40.5991 23.7149L40.6016 23.7L40.6176 23.598L40.6333 23.4946L40.6336 23.4935C40.6399 23.4503 40.6464 23.4068 40.6523 23.3633C40.657 23.3305 40.6615 23.2976 40.6658 23.2645L40.6685 23.2456L40.6824 23.1379L40.6939 23.0463C40.7009 22.9859 40.7077 22.9256 40.7142 22.865C40.7171 22.8409 40.7196 22.8166 40.7221 22.7922L40.7243 22.7727C40.7286 22.7323 40.7324 22.6923 40.736 22.652L40.745 22.5583C40.7637 22.3506 40.7788 22.143 40.7905 21.9349V21.9336L40.7966 21.8232L40.7977 21.7985L40.8022 21.6938C40.804 21.6543 40.8056 21.6145 40.807 21.5742V21.5713L40.8081 21.5422C40.8092 21.5174 40.8101 21.4927 40.8101 21.4681L40.8106 21.458C40.8115 21.435 40.8124 21.4111 40.8124 21.3875L40.813 21.3672C40.8137 21.3436 40.8144 21.3202 40.8144 21.2965L40.8148 21.2765C40.8155 21.2463 40.8162 21.2163 40.8162 21.1862L40.8178 21.0749ZM19.5212 38.1243C20.8726 36.1422 20.7769 34.6541 18.9224 32.8008C17.068 30.9474 15.9882 28.2361 15.9882 28.2361C15.9882 28.2361 15.5853 26.6615 14.6665 26.8063C13.7477 26.9509 13.0737 29.3037 14.9973 30.7427C16.9209 32.1828 14.6147 33.159 13.8743 31.8079C13.1336 30.4563 11.1134 26.982 10.064 26.3177C9.01595 25.6531 8.27889 26.0256 8.52593 27.3952C8.64866 28.0751 9.78994 29.2353 10.8567 30.3182C11.9385 31.4183 12.9431 32.4395 12.7285 32.7999C12.3022 33.5178 10.8008 31.9565 10.8008 31.9565C10.8008 31.9565 6.09879 27.6778 5.07641 28.7925C4.13308 29.8201 5.58783 30.6936 7.83053 32.0398C8.02127 32.1544 8.21764 32.2724 8.41873 32.3941C10.9837 33.947 11.1841 34.3566 10.8193 34.9432C10.6849 35.1603 9.82619 34.6449 8.77004 34.0107C6.96961 32.9298 4.59495 31.5043 4.25941 32.7803C3.96914 33.8844 5.71574 34.5609 7.29952 35.1741C8.61916 35.6853 9.82619 36.1528 9.64829 36.7874C9.46431 37.4451 8.46693 36.8966 7.37609 36.2967C6.15216 35.6231 4.81113 34.8851 4.37201 35.7179C3.54239 37.292 10.0942 39.1454 10.1482 39.1589C12.265 39.7079 17.6404 40.8712 19.5208 38.1178L19.5212 38.1243ZM28.2272 38.1243C26.8756 36.1422 26.9715 34.6541 28.826 32.8008C30.6805 30.9474 31.7603 28.2361 31.7603 28.2361C31.7603 28.2361 32.1629 26.6615 33.0817 26.8063C34.0005 26.9509 34.6747 29.3037 32.7509 30.7427C30.8271 32.1817 33.1335 33.159 33.8742 31.8079C34.6146 30.4563 36.635 26.982 37.6822 26.3177C38.7293 25.6533 39.4675 26.0256 39.2205 27.3952C39.0977 28.0751 37.9565 29.2355 36.8897 30.3205C35.8081 31.4203 34.8035 32.4416 35.0181 32.8021C35.4442 33.52 36.9469 31.9579 36.9469 31.9579C36.9469 31.9579 41.649 27.6792 42.6713 28.7939C43.6147 29.8214 42.1597 30.6952 39.9172 32.0412C39.7265 32.1556 39.5303 32.2733 39.3292 32.3952C36.7643 33.9479 36.5639 34.3577 36.9287 34.9444C37.0631 35.1615 37.9218 34.646 38.9777 34.0121C40.7784 32.9311 43.1528 31.5057 43.4883 32.7814C43.7786 33.8855 42.032 34.5622 40.4482 35.1752C39.1286 35.6864 37.9216 36.1537 38.0995 36.7885C38.2834 37.4463 39.2804 36.8975 40.3694 36.2976C41.5933 35.624 42.9344 34.8858 43.3735 35.7188C44.2031 37.294 37.6513 39.1463 37.5973 39.1598C35.4805 39.7104 30.1051 40.8737 28.227 38.1203L28.2272 38.1243Z" fill="#FFD21E"/>
<path d="M29.31 16.3187C29.576 16.4129 29.7739 16.6995 29.9622 16.972C30.2166 17.3407 30.4535 17.6834 30.817 17.4902C31.246 17.2623 31.5975 16.9123 31.8274 16.4845C32.0574 16.0566 32.1551 15.5704 32.1085 15.0869C32.0738 14.7255 31.9594 14.3762 31.7734 14.0643C31.5874 13.7524 31.3345 13.4856 31.0332 13.2831C30.7316 13.0807 30.3889 12.9478 30.0299 12.8938C29.6708 12.8397 29.3041 12.8661 28.9564 12.9708C28.4914 13.1109 28.0784 13.3856 27.7695 13.7603C27.4607 14.1351 27.2697 14.5929 27.2209 15.0759C27.1722 15.5592 27.2679 16.0461 27.4958 16.4748C27.6643 16.7917 28.0381 16.6424 28.4326 16.4845C28.7421 16.3609 29.0641 16.232 29.31 16.3187ZM17.7396 16.319C17.4736 16.4131 17.2754 16.6998 17.0872 16.9723C16.8327 17.3407 16.5958 17.6836 16.2323 17.4904C15.9119 17.3199 15.6333 17.0803 15.4165 16.7892C15.1996 16.498 15.0501 16.1625 14.9785 15.8064C14.9069 15.4506 14.915 15.0831 15.0023 14.7309C15.0899 14.3785 15.2543 14.0499 15.4838 13.7686C15.7137 13.4876 16.0029 13.2611 16.3308 13.105C16.6586 12.9489 17.0171 12.8679 17.3802 12.867C17.7432 12.8662 18.1019 12.9459 18.4305 13.1003C18.759 13.2547 19.0493 13.4802 19.2803 13.7601C19.5893 14.1348 19.7803 14.5926 19.8291 15.0759C19.8778 15.5592 19.7821 16.046 19.5539 16.4748C19.3851 16.7916 19.0112 16.6421 18.6167 16.4843C18.3075 16.3606 17.9855 16.2318 17.7396 16.3187V16.319ZM27.5197 26.8468C29.3535 25.4019 30.0261 23.0432 30.0261 21.5907C30.0261 20.4423 29.2533 20.8037 28.0163 21.416L27.9467 21.4507C26.811 22.013 25.2984 22.7615 23.641 22.7615C21.9815 22.7615 20.4703 22.0128 19.3353 21.4504C18.0582 20.8179 17.2572 20.4211 17.2572 21.591C17.2572 23.0896 17.9738 25.5499 19.9415 26.9799C20.2009 26.4529 20.5662 25.9852 21.0148 25.6059C21.4631 25.2267 21.9851 24.9443 22.5479 24.7761C22.7443 24.7176 22.9465 25.0556 23.1537 25.4015C23.3534 25.7354 23.5574 26.0768 23.7653 26.0768C23.9864 26.0768 24.204 25.7404 24.4163 25.4118C24.6381 25.0686 24.8543 24.734 25.0635 24.8009C26.1165 25.1389 26.9973 25.8719 27.5204 26.8461L27.5197 26.8468Z" fill="#32343D"/>
<path d="M27.5089 26.8535C26.5539 27.6061 25.2845 28.1107 23.6311 28.1107C22.0779 28.1107 20.8635 27.6653 19.9312 26.9873C20.1908 26.4605 20.5563 25.9928 21.0046 25.6138C21.453 25.2346 21.975 24.952 22.5375 24.7835C22.9233 24.6684 23.3318 26.0842 23.7547 26.0842C24.2076 26.0842 24.6438 24.6774 25.0532 24.8083C26.1057 25.1465 26.9862 25.8795 27.51 26.8535H27.5089Z" fill="#FF323D"/>
<path d="M13.3506 18.3633C13.1763 18.4806 12.9806 18.5623 12.7748 18.6038C12.5689 18.6452 12.3568 18.6457 12.1508 18.6051C11.9447 18.5644 11.7486 18.4835 11.5738 18.3671C11.3991 18.2504 11.2491 18.1007 11.1324 17.9259C11.0157 17.7514 10.9346 17.5553 10.8937 17.3494C10.8529 17.1434 10.8531 16.9313 10.8944 16.7252C10.9357 16.5194 11.0172 16.3237 11.1342 16.1492C11.2513 15.9748 11.4018 15.8253 11.5767 15.7091C11.9287 15.4756 12.3591 15.3909 12.7732 15.474C13.1873 15.5571 13.5519 15.801 13.7866 16.1521C14.0212 16.5034 14.1072 16.9333 14.0255 17.3476C13.9438 17.7622 13.701 18.1275 13.3506 18.3633ZM36.1852 18.3633C36.0109 18.4806 35.8152 18.5623 35.6094 18.6038C35.4036 18.6452 35.1914 18.6457 34.9854 18.6051C34.7793 18.5644 34.5832 18.4835 34.4084 18.3671C34.2337 18.2504 34.0837 18.1007 33.9671 17.9259C33.8502 17.7514 33.7691 17.5553 33.7284 17.3494C33.6876 17.1434 33.6878 16.9313 33.729 16.7252C33.7702 16.5194 33.8518 16.3237 33.9689 16.1492C34.086 15.9748 34.2364 15.8253 34.4114 15.7091C34.7633 15.4756 35.1937 15.3909 35.6078 15.474C36.022 15.5571 36.3863 15.801 36.6212 16.1521C36.8558 16.5034 36.9419 16.9333 36.8601 17.3476C36.7784 17.7622 36.5356 18.1275 36.1852 18.3633Z" fill="#FFAD03"/>
</svg>
