<svg width="48" height="46" viewBox="0 0 48 46" fill="none" xmlns="http://www.w3.org/2000/svg">
<path d="M23.6594 0.140625C10.7074 0.140625 0.216797 10.6371 0.216797 23.5833C0.216797 33.943 6.93311 42.7281 16.2457 45.8245C17.4178 46.0452 17.8476 45.3205 17.8476 44.6973C17.8476 44.1405 17.8281 42.6656 17.8183 40.712C11.2974 42.1264 9.92205 37.5668 9.92205 37.5668C8.85541 34.8611 7.31406 34.1383 7.31406 34.1383C5.19054 32.6849 7.47816 32.7142 7.47816 32.7142C9.83219 32.8783 11.0688 35.1288 11.0688 35.1288C13.1591 38.7135 16.5563 37.6782 17.8965 37.0784C18.1074 35.5625 18.7111 34.529 19.3812 33.943C14.1749 33.3569 8.70303 31.3408 8.70303 22.3584C8.70303 19.7992 9.61144 17.7089 11.1157 16.0679C10.8519 15.476 10.0608 13.0927 11.3208 9.86346C11.3208 9.86346 13.2841 9.23442 17.7675 12.2663C19.6429 11.7447 21.6356 11.4869 23.6282 11.4751C25.6208 11.4869 27.6134 11.7447 29.4888 12.2663C33.943 9.23442 35.9063 9.86346 35.9063 9.86346C37.1663 13.0927 36.3751 15.476 36.1407 16.0679C37.6352 17.7089 38.5436 19.7992 38.5436 22.3584C38.5436 31.3643 33.0639 33.3471 27.8479 33.9234C28.6684 34.6267 29.4302 36.0645 29.4302 38.2603C29.4302 41.3977 29.4009 43.9178 29.4009 44.6797C29.4009 45.2951 29.8112 46.0276 31.0126 45.7932C40.3916 42.7183 47.1021 33.9273 47.1021 23.5833C47.1021 10.6371 36.6056 0.140625 23.6594 0.140625Z" fill="black"/>
</svg>
