<svg width="53" height="34" viewBox="0 0 53 34" fill="none" xmlns="http://www.w3.org/2000/svg">
<path d="M44.5803 4.76211C41.8424 6.55283 37.9329 9.18346 36.3555 11.7257C34.7782 14.268 36.0175 18.3578 35.5669 19.3526C35.2063 20.1484 34.5153 20.8632 34.2148 21.1211C35.304 22.1896 38.1808 24.3045 40.975 24.2161C44.4677 24.1055 45.5944 22.1159 45.5944 21.7843C45.5944 21.4527 44.5804 20.7895 42.7777 20.5684C45.5581 20.2047 50.0215 17.7865 50.1011 14.7102C50.1054 14.5259 49.7184 14.2017 48.1359 14.3786C49.8661 13.4145 53.2558 8.07813 51.9038 6.86226C51.372 6.38401 48.9744 8.18865 47.6224 8.63079C49.8758 7.08332 50.2138 5.31478 50.5518 4.31997C50.8898 3.03041 51.318 0.407073 50.3265 0.23022C48.5364 0.0107074 47.2844 2.99358 44.5803 4.76211Z" fill="white"/>
<path d="M35.5669 19.3526C36.0175 18.3578 34.7782 14.268 36.3555 11.7257C37.9329 9.18346 41.8424 6.55283 44.5803 4.76211C47.2844 2.99358 48.5364 0.0107074 50.3265 0.23022C51.318 0.407073 50.8898 3.03041 50.5518 4.31997C50.2138 5.31478 49.8758 7.08332 47.6224 8.63079M35.5669 19.3526C35.2063 20.1484 34.5153 20.8632 34.2148 21.1211C35.304 22.1896 38.1808 24.3045 40.975 24.2161C44.4677 24.1055 45.5944 22.1159 45.5944 21.7843C45.5944 21.4527 44.5804 20.7895 42.7777 20.5684M35.5669 19.3526L35.7652 19.3411M42.7777 20.5684C41.3355 20.3916 37.305 19.5622 35.7652 19.3411M42.7777 20.5684C45.5581 20.2047 50.0215 17.7865 50.1011 14.7102C50.1054 14.5259 49.7184 14.2017 48.1359 14.3786M35.7652 19.3411C36.3286 18.3463 36.6873 17.8152 36.9374 17.1419M47.6224 8.63079C45.3427 10.1963 40.7873 12.2267 39.1722 13.4943C38.0456 14.3786 37.3009 16.1635 36.9374 17.1419M47.6224 8.63079C48.9744 8.18865 51.372 6.38401 51.9038 6.86226C53.2558 8.07813 49.8661 13.4145 48.1359 14.3786M36.9374 17.1419C39.6387 16.8763 45.2675 15.9768 48.1359 14.3786" stroke="#A2A5DD" stroke-width="0.43"/>
<path d="M7.84934 4.76211C10.5873 6.55283 14.4968 9.18346 16.0741 11.7257C17.6515 14.268 16.4121 18.3578 16.8628 19.3526C17.2234 20.1484 17.9144 20.8632 18.2148 21.1211C17.1257 22.1896 14.2489 24.3045 11.4547 24.2161C7.96199 24.1055 6.8353 22.1159 6.8353 21.7843C6.8353 21.4527 7.84932 20.7895 9.65202 20.5684C6.87154 20.2047 2.4082 17.7865 2.32857 14.7102C2.32425 14.5259 2.71126 14.2017 4.2938 14.3786C2.56356 13.4145 -0.826152 8.07813 0.525869 6.86226C1.05768 6.38401 3.45524 8.18865 4.80726 8.63079C2.5539 7.08332 2.21592 5.31478 1.87789 4.31997C1.53988 3.03041 1.11172 0.407073 2.10321 0.23022C3.89325 0.0107074 5.14529 2.99358 7.84934 4.76211Z" fill="white"/>
<path d="M16.8628 19.3526C16.4121 18.3578 17.6515 14.268 16.0741 11.7257C14.4968 9.18346 10.5873 6.55283 7.84934 4.76211C5.14529 2.99358 3.89325 0.0107074 2.10321 0.23022C1.11172 0.407073 1.53988 3.03041 1.87789 4.31997C2.21592 5.31478 2.5539 7.08332 4.80726 8.63079M16.8628 19.3526C17.2234 20.1484 17.9144 20.8632 18.2148 21.1211C17.1257 22.1896 14.2489 24.3045 11.4547 24.2161C7.96199 24.1055 6.8353 22.1159 6.8353 21.7843C6.8353 21.4527 7.84932 20.7895 9.65202 20.5684M16.8628 19.3526L16.6645 19.3411M9.65202 20.5684C11.0942 20.3916 15.1247 19.5622 16.6645 19.3411M9.65202 20.5684C6.87154 20.2047 2.4082 17.7865 2.32857 14.7102C2.32425 14.5259 2.71126 14.2017 4.2938 14.3786M16.6645 19.3411C16.1011 18.3463 15.7424 17.8152 15.4923 17.1419M4.80726 8.63079C7.08695 10.1963 11.6423 12.2267 13.2574 13.4943C14.3841 14.3786 15.1288 16.1635 15.4923 17.1419M4.80726 8.63079C3.45524 8.18865 1.05768 6.38401 0.525869 6.86226C-0.826152 8.07813 2.56356 13.4145 4.2938 14.3786M15.4923 17.1419C12.791 16.8763 7.1622 15.9768 4.2938 14.3786" stroke="#A2A5DD" stroke-width="0.43"/>
<circle cx="26.4984" cy="22.5023" r="11.2836" fill="#FDD970" stroke="#C5821E" stroke-width="0.3"/>
<circle cx="26.2148" cy="21.2188" r="8" fill="white" stroke="#A2A5DD" stroke-width="0.3"/>
<circle cx="26.216" cy="20.1339" r="4.72143" fill="#A2A5DD" stroke="#22019D" stroke-width="0.3"/>
<circle cx="26.2137" cy="20.1317" r="3.42857" fill="#22019D"/>
<path d="M29.7535 17.5248C29.3657 18.0228 27.9454 19.0138 27.4474 18.626C26.9495 18.2382 27.5623 16.6184 27.9501 16.1204C28.338 15.6225 29.056 15.5331 29.554 15.9209C30.052 16.3088 30.1413 17.0268 29.7535 17.5248Z" fill="white"/>
</svg>
