<svg width="188" height="54" viewBox="0 0 188 54" fill="none" xmlns="http://www.w3.org/2000/svg">
<path d="M53.8945 14.9916C53.8945 9.81528 55.5683 5.17676 62.5982 5.17676C67.6865 5.17676 70.0298 7.73131 70.0298 11.8993V14.9244H65.2093V13.0421C65.2093 10.6892 64.4059 9.21025 62.2634 9.21025C59.5854 9.21025 59.0498 11.0926 59.0498 15.5966V33.8146C59.0498 38.1842 60.4558 38.9909 62.0626 38.9909C63.9372 38.9909 65.2093 37.6464 65.2093 34.5541V33.2096H70.0298V36.1002C70.0298 39.9993 68.423 43.0244 62.4643 43.0244C55.97 43.0244 53.8945 39.5959 53.8945 33.8146V14.9916ZM73.5782 42.7555H78.7335L80.4072 33.2768H88.4414L90.1152 42.7555H95.2704L87.7049 5.51288H81.7463L73.5782 42.7555ZM84.4243 10.9581H84.5582L87.7719 28.9072H81.2776L84.4243 10.9581ZM100.024 42.7555H104.51V9.81528H104.644L110.401 42.7555H115.557L120.779 9.81528H120.913V42.7555H125.733V5.51288H117.565L113.079 32.4701H112.879L108.527 5.51288H100.024V42.7555ZM131.558 42.7555H139.592C147.091 42.7555 148.095 40.201 148.095 32.134C148.095 25.8148 147.292 24.4031 143.141 23.6636V23.5292C146.622 23.0586 147.827 21.8485 147.827 14.5883C147.827 7.79853 146.756 5.58011 140.463 5.58011H131.558V42.7555ZM136.713 9.54638H139.124C142.404 9.54638 143.074 10.5548 143.074 14.7899C143.074 20.8402 142.739 21.5124 139.659 21.5124H136.713V9.54638ZM136.713 25.5459H140.061C142.873 25.5459 143.341 26.3526 143.341 31.9995C143.341 37.8481 142.806 38.722 139.927 38.722H136.713V25.5459ZM153.786 42.7555H158.941V5.51288H153.786V42.7555ZM163.762 42.7555H168.917L170.591 33.2768H178.625L180.299 42.7555H185.454L177.888 5.51288H171.93L163.762 42.7555ZM174.608 10.9581H174.742L177.955 28.9072H171.461L174.608 10.9581Z" fill="#00274D"/>
<path d="M80.3405 50.8228H77.3277V53.0412H76.6582V48.3355H77.3277V50.3522H80.3405V48.3355H81.01V53.0412H80.3405V50.8228ZM82.5499 52.974H86.1653V52.4362H83.2864V50.8228H85.9644V50.285H83.2864V48.806H86.0983V48.2682H82.6169L82.5499 52.974ZM92.057 52.974H92.8604L90.4502 48.2682H89.6468L87.2365 52.974H87.973L88.5755 51.7639H91.4544L92.057 52.974ZM88.8433 51.2261L90.0485 48.8733L91.1866 51.2261H88.8433ZM94.0655 52.974H97.4131V52.4362H94.7351V48.2682H94.0655V52.974ZM100.225 52.974H100.895V48.8733H102.903V48.2682H98.2835V48.8733H100.292V52.974H100.225ZM107.924 53.0412H108.594V48.3355H107.924V50.285H104.912V48.3355H104.242V53.0412H104.912V50.8228H107.924V53.0412ZM117.365 49.5455C117.298 48.4699 116.293 48.201 115.289 48.201C114.017 48.201 113.214 48.7388 113.214 49.6127C113.214 51.5623 116.829 50.4194 116.829 51.6967C116.829 52.2345 116.293 52.5706 115.289 52.5706C114.419 52.5706 113.816 52.2345 113.749 51.5623H113.013C113.08 52.5706 113.883 53.1084 115.222 53.1084C116.628 53.1084 117.432 52.5706 117.432 51.6295C117.432 51.0245 117.097 50.6211 116.293 50.4867L114.553 50.2178C113.95 50.1505 113.816 49.8816 113.816 49.6127C113.816 49.0749 114.352 48.7388 115.021 48.7388C115.758 48.7388 116.427 48.9405 116.494 49.6127H117.365V49.5455ZM121.583 48.1338C119.641 48.1338 118.971 49.4783 118.971 50.6211C118.971 51.7639 119.641 53.1084 121.583 53.1084C123.524 53.1084 124.194 51.7639 124.194 50.6211C124.194 49.4783 123.524 48.1338 121.583 48.1338ZM121.583 52.5706C120.444 52.5706 119.641 51.7639 119.641 50.6211C119.641 49.4783 120.444 48.6716 121.583 48.6716C122.721 48.6716 123.524 49.4783 123.524 50.6211C123.524 51.7639 122.721 52.5706 121.583 52.5706ZM125.667 52.974H129.014V52.4362H126.336V48.2682H125.667V52.974ZM134.169 51.0917C134.169 51.9656 133.634 52.5706 132.629 52.5706C131.692 52.5706 131.157 52.0328 131.157 51.0917V48.2682H130.487V51.0917C130.487 52.4362 131.424 53.1084 132.696 53.1084C133.969 53.1084 134.906 52.4362 134.906 51.0917V48.2682H134.236V51.0917H134.169ZM138.186 52.974H138.856V48.8733H140.864V48.2682H136.245V48.8733H138.253V52.974H138.186ZM142.204 52.974H142.873V48.2682H142.204V52.974ZM146.756 48.1338C144.815 48.1338 144.145 49.4783 144.145 50.6211C144.145 51.7639 144.815 53.1084 146.756 53.1084C148.698 53.1084 149.367 51.7639 149.367 50.6211C149.434 49.4783 148.765 48.1338 146.756 48.1338ZM146.756 52.5706C145.618 52.5706 144.815 51.7639 144.815 50.6211C144.815 49.4783 145.618 48.6716 146.756 48.6716C147.894 48.6716 148.698 49.4783 148.698 50.6211C148.698 51.7639 147.894 52.5706 146.756 52.5706ZM154.59 52.3017L151.711 48.2682H150.773V52.974H151.443V48.9405L154.322 52.974H155.259V48.2682H154.59V52.3017ZM160.816 49.5455C160.749 48.4699 159.745 48.201 158.74 48.201C157.468 48.201 156.665 48.7388 156.665 49.6127C156.665 51.5623 160.28 50.4194 160.28 51.6967C160.28 52.2345 159.745 52.5706 158.74 52.5706C157.87 52.5706 157.268 52.2345 157.201 51.5623H156.464C156.531 52.5706 157.335 53.1084 158.674 53.1084C160.08 53.1084 160.883 52.5706 160.883 51.6295C160.883 51.0245 160.548 50.6211 159.745 50.4867L158.004 50.2178C157.401 50.1505 157.268 49.8816 157.268 49.6127C157.268 49.0749 157.803 48.7388 158.473 48.7388C159.209 48.7388 159.879 48.9405 159.946 49.6127H160.816V49.5455Z" fill="#00274D"/>
<path d="M48.071 24.1338C48.071 10.756 37.2919 0 24.0355 0C10.7122 0 0 10.756 0 24.1338C0 37.4443 10.7792 48.2675 24.0355 48.2675C37.2919 48.2675 48.071 37.4443 48.071 24.1338ZM44.0539 27.2261C44.0539 38.3182 35.0825 47.2591 24.0355 47.2591C12.9886 47.2591 3.95012 38.3182 3.95012 27.2261C3.95012 16.0668 12.9886 7.05862 24.0355 7.05862C35.0825 7.05862 44.0539 16.0668 44.0539 27.2261Z" fill="#00274D"/>
<path d="M40.0365 24.5375C40.0365 15.6638 32.8727 8.4707 24.0351 8.4707C15.1975 8.4707 7.9668 15.6638 7.9668 24.5375C7.9668 33.4112 15.1975 40.6715 24.0351 40.6715C32.8727 40.6715 40.0365 33.4112 40.0365 24.5375ZM36.0863 27.6298C36.0863 34.2851 30.6633 39.7303 24.0351 39.7303C17.34 39.7303 11.9839 34.2851 11.9839 27.6298C11.9839 20.8401 17.34 15.5293 24.0351 15.5293C30.6633 15.5293 36.0863 20.8401 36.0863 27.6298Z" fill="#006990"/>
<path d="M32.0678 25.0076C32.0678 20.5707 28.4524 17.0078 24.1006 17.0078C19.6818 17.0078 16.0664 20.638 16.0664 25.0076C16.0664 29.4444 19.6818 33.0746 24.1006 33.0746C28.4524 33.0746 32.0678 29.4444 32.0678 25.0076ZM23.9667 32.0662C21.7573 32.0662 19.9496 30.2511 19.9496 28.0999C19.9496 25.8143 21.7573 23.9992 23.9667 23.9992C26.176 23.9992 27.9168 25.8143 27.9168 28.0999C27.9837 30.2511 26.243 32.0662 23.9667 32.0662Z" fill="#5C8727"/>
<path d="M188 8.06725C188 9.47897 186.862 10.6218 185.456 10.6218C184.117 10.6218 182.912 9.47897 182.912 8.06725C182.912 6.65552 184.117 5.5127 185.456 5.5127C186.862 5.5127 188 6.65552 188 8.06725ZM183.18 8.06725C183.18 9.34452 184.184 10.3529 185.389 10.3529C186.594 10.3529 187.599 9.34452 187.599 8.06725C187.599 6.8572 186.661 5.84882 185.389 5.84882C184.251 5.84882 183.18 6.8572 183.18 8.06725ZM184.519 6.65552H185.456C185.657 6.65552 186.394 6.65552 186.394 7.32777C186.394 7.39499 186.394 7.86557 185.858 8.00002C186.126 8.06724 186.26 8.20169 186.26 8.53782C186.327 8.87394 186.327 9.14284 186.394 9.41174H185.992C185.925 9.21007 185.925 9.14284 185.858 8.67227C185.791 8.26892 185.724 8.13447 185.255 8.13447H184.787V9.34452H184.519V6.65552ZM184.921 7.86557H185.523C185.724 7.86557 186.059 7.86557 186.059 7.46222C186.059 7.05887 185.724 7.05887 185.523 7.05887H184.921V7.86557Z" fill="#00274C"/>
</svg>
