<svg width="1467" height="107" viewBox="0 0 1467 107" fill="none" xmlns="http://www.w3.org/2000/svg">
<g clip-path="url(#clip0_3600_223)">
<rect x="-41.4658" y="-48.2172" width="1549.7" height="152.856" fill="#454BBB"/>
<path d="M756.689 11.875C775.35 11.875 791.099 24.333 796.077 41.3854C796.707 43.5407 799.353 44.6153 801.402 43.6969C803.069 42.9496 804.843 42.398 806.694 42.0714C807.698 41.8942 808.583 41.2904 809.097 40.4102C813.956 32.0939 822.977 26.5059 833.304 26.5059C842.452 26.506 850.575 30.8924 855.688 37.6755C856.549 38.8176 858.04 39.3211 859.418 38.9357C861.822 38.2629 864.357 37.9023 866.977 37.9023C875.115 37.9024 882.442 41.3745 887.561 46.9167C888.59 48.0319 890.249 48.3577 891.624 47.7166C895.216 46.0431 899.22 45.1084 903.443 45.1084C911.894 45.1085 919.47 48.8514 924.607 54.7689C924.993 55.2135 925.489 55.5481 926.043 55.7487C929.555 57.0211 932.621 59.2217 934.946 62.0542C936.69 64.1784 941.055 64.4006 942.853 62.3218C947.841 56.5544 955.214 52.9053 963.438 52.9053C967.694 52.9053 971.721 53.8833 975.309 55.6262C976.294 56.1049 977.452 56.0803 978.433 55.5936C981.048 54.2967 983.995 53.5674 987.111 53.5674C990.479 53.5675 993.647 54.4184 996.414 55.9172C997.796 56.6661 999.544 56.4734 1000.73 55.44C1000.86 55.3216 1001 55.205 1001.14 55.0903C1001.76 54.5819 1002.19 53.8812 1002.35 53.099C1004.77 41.4445 1015.1 32.6865 1027.47 32.6865C1033.01 32.6865 1038.14 34.4407 1042.33 37.422C1043.38 38.1693 1044.77 38.2782 1045.92 37.7046C1049.36 35.9983 1053.23 35.0391 1057.32 35.0391C1067.53 35.0391 1076.34 40.9973 1080.47 49.6236C1080.91 50.5381 1081.73 51.2171 1082.71 51.4758C1084.43 51.9282 1086.07 52.5532 1087.63 53.3316C1088.49 53.7627 1089.49 53.813 1090.39 53.4841C1092.7 52.6448 1095.19 52.1865 1097.79 52.1865V52.1865C1098.68 52.1865 1099.51 51.7684 1100.05 51.0693C1103.34 46.8311 1108.48 44.1026 1114.26 44.1025C1117.86 44.1025 1121.22 45.1633 1124.03 46.989C1125.19 47.744 1126.7 47.8036 1127.92 47.1432C1130.46 45.7671 1133.37 44.9854 1136.46 44.9854C1138.35 44.9854 1140.17 45.2767 1141.88 45.8168C1143.31 46.2671 1144.91 45.8466 1145.85 44.686C1151.17 38.1345 1159.29 33.9473 1168.38 33.9473C1173.81 33.9474 1178.9 35.4416 1183.24 38.0412C1184.88 39.0209 1187.09 38.519 1188.14 36.9269C1193.33 29.0788 1202.23 23.9014 1212.35 23.9014C1225.61 23.9016 1236.79 32.801 1240.24 44.9525C1240.63 46.3034 1241.81 47.2958 1243.2 47.467C1247.91 48.0449 1252.2 49.9369 1255.72 52.7633C1257.04 53.8242 1258.97 53.8242 1260.29 52.7634C1263.25 50.3826 1266.77 48.6657 1270.61 47.8386C1271.71 47.6033 1272.63 46.8528 1273.08 45.8283C1276.93 37.0729 1285.69 30.96 1295.87 30.96C1305.01 30.9601 1313 35.8912 1317.33 43.2385C1318.24 44.7923 1320.22 45.4684 1321.9 44.7972C1324.76 43.6491 1327.88 43.0176 1331.16 43.0176C1339.68 43.0177 1347.2 47.3022 1351.68 53.8339C1352 54.297 1352.43 54.6751 1352.93 54.9345C1354.21 55.6004 1355.42 56.3741 1356.56 57.2434C1358.09 58.4169 1360.38 58.1945 1361.7 56.7908C1365.48 52.7904 1370.84 50.2939 1376.78 50.2939C1378.51 50.2939 1380.19 50.5058 1381.79 50.9049C1383.1 51.229 1384.49 50.8065 1385.4 49.8121C1389.19 45.6383 1394.66 43.0176 1400.74 43.0176C1406.27 43.0176 1411.29 45.1785 1415 48.7008C1416.32 49.9515 1418.43 50.1 1419.92 49.0465C1423.3 46.6386 1427.45 45.2227 1431.92 45.2227C1442.29 45.2227 1450.88 52.8428 1452.41 62.791C1452.6 64.0074 1453.39 65.0562 1454.52 65.5602C1461.65 68.7645 1466.65 75.8876 1466.76 84.1899C1466.76 84.1908 1466.76 84.1916 1466.77 84.1919V84.1919C1466.77 84.1922 1466.77 84.193 1466.77 84.1939V104.312C1466.77 105.969 1465.42 107.312 1463.77 107.312H3.38284C1.72599 107.312 0.382812 105.969 0.382812 104.312V79.0673C0.382812 79.0629 0.38617 79.0594 0.390479 79.0591V79.0591C0.394906 79.0588 0.398305 79.0551 0.39814 79.0506C0.388985 78.8042 0.382812 78.5563 0.382812 78.3076C0.383241 67.4132 9.21492 58.5813 20.1094 58.5811C21.9884 58.5811 23.8061 58.8445 25.5277 59.3355C26.4616 59.6019 27.4679 59.481 28.3119 59.0005C31.1867 57.3638 34.5131 56.4288 38.0576 56.4287C43.8347 56.4287 49.0318 58.9128 52.6397 62.8702C52.8913 63.1462 53.2038 63.3601 53.552 63.4951C58.047 65.2368 61.7442 68.5779 63.9461 72.8203C64.0988 73.1144 64.7197 72.9633 64.7197 72.6318V72.6318C64.72 61.7373 73.5517 52.9055 84.4463 52.9053C89.3422 52.9053 93.8214 54.6891 97.2698 57.6421C98.9112 59.0476 101.614 58.9093 102.972 57.2291C108.494 50.4013 116.939 46.0352 126.404 46.0352C135.137 46.0352 143 49.7521 148.501 55.689C149.318 56.5701 150.545 56.9496 151.727 56.738C152.862 56.5348 154.031 56.4287 155.225 56.4287C161.257 56.4287 166.657 59.1371 170.276 63.4036C170.772 63.9883 171.444 64.3992 172.19 64.5746C173.257 64.8252 174.289 65.1623 175.281 65.578C177.311 66.429 179.925 65.4191 180.858 63.4259C184.004 56.7077 190.825 52.0539 198.733 52.0537V52.0537C199.578 52.0537 200.326 51.4761 200.531 50.6566C203.11 40.3157 212.46 32.6543 223.6 32.6543C231.618 32.6545 238.709 36.6249 243.015 42.7065C243.57 43.4905 244.475 43.958 245.436 43.958V43.958C254.866 43.9582 263.012 49.4488 266.856 57.4073C267.344 58.418 268.291 59.1394 269.395 59.3414C273.609 60.1127 277.435 61.9958 280.558 64.6749C281.539 65.5162 282.913 65.756 284.128 65.3157C286.386 64.4971 288.823 64.0508 291.363 64.0508C293.883 64.0508 296.299 64.4904 298.541 65.2965C300.419 65.9717 302.643 65.0558 303.427 63.2211C307.5 53.6922 316.959 47.0146 327.978 47.0146C331.802 47.0146 335.439 47.8198 338.728 49.2693C340.485 50.0441 342.635 49.2853 343.501 47.5708C348.198 38.2767 357.833 31.9033 368.958 31.9033C378.75 31.9035 387.388 36.8414 392.52 44.3624C393.454 45.7306 395.255 46.2635 396.818 45.7143C398.835 45.0055 401.004 44.6202 403.263 44.6201C410.871 44.6201 417.458 48.9937 420.647 55.3639C421.438 56.9432 423.277 57.8217 425.003 57.4439C426.347 57.1494 427.743 56.9942 429.176 56.9941C436.104 56.9941 442.185 60.6207 445.625 66.0788C446.156 66.921 447.014 67.5111 447.99 67.7057C449.211 67.949 450.391 68.3066 451.517 68.767C452.662 69.235 453.981 69.0965 454.998 68.3922C458.403 66.0348 462.604 64.6426 467.149 64.6426C469.48 64.6426 471.72 65.0085 473.808 65.6829C475.175 66.1241 476.698 65.7169 477.674 64.6645C481.223 60.8416 486.292 58.4493 491.919 58.4492C493.96 58.4492 495.928 58.7643 497.776 59.3478C498.27 59.504 498.794 59.5507 499.308 59.4843C500.13 59.3781 500.968 59.3233 501.818 59.3232C503.37 59.3232 504.879 59.5051 506.325 59.8487C508.158 60.2841 510.153 59.3054 510.825 57.5456C514.765 47.2365 524.749 39.915 536.442 39.915C544.84 39.915 552.356 43.6905 557.385 49.637C558.269 50.6824 559.7 51.1151 561.016 50.7361C563.429 50.0409 565.978 49.668 568.615 49.668C571.728 49.668 574.72 50.1868 577.508 51.1427C579.159 51.7086 581.03 50.9745 581.855 49.4365C586.477 40.8227 595.569 34.9648 606.028 34.9648C607.953 34.9648 609.832 35.1633 611.645 35.5409C613.072 35.8379 614.556 35.2134 615.305 33.9634C621.754 23.1983 633.532 15.9922 646.994 15.9922C658.738 15.9922 669.2 21.4762 675.961 30.0229C677.287 31.6989 679.927 31.8083 681.428 30.2867C686.908 24.7302 694.524 21.2852 702.944 21.2852C709.548 21.2852 715.658 23.4032 720.63 26.9971C722.086 28.0496 724.162 27.8294 725.321 26.4563C732.847 17.539 744.107 11.875 756.689 11.875Z" fill="#FBF7F0"/>
<path d="M756.662 10.875C775.753 10.8752 791.862 23.6382 796.955 41.1055C797.396 42.6187 799.354 43.4803 800.905 42.7842C802.643 42.0038 804.494 41.428 806.424 41.0869C807.145 40.9595 807.773 40.5254 808.135 39.9053C813.159 31.295 822.49 25.5059 833.172 25.5059C842.635 25.5061 851.036 30.0507 856.323 37.0732C856.935 37.8862 858.001 38.247 858.981 37.9727C861.469 37.2757 864.091 36.9024 866.799 36.9023C875.217 36.9025 882.796 40.4999 888.088 46.2383C888.822 47.0335 890.011 47.2681 890.992 46.8105C894.707 45.0768 898.85 44.1084 903.216 44.1084C911.957 44.1085 919.794 47.9865 925.105 54.1133C925.375 54.4245 925.727 54.6639 926.126 54.8086C929.804 56.1433 933.013 58.4514 935.447 61.4199C936.083 62.1947 937.297 62.7107 938.643 62.7646C939.992 62.8186 941.186 62.3987 941.817 61.668C946.98 55.6902 954.614 51.9053 963.129 51.9053C967.534 51.9054 971.706 52.919 975.421 54.7266C976.114 55.0637 976.945 55.0531 977.66 54.6982C980.406 53.3343 983.501 52.5674 986.77 52.5674C990.303 52.5675 993.632 53.4621 996.537 55.0381C997.551 55.588 998.846 55.4451 999.714 54.6865C999.857 54.5622 1000 54.4387 1000.15 54.3184C1000.59 53.95 1000.9 53.4476 1001.01 52.8955C1003.53 40.7866 1014.24 31.6866 1027.08 31.6865C1032.82 31.6865 1038.14 33.5097 1042.49 36.6074C1043.24 37.1407 1044.23 37.2182 1045.06 36.8086C1048.62 35.0353 1052.64 34.0391 1056.89 34.0391C1067.48 34.0391 1076.62 40.2315 1080.91 49.1914C1081.22 49.8414 1081.8 50.3247 1082.5 50.5088C1084.28 50.9789 1085.98 51.6285 1087.6 52.4375C1088.2 52.7427 1088.92 52.7809 1089.57 52.5439C1091.99 51.6654 1094.59 51.1865 1097.3 51.1865C1097.87 51.1864 1098.41 50.9162 1098.77 50.4561C1102.23 45.9844 1107.65 43.1026 1113.75 43.1025C1117.54 43.1026 1121.08 44.2229 1124.05 46.1504C1124.9 46.7057 1126.02 46.7497 1126.91 46.2637C1129.59 44.8105 1132.66 43.9854 1135.92 43.9854C1137.91 43.9854 1139.83 44.2929 1141.63 44.8633C1142.69 45.1996 1143.86 44.8729 1144.52 44.0557C1150.01 37.2805 1158.4 32.9474 1167.79 32.9473C1173.4 32.9474 1178.66 34.4931 1183.15 37.1826C1184.33 37.8878 1185.94 37.5213 1186.69 36.375C1192.05 28.2589 1201.25 22.9014 1211.7 22.9014C1225.4 22.9016 1236.95 32.109 1240.52 44.6787C1240.79 45.6361 1241.63 46.3515 1242.63 46.4746C1247.52 47.076 1251.99 49.0451 1255.64 51.9844C1256.59 52.7506 1258 52.7506 1258.95 51.9844C1262.03 49.5085 1265.68 47.722 1269.68 46.8613C1270.46 46.6934 1271.12 46.1564 1271.44 45.4258C1275.44 36.3208 1284.53 29.96 1295.11 29.96C1304.61 29.9603 1312.91 35.0917 1317.4 42.7314C1318.06 43.8587 1319.52 44.3559 1320.73 43.8691C1323.7 42.6744 1326.95 42.0176 1330.35 42.0176C1339.2 42.0177 1347.01 46.4762 1351.67 53.2676C1351.9 53.5954 1352.2 53.864 1352.55 54.0479C1353.88 54.7405 1355.14 55.5452 1356.32 56.4492C1357.43 57.3002 1359.14 57.1488 1360.13 56.1045C1364.08 51.9124 1369.69 49.2939 1375.91 49.2939C1377.72 49.294 1379.48 49.516 1381.16 49.9346C1382.1 50.17 1383.12 49.8611 1383.78 49.1396C1387.74 44.7661 1393.47 42.0176 1399.84 42.0176C1405.62 42.0177 1410.88 44.2837 1414.77 47.9746C1415.74 48.8962 1417.32 49.0077 1418.41 48.2314C1421.95 45.7072 1426.29 44.2227 1430.97 44.2227C1441.83 44.2227 1450.83 52.2108 1452.42 62.6396C1452.56 63.5199 1453.14 64.2832 1453.95 64.6484C1461.15 67.8866 1466.27 74.9441 1466.74 83.249C1466.27 75.7607 1459.64 69.3997 1453.13 66.4727C1451.7 65.8298 1450.69 64.4946 1450.45 62.9424C1449 53.4748 1440.83 46.2227 1430.97 46.2227C1426.72 46.2227 1422.79 47.5699 1419.57 49.8613C1417.7 51.1915 1415.06 51.0059 1413.4 49.4268C1409.86 46.0736 1405.09 44.0177 1399.84 44.0176C1394.06 44.0176 1388.86 46.5103 1385.25 50.4844C1384.1 51.7512 1382.33 52.2873 1380.68 51.875C1379.15 51.4953 1377.55 51.294 1375.91 51.2939C1370.26 51.2939 1365.17 53.6687 1361.58 57.4775C1359.92 59.2398 1357.06 59.5331 1355.11 58.0381C1354.02 57.2036 1352.86 56.4603 1351.63 55.8213C1350.99 55.4863 1350.44 54.9984 1350.03 54.4004C1345.86 48.3246 1338.96 44.2766 1331.11 44.0293L1330.35 44.0176C1327.21 44.0176 1324.22 44.6243 1321.47 45.7256C1319.34 46.5807 1316.84 45.7258 1315.68 43.7461C1311.66 36.9118 1304.34 32.258 1295.93 31.9736L1295.11 31.96C1285.35 31.96 1276.96 37.8258 1273.26 46.2314C1272.69 47.5493 1271.5 48.5138 1270.1 48.8164C1266.41 49.61 1263.04 51.2576 1260.2 53.543C1258.52 54.8979 1256.07 54.898 1254.39 53.543C1251.02 50.8297 1246.9 49.0145 1242.39 48.46C1240.61 48.2405 1239.09 46.9706 1238.6 45.2266C1235.32 33.6769 1224.82 25.1705 1212.3 24.9072L1211.7 24.9014C1201.95 24.9014 1193.37 29.8986 1188.36 37.4785C1187.01 39.5163 1184.22 40.1536 1182.13 38.8994C1178.07 36.4686 1173.34 35.0383 1168.28 34.9512L1167.79 34.9473C1159.02 34.9474 1151.2 38.9889 1146.07 45.3164C1144.85 46.8201 1142.81 47.3345 1141.03 46.7705C1139.42 46.2609 1137.7 45.9854 1135.92 45.9854C1133 45.9854 1130.26 46.7236 1127.86 48.0225C1126.32 48.857 1124.43 48.7826 1122.96 47.8281C1120.31 46.1046 1117.15 45.1026 1113.75 45.1025C1108.3 45.1026 1103.45 47.6773 1100.35 51.6816C1099.67 52.5608 1098.64 53.1139 1097.53 53.1797L1097.3 53.1865C1094.83 53.1865 1092.45 53.6237 1090.25 54.4238C1089.1 54.8445 1087.81 54.7822 1086.7 54.2256C1085.21 53.4778 1083.63 52.877 1081.99 52.4424C1080.73 52.1088 1079.67 51.2344 1079.11 50.0557C1075.14 41.7632 1066.68 36.0391 1056.89 36.0391C1052.96 36.0391 1049.24 36.9616 1045.95 38.6006C1044.46 39.3379 1042.68 39.1983 1041.33 38.2373C1037.31 35.3723 1032.39 33.6865 1027.08 33.6865C1015.21 33.6866 1005.29 42.1028 1002.97 53.3027C1002.76 54.3149 1002.2 55.213 1001.42 55.8613C1001.28 55.97 1001.16 56.0812 1001.03 56.1934C999.529 57.5014 997.331 57.7444 995.584 56.7969C993.128 55.4643 990.337 54.6711 987.367 54.5771L986.77 54.5674C983.815 54.5674 981.024 55.2594 978.548 56.4893C977.303 57.1073 975.822 57.1452 974.548 56.5254C971.314 54.9522 967.707 54.0258 963.894 53.916L963.129 53.9053C955.218 53.9053 948.128 57.4186 943.328 62.9756C942.163 64.3233 940.279 64.8321 938.564 64.7637C936.847 64.695 935.011 64.0377 933.905 62.6885C931.694 59.9925 928.78 57.8985 925.445 56.6885C924.738 56.4321 924.097 56.0026 923.596 55.4248C918.803 49.8953 911.807 46.3363 903.976 46.1191L903.216 46.1084C899.148 46.1084 895.292 47.0101 891.836 48.623C890.068 49.4477 887.945 49.0297 886.622 47.5947C881.845 42.416 875.075 39.1136 867.532 38.9121L866.799 38.9023C864.275 38.9024 861.834 39.2499 859.519 39.8984C857.748 40.3944 855.835 39.7484 854.728 38.2773C849.957 31.9386 842.467 27.7729 833.995 27.5186L833.172 27.5059C823.229 27.5059 814.54 32.8929 809.86 40.915C809.194 42.0548 808.056 42.8297 806.772 43.0566C805.005 43.3687 803.312 43.8954 801.722 44.6094C799.181 45.7497 795.853 44.463 795.037 41.666C790.186 25.0286 774.841 12.8752 756.662 12.875C744.403 12.875 733.433 18.3997 726.099 27.1016C724.593 28.8881 721.929 29.1559 720.066 27.8076C715.265 24.3329 709.367 22.2852 702.989 22.2852C694.858 22.2853 687.505 25.6154 682.213 30.9893C680.305 32.9257 676.967 32.8041 675.26 30.6436C668.689 22.3264 658.525 16.9923 647.115 16.9922C634.037 16.9922 622.593 24.0014 616.326 34.4775C615.352 36.1044 613.437 36.9005 611.61 36.5195C609.866 36.1559 608.058 35.9648 606.205 35.9648C596.142 35.9648 587.394 41.6072 582.945 49.9092C581.89 51.8787 579.512 52.8133 577.4 52.0889C574.718 51.1684 571.839 50.668 568.843 50.668C566.304 50.668 563.851 51.0279 561.53 51.6973C559.839 52.1852 558.002 51.6297 556.865 50.2832C552.024 44.5518 544.793 40.915 536.713 40.915C525.463 40.9152 515.856 47.968 512.065 57.9023C511.203 60.1606 508.692 61.3647 506.406 60.8213C505.037 60.4956 503.607 60.3232 502.136 60.3232C501.33 60.3233 500.536 60.375 499.758 60.4756C499.1 60.5607 498.43 60.5016 497.798 60.3018C496.049 59.7486 494.185 59.4492 492.25 59.4492C486.92 59.4493 482.12 61.7172 478.757 65.3447C477.521 66.678 475.596 67.1971 473.857 66.6348C471.994 66.0324 470.002 65.6872 467.93 65.6465L467.514 65.6426C463.181 65.6427 459.183 66.9718 455.948 69.2148C454.652 70.1134 452.978 70.2869 451.525 69.6924C450.459 69.256 449.342 68.9172 448.186 68.6865C446.942 68.4383 445.851 67.6864 445.174 66.6123C441.914 61.4326 436.154 57.9942 429.593 57.9941C428.234 57.9942 426.911 58.1418 425.638 58.4209C423.469 58.8965 421.176 57.7999 420.182 55.8115C417.16 49.7667 410.92 45.6201 403.714 45.6201C401.573 45.6202 399.518 45.9864 397.609 46.6582C395.65 47.3476 393.366 46.6918 392.162 44.9258C387.37 37.8931 379.408 33.2035 370.338 32.917L369.456 32.9033C358.738 32.9033 349.452 39.051 344.925 48.0215C343.818 50.2151 341.1 51.1717 338.864 50.1846C335.704 48.79 332.209 48.0146 328.531 48.0146C317.942 48.0147 308.849 54.4405 304.933 63.6143C303.933 65.9568 301.148 67.0836 298.798 66.2373C296.666 65.4697 294.366 65.0508 291.967 65.0508C289.548 65.0508 287.229 65.4763 285.082 66.2559C283.536 66.8168 281.784 66.5141 280.526 65.4336C277.538 62.8665 273.878 61.0637 269.848 60.3252C268.432 60.0656 267.219 59.1397 266.593 57.8418C262.973 50.3352 255.364 45.1233 246.524 44.9619L246.101 44.958C244.819 44.958 243.611 44.3332 242.869 43.2842C238.877 37.6382 232.387 33.8938 225.012 33.665L224.296 33.6543C213.64 33.6543 204.694 40.9924 202.226 50.8984C201.91 52.1689 200.759 53.0537 199.463 53.0537C191.967 53.054 185.5 57.4698 182.517 63.8496C181.358 66.3278 178.178 67.5585 175.656 66.5C174.717 66.1055 173.738 65.7857 172.728 65.5479C171.775 65.3235 170.917 64.7987 170.283 64.0508C166.851 59.9987 161.731 57.4287 156.013 57.4287C154.88 57.4287 153.772 57.5299 152.696 57.7227C151.2 57.9906 149.625 57.5139 148.566 56.3691C143.253 50.6278 135.662 47.0352 127.231 47.0352C118.094 47.0353 109.941 51.2546 104.608 57.8574C102.866 60.0133 99.5154 60.1407 97.4869 58.4014C94.2173 55.5979 89.9724 53.9053 85.3305 53.9053C75.0024 53.9057 66.6301 62.2897 66.6299 72.6318C66.6299 73.4971 65.8772 73.8499 65.5388 73.9326C65.2007 74.0151 64.3706 74.0485 63.9726 73.2812C61.8848 69.2533 58.3776 66.0808 54.1172 64.4277C53.6257 64.237 53.1845 63.9343 52.8291 63.5439C49.4073 59.7856 44.4814 57.4287 39.0049 57.4287C35.6431 57.4288 32.4905 58.3161 29.7663 59.8691C28.6903 60.4824 27.4092 60.6366 26.219 60.2969C24.5878 59.831 22.8638 59.5811 21.081 59.5811C8.27244 59.5815 3.68263 73.227 0.382812 83.249V79.0674C0.382812 79.0159 0.38805 78.9654 0.395499 78.916C0.389317 78.7164 0.382812 78.5132 0.382812 78.3076L0.389644 77.7725C0.673514 66.5732 9.8286 57.5814 21.081 57.5811C23.0511 57.5811 24.9584 57.858 26.7655 58.374C27.4404 58.5668 28.1693 58.4793 28.7787 58.1318C31.7961 56.4117 35.2875 55.4288 39.0049 55.4287C45.0666 55.4287 50.5214 58.0399 54.3056 62.1963C54.4526 62.3578 54.6355 62.4833 54.8394 62.5625C58.9231 64.1471 62.3768 66.9915 64.7298 70.6182C65.7412 60.1164 74.5778 51.9057 85.3305 51.9053C90.4668 51.9053 95.168 53.7807 98.7858 56.8828C100.036 57.9544 102.084 57.8049 103.056 56.6006C108.752 49.5484 117.465 45.0353 127.231 45.0352C136.241 45.0352 144.356 48.8773 150.031 55.0098C150.602 55.6267 151.48 55.9088 152.345 55.7539C153.536 55.5404 154.762 55.4287 156.013 55.4287C162.343 55.4287 168.011 58.2759 171.806 62.7568C172.163 63.1779 172.647 63.475 173.184 63.6016C174.303 63.865 175.388 64.2193 176.429 64.6562C177.961 65.2989 180.003 64.5097 180.708 63.002C184.008 55.9456 191.163 51.054 199.463 51.0537C199.853 51.0537 200.197 50.7832 200.289 50.415C202.973 39.6394 212.702 31.6543 224.296 31.6543C232.641 31.6546 240.02 35.7941 244.499 42.1289C244.866 42.6477 245.466 42.958 246.101 42.958C255.916 42.9582 264.393 48.6819 268.391 56.9727C268.74 57.6957 269.419 58.2127 270.207 58.3574C274.595 59.1614 278.577 61.1251 281.826 63.916C282.527 64.5181 283.521 64.6957 284.401 64.376C286.764 63.5184 289.313 63.0508 291.967 63.0508C294.6 63.0508 297.128 63.511 299.474 64.3555C300.873 64.8588 302.53 64.1547 303.096 62.8281C307.315 52.9442 317.114 46.0147 328.531 46.0146C332.492 46.0146 336.261 46.8501 339.67 48.3545C340.944 48.9166 342.519 48.3549 343.142 47.1201C347.995 37.5024 357.955 30.9033 369.456 30.9033C379.579 30.9035 388.508 36.0166 393.811 43.7988C394.472 44.7689 395.786 45.1792 396.948 44.7705C399.067 44.025 401.344 43.6202 403.714 43.6201C411.705 43.6201 418.621 48.2206 421.968 54.916C422.553 56.0861 423.934 56.7465 425.211 56.4668C426.623 56.1571 428.09 55.9942 429.593 55.9941C436.869 55.9942 443.253 59.8097 446.864 65.5459C447.248 66.1559 447.87 66.5836 448.576 66.7246C449.858 66.9805 451.098 67.3566 452.282 67.8408C453.116 68.182 454.076 68.0799 454.811 67.5703C458.376 65.0987 462.77 63.6427 467.514 63.6426C469.946 63.6426 472.287 64.0253 474.471 64.7314C475.461 65.0514 476.578 64.7557 477.293 63.9844C481.018 59.9662 486.342 57.4493 492.25 57.4492C494.392 57.4492 496.459 57.7806 498.4 58.3945C498.756 58.5069 499.132 58.5399 499.501 58.4922C500.364 58.3806 501.244 58.3233 502.136 58.3232C503.764 58.3232 505.349 58.5146 506.868 58.876C508.243 59.2029 509.717 58.4496 510.199 57.1885C514.276 46.5052 524.608 38.9152 536.713 38.915C545.405 38.915 553.186 42.8297 558.39 48.9912C559.019 49.7354 560.041 50.0454 560.977 49.7754C563.476 49.0547 566.115 48.668 568.843 48.668C572.063 48.668 575.16 49.2052 578.048 50.1963C579.234 50.6031 580.592 50.0698 581.184 48.9639C585.967 40.0385 595.377 33.9648 606.205 33.9648C608.196 33.9648 610.14 34.1702 612.017 34.5615C613.039 34.7746 614.09 34.322 614.612 33.4492C621.225 22.3952 633.307 14.9922 647.115 14.9922C659.161 14.9923 669.893 20.6263 676.826 29.4023C677.767 30.5933 679.701 30.6906 680.791 29.585C686.443 23.8459 694.302 20.2853 702.989 20.2852C709.801 20.2852 716.106 22.4737 721.236 26.1865C722.281 26.9432 723.763 26.7709 724.572 25.8115C732.27 16.6787 743.79 10.875 756.662 10.875Z" fill="#C6C2EF"/>
<path d="M288.274 65.402C288.137 64.7496 288 64.0971 287.863 63.4447C287.615 63.5137 287.363 63.5917 287.12 63.6731C282.899 65.2166 278.647 67.6598 276.786 71.7742C276.694 72.0007 276.612 72.231 276.543 72.4642C276.643 72.2426 276.755 72.0272 276.876 71.8183C279.218 68.0931 283.587 66.387 287.605 65.5102C287.83 65.468 288.058 65.4301 288.274 65.402Z" fill="#C6C2EF"/>
<path d="M345.043 47.7853C344.433 47.5166 343.823 47.248 343.212 46.9794C343.153 47.1556 343.097 47.3392 343.05 47.5118C342.282 50.6138 342.148 53.9193 343.457 56.7281C343.532 56.8798 343.612 57.0289 343.698 57.1738C343.643 57.015 343.594 56.8542 343.551 56.6928C342.836 53.7616 343.631 50.7208 344.829 48.1806C344.897 48.0461 344.971 47.9069 345.043 47.7853Z" fill="#C6C2EF"/>
<path d="M577.639 50.1304C577.435 50.7651 577.231 51.3997 577.027 52.0344C577.493 52.1668 577.975 52.3191 578.45 52.4821C586.678 55.4433 595.784 61.4499 596.261 71.1094C596.28 71.6312 596.273 72.1305 596.239 72.6552C596.306 72.1337 596.346 71.6344 596.361 71.1089C596.537 61.3014 587.543 54.338 579.126 50.7062C578.634 50.5014 578.132 50.3064 577.639 50.1304Z" fill="#C6C2EF"/>
<path d="M63.4666 68.9142C63.0202 69.4094 62.5738 69.9046 62.1274 70.3997C62.3981 70.6213 62.6584 70.9035 62.8985 71.2157C64.9227 74.1136 66.3387 78.954 64.1492 81.8485C61.5517 84.6086 57.2885 86.4596 56.2741 90.5523C56.1842 90.9955 56.1502 91.4469 56.167 91.8968C56.1835 91.4468 56.2509 91.0031 56.3713 90.5758C57.6536 86.6789 61.85 85.2554 64.8225 82.5667C67.903 78.7922 66.5587 73.9181 64.452 70.1218C64.1762 69.7024 63.8611 69.2936 63.4666 68.9142Z" fill="#C6C2EF"/>
<path d="M643.104 78.5916C627.52 74.384 618.495 60.6706 615.93 54.3398C615.93 68.852 620.41 76.4489 621.092 79.0787C622.455 78.8839 627.909 81.2214 631.903 84.7277C636.188 84.0264 642.194 86.3835 644.662 87.6496C644.856 87.9418 647.252 88.5262 655.278 88.5262C663.304 88.5262 667.647 87.0328 668.816 86.2861C668.914 86.5458 669.985 87.3574 673.491 88.5262C672.946 85.2537 674.628 84.2407 675.537 84.1433H671.056L675.537 78.5916C671.219 80.3448 658.687 82.7992 643.104 78.5916Z" fill="#C6C2EF"/>
<path d="M681.8 67.2205V58.7569C683.399 62.8006 692.897 68.631 696.47 70.4178C700.044 72.2045 699.95 72.3926 700.326 75.3078C692.427 71.6215 688.258 73.7718 687.161 75.3078L681.8 67.2205Z" fill="#C6C2EF"/>
<path d="M817.844 72.7739C818.34 72.3964 819.524 71.1529 820.287 69.1981C812.511 62.3945 809.835 55.0029 809.413 51.8871C808.194 55.0171 808.785 65.7417 812.003 68.0063C814.101 68.4354 816.771 71.3635 817.844 72.7739Z" fill="#C6C2EF"/>
<path d="M1083.17 77.3737C1081.79 75.6619 1083.14 73.1282 1083.99 72.0753C1085.28 74.249 1088.94 79.3096 1093.26 82.1626C1098.66 85.7288 1105.9 85.4231 1113.13 84.0985C1107.93 88.8874 1090.61 86.6458 1089.9 86.5439C1089.19 86.442 1084.91 79.5134 1083.17 77.3737Z" fill="#C6C2EF"/>
<path d="M1387.27 80.224C1374.15 78.1631 1366.44 67.9759 1364.22 63.1399C1362.38 69.6481 1368.34 78.597 1371.54 82.2579C1372.22 81.9867 1376.32 81.2003 1387.27 80.224Z" fill="#C6C2EF"/>
<path d="M1091.59 54.0233C1091.43 53.3765 1091.27 52.7297 1091.11 52.0829C1090.84 52.1693 1090.61 52.2564 1090.38 52.3471C1086.35 54.0731 1082.16 55.8938 1079.38 59.3414C1079.25 59.542 1079.12 59.7524 1079.02 59.9651C1079.15 59.7688 1079.3 59.5799 1079.46 59.4034C1082.59 56.4558 1086.92 55.2595 1090.95 54.1591C1091.17 54.1068 1091.41 54.0535 1091.59 54.0233Z" fill="#C6C2EF"/>
<path d="M1141.18 44.7122C1141.09 45.3719 1140.99 46.0315 1140.89 46.6911C1141.11 46.7058 1141.34 46.7374 1141.57 46.7814C1145.88 47.6852 1149.78 50.9586 1152.14 55.0315C1152.28 55.258 1152.41 55.4855 1152.53 55.7212C1152.44 55.4715 1152.34 55.229 1152.23 54.9864C1150.36 50.6306 1146.93 46.6656 1142.05 44.9425C1141.77 44.8521 1141.49 44.7736 1141.18 44.7122Z" fill="#C6C2EF"/>
<path d="M182.04 64.6854C181.51 64.2801 180.981 63.8748 180.452 63.4695C180.337 63.6475 180.219 63.8302 180.102 64.0132C178.071 67.2941 175.958 70.6946 175.242 74.5244C175.211 74.7383 175.188 74.9519 175.177 75.1621C175.221 74.9563 175.276 74.7504 175.339 74.5464C176.62 70.946 179.162 68.0121 181.62 65.1558C181.76 64.9972 181.901 64.8389 182.04 64.6854Z" fill="#C6C2EF"/>
</g>
<defs>
<clipPath id="clip0_3600_223">
<rect width="1466" height="106" fill="white" transform="translate(0.191406 0.4375)"/>
</clipPath>
</defs>
</svg>
