<svg width="1466" height="141" viewBox="0 0 1466 141" fill="none" xmlns="http://www.w3.org/2000/svg">
<g clip-path="url(#clip0_3600_224)">
<rect x="-28.6406" y="-22.6547" width="1549.7" height="152.856" fill="#FBF7F0"/>
<path d="M756.123 45.4375C774.784 45.4375 790.533 57.8955 795.511 74.9479C796.14 77.1032 798.787 78.1778 800.835 77.2594C802.502 76.5121 804.276 75.9605 806.128 75.6339C807.132 75.4567 808.016 74.8529 808.53 73.9727C813.389 65.6564 822.411 60.0684 832.737 60.0684C841.886 60.0685 850.009 64.4549 855.122 71.238C855.983 72.3801 857.474 72.8836 858.851 72.4982C861.256 71.8254 863.791 71.4648 866.41 71.4648C874.549 71.4649 881.876 74.937 886.994 80.4792C888.024 81.5944 889.682 81.9202 891.058 81.2791C894.649 79.6056 898.654 78.6709 902.877 78.6709C911.328 78.671 918.904 82.4139 924.04 88.3314C924.426 88.776 924.923 89.1106 925.477 89.3112C928.988 90.5836 932.055 92.7842 934.38 95.6167C936.124 97.7409 940.489 97.9631 942.286 95.8843C947.275 90.1169 954.647 86.4678 962.871 86.4678C967.127 86.4678 971.155 87.4458 974.742 89.1887C975.728 89.6674 976.885 89.6428 977.867 89.1561C980.482 87.8592 983.428 87.1299 986.545 87.1299C989.912 87.13 993.081 87.9809 995.848 89.4797C997.23 90.2286 998.978 90.0359 1000.16 89.0025C1000.3 88.8841 1000.44 88.7675 1000.58 88.6528C1001.19 88.1444 1001.62 87.4437 1001.79 86.6615C1004.21 75.007 1014.54 66.249 1026.91 66.249C1032.44 66.249 1037.57 68.0032 1041.76 70.9845C1042.81 71.7318 1044.2 71.8407 1045.36 71.2671C1048.79 69.5608 1052.66 68.6016 1056.76 68.6016C1066.96 68.6016 1075.77 74.5598 1079.91 83.1861C1080.35 84.1006 1081.17 84.7796 1082.15 85.0383C1083.86 85.4907 1085.51 86.1157 1087.06 86.8941C1087.92 87.3252 1088.92 87.3755 1089.83 87.0466C1092.14 86.2073 1094.63 85.749 1097.23 85.749V85.749C1098.11 85.749 1098.95 85.3309 1099.49 84.6318C1102.77 80.3936 1107.92 77.6651 1113.69 77.665C1117.3 77.665 1120.65 78.7258 1123.46 80.5515C1124.63 81.3065 1126.13 81.3661 1127.35 80.7057C1129.89 79.3296 1132.8 78.5479 1135.9 78.5479C1137.78 78.5479 1139.6 78.8392 1141.31 79.3793C1142.74 79.8296 1144.34 79.4091 1145.28 78.2485C1150.6 71.697 1158.72 67.5098 1167.81 67.5098C1173.25 67.5099 1178.33 69.0041 1182.68 71.6037C1184.32 72.5834 1186.52 72.0815 1187.57 70.4894C1192.76 62.6413 1201.67 57.4639 1211.78 57.4639C1225.04 57.4641 1236.22 66.3635 1239.68 78.515C1240.06 79.8659 1241.24 80.8583 1242.63 81.0295C1247.34 81.6074 1251.64 83.4994 1255.15 86.3258C1256.47 87.3867 1258.4 87.3867 1259.72 86.3259C1262.68 83.9451 1266.2 82.2282 1270.05 81.4011C1271.14 81.1658 1272.06 80.4153 1272.51 79.3908C1276.37 70.6354 1285.12 64.5225 1295.3 64.5225C1304.44 64.5226 1312.43 69.4537 1316.76 76.801C1317.67 78.3548 1319.66 79.0309 1321.33 78.3597C1324.19 77.2116 1327.32 76.5801 1330.59 76.5801C1339.11 76.5802 1346.63 80.8647 1351.12 87.3964C1351.44 87.8595 1351.86 88.2376 1352.36 88.497C1353.64 89.1629 1354.85 89.9366 1355.99 90.8059C1357.52 91.9794 1359.81 91.757 1361.14 90.3533C1364.92 86.3529 1370.27 83.8564 1376.21 83.8564C1377.94 83.8564 1379.62 84.0683 1381.23 84.4674C1382.53 84.7915 1383.93 84.369 1384.83 83.3746C1388.62 79.2008 1394.09 76.5801 1400.18 76.5801C1405.7 76.5801 1410.72 78.741 1414.44 82.2633C1415.76 83.514 1417.87 83.6625 1419.35 82.609C1422.74 80.2011 1426.88 78.7852 1431.35 78.7852C1441.73 78.7852 1450.32 86.4053 1451.84 96.3535C1452.03 97.5699 1452.83 98.6187 1453.95 99.1227C1461.09 102.327 1466.08 109.45 1466.2 117.752C1466.2 117.753 1466.2 117.754 1466.2 117.754V117.754C1466.2 117.755 1466.2 117.756 1466.2 117.756V137.875C1466.2 139.532 1464.86 140.875 1463.2 140.875H2.81644C1.15958 140.875 -0.183594 139.532 -0.183594 137.875V112.63C-0.183594 112.625 -0.180237 112.622 -0.175927 112.622V112.622C-0.1715 112.621 -0.168101 112.618 -0.168266 112.613C-0.177421 112.367 -0.183594 112.119 -0.183594 111.87C-0.183165 100.976 8.64851 92.1438 19.543 92.1436C21.422 92.1436 23.2397 92.407 24.9613 92.898C25.8952 93.1644 26.9015 93.0435 27.7455 92.563C30.6203 90.9263 33.9467 89.9913 37.4912 89.9912C43.2683 89.9912 48.4654 92.4753 52.0733 96.4327C52.3249 96.7087 52.6374 96.9226 52.9856 97.0576C57.4806 98.7993 61.1778 102.14 63.3797 106.383C63.5324 106.677 64.1533 106.526 64.1533 106.194V106.194C64.1536 95.2998 72.9853 86.468 83.8799 86.4678C88.7758 86.4678 93.255 88.2516 96.7034 91.2046C98.3447 92.6101 101.047 92.4718 102.406 90.7916C107.928 83.9638 116.373 79.5977 125.838 79.5977C134.57 79.5977 142.433 83.3146 147.935 89.2515C148.751 90.1326 149.978 90.5121 151.161 90.3005C152.296 90.0973 153.465 89.9912 154.658 89.9912C160.691 89.9912 166.091 92.6996 169.71 96.9661C170.206 97.5508 170.878 97.9617 171.624 98.1371C172.69 98.3877 173.723 98.7248 174.715 99.1405C176.744 99.9915 179.359 98.9816 180.292 96.9884C183.437 90.2702 190.259 85.6164 198.167 85.6162V85.6162C199.012 85.6162 199.76 85.0386 199.964 84.2191C202.544 73.8782 211.894 66.2168 223.033 66.2168C231.052 66.217 238.142 70.1874 242.449 76.269C243.004 77.053 243.909 77.5205 244.869 77.5205V77.5205C254.299 77.5207 262.446 83.0113 266.289 90.9698C266.777 91.9805 267.724 92.7019 268.828 92.9039C273.043 93.6752 276.869 95.5583 279.992 98.2374C280.972 99.0787 282.347 99.3185 283.561 98.8782C285.82 98.0596 288.256 97.6133 290.797 97.6133C293.316 97.6133 295.733 98.0529 297.975 98.859C299.852 99.5342 302.076 98.6183 302.861 96.7836C306.934 87.2547 316.393 80.5771 327.411 80.5771C331.236 80.5771 334.872 81.3823 338.161 82.8318C339.919 83.6066 342.068 82.8478 342.935 81.1333C347.631 71.8392 357.267 65.4658 368.392 65.4658C378.184 65.466 386.822 70.4039 391.954 77.9249C392.887 79.2931 394.689 79.826 396.251 79.2768C398.268 78.568 400.437 78.1827 402.696 78.1826C410.305 78.1826 416.892 82.5562 420.081 88.9264C420.871 90.5057 422.711 91.3842 424.436 91.0064C425.78 90.7119 427.177 90.5567 428.609 90.5566C435.538 90.5566 441.619 94.1832 445.059 99.6413C445.59 100.484 446.448 101.074 447.424 101.268C448.645 101.512 449.824 101.869 450.951 102.329C452.096 102.797 453.414 102.659 454.432 101.955C457.837 99.5973 462.038 98.2051 466.583 98.2051C468.913 98.2051 471.153 98.571 473.242 99.2454C474.608 99.6866 476.131 99.2794 477.108 98.227C480.657 94.4041 485.725 92.0118 491.353 92.0117C493.393 92.0117 495.361 92.3268 497.209 92.9103C497.704 93.0665 498.227 93.1132 498.742 93.0468C499.563 92.9406 500.401 92.8858 501.252 92.8857C502.803 92.8857 504.312 93.0676 505.759 93.4112C507.592 93.8466 509.586 92.8679 510.259 91.1081C514.199 80.799 524.182 73.4775 535.876 73.4775C544.274 73.4775 551.79 77.253 556.819 83.1995C557.703 84.2449 559.134 84.6776 560.449 84.2986C562.862 83.6034 565.412 83.2305 568.049 83.2305C571.162 83.2305 574.153 83.7493 576.942 84.7052C578.593 85.2711 580.463 84.537 581.289 82.999C585.911 74.3852 595.002 68.5273 605.462 68.5273C607.387 68.5273 609.266 68.7258 611.079 69.1034C612.505 69.4004 613.99 68.7759 614.739 67.5259C621.187 56.7608 632.966 49.5547 646.428 49.5547C658.171 49.5547 668.634 55.0387 675.394 63.5854C676.72 65.2614 679.361 65.3708 680.862 63.8492C686.342 58.2927 693.957 54.8477 702.378 54.8477C708.982 54.8477 715.091 56.9657 720.063 60.5596C721.52 61.6121 723.596 61.3919 724.755 60.0188C732.281 51.1015 743.54 45.4375 756.123 45.4375Z" fill="#454BBB"/>
<path d="M756.095 44.4375C775.186 44.4377 791.296 57.2007 796.388 74.668C796.83 76.1812 798.787 77.0428 800.339 76.3467C802.077 75.5663 803.927 74.9905 805.858 74.6494C806.579 74.522 807.207 74.0879 807.569 73.4678C812.593 64.8575 821.924 59.0684 832.606 59.0684C842.068 59.0686 850.47 63.6132 855.756 70.6357C856.368 71.4487 857.435 71.8095 858.415 71.5352C860.902 70.8382 863.525 70.4649 866.232 70.4648C874.65 70.465 882.23 74.0624 887.522 79.8008C888.255 80.596 889.444 80.8306 890.425 80.373C894.141 78.6393 898.284 77.6709 902.65 77.6709C911.391 77.671 919.228 81.549 924.539 87.6758C924.808 87.987 925.161 88.2264 925.559 88.3711C929.238 89.7058 932.447 92.0139 934.881 94.9824C935.516 95.7572 936.731 96.2732 938.077 96.3271C939.426 96.3811 940.619 95.9612 941.251 95.2305C946.414 89.2527 954.048 85.4678 962.563 85.4678C966.968 85.4679 971.139 86.4815 974.855 88.2891C975.548 88.6262 976.378 88.6156 977.093 88.2607C979.839 86.8968 982.934 86.1299 986.204 86.1299C989.737 86.13 993.065 87.0246 995.971 88.6006C996.985 89.1505 998.279 89.0076 999.148 88.249C999.29 88.1247 999.434 88.0012 999.579 87.8809C1000.03 87.5125 1000.33 87.0101 1000.45 86.458C1002.96 74.3491 1013.67 65.2491 1026.51 65.249C1032.25 65.249 1037.57 67.0722 1041.92 70.1699C1042.67 70.7032 1043.67 70.7807 1044.49 70.3711C1048.06 68.5978 1052.07 67.6016 1056.32 67.6016C1066.91 67.6016 1076.05 73.794 1080.34 82.7539C1080.65 83.4039 1081.24 83.8872 1081.93 84.0713C1083.71 84.5414 1085.42 85.191 1087.03 86C1087.64 86.3052 1088.36 86.3434 1089.01 86.1064C1091.42 85.2279 1094.02 84.749 1096.74 84.749C1097.3 84.7489 1097.85 84.4787 1098.2 84.0186C1101.67 79.5469 1107.09 76.6651 1113.18 76.665C1116.98 76.6651 1120.51 77.7854 1123.48 79.7129C1124.33 80.2682 1125.45 80.3122 1126.35 79.8262C1129.03 78.373 1132.1 77.5479 1135.35 77.5479C1137.34 77.5479 1139.26 77.8554 1141.06 78.4258C1142.13 78.7621 1143.29 78.4354 1143.95 77.6182C1149.44 70.843 1157.83 66.5099 1167.23 66.5098C1172.84 66.5099 1178.09 68.0556 1182.58 70.7451C1183.76 71.4503 1185.37 71.0838 1186.13 69.9375C1191.49 61.8214 1200.68 56.4639 1211.13 56.4639C1224.83 56.4641 1236.38 65.6715 1239.95 78.2412C1240.23 79.1986 1241.07 79.914 1242.07 80.0371C1246.96 80.6385 1251.42 82.6076 1255.07 85.5469C1256.02 86.3131 1257.43 86.3131 1258.38 85.5469C1261.46 83.071 1265.11 81.2845 1269.11 80.4238C1269.89 80.2559 1270.55 79.7189 1270.87 78.9883C1274.87 69.8833 1283.96 63.5225 1294.54 63.5225C1304.04 63.5228 1312.34 68.6542 1316.83 76.2939C1317.49 77.4212 1318.95 77.9184 1320.16 77.4316C1323.14 76.2369 1326.39 75.5801 1329.78 75.5801C1338.64 75.5802 1346.45 80.0387 1351.11 86.8301C1351.33 87.1579 1351.63 87.4265 1351.99 87.6104C1353.31 88.303 1354.57 89.1077 1355.75 90.0117C1356.87 90.8627 1358.58 90.7113 1359.56 89.667C1363.52 85.4749 1369.12 82.8564 1375.34 82.8564C1377.15 82.8565 1378.91 83.0785 1380.59 83.4971C1381.54 83.7325 1382.55 83.4236 1383.21 82.7021C1387.18 78.3286 1392.91 75.5801 1399.28 75.5801C1405.06 75.5802 1410.31 77.8462 1414.2 81.5371C1415.17 82.4587 1416.75 82.5702 1417.84 81.7939C1421.39 79.2697 1425.73 77.7852 1430.41 77.7852C1441.27 77.7852 1450.26 85.7733 1451.86 96.2021C1451.99 97.0824 1452.57 97.8457 1453.38 98.2109C1460.59 101.449 1465.7 108.507 1466.17 116.812C1465.71 109.323 1459.08 102.962 1452.57 100.035C1451.14 99.3923 1450.12 98.0571 1449.88 96.5049C1448.43 87.0373 1440.27 79.7852 1430.41 79.7852C1426.15 79.7852 1422.22 81.1324 1419 83.4238C1417.13 84.754 1414.49 84.5684 1412.83 82.9893C1409.3 79.6361 1404.53 77.5802 1399.28 77.5801C1393.49 77.5801 1388.29 80.0728 1384.69 84.0469C1383.54 85.3137 1381.77 85.8498 1380.11 85.4375C1378.58 85.0578 1376.99 84.8565 1375.34 84.8564C1369.7 84.8564 1364.61 87.2312 1361.01 91.04C1359.35 92.8023 1356.49 93.0956 1354.54 91.6006C1353.45 90.7661 1352.29 90.0228 1351.06 89.3838C1350.42 89.0488 1349.87 88.5609 1349.46 87.9629C1345.29 81.8871 1338.4 77.8391 1330.55 77.5918L1329.78 77.5801C1326.64 77.5801 1323.65 78.1868 1320.91 79.2881C1318.78 80.1432 1316.27 79.2883 1315.11 77.3086C1311.09 70.4743 1303.78 65.8205 1295.36 65.5361L1294.54 65.5225C1284.79 65.5225 1276.39 71.3883 1272.7 79.7939C1272.12 81.1118 1270.94 82.0763 1269.53 82.3789C1265.85 83.1725 1262.48 84.8201 1259.64 87.1055C1257.95 88.4604 1255.5 88.4605 1253.82 87.1055C1250.45 84.3922 1246.33 82.577 1241.82 82.0225C1240.04 81.803 1238.53 80.5331 1238.03 78.7891C1234.75 67.2394 1224.25 58.733 1211.73 58.4697L1211.13 58.4639C1201.38 58.4639 1192.8 63.4611 1187.79 71.041C1186.45 73.0788 1183.65 73.7161 1181.56 72.4619C1177.5 70.0311 1172.77 68.6008 1167.72 68.5137L1167.23 68.5098C1158.46 68.5099 1150.63 72.5514 1145.5 78.8789C1144.28 80.3826 1142.25 80.897 1140.46 80.333C1138.85 79.8234 1137.14 79.5479 1135.35 79.5479C1132.44 79.5479 1129.69 80.2861 1127.3 81.585C1125.76 82.4195 1123.86 82.3451 1122.39 81.3906C1119.74 79.6671 1116.58 78.6651 1113.18 78.665C1107.73 78.6651 1102.88 81.2398 1099.78 85.2441C1099.1 86.1233 1098.07 86.6764 1096.96 86.7422L1096.74 86.749C1094.26 86.749 1091.89 87.1862 1089.69 87.9863C1088.53 88.407 1087.25 88.3447 1086.14 87.7881C1084.64 87.0403 1083.07 86.4395 1081.42 86.0049C1080.16 85.6713 1079.1 84.7969 1078.54 83.6182C1074.57 75.3257 1066.11 69.6016 1056.32 69.6016C1052.39 69.6016 1048.67 70.5241 1045.38 72.1631C1043.9 72.9004 1042.12 72.7608 1040.77 71.7998C1036.74 68.9348 1031.83 67.249 1026.51 67.249C1014.64 67.2491 1004.73 75.6653 1002.4 86.8652C1002.19 87.8774 1001.63 88.7755 1000.85 89.4238C1000.72 89.5325 1000.59 89.6437 1000.46 89.7559C998.963 91.0639 996.765 91.3069 995.018 90.3594C992.562 89.0268 989.77 88.2336 986.8 88.1396L986.204 88.1299C983.249 88.1299 980.458 88.8219 977.981 90.0518C976.737 90.6698 975.255 90.7077 973.981 90.0879C970.747 88.5147 967.141 87.5883 963.328 87.4785L962.563 87.4678C954.652 87.4678 947.561 90.9811 942.761 96.5381C941.597 97.8858 939.712 98.3946 937.998 98.3262C936.28 98.2575 934.444 97.6002 933.338 96.251C931.128 93.555 928.213 91.461 924.878 90.251C924.172 89.9946 923.531 89.5651 923.03 88.9873C918.237 83.4578 911.241 79.8988 903.41 79.6816L902.65 79.6709C898.582 79.6709 894.726 80.5726 891.269 82.1855C889.502 83.0102 887.379 82.5922 886.055 81.1572C881.279 75.9785 874.509 72.6761 866.965 72.4746L866.232 72.4648C863.709 72.4649 861.267 72.8124 858.952 73.4609C857.181 73.9569 855.269 73.3109 854.162 71.8398C849.39 65.5011 841.901 61.3354 833.428 61.0811L832.606 61.0684C822.663 61.0684 813.974 66.4554 809.293 74.4775C808.628 75.6173 807.489 76.3922 806.205 76.6191C804.439 76.9312 802.746 77.4579 801.155 78.1719C798.615 79.3122 795.286 78.0255 794.471 75.2285C789.62 58.5911 774.275 46.4377 756.095 46.4375C743.836 46.4375 732.867 51.9622 725.532 60.6641C724.026 62.4506 721.362 62.7184 719.499 61.3701C714.698 57.8954 708.8 55.8477 702.422 55.8477C694.291 55.8478 686.939 59.1779 681.646 64.5518C679.738 66.4882 676.4 66.3666 674.693 64.2061C668.123 55.8889 657.958 50.5548 646.549 50.5547C633.471 50.5547 622.026 57.5639 615.759 68.04C614.786 69.6669 612.871 70.463 611.044 70.082C609.3 69.7184 607.492 69.5273 605.639 69.5273C595.576 69.5273 586.827 75.1697 582.379 83.4717C581.323 85.4412 578.945 86.3758 576.834 85.6514C574.152 84.7309 571.273 84.2305 568.276 84.2305C565.738 84.2305 563.285 84.5904 560.964 85.2598C559.273 85.7477 557.436 85.1922 556.298 83.8457C551.458 78.1143 544.227 74.4775 536.147 74.4775C524.897 74.4777 515.29 81.5305 511.498 91.4648C510.636 93.7231 508.126 94.9272 505.84 94.3838C504.471 94.0581 503.04 93.8857 501.57 93.8857C500.763 93.8858 499.97 93.9375 499.191 94.0381C498.533 94.1232 497.864 94.0641 497.232 93.8643C495.482 93.3111 493.619 93.0117 491.684 93.0117C486.354 93.0118 481.553 95.2797 478.191 98.9072C476.955 100.241 475.03 100.76 473.291 100.197C471.428 99.5949 469.436 99.2497 467.363 99.209L466.948 99.2051C462.615 99.2052 458.617 100.534 455.382 102.777C454.085 103.676 452.412 103.849 450.959 103.255C449.892 102.818 448.775 102.48 447.619 102.249C446.376 102.001 445.284 101.249 444.608 100.175C441.348 94.9951 435.588 91.5567 429.026 91.5566C427.668 91.5567 426.345 91.7043 425.072 91.9834C422.903 92.459 420.61 91.3624 419.616 89.374C416.594 83.3292 410.354 79.1826 403.148 79.1826C401.006 79.1827 398.952 79.5489 397.043 80.2207C395.084 80.9101 392.799 80.2543 391.596 78.4883C386.803 71.4556 378.842 66.766 369.771 66.4795L368.89 66.4658C358.172 66.4658 348.886 72.6135 344.359 81.584C343.252 83.7776 340.534 84.7342 338.297 83.7471C335.138 82.3525 331.643 81.5771 327.965 81.5771C317.376 81.5772 308.282 88.003 304.366 97.1768C303.366 99.5193 300.582 100.646 298.231 99.7998C296.099 99.0322 293.8 98.6133 291.401 98.6133C288.981 98.6133 286.663 99.0388 284.515 99.8184C282.97 100.379 281.218 100.077 279.96 98.9961C276.971 96.429 273.312 94.6262 269.282 93.8877C267.866 93.6281 266.652 92.7022 266.026 91.4043C262.406 83.8977 254.797 78.6858 245.958 78.5244L245.535 78.5205C244.252 78.5205 243.045 77.8957 242.303 76.8467C238.311 71.2007 231.82 67.4563 224.445 67.2275L223.729 67.2168C213.074 67.2168 204.127 74.5549 201.66 84.4609C201.343 85.7314 200.192 86.6162 198.896 86.6162C191.401 86.6165 184.933 91.0323 181.95 97.4121C180.791 99.8903 177.611 101.121 175.09 100.062C174.15 99.668 173.171 99.3482 172.161 99.1104C171.208 98.886 170.35 98.3612 169.717 97.6133C166.285 93.5612 161.165 90.9912 155.446 90.9912C154.314 90.9912 153.205 91.0924 152.129 91.2852C150.633 91.5531 149.059 91.0764 148 89.9316C142.687 84.1903 135.096 80.5977 126.665 80.5977C117.527 80.5978 109.374 84.8171 104.041 91.4199C102.3 93.5758 98.9489 93.7032 96.9205 91.9639C93.6509 89.1604 89.406 87.4678 84.7641 87.4678C74.436 87.4682 66.0637 95.8522 66.0634 106.194C66.0634 107.06 65.3108 107.412 64.9724 107.495C64.6343 107.578 63.8042 107.611 63.4062 106.844C61.3184 102.816 57.8112 99.6433 53.5508 97.9902C53.0593 97.7995 52.6181 97.4968 52.2627 97.1064C48.8409 93.3481 43.915 90.9912 38.4385 90.9912C35.0767 90.9913 31.9241 91.8786 29.1999 93.4316C28.1239 94.0449 26.8428 94.1991 25.6526 93.8594C24.0213 93.3935 22.2973 93.1436 20.5146 93.1436C7.70604 93.144 3.11622 106.79 -0.183594 116.812V112.63C-0.183594 112.578 -0.178356 112.528 -0.170907 112.479C-0.17709 112.279 -0.183594 112.076 -0.183594 111.87L-0.176763 111.335C0.107108 100.136 9.2622 91.1439 20.5146 91.1436C22.4847 91.1436 24.392 91.4205 26.1991 91.9365C26.8739 92.1293 27.6029 92.0418 28.2123 91.6943C31.2297 89.9742 34.7211 88.9913 38.4385 88.9912C44.5002 88.9912 49.955 91.6024 53.7392 95.7588C53.8862 95.9203 54.0691 96.0458 54.273 96.125C58.3567 97.7096 61.8104 100.554 64.1634 104.181C65.1748 93.6789 74.0114 85.4682 84.7641 85.4678C89.9004 85.4678 94.6016 87.3432 98.2194 90.4453C99.4691 91.5169 101.517 91.3674 102.49 90.1631C108.185 83.1109 116.899 78.5978 126.665 78.5977C135.675 78.5977 143.789 82.4398 149.464 88.5723C150.035 89.1892 150.913 89.4713 151.778 89.3164C152.969 89.1029 154.195 88.9912 155.446 88.9912C161.776 88.9912 167.445 91.8384 171.24 96.3193C171.597 96.7404 172.08 97.0375 172.618 97.1641C173.737 97.4275 174.822 97.7818 175.863 98.2188C177.395 98.8614 179.437 98.0722 180.142 96.5645C183.441 89.5081 190.597 84.6165 198.896 84.6162C199.287 84.6162 199.631 84.3457 199.723 83.9775C202.407 73.2019 212.135 65.2168 223.729 65.2168C232.074 65.2171 239.453 69.3566 243.933 75.6914C244.3 76.2102 244.899 76.5205 245.535 76.5205C255.35 76.5207 263.827 82.2444 267.825 90.5352C268.174 91.2582 268.852 91.7752 269.641 91.9199C274.029 92.7239 278.011 94.6876 281.26 97.4785C281.961 98.0806 282.954 98.2582 283.835 97.9385C286.198 97.0809 288.746 96.6133 291.401 96.6133C294.034 96.6133 296.562 97.0735 298.907 97.918C300.307 98.4213 301.964 97.7172 302.53 96.3906C306.749 86.5067 316.548 79.5772 327.965 79.5771C331.926 79.5771 335.695 80.4126 339.104 81.917C340.378 82.4791 341.952 81.9174 342.576 80.6826C347.429 71.0649 357.389 64.4658 368.89 64.4658C379.013 64.466 387.942 69.5791 393.245 77.3613C393.906 78.3314 395.22 78.7417 396.381 78.333C398.5 77.5875 400.778 77.1827 403.148 77.1826C411.139 77.1826 418.054 81.7831 421.402 88.4785C421.987 89.6486 423.368 90.309 424.645 90.0293C426.057 89.7196 427.523 89.5567 429.026 89.5566C436.302 89.5567 442.687 93.3722 446.297 99.1084C446.681 99.7184 447.304 100.146 448.01 100.287C449.292 100.543 450.532 100.919 451.715 101.403C452.549 101.745 453.509 101.642 454.245 101.133C457.81 98.6612 462.203 97.2052 466.948 97.2051C469.38 97.2051 471.721 97.5878 473.905 98.2939C474.894 98.6139 476.012 98.3182 476.727 97.5469C480.452 93.5287 485.775 91.0118 491.684 91.0117C493.825 91.0117 495.892 91.3431 497.834 91.957C498.189 92.0694 498.565 92.1024 498.935 92.0547C499.797 91.9431 500.677 91.8858 501.57 91.8857C503.197 91.8857 504.782 92.0771 506.302 92.4385C507.677 92.7654 509.151 92.0121 509.632 90.751C513.71 80.0677 524.041 72.4777 536.147 72.4775C544.839 72.4775 552.62 76.3922 557.824 82.5537C558.452 83.2979 559.475 83.6079 560.411 83.3379C562.909 82.6172 565.549 82.2305 568.276 82.2305C571.496 82.2305 574.594 82.7677 577.482 83.7588C578.668 84.1656 580.025 83.6323 580.618 82.5264C585.401 73.601 594.811 67.5273 605.639 67.5273C607.63 67.5273 609.574 67.7327 611.451 68.124C612.473 68.3371 613.523 67.8845 614.046 67.0117C620.658 55.9577 632.74 48.5547 646.549 48.5547C658.595 48.5548 669.327 54.1888 676.259 62.9648C677.2 64.1558 679.135 64.2531 680.224 63.1475C685.877 57.4084 693.735 53.8478 702.422 53.8477C709.234 53.8477 715.539 56.0362 720.669 59.749C721.715 60.5057 723.197 60.3334 724.006 59.374C731.704 50.2412 743.223 44.4375 756.095 44.4375Z" fill="#343A93"/>
<path d="M287.707 98.9645C287.57 98.3121 287.433 97.6596 287.297 97.0072C287.049 97.0762 286.796 97.1542 286.553 97.2356C282.332 98.7791 278.08 101.222 276.22 105.337C276.127 105.563 276.046 105.793 275.977 106.027C276.077 105.805 276.188 105.59 276.309 105.381C278.651 101.656 283.02 99.9495 287.038 99.0727C287.263 99.0305 287.492 98.9926 287.707 98.9645Z" fill="#343A93"/>
<path d="M344.477 81.3478C343.866 81.0791 343.256 80.8105 342.646 80.5419C342.587 80.7181 342.531 80.9017 342.484 81.0743C341.715 84.1763 341.581 87.4818 342.891 90.2906C342.966 90.4423 343.046 90.5914 343.131 90.7363C343.076 90.5775 343.027 90.4167 342.984 90.2553C342.269 87.3241 343.064 84.2833 344.262 81.7431C344.331 81.6086 344.405 81.4694 344.477 81.3478Z" fill="#343A93"/>
<path d="M577.073 83.6929C576.869 84.3276 576.665 84.9622 576.461 85.5969C576.927 85.7293 577.408 85.8816 577.884 86.0446C586.111 89.0058 595.218 95.0124 595.694 104.672C595.713 105.194 595.707 105.693 595.673 106.218C595.74 105.696 595.78 105.197 595.794 104.671C595.97 94.8639 586.977 87.9005 578.559 84.2687C578.067 84.0639 577.566 83.8689 577.073 83.6929Z" fill="#343A93"/>
<path d="M62.9001 102.477C62.4538 102.972 62.0074 103.467 61.561 103.962C61.8317 104.184 62.092 104.466 62.3321 104.778C64.3563 107.676 65.7723 112.516 63.5828 115.411C60.9853 118.171 56.7221 120.022 55.7077 124.115C55.6178 124.558 55.5838 125.009 55.6006 125.459C55.6171 125.009 55.6845 124.566 55.8049 124.138C57.0872 120.241 61.2836 118.818 64.2561 116.129C67.3366 112.355 65.9923 107.481 63.8856 103.684C63.6098 103.265 63.2946 102.856 62.9001 102.477Z" fill="#343A93"/>
<path d="M642.537 112.154C626.954 107.947 617.928 94.2331 615.363 87.9023C615.363 102.414 619.843 110.011 620.525 112.641C621.889 112.446 627.343 114.784 631.336 118.29C635.622 117.589 641.628 119.946 644.095 121.212C644.29 121.504 646.686 122.089 654.712 122.089C662.737 122.089 667.081 120.595 668.25 119.849C668.347 120.108 669.419 120.92 672.925 122.089C672.379 118.816 674.061 117.803 674.97 117.706H670.49L674.97 112.154C670.652 113.907 658.121 116.362 642.537 112.154Z" fill="#343A93"/>
<path d="M681.234 100.783V92.3194C682.833 96.3631 692.331 102.194 695.904 103.98C699.478 105.767 699.384 105.955 699.76 108.87C691.86 105.184 687.691 107.334 686.594 108.87L681.234 100.783Z" fill="#343A93"/>
<path d="M817.277 106.336C817.774 105.959 818.958 104.715 819.721 102.761C811.945 95.957 809.269 88.5654 808.847 85.4496C807.627 88.5796 808.219 99.3042 811.437 101.569C813.535 101.998 816.204 104.926 817.277 106.336Z" fill="#343A93"/>
<path d="M1082.61 110.936C1081.22 109.224 1082.57 106.691 1083.42 105.638C1084.71 107.811 1088.37 112.872 1092.69 115.725C1098.09 119.291 1105.33 118.986 1112.56 117.661C1107.37 122.45 1090.05 120.208 1089.33 120.106C1088.62 120.005 1084.34 113.076 1082.61 110.936Z" fill="#343A93"/>
<path d="M1386.71 113.787C1373.58 111.726 1365.87 101.538 1363.66 96.7024C1361.81 103.211 1367.77 112.159 1370.98 115.82C1371.66 115.549 1375.75 114.763 1386.71 113.787Z" fill="#343A93"/>
<path d="M1091.03 87.5858C1090.87 86.939 1090.7 86.2922 1090.54 85.6454C1090.27 85.7318 1090.05 85.8189 1089.81 85.9096C1085.79 87.6356 1081.59 89.4563 1078.82 92.9039C1078.68 93.1045 1078.56 93.3149 1078.46 93.5276C1078.59 93.3313 1078.74 93.1424 1078.9 92.9659C1082.03 90.0183 1086.35 88.822 1090.38 87.7216C1090.61 87.6693 1090.84 87.616 1091.03 87.5858Z" fill="#343A93"/>
<path d="M1140.62 78.2747C1140.52 78.9344 1140.42 79.594 1140.33 80.2536C1140.54 80.2683 1140.77 80.2999 1141.01 80.3439C1145.31 81.2477 1149.21 84.5211 1151.58 88.594C1151.71 88.8205 1151.84 89.048 1151.97 89.2837C1151.87 89.034 1151.77 88.7915 1151.67 88.5489C1149.8 84.1931 1146.36 80.2281 1141.49 78.505C1141.2 78.4146 1140.92 78.3361 1140.62 78.2747Z" fill="#343A93"/>
<path d="M181.473 98.2479C180.944 97.8426 180.415 97.4373 179.885 97.032C179.77 97.21 179.652 97.3927 179.535 97.5757C177.505 100.857 175.392 104.257 174.675 108.087C174.644 108.301 174.622 108.514 174.611 108.725C174.655 108.519 174.71 108.313 174.773 108.109C176.054 104.509 178.596 101.575 181.053 98.7183C181.194 98.5597 181.335 98.4014 181.473 98.2479Z" fill="#343A93"/>
</g>
<defs>
<clipPath id="clip0_3600_224">
<rect width="1466" height="140" fill="white" transform="translate(0.00390625 0.4375)"/>
</clipPath>
</defs>
</svg>
