<svg width="161" height="131" viewBox="0 0 161 131" fill="none" xmlns="http://www.w3.org/2000/svg">
<path d="M39.7827 49.0134C23.2109 45.5047 0.130249 31.203 10.1459 21.0403C20.1019 10.9381 38.3779 40.9526 46.0162 50.4143C46.1561 50.5876 46.0996 50.8311 45.9015 50.9331C36.9966 55.5156 19.1225 62.2239 17.3846 54.1728C15.6397 46.0892 30.6486 47.13 39.7827 49.0134Z" fill="white"/>
<path d="M10.1459 21.0403C0.0737443 31.2604 23.4723 45.6662 40.0626 49.0718C30.959 47.1524 15.6217 46.0061 17.3846 54.1728C19.1225 62.2239 36.9966 55.5156 45.9015 50.9331C46.0996 50.8311 46.1561 50.5876 46.0162 50.4143C38.3779 40.9526 20.1019 10.9381 10.1459 21.0403Z" stroke="#A2A5DD" stroke-width="0.6" stroke-linecap="round"/>
<path d="M92.3647 50.7302C108.937 47.2215 132.017 32.9198 122.002 22.7571C112.046 12.6549 93.7695 42.6694 86.1313 52.1311C85.9913 52.3044 86.0478 52.5479 86.2459 52.6499C95.1508 57.2324 113.025 63.9407 114.763 55.8896C116.508 47.806 101.499 48.8468 92.3647 50.7302Z" fill="white"/>
<path d="M122.002 22.7571C132.074 32.9772 108.675 47.383 92.0849 50.7886C101.188 48.8692 116.526 47.7229 114.763 55.8895C113.025 63.9407 95.1508 57.2324 86.2459 52.6499C86.0478 52.5479 85.9913 52.3044 86.1313 52.1311C93.7695 42.6694 112.046 12.6549 122.002 22.7571Z" stroke="#A2A5DD" stroke-width="0.6" stroke-linecap="round"/>
<path d="M89.0718 44.7925V54.0474C89.0718 56.1523 90.3745 58.0379 92.3433 58.7827C99.9326 61.6538 104.954 68.9153 104.954 77.0298V104.958C104.954 107.071 103.673 108.969 101.549 110.614C99.423 112.26 96.4097 113.688 92.8354 114.861C85.6836 117.207 76.2162 118.555 66.9155 118.562C57.741 118.568 48.713 117.26 41.9683 114.929C38.5972 113.764 35.7787 112.338 33.7974 110.678C31.8155 109.018 30.6431 107.099 30.6431 104.958V75.2427C30.6431 68.1337 34.8187 61.6957 41.3062 58.7896C42.9786 58.0403 44.0552 56.378 44.0552 54.5454V44.7925H89.0718Z" fill="#F8E8C2" stroke="#C5821E" stroke-width="0.6"/>
<path d="M104.354 87.8774V104.958C104.354 106.809 103.261 108.552 101.25 110.141C99.2419 111.729 96.3554 113.129 92.8706 114.291C85.9042 116.612 76.6146 117.955 67.3628 117.961C58.2365 117.968 49.1651 116.665 42.3862 114.361C38.9959 113.208 36.1964 111.812 34.2505 110.216C32.3045 108.621 31.2428 106.855 31.2427 104.958V87.8774H104.354Z" fill="#DEE4FF" stroke="#D1D2EE" stroke-width="0.6"/>
<circle cx="98.7885" cy="99.7402" r="1.21919" fill="white"/>
<path d="M79.0199 109.481C79.0199 110.155 78.4741 110.701 77.8007 110.701C77.1274 110.701 76.5815 110.155 76.5815 109.481C76.5815 108.808 77.1274 108.262 77.8007 108.262C78.4741 108.262 79.0199 108.808 79.0199 109.481Z" fill="white"/>
<circle cx="93.8007" cy="108.481" r="1.21919" fill="white"/>
<circle cx="42.0297" cy="99.4384" r="1.21919" fill="white"/>
<circle cx="50.8007" cy="111.481" r="1.21919" fill="white"/>
<circle cx="63.8007" cy="102.481" r="1.21919" fill="white"/>
<path d="M67.9585 79.2944C78.1343 79.2945 87.3376 80.2297 93.9888 81.7378C97.3166 82.4924 99.9894 83.3869 101.823 84.3696C102.74 84.8611 103.432 85.3677 103.892 85.8774C104.35 86.3854 104.565 86.8809 104.565 87.3628C104.565 87.8447 104.351 88.3401 103.892 88.8481C103.432 89.3579 102.74 89.8644 101.823 90.356C99.9894 91.3388 97.3167 92.2332 93.9888 92.9878C87.3376 94.4959 78.1344 95.4311 67.9585 95.4312C57.7824 95.4312 48.5785 94.4959 41.9272 92.9878C38.5993 92.2332 35.9266 91.3388 34.0933 90.356C33.1764 89.8644 32.484 89.3579 32.0239 88.8481C31.5656 88.3402 31.3511 87.8447 31.3511 87.3628C31.3511 86.8809 31.5655 86.3854 32.0239 85.8774C32.484 85.3677 33.1764 84.8611 34.0933 84.3696C35.9266 83.3868 38.5993 82.4924 41.9272 81.7378C48.5785 80.2297 57.7824 79.2944 67.9585 79.2944Z" fill="#DEE4FF" stroke="#D1D2EE" stroke-width="0.6"/>
<path d="M91.8076 19.7388L81.416 61.5806C81.3811 61.5967 81.3388 61.6169 81.2891 61.6392C81.1202 61.7145 80.8663 61.823 80.5303 61.9536C79.858 62.215 78.8567 62.5652 77.5479 62.9155C74.93 63.6163 71.0818 64.3188 66.1768 64.3188C61.2721 64.3188 57.6177 63.6157 55.1953 62.9165C53.9845 62.567 53.0809 62.2186 52.4824 61.9585C52.1831 61.8284 51.9595 61.7197 51.8125 61.645C51.7717 61.6243 51.7371 61.6057 51.708 61.5903L41.3604 19.7388H91.8076Z" fill="#F0D185" stroke="#C5821E" stroke-width="0.6"/>
<path d="M66.585 12.562C73.6369 12.562 80.0103 13.3575 84.6113 14.6372C86.9139 15.2776 88.7556 16.0349 90.0146 16.8628C91.2858 17.6987 91.8915 18.557 91.8916 19.3843C91.8916 20.2116 91.2858 21.0699 90.0146 21.9058C88.7556 22.7337 86.914 23.4909 84.6113 24.1313C80.0103 25.411 73.6369 26.2065 66.585 26.2065C59.5331 26.2065 53.1597 25.411 48.5586 24.1313C46.2559 23.4909 44.4133 22.7337 43.1543 21.9058C41.8834 21.0699 41.2773 20.2115 41.2773 19.3843C41.2774 18.5571 41.8834 17.6986 43.1543 16.8628C44.4133 16.0349 46.2559 15.2776 48.5586 14.6372C53.1597 13.3576 59.5331 12.562 66.585 12.562Z" fill="#F0D185" stroke="#C5821E" stroke-width="0.6"/>
<mask id="path-16-inside-1_9281_116" fill="white">
<path d="M87.0737 37.6216C90.5243 39.4911 92.5812 41.8446 92.5815 44.4019C92.5815 50.4863 80.9408 55.4194 66.5815 55.4194C52.2222 55.4194 40.5815 50.4863 40.5815 44.4019C40.5819 41.8676 42.602 39.5337 45.9966 37.6724L46.8862 41.436C46.7971 41.6139 46.7506 41.7946 46.7505 41.978C46.7505 44.5335 55.6295 46.605 66.5815 46.605C77.5335 46.6049 86.4116 44.5335 86.4116 41.978C86.4115 41.7011 86.3069 41.43 86.1069 41.1665L87.0737 37.6216Z"/>
</mask>
<path d="M87.0737 37.6216C90.5243 39.4911 92.5812 41.8446 92.5815 44.4019C92.5815 50.4863 80.9408 55.4194 66.5815 55.4194C52.2222 55.4194 40.5815 50.4863 40.5815 44.4019C40.5819 41.8676 42.602 39.5337 45.9966 37.6724L46.8862 41.436C46.7971 41.6139 46.7506 41.7946 46.7505 41.978C46.7505 44.5335 55.6295 46.605 66.5815 46.605C77.5335 46.6049 86.4116 44.5335 86.4116 41.978C86.4115 41.7011 86.3069 41.43 86.1069 41.1665L87.0737 37.6216Z" fill="#F8E8C2"/>
<path d="M87.0737 37.6216L87.3596 37.094L86.694 36.7335L86.4949 37.4637L87.0737 37.6216ZM92.5815 44.4019L93.1815 44.4019L93.1815 44.4018L92.5815 44.4019ZM66.5815 55.4194L66.5815 56.0194L66.5815 56.0194L66.5815 55.4194ZM40.5815 44.4019L39.9815 44.4018V44.4019H40.5815ZM45.9966 37.6724L46.5805 37.5343L46.3992 36.7673L45.7081 37.1463L45.9966 37.6724ZM46.8862 41.436L47.4227 41.7048L47.5203 41.51L47.4701 41.298L46.8862 41.436ZM46.7505 41.978L46.1505 41.9777V41.978H46.7505ZM66.5815 46.605L66.5815 47.205L66.5815 47.205L66.5815 46.605ZM86.4116 41.978L87.0116 41.978L87.0116 41.9777L86.4116 41.978ZM86.1069 41.1665L85.5281 41.0086L85.4503 41.2938L85.629 41.5292L86.1069 41.1665ZM87.0737 37.6216L86.7879 38.1491C90.1873 39.9909 91.9812 42.1895 91.9815 44.4019L92.5815 44.4019L93.1815 44.4018C93.1811 41.4997 90.8613 38.9913 87.3596 37.094L87.0737 37.6216ZM92.5815 44.4019H91.9815C91.9815 45.7176 91.3548 47.023 90.1137 48.2663C88.8702 49.5121 87.0407 50.6616 84.7322 51.6399C80.1175 53.5954 73.7006 54.8194 66.5815 54.8194L66.5815 55.4194L66.5815 56.0194C73.8217 56.0194 80.4049 54.7769 85.2004 52.7447C87.597 51.7292 89.5751 50.5045 90.963 49.1141C92.3532 47.7213 93.1815 46.1283 93.1815 44.4019H92.5815ZM66.5815 55.4194V54.8194C59.4624 54.8194 53.0456 53.5954 48.4309 51.6399C46.1224 50.6616 44.2929 49.5121 43.0494 48.2664C41.8083 47.023 41.1815 45.7176 41.1815 44.4019H40.5815H39.9815C39.9815 46.1283 40.8098 47.7213 42.2001 49.1141C43.588 50.5045 45.5661 51.7292 47.9627 52.7448C52.7582 54.7769 59.3413 56.0194 66.5815 56.0194V55.4194ZM40.5815 44.4019L41.1815 44.4019C41.1819 42.2096 42.9429 40.031 46.2851 38.1985L45.9966 37.6724L45.7081 37.1463C42.2611 39.0363 39.982 41.5256 39.9815 44.4018L40.5815 44.4019ZM45.9966 37.6724L45.4127 37.8104L46.3023 41.5741L46.8862 41.436L47.4701 41.298L46.5805 37.5343L45.9966 37.6724ZM46.8862 41.436L46.3498 41.1673C46.2245 41.4175 46.1507 41.6894 46.1505 41.9777L46.7505 41.978L47.3505 41.9784C47.3505 41.8997 47.3698 41.8104 47.4227 41.7048L46.8862 41.436ZM46.7505 41.978H46.1505C46.1505 42.4833 46.3725 42.9302 46.7023 43.3062C47.0287 43.6783 47.4829 44.0087 48.0192 44.3045C49.0921 44.8963 50.6048 45.41 52.4227 45.8341C56.068 46.6846 61.0736 47.205 66.5815 47.205V46.605V46.005C61.1374 46.005 56.2276 45.4896 52.6953 44.6655C50.9244 44.2523 49.5329 43.769 48.5988 43.2537C48.1315 42.9959 47.8064 42.7452 47.6045 42.5149C47.4059 42.2885 47.3505 42.1116 47.3505 41.978H46.7505ZM66.5815 46.605L66.5815 47.205C72.0894 47.205 77.0948 46.6846 80.7399 45.8341C82.5576 45.41 84.0703 44.8963 85.1431 44.3044C85.6793 44.0086 86.1335 43.6783 86.4598 43.3061C86.7896 42.9301 87.0116 42.4833 87.0116 41.978H86.4116H85.8116C85.8116 42.1116 85.7562 42.2885 85.5576 42.5149C85.3557 42.7452 85.0307 42.9959 84.5635 43.2537C83.6294 43.769 82.238 44.2523 80.4672 44.6655C76.9352 45.4896 72.0256 46.005 66.5815 46.005L66.5815 46.605ZM86.4116 41.978L87.0116 41.9777C87.0114 41.5408 86.8443 41.1457 86.5849 40.8038L86.1069 41.1665L85.629 41.5292C85.7695 41.7144 85.8116 41.8615 85.8116 41.9784L86.4116 41.978ZM86.1069 41.1665L86.6858 41.3244L87.6526 37.7795L87.0737 37.6216L86.4949 37.4637L85.5281 41.0086L86.1069 41.1665Z" fill="#C5821E" mask="url(#path-16-inside-1_9281_116)"/>
<ellipse cx="49.934" cy="33.5049" rx="0.858299" ry="1.93117" fill="#C5821E"/>
<ellipse cx="76.5815" cy="54.7622" rx="1" ry="1.5" fill="#C5821E"/>
<ellipse cx="51.6505" cy="19.7726" rx="3.4332" ry="1.07287" fill="#C5821E"/>
<ellipse cx="75.6827" cy="17.4115" rx="3.86235" ry="0.858299" fill="#C5821E"/>
<ellipse cx="79.7597" cy="35.0074" rx="3.86235" ry="1.50202" transform="rotate(90 79.7597 35.0074)" fill="#C5821E"/>
<ellipse cx="60.4477" cy="40.1246" rx="3.86235" ry="1.50202" transform="rotate(90 60.4477 40.1246)" fill="#C5821E"/>
<ellipse cx="69.889" cy="22.5619" rx="3.21862" ry="0.858299" fill="#C5821E"/>
<ellipse cx="61.9499" cy="59.0397" rx="3.00405" ry="1.28745" transform="rotate(90 61.9499 59.0397)" fill="#C5821E"/>
</svg>
