<svg width="121" height="131" viewBox="0 0 121 131" fill="none" xmlns="http://www.w3.org/2000/svg">
<path d="M64.7222 93.0874C68.7301 95.8906 72.0248 94.0389 72.4209 93.0901C72.817 92.1412 71.4784 91.7407 70.392 91.7795C74.3637 91.079 77.9626 86.043 73.5602 86.5575C75.8964 84.7699 79.4627 80.7893 77.6482 79.0164C76.9593 78.3433 75.0636 79.3937 73.6759 80.4936C76.5175 77.2858 76.9995 74.0882 76.7941 71.708C76.4759 68.0223 74.2539 67.0034 74.0924 71.0837C73.9309 75.1639 66.5381 80.9918 64.687 82.8252C62.8359 84.6586 60.7144 90.2841 64.7222 93.0874Z" fill="white"/>
<path d="M67.2706 91.4357C68.2695 91.789 69.3057 91.8183 70.392 91.7795M70.392 91.7795C71.4784 91.7407 72.817 92.1412 72.4209 93.0901C72.0248 94.0389 68.7301 95.8906 64.7222 93.0874C60.7144 90.2841 62.8359 84.6586 64.687 82.8252C66.5381 80.9918 73.9309 75.1639 74.0924 71.0837C74.2539 67.0034 76.4759 68.0223 76.7941 71.708C76.9995 74.0882 76.5175 77.2858 73.6759 80.4936M70.392 91.7795C74.3637 91.079 77.9626 86.043 73.5602 86.5575M68.3795 88.072C71.1442 87.787 72.5411 87.2096 73.5602 86.5575M73.5602 86.5575C75.8964 84.7699 79.4627 80.7893 77.6482 79.0164C76.9593 78.3433 75.0636 79.3937 73.6759 80.4936M73.6759 80.4936C72.1172 82.2532 69.8487 84.0158 66.5942 85.6483C68.0755 86.8627 70.0565 89.8886 66.1298 92.2777" stroke="#A2A5DD" stroke-width="0.5" stroke-linecap="round"/>
<path d="M36.2182 93.0874C32.2104 95.8906 28.9156 94.0389 28.5195 93.0901C28.1234 92.1412 29.4621 91.7407 30.5484 91.7795C26.5767 91.079 22.9779 86.043 27.3803 86.5575C25.044 84.7699 21.4777 80.7893 23.2922 79.0164C23.9811 78.3433 25.8768 79.3937 27.2645 80.4936C24.423 77.2858 23.9409 74.0882 24.1464 71.708C24.4645 68.0223 26.6865 67.0034 26.8481 71.0837C27.0096 75.1639 34.4023 80.9918 36.2534 82.8252C38.1046 84.6586 40.226 90.2841 36.2182 93.0874Z" fill="white"/>
<path d="M33.6698 91.4357C32.6709 91.789 31.6348 91.8183 30.5484 91.7795M30.5484 91.7795C29.4621 91.7407 28.1234 92.1412 28.5195 93.0901C28.9156 94.0389 32.2104 95.8906 36.2182 93.0874C40.226 90.2841 38.1046 84.6586 36.2534 82.8252C34.4023 80.9918 27.0096 75.1639 26.8481 71.0837C26.6865 67.0034 24.4645 68.0223 24.1464 71.708C23.9409 74.0882 24.423 77.2858 27.2645 80.4936M30.5484 91.7795C26.5767 91.079 22.9779 86.043 27.3803 86.5575M32.5609 88.072C29.7962 87.787 28.3994 87.2096 27.3803 86.5575M27.3803 86.5575C25.044 84.7699 21.4777 80.7893 23.2922 79.0164C23.9811 78.3433 25.8768 79.3937 27.2645 80.4936M27.2645 80.4936C28.8232 82.2532 31.0918 84.0158 34.3462 85.6483C32.8649 86.8627 30.8839 89.8886 34.8106 92.2777" stroke="#A2A5DD" stroke-width="0.5" stroke-linecap="round"/>
<path d="M29.0865 36.8938C24.0146 30.3728 24.8175 20.7217 27.6558 18.6943C23.9331 21.3534 21.5514 31.6292 20.8872 33.6821L34.253 49.7628C35.2096 50.9137 37.0792 50.6294 37.3252 49.1532C37.8087 46.2524 36.3582 45.2854 36.3582 45.2854L29.0865 36.8938Z" fill="#F0D185" stroke="#C5821E" stroke-width="0.5"/>
<path d="M28.5334 35.9446C28.987 35.7972 29.3853 35.8184 29.6428 36.0433C30.232 36.5579 29.8629 37.9448 28.8184 39.1406C27.7739 40.3364 26.449 40.8885 25.8598 40.3739C25.6389 40.1807 25.5524 39.8647 25.5862 39.4822C26.1409 39.6651 27.0609 39.2261 27.7987 38.3814C28.5849 37.4814 28.886 36.4391 28.5334 35.9446Z" fill="#F0D185"/>
<path d="M28.5334 35.9446L28.4562 35.7068L28.1319 35.8121L28.3298 36.0897L28.5334 35.9446ZM29.6428 36.0433L29.8073 35.855L29.8073 35.855L29.6428 36.0433ZM28.8184 39.1406L29.0067 39.3051L29.0067 39.3051L28.8184 39.1406ZM25.8598 40.3739L25.6952 40.5621L25.6953 40.5622L25.8598 40.3739ZM25.5862 39.4822L25.6645 39.2448L25.365 39.1461L25.3372 39.4602L25.5862 39.4822ZM27.7987 38.3814L27.987 38.5459L27.987 38.5459L27.7987 38.3814ZM28.5334 35.9446L28.6106 36.1823C29.03 36.0461 29.3186 36.092 29.4784 36.2316L29.6428 36.0433L29.8073 35.855C29.4521 35.5447 28.9441 35.5483 28.4562 35.7068L28.5334 35.9446ZM29.6428 36.0433L29.4784 36.2316C29.6617 36.3917 29.7436 36.7388 29.6016 37.2722C29.4643 37.7883 29.1327 38.4008 28.6301 38.9762L28.8184 39.1406L29.0067 39.3051C29.5486 38.6847 29.9238 38.0057 30.0848 37.4008C30.2412 36.8132 30.2131 36.2094 29.8073 35.855L29.6428 36.0433ZM28.8184 39.1406L28.6301 38.9762C28.1276 39.5515 27.5652 39.9624 27.0722 40.1679C26.5626 40.3803 26.2077 40.3458 26.0243 40.1856L25.8598 40.3739L25.6953 40.5622C26.1011 40.9166 26.7032 40.8634 27.2645 40.6294C27.8424 40.3886 28.4648 39.9255 29.0067 39.3051L28.8184 39.1406ZM25.8598 40.3739L26.0244 40.1857C25.8872 40.0657 25.8051 39.8446 25.8353 39.5043L25.5862 39.4822L25.3372 39.4602C25.2996 39.8848 25.3907 40.2957 25.6952 40.5621L25.8598 40.3739ZM25.5862 39.4822L25.508 39.7197C25.8754 39.8408 26.317 39.7465 26.7341 39.5415C27.1595 39.3324 27.5996 38.9894 27.987 38.5459L27.7987 38.3814L27.6104 38.217C27.26 38.6181 26.8712 38.917 26.5135 39.0928C26.1475 39.2727 25.8518 39.3065 25.6645 39.2448L25.5862 39.4822ZM27.7987 38.3814L27.987 38.5459C28.3995 38.0736 28.6913 37.5571 28.8327 37.0823C28.9706 36.6192 28.9798 36.1401 28.737 35.7994L28.5334 35.9446L28.3298 36.0897C28.4396 36.2437 28.4746 36.533 28.3535 36.9396C28.2359 37.3346 27.9841 37.7892 27.6104 38.217L27.7987 38.3814Z" fill="#C5821E"/>
<path d="M31.9182 39.8127C32.3715 39.6656 32.7693 39.6871 33.0267 39.9117C33.6158 40.4263 33.2467 41.8132 32.2023 43.0091C31.1578 44.2048 29.8337 44.7566 29.2446 44.242C29.0235 44.0488 28.937 43.7331 28.971 43.3504C29.5258 43.5327 30.4447 43.0934 31.1823 42.2489C31.9682 41.3491 32.2704 40.3074 31.9182 39.8127Z" fill="#F0D185"/>
<path d="M31.9182 39.8127L31.841 39.5749L31.5169 39.6801L31.7145 39.9577L31.9182 39.8127ZM33.0267 39.9117L33.1911 39.7234L33.1911 39.7234L33.0267 39.9117ZM32.2023 43.0091L32.3905 43.1735L32.3905 43.1735L32.2023 43.0091ZM29.2446 44.242L29.0801 44.4303L29.0801 44.4303L29.2446 44.242ZM28.971 43.3504L29.0491 43.1129L28.7498 43.0145L28.722 43.3283L28.971 43.3504ZM31.1823 42.2489L31.3705 42.4134L31.3705 42.4134L31.1823 42.2489ZM31.9182 39.8127L31.9954 40.0505C32.4142 39.9146 32.7025 39.9606 32.8623 40.1001L33.0267 39.9117L33.1911 39.7234C32.8361 39.4136 32.3287 39.4166 31.841 39.5749L31.9182 39.8127ZM33.0267 39.9117L32.8622 40.1C33.0456 40.2602 33.1275 40.6072 32.9855 41.1406C32.8481 41.6568 32.5165 42.2692 32.014 42.8446L32.2023 43.0091L32.3905 43.1735C32.9325 42.5531 33.3077 41.8742 33.4687 41.2692C33.6251 40.6816 33.5969 40.0779 33.1911 39.7234L33.0267 39.9117ZM32.2023 43.0091L32.014 42.8446C31.5114 43.4199 30.9493 43.8307 30.4565 44.0362C29.9472 44.2484 29.5924 44.2139 29.409 44.0537L29.2446 44.242L29.0801 44.4303C29.4858 44.7847 30.0877 44.7316 30.6488 44.4977C31.2265 44.2569 31.8486 43.7939 32.3905 43.1735L32.2023 43.0091ZM29.2446 44.242L29.4091 44.0538C29.2718 43.9338 29.1898 43.713 29.22 43.3725L28.971 43.3504L28.722 43.3283C28.6843 43.7531 28.7752 44.1639 29.0801 44.4303L29.2446 44.242ZM28.971 43.3504L28.8929 43.5879C29.2604 43.7087 29.7017 43.6142 30.1185 43.409C30.5436 43.1997 30.9833 42.8567 31.3705 42.4134L31.1823 42.2489L30.994 42.0845C30.6436 42.4856 30.2551 42.7845 29.8977 42.9604C29.532 43.1404 29.2364 43.1745 29.0491 43.1129L28.971 43.3504ZM31.1823 42.2489L31.3705 42.4134C31.7829 41.9413 32.075 41.425 32.2166 40.9504C32.3548 40.4875 32.3645 40.0085 32.1218 39.6677L31.9182 39.8127L31.7145 39.9577C31.8242 40.1117 31.8589 40.4008 31.7375 40.8074C31.6196 41.2022 31.3676 41.6567 30.994 42.0845L31.1823 42.2489Z" fill="#C5821E"/>
<path d="M106.248 82.713C106.248 86.3406 103.374 89.2814 99.8279 89.2814C96.2821 89.2814 93.4077 86.3406 93.4077 82.713C93.4077 79.9048 97.2553 72.9221 98.9933 69.9111C99.3687 69.2607 100.287 69.2607 100.663 69.9111C102.401 72.9221 106.248 79.9048 106.248 82.713Z" fill="#DEE4FF" stroke="#A2A5DD" stroke-width="0.5"/>
<path d="M99.8761 84.9316C100.544 84.7276 101.724 83.8973 102.21 83.3337C102.791 82.7055 103.125 81.8863 103.507 82.0088C104.197 82.2296 103.846 83.4738 103.645 84.2168C103.451 84.9316 102.099 86.4716 100.886 86.9182C99.7916 87.3212 99.0792 87.0873 98.8044 86.4716C98.6191 86.0563 99.0407 85.1867 99.8761 84.9316Z" fill="white"/>
<path d="M82.9912 46.0104L69.5111 46.0104L68.7302 51.154C68.5025 52.6531 68.5035 54.178 68.7331 55.6768L69.5111 60.7564L83.2303 60.7564C86.2821 60.7564 89.1258 62.3034 90.7838 64.8655L93.5506 64.6581C97.6429 64.3512 101.044 61.3848 101.904 57.3721C98.1845 50.38 90.9109 46.0103 82.9912 46.0104Z" fill="#F0D185" stroke="#C5821E" stroke-width="0.5"/>
<path d="M89.8735 63.7886C91.3105 64.7858 94.3267 64.3078 97.1655 62.5142C100.19 60.6028 101.952 57.8684 101.365 56.147C102.79 56.113 103.912 56.5149 104.458 57.3794C105.71 59.3603 103.465 63.0254 99.4448 65.5659C95.4241 68.1065 91.1496 68.5605 89.8979 66.5796C89.4287 65.8368 89.4504 64.8569 89.8735 63.7886Z" fill="#F0D185"/>
<path d="M89.8735 63.7886L90.0161 63.5832L89.7572 63.4035L89.6411 63.6965L89.8735 63.7886ZM97.1655 62.5142L97.2991 62.7255L97.2991 62.7255L97.1655 62.5142ZM101.365 56.147L101.359 55.897L101.018 55.9052L101.128 56.2277L101.365 56.147ZM104.458 57.3794L104.67 57.2459L104.67 57.2458L104.458 57.3794ZM99.4448 65.5659L99.5784 65.7773L99.5784 65.7773L99.4448 65.5659ZM89.8979 66.5796L89.6866 66.7131L89.6866 66.7131L89.8979 66.5796ZM89.8735 63.7886L89.731 63.994C90.5275 64.5467 91.7192 64.6682 93.0357 64.4444C94.3614 64.219 95.856 63.6373 97.2991 62.7255L97.1655 62.5142L97.032 62.3028C95.6363 63.1847 94.2033 63.7387 92.952 63.9515C91.6914 64.1658 90.6566 64.0277 90.0161 63.5832L89.8735 63.7886ZM97.1655 62.5142L97.2991 62.7255C98.8365 61.7541 100.061 60.5688 100.829 59.3963C101.59 58.2341 101.932 57.0355 101.601 56.0662L101.365 56.147L101.128 56.2277C101.385 56.9798 101.14 58.0091 100.411 59.1224C99.6883 60.2253 98.5196 61.3629 97.032 62.3028L97.1655 62.5142ZM101.365 56.147L101.371 56.3969C102.76 56.3638 103.77 56.7579 104.247 57.5129L104.458 57.3794L104.67 57.2458C104.054 56.2719 102.82 55.8622 101.359 55.897L101.365 56.147ZM104.458 57.3794L104.247 57.5129C104.794 58.3785 104.608 59.6747 103.716 61.1322C102.832 62.5745 101.296 64.1003 99.3113 65.3546L99.4448 65.5659L99.5784 65.7773C101.614 64.491 103.211 62.914 104.142 61.3933C105.064 59.888 105.375 58.3611 104.67 57.2459L104.458 57.3794ZM99.4448 65.5659L99.3113 65.3546C97.3262 66.6089 95.2886 67.3411 93.6066 67.5197C91.9068 67.7002 90.6563 67.3117 90.1093 66.446L89.8979 66.5796L89.6866 66.7131C90.3913 67.8284 91.9038 68.2033 93.6594 68.0169C95.4327 67.8286 97.5427 67.0635 99.5784 65.7773L99.4448 65.5659ZM89.8979 66.5796L90.1093 66.4461C89.6995 65.7973 89.6983 64.9097 90.106 63.8806L89.8735 63.7886L89.6411 63.6965C89.2024 64.8041 89.1579 65.8763 89.6866 66.7131L89.8979 66.5796Z" fill="#C5821E"/>
<path d="M65.1597 44.835C65.1597 44.2827 65.6074 43.835 66.1597 43.835H69.1909C69.6092 43.835 69.9775 44.0955 70.0792 44.5013C70.3883 45.7339 70.9613 48.757 70.9613 54.2296C70.9613 59.6424 70.4008 62.4067 70.0895 63.5246C69.9834 63.9053 69.6322 64.1407 69.2371 64.1407H66.1597C65.6074 64.1407 65.1597 63.693 65.1597 63.1407V44.835Z" fill="#F0D185" stroke="#C5821E" stroke-width="0.5"/>
<path d="M60.6328 101.417C60.7239 101.409 60.8153 101.429 60.8963 101.475L76.2777 110.144C76.6984 110.381 76.5788 111.062 76.1067 111.118L39.8853 115.428C39.7738 115.441 39.6616 115.412 39.568 115.346L25.7621 105.54C25.3811 105.269 25.532 104.632 25.9869 104.59L60.6328 101.417Z" fill="#F0D185" stroke="#C5821E" stroke-width="0.5" stroke-linejoin="round"/>
<path d="M25.084 104.964L39.7811 114.687L39.822 121.51C39.8245 121.916 39.3913 122.144 39.0643 121.909L25.225 111.95L25.084 104.964Z" fill="#F0D185" stroke="#C5821E" stroke-width="0.5" stroke-linejoin="round"/>
<path d="M77.2267 111.225C77.2208 110.935 76.9833 110.717 76.7051 110.746L39.6452 114.697L39.7831 121.925C39.7887 122.216 40.0256 122.434 40.3037 122.405L77.3746 118.53L77.2267 111.225Z" fill="#F0D185" stroke="#C5821E" stroke-width="0.5" stroke-linejoin="round"/>
<path d="M65.5571 104.4C65.6222 104.94 65.6445 105.542 65.6226 106.212C65.6181 107.02 65.0841 107.716 64.2681 108.292C63.4426 108.874 62.2723 109.376 60.8677 109.788C58.0545 110.612 54.2278 111.095 50.1362 111.095C46.0386 111.095 42.3156 110.49 39.6069 109.542C38.2542 109.068 37.1382 108.503 36.355 107.873C35.5769 107.246 35.0837 106.518 35.0835 105.719C35.0835 105.307 35.1433 104.929 35.2563 104.583C35.4675 105.067 35.8612 105.511 36.3794 105.906C37.1753 106.513 38.3084 107.047 39.6812 107.49C42.4303 108.377 46.2098 108.92 50.3706 108.92C54.5317 108.92 58.3117 108.377 61.061 107.49C62.4339 107.047 63.5669 106.513 64.3628 105.906C64.946 105.461 65.3726 104.956 65.5571 104.4ZM61.9663 100.402C62.9903 100.565 63.8672 100.938 64.5083 101.681C64.5914 101.777 64.6687 101.88 64.7427 101.988C64.6246 101.878 64.4989 101.768 64.3628 101.665C63.7495 101.197 62.9354 100.774 61.9663 100.402Z" fill="#C5821E"/>
<path d="M35.3838 97.02L65.3589 97.02C65.3589 97.02 65.3589 98.2275 65.3589 103.92C65.3589 111.736 35.3838 111.22 35.3838 103.92C35.3838 97.71 35.3838 97.02 35.3838 97.02Z" fill="#F0D185" stroke="#C5821E" stroke-width="0.5"/>
<path d="M35.3838 97.02L65.3589 97.02C65.3589 97.02 65.3589 98.2275 65.3589 101.745C65.3589 109.561 35.3838 109.044 35.3838 101.745C35.3838 97.71 35.3838 97.02 35.3838 97.02Z" fill="#F0D185" stroke="#C5821E" stroke-width="0.5"/>
<ellipse cx="50.2171" cy="97.1799" rx="14.9876" ry="4.59296" fill="#F8E8C2" stroke="#C5821E" stroke-width="0.5"/>
<path d="M38.1304 78.6484H62.7703L62.7703 96.8938C62.7703 96.8938 60.9097 99.6794 50.5151 99.6794C40.1205 99.6794 38.1304 96.8938 38.1304 96.8938L38.1304 78.6484Z" fill="#F0D185" stroke="#C5821E" stroke-width="0.5"/>
<path d="M35.2373 36.1025H66.1794L66.1794 66.8766V66.8766C57.8562 75.9394 43.5605 75.9394 35.2373 66.8766V66.8766L35.2373 36.1025Z" fill="#F0D185" stroke="#C5821E" stroke-width="0.5"/>
<path d="M38.1382 72.69L38.1382 36.1025" stroke="#C5821E" stroke-width="0.5"/>
<path d="M41.5225 72.69L41.5225 36.1025" stroke="#C5821E" stroke-width="0.5"/>
<path d="M45.3901 72.69L45.3901 36.1025" stroke="#C5821E" stroke-width="0.5"/>
<path d="M48.7744 72.69L48.7744 36.1025" stroke="#C5821E" stroke-width="0.5"/>
<path d="M52.1587 72.69L52.1587 36.1025" stroke="#C5821E" stroke-width="0.5"/>
<path d="M55.543 72.69L55.543 36.1025" stroke="#C5821E" stroke-width="0.5"/>
<path d="M59.4106 72.69L59.4106 36.1025" stroke="#C5821E" stroke-width="0.5"/>
<path d="M62.7949 70.7561L62.7949 36.1025" stroke="#C5821E" stroke-width="0.5"/>
<path d="M37.8193 74.6577C40.9169 75.6459 45.628 76.2778 50.9043 76.2778C55.7002 76.2778 60.0288 75.7545 63.1035 74.9175C63.8515 75.5177 64.2441 76.167 64.2441 76.814C64.2441 79.1249 64.6816 81.5493 50.9043 81.5493C36.0343 81.5493 36.6894 78.6532 36.6895 76.3423C36.6895 75.7425 37.0869 75.1735 37.8193 74.6577Z" fill="#C5821E"/>
<path d="M37.8193 74.6577L37.8953 74.4195L37.777 74.3818L37.6754 74.4533L37.8193 74.6577ZM50.9043 76.2778L50.9043 76.5278L50.9043 76.5278L50.9043 76.2778ZM63.1035 74.9175L63.26 74.7225L63.1607 74.6428L63.0379 74.6763L63.1035 74.9175ZM64.2441 76.814L64.4941 76.814L64.4941 76.814L64.2441 76.814ZM50.9043 81.5493L50.9043 81.7993L50.9043 81.7993L50.9043 81.5493ZM36.6895 76.3423L36.9395 76.3423V76.3423H36.6895ZM37.8193 74.6577L37.7434 74.8959C40.8738 75.8945 45.6127 76.5278 50.9043 76.5278V76.2778V76.0278C45.6433 76.0278 40.96 75.3972 37.8953 74.4195L37.8193 74.6577ZM50.9043 76.2778L50.9043 76.5278C55.7154 76.5278 60.0672 76.0031 63.1692 75.1587L63.1035 74.9175L63.0379 74.6763C59.9903 75.5058 55.685 76.0278 50.9043 76.0278L50.9043 76.2778ZM63.1035 74.9175L62.9471 75.1125C63.6659 75.6893 63.9941 76.2743 63.9941 76.814L64.2441 76.814L64.4941 76.814C64.4941 76.0596 64.0371 75.3461 63.26 74.7225L63.1035 74.9175ZM64.2441 76.814H63.9941C63.9941 77.4113 64.0185 77.9474 63.8588 78.4536C63.7058 78.9384 63.3761 79.4098 62.6194 79.8296C61.8522 80.2554 60.6503 80.6251 58.7666 80.8868C56.8859 81.148 54.3426 81.2993 50.9043 81.2993L50.9043 81.5493L50.9043 81.7993C54.3546 81.7993 56.9231 81.6476 58.8354 81.382C60.7444 81.1169 62.0165 80.736 62.862 80.2668C63.7182 79.7918 64.1401 79.2237 64.3356 78.604C64.5244 78.0056 64.4941 77.3721 64.4941 76.814H64.2441ZM50.9043 81.5493V81.2993C47.1935 81.2993 44.46 81.1185 42.4474 80.8135C40.4318 80.508 39.1562 80.0803 38.3488 79.5978C37.5519 79.1216 37.2119 78.5931 37.0597 78.0619C36.9012 77.5089 36.9394 76.9437 36.9395 76.3423L36.6895 76.3423L36.4395 76.3423C36.4394 76.8963 36.3957 77.5598 36.5791 78.1996C36.7687 78.8614 37.1943 79.4903 38.0924 80.027C38.9799 80.5574 40.3287 80.9981 42.3725 81.3079C44.4192 81.6181 47.1801 81.7993 50.9043 81.7993V81.5493ZM36.6895 76.3423H36.9395C36.9395 75.8627 37.2574 75.3591 37.9633 74.8621L37.8193 74.6577L37.6754 74.4533C36.9163 74.9878 36.4395 75.6223 36.4395 76.3423H36.6895Z" fill="#C5821E"/>
<path d="M35.9912 73.4321C39.4895 74.5475 44.8922 75.2642 50.9551 75.2642C56.4573 75.2642 61.4155 74.6726 64.9004 73.73C65.4265 74.2687 65.7011 74.8333 65.7012 75.397C65.7012 77.9336 66.1842 80.5942 50.9551 80.5942C34.518 80.5942 35.2421 77.416 35.2422 74.8794C35.2422 74.373 35.5033 73.8877 35.9912 73.4321Z" fill="#F0D185"/>
<path d="M35.9912 73.4321L36.0672 73.1939L35.9276 73.1495L35.8206 73.2494L35.9912 73.4321ZM50.9551 75.2642L50.9551 75.5142H50.9551V75.2642ZM64.9004 73.73L65.0792 73.5553L64.9767 73.4503L64.8351 73.4887L64.9004 73.73ZM65.7012 75.397L65.9512 75.397L65.9512 75.3969L65.7012 75.397ZM50.9551 80.5942L50.9551 80.8442L50.9551 80.8442L50.9551 80.5942ZM35.2422 74.8794L35.4922 74.8794V74.8794H35.2422ZM35.9912 73.4321L35.9153 73.6703C39.4468 74.7963 44.8774 75.5142 50.9551 75.5142L50.9551 75.2642L50.9551 75.0142C44.9069 75.0142 39.5322 74.2988 36.0672 73.1939L35.9912 73.4321ZM50.9551 75.2642V75.5142C56.4721 75.5142 61.4535 74.9213 64.9657 73.9713L64.9004 73.73L64.8351 73.4887C61.3776 74.4239 56.4425 75.0142 50.9551 75.0142V75.2642ZM64.9004 73.73L64.7215 73.9047C65.2189 74.4139 65.4511 74.9193 65.4512 75.397L65.7012 75.397L65.9512 75.3969C65.9511 74.7474 65.6342 74.1235 65.0792 73.5553L64.9004 73.73ZM65.7012 75.397H65.4512C65.4512 76.0508 65.4784 76.6437 65.3004 77.2034C65.1293 77.7418 64.7603 78.264 63.9184 78.7279C63.066 79.1975 61.7336 79.6039 59.6498 79.8912C57.5692 80.1781 54.7564 80.3442 50.9551 80.3442L50.9551 80.5942L50.9551 80.8442C54.7683 80.8442 57.6061 80.6778 59.7181 80.3865C61.827 80.0957 63.2292 79.6784 64.1597 79.1658C65.1007 78.6474 65.5627 78.0289 65.7769 77.3549C65.9844 76.7024 65.9512 76.0114 65.9512 75.397H65.7012ZM50.9551 80.5942V80.3442C46.8525 80.3442 43.8294 80.1458 41.6027 79.8108C39.3731 79.4753 37.9591 79.0051 37.0623 78.473C36.1759 77.9471 35.796 77.3621 35.626 76.7731C35.4497 76.1621 35.4922 75.5374 35.4922 74.8794L35.2422 74.8794L34.9922 74.8794C34.9922 75.4896 34.9441 76.2134 35.1456 76.9118C35.3535 77.6321 35.8199 78.3173 36.8071 78.903C37.7839 79.4826 39.2708 79.9655 41.5283 80.3052C43.7888 80.6454 46.8391 80.8442 50.9551 80.8442V80.5942ZM35.2422 74.8794H35.4922C35.4922 74.4662 35.7039 74.0424 36.1618 73.6149L35.9912 73.4321L35.8206 73.2494C35.3027 73.733 34.9922 74.2799 34.9922 74.8794H35.2422Z" fill="#C5821E"/>
<path d="M35.2593 64.7554C34.9903 65.0421 34.8462 65.3238 34.8462 65.5942C34.8462 67.4633 41.8813 68.979 50.5591 68.979C59.237 68.979 66.272 67.4633 66.272 65.5942C66.272 65.5175 66.2581 65.4404 66.2339 65.3618C67.7742 66.3982 68.5942 67.5772 68.5942 68.7515C68.5943 72.0824 69.1687 75.5766 51.0435 75.5767C31.479 75.5767 32.3413 71.4018 32.3413 68.0708C32.3413 66.8454 33.3896 65.707 35.2593 64.7554Z" fill="#F0D185"/>
<path d="M35.2593 64.7554L35.4416 64.9264L35.1459 64.5326L35.2593 64.7554ZM34.8462 65.5942L34.5962 65.5942V65.5942H34.8462ZM50.5591 68.979L50.5591 69.229H50.5591V68.979ZM66.272 65.5942L66.522 65.5942L66.522 65.5942L66.272 65.5942ZM66.2339 65.3618L66.3734 65.1544L65.7871 64.7599L65.9949 65.4353L66.2339 65.3618ZM68.5942 68.7515L68.3442 68.7515L68.3442 68.7515L68.5942 68.7515ZM51.0435 75.5767L51.0435 75.8267L51.0435 75.8267L51.0435 75.5767ZM32.3413 68.0708L32.5913 68.0708V68.0708H32.3413ZM35.2593 64.7554L35.077 64.5843C34.7874 64.893 34.5963 65.2332 34.5962 65.5942L34.8462 65.5942L35.0962 65.5943C35.0962 65.4144 35.1931 65.1913 35.4416 64.9264L35.2593 64.7554ZM34.8462 65.5942H34.5962C34.5962 65.9121 34.7469 66.1987 34.9842 66.4485C35.2204 66.6972 35.5564 66.925 35.9676 67.1344C36.7906 67.5535 37.9651 67.9237 39.3958 68.2319C42.2612 68.8492 46.2079 69.229 50.5591 69.229L50.5591 68.979L50.5591 68.729C46.2324 68.729 42.3227 68.351 39.5011 67.7431C38.0883 67.4388 36.9617 67.0796 36.1945 66.6888C35.8105 66.4933 35.529 66.2961 35.3467 66.1041C35.1654 65.9133 35.0962 65.7437 35.0962 65.5942H34.8462ZM50.5591 68.979V69.229C54.9103 69.229 58.857 68.8492 61.7224 68.2319C63.1531 67.9237 64.3276 67.5535 65.1506 67.1344C65.5617 66.925 65.8977 66.6972 66.134 66.4485C66.3713 66.1987 66.522 65.9121 66.522 65.5942H66.272H66.022C66.022 65.7437 65.9528 65.9133 65.7715 66.1041C65.5891 66.2961 65.3077 66.4933 64.9237 66.6889C64.1565 67.0796 63.0299 67.4388 61.6171 67.7431C58.7956 68.351 54.8858 68.729 50.5591 68.729V68.979ZM66.272 65.5942L66.522 65.5942C66.5219 65.4872 66.5025 65.3848 66.4728 65.2883L66.2339 65.3618L65.9949 65.4353C66.0136 65.4959 66.022 65.5479 66.022 65.5943L66.272 65.5942ZM66.2339 65.3618L66.0943 65.5692C67.6069 66.5869 68.3442 67.7002 68.3442 68.7515H68.5942H68.8442C68.8442 67.4542 67.9415 66.2094 66.3734 65.1544L66.2339 65.3618ZM68.5942 68.7515L68.3442 68.7515C68.3443 69.6022 68.3777 70.4005 68.1606 71.1539C67.9493 71.8872 67.4956 72.5858 66.486 73.1995C65.4656 73.8198 63.8754 74.354 61.3947 74.7315C58.917 75.1085 55.5682 75.3267 51.0435 75.3267L51.0435 75.5767L51.0435 75.8267C55.5814 75.8267 58.9577 75.608 61.47 75.2258C63.9793 74.844 65.644 74.2964 66.7457 73.6268C67.8581 72.9506 68.3936 72.151 68.641 71.2923C68.8827 70.4537 68.8443 69.5662 68.8442 68.7515L68.5942 68.7515ZM51.0435 75.5767V75.3267C46.1598 75.3267 42.5603 75.066 39.9085 74.6257C37.254 74.1849 35.5663 73.5667 34.4927 72.8637C33.4293 72.1674 32.9632 71.3852 32.7541 70.5856C32.5397 69.7658 32.5913 68.9254 32.5913 68.0708L32.3413 68.0708L32.0913 68.0708C32.0913 68.8818 32.0351 69.8123 32.2704 70.7121C32.511 71.6322 33.0522 72.5182 34.2188 73.282C35.3751 74.0391 37.1402 74.6728 39.8266 75.1189C42.5156 75.5654 46.1449 75.8267 51.0435 75.8267V75.5767ZM32.3413 68.0708H32.5913C32.5913 66.9985 33.5163 65.9231 35.3727 64.9782L35.2593 64.7554L35.1459 64.5326C33.2629 65.491 32.0913 66.6923 32.0913 68.0708H32.3413Z" fill="#C5821E"/>
<path d="M33.5383 31.7515C33.5383 31.7515 37.3001 34.7528 49.9962 34.7528C62.6922 34.7528 67.1594 31.7515 67.1594 31.7515C67.1594 31.7515 67.6296 32.5922 67.6296 34.7528V34.7528C67.6296 36.6122 66.2339 37.8795 64.4291 38.3264C61.5553 39.0379 56.5403 39.9705 49.9962 39.9705C43.6236 39.9705 38.9569 39.0861 36.2531 38.3827C34.5233 37.9328 33.3032 36.4849 33.3032 34.6975V34.6975C33.3032 32.8945 33.5383 31.7515 33.5383 31.7515Z" fill="#F0D185" stroke="#C5821E" stroke-width="0.5"/>
<ellipse cx="50.379" cy="31.7485" rx="16.9214" ry="3.38429" fill="#F8E8C2" stroke="#C5821E" stroke-width="0.5"/>
<ellipse cx="50.4138" cy="30.7815" rx="4.59296" ry="1.45041" fill="#C5821E"/>
<path d="M47.0137 11.4424H53.7823V30.576C53.7823 30.576 53.0521 31.2647 50.3446 31.2647C47.6372 31.2647 47.0137 30.576 47.0137 30.576V11.4424Z" fill="#F0D185" stroke="#C5821E" stroke-width="0.5"/>
<path d="M41.6763 0.724403C41.6763 0.50716 41.9 0.361944 42.0984 0.450397L45.3394 1.89521C45.4476 1.94343 45.5173 2.05078 45.5173 2.16922V11.3079C45.5173 11.5347 45.2754 11.6795 45.0756 11.5724L41.8345 9.83514C41.7371 9.7829 41.6763 9.6813 41.6763 9.57073V0.724403Z" fill="#C5821E"/>
<path d="M45.5176 1.7119L54.9498 1.60569C57.6139 1.5757 59.7706 3.7631 59.703 6.4265V6.4265V6.4265C59.7709 9.35414 57.4162 11.7641 54.4877 11.7641H45.5594C45.5363 11.7641 45.5176 11.7454 45.5176 11.7223V1.7119Z" fill="#F0D185" stroke="#C5821E" stroke-width="0.5"/>
<path d="M42.7459 0.902268C42.4373 0.781271 42.5239 0.322979 42.8554 0.32297L51.5873 0.322754C54.1835 0.322754 56.6118 0.851687 57.9862 2.42077C58.0561 2.50055 57.9542 2.63501 57.8535 2.60162C57.1616 2.3721 55.4983 1.97465 52.2762 1.97465C47.746 1.97465 45.4809 1.97465 45.4809 1.97465L42.7459 0.902268Z" fill="#F8E8C2" stroke="#C5821E" stroke-width="0.5"/>
<path d="M45.3377 3.70717C40.486 3.70712 26.5017 12.6846 21.9892 23.4405C19.6139 29.1023 19.1636 34.717 19.1087 40.5485C19.0549 46.255 19.4033 52.4626 18.3894 58.5396C17.3971 64.4875 15.5148 72.9611 8.57497 82.7187C8.57497 82.7187 4.14447 81.466 3.75938 83.7215C3.2306 86.8186 7.70232 95.083 2.38404 88.7979C-2.93424 82.5128 5.20974 77.6781 5.20974 77.6781C11.6182 68.6675 12.3742 63.117 13.2724 57.7332C14.2025 52.1587 13.867 46.6519 13.925 40.5023C13.9817 34.4777 14.4385 28.0946 17.1891 21.5382C22.9286 7.85764 37.6097 2.74017 43.1256 2.74023L45.3377 3.70717Z" fill="#F8E8C2" stroke="#C5821E" stroke-width="0.5"/>
<path d="M7.86816 79.1284C11.4727 79.1284 14.3952 82.0503 14.3955 85.6548C14.3955 89.2595 11.4728 92.1821 7.86816 92.1821C4.26371 92.1819 1.3418 89.2593 1.3418 85.6548C1.34205 82.0505 4.26387 79.1287 7.86816 79.1284ZM7.86816 82.5132C6.13277 82.5134 4.72559 83.9203 4.72559 85.6558C4.72582 87.391 6.13292 88.7981 7.86816 88.7983C9.6036 88.7983 11.0105 87.3911 11.0107 85.6558C11.0107 83.9202 9.60375 82.5132 7.86816 82.5132Z" fill="#F0D185"/>
<path d="M7.86816 79.1284L7.86816 78.8784L7.86815 78.8784L7.86816 79.1284ZM14.3955 85.6548L14.6455 85.6548L14.6455 85.6548L14.3955 85.6548ZM7.86816 92.1821L7.86815 92.4321H7.86816V92.1821ZM1.3418 85.6548L1.0918 85.6548V85.6548H1.3418ZM7.86816 82.5132L7.86816 82.2632L7.86813 82.2632L7.86816 82.5132ZM4.72559 85.6558L4.47559 85.6558L4.47559 85.6558L4.72559 85.6558ZM7.86816 88.7983L7.86813 89.0483H7.86816V88.7983ZM11.0107 85.6558L11.2607 85.6558V85.6558H11.0107ZM7.86816 79.1284V79.3784C11.3346 79.3784 14.1453 82.1884 14.1455 85.6548L14.3955 85.6548L14.6455 85.6548C14.6452 81.9122 11.6107 78.8784 7.86816 78.8784V79.1284ZM14.3955 85.6548H14.1455C14.1455 89.1214 11.3348 91.9321 7.86816 91.9321V92.1821V92.4321C11.6109 92.4321 14.6455 89.3975 14.6455 85.6548H14.3955ZM7.86816 92.1821L7.86818 91.9321C4.40181 91.9319 1.5918 89.1213 1.5918 85.6548H1.3418H1.0918C1.0918 89.3973 4.1256 92.4319 7.86815 92.4321L7.86816 92.1821ZM1.3418 85.6548L1.5918 85.6548C1.59204 82.1886 4.40194 79.3787 7.86818 79.3784L7.86816 79.1284L7.86815 78.8784C4.12579 78.8787 1.09206 81.9124 1.0918 85.6548L1.3418 85.6548ZM7.86816 82.5132L7.86813 82.2632C5.99473 82.2634 4.47559 83.7822 4.47559 85.6558H4.72559H4.97559C4.97559 84.0584 6.27082 82.7634 7.8682 82.7632L7.86816 82.5132ZM4.72559 85.6558L4.47559 85.6558C4.47584 87.5291 5.99484 89.0481 7.86813 89.0483L7.86816 88.7983L7.8682 88.5483C6.271 88.5481 4.9758 87.2529 4.97559 85.6557L4.72559 85.6558ZM7.86816 88.7983V89.0483C9.74171 89.0483 11.2605 87.5292 11.2607 85.6558L11.0107 85.6558L10.7607 85.6557C10.7605 87.2531 9.4655 88.5483 7.86816 88.5483V88.7983ZM11.0107 85.6558H11.2607C11.2607 83.7821 9.74182 82.2632 7.86816 82.2632V82.5132V82.7632C9.46568 82.7632 10.7607 84.0582 10.7607 85.6558H11.0107Z" fill="#C5821E"/>
<path d="M45.4966 9.38721H45.0962C42.7615 9.38718 38.7103 10.4628 34.6753 12.8862C30.6497 15.3041 26.6809 19.0392 24.4653 24.3198C22.1092 29.9359 20.9514 35.4538 20.897 41.231C20.8435 46.9071 21.1294 53.2541 20.1089 59.3716C19.2138 64.7364 17.1299 72.1221 11.7065 80.644C12.468 81.3504 12.9448 82.3594 12.9448 83.48C12.9447 85.6158 11.2135 87.347 9.07764 87.3472C6.94162 87.3472 5.20962 85.616 5.20947 83.48C5.20947 83.019 5.29002 82.5765 5.43799 82.1665C5.44635 82.0458 5.46125 81.9289 5.48193 81.8169C5.55976 81.3959 5.7119 81.0313 5.84131 80.7749C5.90645 80.6459 5.96789 80.5413 6.01318 80.4683C6.03582 80.4318 6.0551 80.4019 6.06885 80.3813C6.07552 80.3714 6.08138 80.3628 6.08545 80.3569C6.08731 80.3543 6.08909 80.3519 6.09033 80.3501C6.09097 80.3492 6.09184 80.3478 6.09229 80.3472V80.3462C12.4511 71.4052 14.0926 63.7459 14.9858 58.3921C15.9089 52.8588 15.5741 47.4094 15.6323 41.2231C15.6892 35.1827 16.1473 28.7366 18.9282 22.1079C21.8399 15.1681 26.9827 10.5294 32.0825 7.62842C37.1734 4.73267 42.2561 3.54831 45.0962 3.54834H45.4966V9.38721Z" fill="#F0D185"/>
<path d="M45.4966 9.38721V9.63721H45.7466V9.38721H45.4966ZM45.0962 9.38721L45.0962 9.63721H45.0962V9.38721ZM34.6753 12.8862L34.5466 12.6719L34.5466 12.6719L34.6753 12.8862ZM24.4653 24.3198L24.2348 24.2231L24.2348 24.2231L24.4653 24.3198ZM20.897 41.231L20.647 41.2286L20.647 41.2286L20.897 41.231ZM20.1089 59.3716L20.3555 59.4127L20.3555 59.4127L20.1089 59.3716ZM11.7065 80.644L11.4956 80.5098L11.3838 80.6856L11.5365 80.8273L11.7065 80.644ZM12.9448 83.48L13.1948 83.48V83.48H12.9448ZM9.07764 87.3472L9.07764 87.5972L9.07766 87.5972L9.07764 87.3472ZM5.20947 83.48L4.95947 83.48L4.95947 83.48L5.20947 83.48ZM5.43799 82.1665L5.67314 82.2514L5.68498 82.2186L5.68739 82.1838L5.43799 82.1665ZM5.48193 81.8169L5.2361 81.7714L5.23609 81.7715L5.48193 81.8169ZM5.84131 80.7749L5.61815 80.6622L5.61813 80.6623L5.84131 80.7749ZM6.01318 80.4683L5.80073 80.3365L5.80072 80.3365L6.01318 80.4683ZM6.06885 80.3813L5.86122 80.2421L5.86117 80.2422L6.06885 80.3813ZM6.08545 80.3569L5.88029 80.2141L5.88001 80.2145L6.08545 80.3569ZM6.09033 80.3501L6.29472 80.4941L6.29632 80.4918L6.09033 80.3501ZM6.09229 80.3472L6.2961 80.4919L6.34229 80.4269V80.3472H6.09229ZM6.09229 80.3462L5.88855 80.2013L5.84229 80.2664V80.3462H6.09229ZM14.9858 58.3921L15.2324 58.4332L15.2324 58.4332L14.9858 58.3921ZM15.6323 41.2231L15.3823 41.2208L15.3823 41.2208L15.6323 41.2231ZM18.9282 22.1079L18.6977 22.0112L18.6977 22.0112L18.9282 22.1079ZM32.0825 7.62842L31.9589 7.41111L31.9589 7.41111L32.0825 7.62842ZM45.0962 3.54834L45.0962 3.79834H45.0962V3.54834ZM45.4966 3.54834H45.7466V3.29834H45.4966V3.54834ZM45.4966 9.38721V9.13721H45.0962V9.38721V9.63721H45.4966V9.38721ZM45.0962 9.38721L45.0962 9.13721C42.7045 9.13718 38.6092 10.2319 34.5466 12.6719L34.6753 12.8862L34.804 13.1005C38.8114 10.6937 42.8184 9.63718 45.0962 9.63721L45.0962 9.38721ZM34.6753 12.8862L34.5466 12.6719C30.4876 15.1099 26.4758 18.8818 24.2348 24.2231L24.4653 24.3198L24.6959 24.4165C26.886 19.1965 30.8119 15.4983 34.804 13.1005L34.6753 12.8862ZM24.4653 24.3198L24.2348 24.2231C21.8667 29.8677 20.7018 35.4176 20.647 41.2286L20.897 41.231L21.147 41.2333C21.2011 35.4901 22.3517 30.0041 24.6959 24.4165L24.4653 24.3198ZM20.897 41.231L20.647 41.2286C20.5933 46.9236 20.8786 53.2384 19.8623 59.3304L20.1089 59.3716L20.3555 59.4127C21.3803 53.2698 21.0937 46.8905 21.147 41.2333L20.897 41.231ZM20.1089 59.3716L19.8623 59.3304C18.9719 64.6675 16.8983 72.0205 11.4956 80.5098L11.7065 80.644L11.9175 80.7783C17.3615 72.2238 19.4558 64.8054 20.3555 59.4127L20.1089 59.3716ZM11.7065 80.644L11.5365 80.8273C12.2492 81.4884 12.6948 82.4319 12.6948 83.48H12.9448H13.1948C13.1948 82.2869 12.6868 81.2124 11.8766 80.4608L11.7065 80.644ZM12.9448 83.48L12.6948 83.48C12.6947 85.4778 11.0754 87.097 9.07761 87.0972L9.07764 87.3472L9.07766 87.5972C11.3516 87.597 13.1947 85.7539 13.1948 83.48L12.9448 83.48ZM9.07764 87.3472V87.0972C7.07963 87.0972 5.45961 85.4778 5.45947 83.48L5.20947 83.48L4.95947 83.48C4.95963 85.7541 6.80362 87.5972 9.07764 87.5972V87.3472ZM5.20947 83.48H5.45947C5.45947 83.0483 5.53488 82.6345 5.67314 82.2514L5.43799 82.1665L5.20283 82.0816C5.04516 82.5185 4.95947 82.9897 4.95947 83.48H5.20947ZM5.43799 82.1665L5.68739 82.1838C5.69511 82.0724 5.70884 81.9648 5.72777 81.8623L5.48193 81.8169L5.23609 81.7715C5.21366 81.8929 5.19759 82.0193 5.18859 82.1492L5.43799 82.1665ZM5.48193 81.8169L5.72777 81.8623C5.79995 81.4719 5.9419 81.1304 6.06449 80.8876L5.84131 80.7749L5.61813 80.6623C5.4819 80.9322 5.31958 81.3199 5.2361 81.7714L5.48193 81.8169ZM5.84131 80.7749L6.06447 80.8876C6.12565 80.7664 6.18332 80.6683 6.22565 80.6L6.01318 80.4683L5.80072 80.3365C5.75246 80.4143 5.68725 80.5254 5.61815 80.6622L5.84131 80.7749ZM6.01318 80.4683L6.22563 80.6C6.24717 80.5653 6.26482 80.538 6.27653 80.5205L6.06885 80.3813L5.86117 80.2422C5.84537 80.2657 5.82447 80.2982 5.80073 80.3365L6.01318 80.4683ZM6.06885 80.3813L6.27648 80.5206C6.28264 80.5114 6.28774 80.5039 6.29089 80.4994L6.08545 80.3569L5.88001 80.2145C5.87501 80.2217 5.8684 80.2314 5.86122 80.2421L6.06885 80.3813ZM6.08545 80.3569L6.29061 80.4998C6.29031 80.5002 6.29024 80.5003 6.29088 80.4994C6.29097 80.4993 6.29179 80.4982 6.29219 80.4976C6.29273 80.4969 6.29366 80.4956 6.2947 80.4941L6.09033 80.3501L5.88596 80.2061C5.88639 80.2055 5.88663 80.2052 5.88642 80.2055C5.88608 80.2059 5.88612 80.2059 5.88537 80.2069C5.88434 80.2083 5.88244 80.211 5.88029 80.2141L6.08545 80.3569ZM6.09033 80.3501L6.29632 80.4918L6.2961 80.4919L6.09229 80.3472L5.88847 80.2024C5.88608 80.2058 5.88424 80.2085 5.88377 80.2092C5.88307 80.2103 5.88244 80.2112 5.88234 80.2114C5.88205 80.2118 5.88221 80.2116 5.8824 80.2113C5.88258 80.211 5.88331 80.2099 5.88435 80.2084L6.09033 80.3501ZM6.09229 80.3472H6.34229V80.3462H6.09229H5.84229V80.3472H6.09229ZM6.09229 80.3462L6.29602 80.4911C12.6856 71.5068 14.3361 63.8058 15.2324 58.4332L14.9858 58.3921L14.7392 58.3509C13.8491 63.6861 12.2166 71.3036 5.88855 80.2013L6.09229 80.3462ZM14.9858 58.3921L15.2324 58.4332C16.1598 52.8743 15.8243 47.3886 15.8823 41.2255L15.6323 41.2231L15.3823 41.2208C15.3239 47.4302 15.6581 52.8433 14.7392 58.351L14.9858 58.3921ZM15.6323 41.2231L15.8823 41.2255C15.9391 35.1951 16.3968 28.788 19.1588 22.2046L18.9282 22.1079L18.6977 22.0112C15.8978 28.6851 15.4393 35.1703 15.3823 41.2208L15.6323 41.2231ZM18.9282 22.1079L19.1588 22.2046C22.0442 15.3273 27.142 10.7264 32.2061 7.84572L32.0825 7.62842L31.9589 7.41111C26.8234 10.3324 21.6356 15.0088 18.6977 22.0112L18.9282 22.1079ZM32.0825 7.62842L32.2061 7.84572C37.267 4.96703 42.3075 3.79831 45.0962 3.79834L45.0962 3.54834L45.0962 3.29834C42.2047 3.29831 37.0797 4.49831 31.9589 7.41111L32.0825 7.62842ZM45.0962 3.54834V3.79834H45.4966V3.54834V3.29834H45.0962V3.54834ZM45.4966 3.54834H45.2466V9.38721H45.4966H45.7466V3.54834H45.4966Z" fill="#C5821E"/>
</svg>
