<svg width="148" height="130" viewBox="0 0 148 130" fill="none" xmlns="http://www.w3.org/2000/svg">
<path d="M110.479 41.714C109.07 42.5278 109.173 47.3507 109.401 49.6604L111.108 49.5044C111.078 48.416 111.457 45.8483 113.207 44.2848C115.396 42.3305 118.734 45.2399 121.875 43.979C124.388 42.9703 125.837 40.3097 126.247 39.1055C130.91 38.1822 131.5 33.1247 131.212 30.7113C136.688 28.3238 136.317 23.4698 134.907 21.4276C139.452 18.5276 138.878 11.5482 136.416 9.32737C133.955 7.10651 120.895 20.1981 117.555 23.5084C114.215 26.8187 114.89 32.1199 115.246 35.3692C115.602 38.6185 112.241 40.6968 110.479 41.714Z" fill="white"/>
<path d="M134.907 21.4276C139.452 18.5276 138.878 11.5482 136.416 9.32737C133.955 7.10651 120.895 20.1981 117.555 23.5084C114.215 26.8187 114.89 32.1199 115.246 35.3692C115.602 38.6185 112.241 40.6968 110.479 41.714C109.07 42.5278 109.173 47.3507 109.401 49.6604L111.108 49.5044C111.078 48.416 111.457 45.8483 113.207 44.2848C115.396 42.3305 118.734 45.2399 121.875 43.979C124.388 42.9703 125.837 40.3097 126.247 39.1055M134.907 21.4276C131.272 23.7476 126.835 26.6619 122.739 28.0029M134.907 21.4276C136.317 23.4698 136.688 28.3238 131.212 30.7113M131.212 30.7113C125.736 33.0988 124.209 33.2944 121.724 33.4255M131.212 30.7113C131.5 33.1247 130.91 38.1822 126.247 39.1055M126.247 39.1055C123.184 39.712 122.022 39.1959 119.848 38.7926" stroke="#A2A5DD" stroke-width="0.5" stroke-linecap="round"/>
<path d="M37.6705 41.714C39.0801 42.5278 38.9765 47.3507 38.7485 49.6604L37.0421 49.5044C37.0717 48.416 36.6932 45.8483 34.9426 44.2848C32.7544 42.3305 29.4163 45.2399 26.275 43.979C23.7619 42.9703 22.3131 40.3097 21.9028 39.1055C17.2399 38.1822 16.6499 33.1247 16.9377 30.7113C11.4619 28.3238 11.8332 23.4698 13.2426 21.4276C8.69834 18.5276 9.27214 11.5482 11.7336 9.32737C14.195 7.10651 27.255 20.1981 30.595 23.5084C33.9351 26.8187 33.26 32.1199 32.9041 35.3692C32.5482 38.6185 35.9086 40.6968 37.6705 41.714Z" fill="white"/>
<path d="M13.2426 21.4276C8.69834 18.5276 9.27213 11.5482 11.7336 9.32737C14.195 7.10651 27.255 20.1981 30.595 23.5084C33.9351 26.8187 33.26 32.1199 32.9041 35.3692C32.5482 38.6185 35.9086 40.6968 37.6705 41.714C39.0801 42.5278 38.9765 47.3507 38.7485 49.6604L37.0421 49.5044C37.0717 48.416 36.6932 45.8483 34.9426 44.2848C32.7544 42.3305 29.4163 45.2399 26.275 43.979C23.7619 42.9703 22.3131 40.3097 21.9028 39.1055M13.2426 21.4276C16.878 23.7476 21.315 26.6619 25.4109 28.0029M13.2426 21.4276C11.8332 23.4698 11.4619 28.3238 16.9377 30.7113M16.9377 30.7113C22.4135 33.0988 23.9409 33.2944 26.4259 33.4255M16.9377 30.7113C16.6499 33.1247 17.2399 38.1822 21.9028 39.1055M21.9028 39.1055C24.9659 39.712 26.1283 39.1959 28.302 38.7926" stroke="#A2A5DD" stroke-width="0.5" stroke-linecap="round"/>
<path d="M47.7109 115.559L47.707 115.537L47.623 115.05L46.6299 109.221L41.4209 78.6396L40.7754 74.8477L40.5908 73.7705L39.9404 69.9521L39.7725 68.959V68.958L39.1328 65.2109L37.2305 54.0332L36.9385 52.3232C37.1741 52.4944 37.4628 52.6565 37.7949 52.8086C38.4452 53.1064 39.2978 53.3889 40.3252 53.6553C42.3809 54.1883 45.1679 54.6641 48.5098 55.0615C55.1955 55.8565 64.1294 56.3418 73.9395 56.3418C81.5702 56.3418 88.6703 56.0488 94.5928 55.543C99.2741 55.1443 103.227 54.6134 106.128 53.9902C107.578 53.6789 108.773 53.3429 109.668 52.9854C110.115 52.8066 110.494 52.6198 110.794 52.4248C110.845 52.3916 110.893 52.3556 110.94 52.3213L110.646 54.0557L108.722 65.3574L108.101 69.0049L107.907 70.1328L107.277 73.8389L107.094 74.9111L106.455 78.6621L100.259 115.035L100.173 115.538L100.17 115.559V115.58C100.17 115.812 100.041 116.074 99.7158 116.363C99.3914 116.652 98.8984 116.942 98.2402 117.225C96.9258 117.79 95.0084 118.304 92.6201 118.738C87.8472 119.606 81.2424 120.145 73.9404 120.145C66.6386 120.145 60.0339 119.606 55.2607 118.738C52.8726 118.304 50.9551 117.79 49.6406 117.225C48.9825 116.942 48.4895 116.651 48.165 116.363C47.8397 116.074 47.711 115.812 47.7109 115.58V115.559Z" fill="#F0D185" stroke="#C5821E" stroke-width="0.5"/>
<path d="M65.6001 45.7217C77.6929 45.3783 91.1558 45.7295 101.452 47.0176C103.932 47.3262 107.373 47.8488 109.755 48.5391H109.757C110.423 48.7249 111.237 48.9835 111.957 49.3438C112.674 49.7029 113.257 50.1451 113.533 50.6816C113.533 50.6917 113.534 50.707 113.533 50.7285C113.529 50.7844 113.519 50.862 113.5 50.957C113.462 51.1458 113.396 51.3829 113.317 51.6182C113.237 51.8542 113.146 52.08 113.059 52.248C113.015 52.3325 112.977 52.3951 112.945 52.4355C112.936 52.4466 112.928 52.4537 112.923 52.459C112.32 52.6205 111.691 52.2492 111.569 51.6543L111.55 51.5664L111.48 51.5098C111.28 51.3493 111.047 51.2327 110.839 51.1377C109.2 50.3795 106.232 49.7972 103.264 49.3672C100.283 48.9354 97.2631 48.6524 95.4966 48.5039C84.0829 47.5427 70.5545 47.481 59.2886 48.0527C53.6555 48.3386 48.5832 48.7828 44.6216 49.3535C42.6411 49.6388 40.9337 49.9567 39.5708 50.3027C38.2155 50.6469 37.1751 51.025 36.5474 51.4434L36.5386 51.4492L36.5298 51.4561C36.5253 51.4596 36.5211 51.4637 36.5044 51.4766C36.4909 51.4869 36.4725 51.5004 36.4546 51.5156L36.3872 51.5732L36.3716 51.6592C36.2637 52.227 35.6315 52.6373 34.9995 52.4561H34.9976C35.0108 52.4598 35.0004 52.4589 34.9624 52.4258C34.9285 52.3963 34.8868 52.3532 34.8394 52.2959C34.7445 52.1813 34.6408 52.0307 34.5435 51.876C34.4469 51.7225 34.3594 51.5704 34.2964 51.4551C34.2664 51.4001 34.2426 51.3539 34.2261 51.3213C34.2824 50.6119 34.7741 50.0571 35.5063 49.6064C36.256 49.1452 37.2055 48.8262 38.0278 48.585L38.0308 48.584C42.8048 47.1042 53.4968 46.0654 65.6001 45.7217Z" fill="#F0D185" stroke="#C5821E" stroke-width="0.5"/>
<path d="M76.9316 46.7324C83.8968 46.8056 90.7058 47.1209 96.4219 47.666C101.999 48.1978 106.51 48.9484 109.117 49.8936C109.086 50.1051 109.109 50.2939 109.206 50.4473C109.341 50.661 109.569 50.7283 109.758 50.7402C109.948 50.7523 110.148 50.7126 110.309 50.6621C110.392 50.6359 110.476 50.6026 110.55 50.5664C110.565 50.5763 110.577 50.5839 110.583 50.5879L110.586 50.5889L110.673 50.6758C110.729 50.7334 110.798 50.8068 110.865 50.8809C110.933 50.955 110.997 51.0288 111.046 51.0859C111.059 51.1014 111.071 51.115 111.081 51.127C111.082 51.1673 111.082 51.2193 111.083 51.2715C111.084 51.3256 111.085 51.3795 111.085 51.4199C111.085 51.4282 111.085 51.4363 111.085 51.4434C110.994 51.6579 110.725 51.9173 110.195 52.1973C109.648 52.4864 108.877 52.7712 107.898 53.0449C105.943 53.5918 103.196 54.0851 99.8379 54.5C93.1244 55.3294 83.9992 55.8398 73.9434 55.8398C63.8875 55.8398 54.7626 55.3294 48.0488 54.5C44.6907 54.0851 41.9435 53.5918 39.9873 53.0449C39.0083 52.7712 38.2378 52.4864 37.6904 52.1973C37.1364 51.9046 36.8663 51.6351 36.7881 51.415C36.7813 51.377 36.7758 51.346 36.7715 51.3223C36.7658 51.2912 36.7631 51.2743 36.7617 51.2627C36.7605 51.2526 36.7595 51.2474 36.7656 51.209C36.7954 51.0349 36.9541 50.8143 37.3301 50.5654C37.4047 50.602 37.4885 50.6366 37.5732 50.6631C37.7344 50.7135 37.9342 50.7522 38.125 50.7402C38.3138 50.7283 38.5419 50.6611 38.6768 50.4473C38.7735 50.2938 38.7962 50.1052 38.7646 49.8936C39.336 49.6874 40.0198 49.4862 40.8086 49.292L40.8076 49.291C48.4608 47.409 62.9926 46.586 76.9316 46.7324Z" fill="#C5821E" stroke="#C5821E" stroke-width="0.5"/>
<path d="M31.1646 38.8691C31.7175 38.7085 32.2959 39.0264 32.4565 39.5791L32.4575 39.5801C32.7204 40.4778 33.3118 42.021 34.1646 43.4404C34.3601 44.708 34.764 46.2757 35.1753 47.7031C33.7055 46.6453 32.5875 44.983 31.8052 43.4668C30.9309 41.7724 30.4932 40.3 30.4546 40.1631V40.1611L30.4302 40.0576C30.3346 39.5377 30.6462 39.0197 31.1646 38.8691Z" fill="#F0D185" stroke="#C5821E" stroke-width="0.5"/>
<path d="M74.1631 10.1646C86.1524 10.1646 94.9285 13.2629 100.649 21.1743C104.399 26.3565 106.205 32.4062 107.331 37.354C107.771 39.2904 108.158 41.3386 108.524 43.0425C108.706 43.89 108.883 44.6507 109.057 45.2573C109.216 45.8149 109.384 46.2762 109.567 46.5513C109.458 46.868 109.312 47.2385 109.143 47.5923C108.976 47.9397 108.792 48.2582 108.606 48.4966C108.533 48.4486 108.464 48.3992 108.406 48.353C108.368 48.3224 108.337 48.294 108.312 48.272L108.251 48.2104C107.755 47.714 107.447 47.0317 107.209 46.314H107.208C106.895 45.3822 106.622 44.1554 106.324 42.7085C106.027 41.2666 105.706 39.6107 105.298 37.8403C104.481 34.2983 103.31 30.274 101.257 26.4829C99.2028 22.6894 96.2642 19.1274 91.9141 16.5151C87.5641 13.903 81.8189 12.2505 74.166 12.2505C65.9726 12.2505 59.9443 14.1517 55.4639 17.0981C50.9843 20.0441 48.07 24.0227 46.083 28.1479C44.0971 32.271 43.0344 36.5472 42.2607 40.0923C41.8728 41.87 41.5599 43.453 41.2383 44.7554C40.915 46.0642 40.5926 47.0442 40.2031 47.6294L40.1992 47.6362C39.9669 48.0111 39.6745 48.3317 39.3174 48.5435C39.1306 48.313 38.9407 47.9874 38.8105 47.7271L38.8096 47.7251C38.6576 47.4275 38.5159 47.0857 38.4131 46.8169C38.3828 46.7378 38.3572 46.6653 38.335 46.603C38.4074 46.5553 38.4696 46.4906 38.5117 46.4116L38.5107 46.4106C38.6906 46.0757 38.864 45.532 39.0078 45.0063C39.0809 44.7392 39.1484 44.47 39.207 44.2251L39.3535 43.5894C40.5426 38.2567 41.8015 28.8344 47.3447 21.1743C53.6349 12.487 63.3867 10.1646 74.1631 10.1646Z" fill="#F0D185" stroke="#C5821E" stroke-width="0.5"/>
<path d="M115.534 39.5801C115.696 39.0276 116.274 38.7097 116.825 38.8682V38.8691C117.38 39.0323 117.697 39.6098 117.536 40.1621L117.485 40.3369C117.338 40.8048 116.904 42.093 116.157 43.5293C115.352 45.0773 114.199 46.7634 112.683 47.8008C113.079 46.434 113.473 44.9273 113.684 43.6738C114.498 42.3787 115.09 40.9447 115.411 39.9717L115.534 39.5801Z" fill="#F0D185" stroke="#C5821E" stroke-width="0.5"/>
<path d="M111.176 40.2979C111.469 40.3224 111.87 40.3902 112.271 40.5684C112.893 40.8448 113.304 41.471 113.325 42.1572C113.333 42.4142 113.315 42.7114 113.273 43.0605L113.198 42.9854V43.5498L113.183 43.6162C113.175 43.6606 113.164 43.7264 113.15 43.8076C113.121 43.9741 113.076 44.2295 112.999 44.5947C112.882 45.1429 112.693 45.9407 112.38 47.0586L112.024 48.2861C111.925 48.6187 111.848 49.0076 111.776 49.3682C111.711 49.6944 111.649 49.9943 111.581 50.2334C111.555 50.2563 111.533 50.2801 111.516 50.3008C111.468 50.3597 111.42 50.4369 111.375 50.5166C111.282 50.6791 111.183 50.8894 111.105 51.0811L111.104 51.082C111.045 51.2281 111.011 51.328 110.99 51.3975C110.931 51.4167 110.84 51.4446 110.716 51.4775C110.529 51.5274 110.293 51.5858 110.037 51.6504C109.702 51.7346 109.331 51.831 109 51.9287C109.011 51.8946 109.024 51.8575 109.037 51.8174C109.094 51.6358 109.168 51.3951 109.247 51.1426C109.403 50.638 109.573 50.081 109.644 49.8418C109.77 49.4558 110.522 46.7523 110.712 45.8965C111.018 44.5757 111.239 43.2341 111.306 42.1553C111.34 41.6171 111.335 41.1347 111.281 40.749C111.257 40.5845 111.222 40.4323 111.176 40.2979Z" fill="#F0D185" stroke="#C5821E" stroke-width="0.5"/>
<mask id="path-12-inside-1_9281_115" fill="white">
<path d="M108.66 48.8207C108.495 48.9971 108.349 49.0772 108.241 49.0371C108.104 48.985 108.051 48.7472 108.072 48.3877C108.245 48.5587 108.439 48.7071 108.662 48.8207H108.66Z"/>
</mask>
<path d="M108.66 48.8207C108.495 48.9971 108.349 49.0772 108.241 49.0371C108.104 48.985 108.051 48.7472 108.072 48.3877C108.245 48.5587 108.439 48.7071 108.662 48.8207H108.66Z" fill="#20697A"/>
<path d="M108.66 48.8207V48.3207H108.444L108.296 48.4783L108.66 48.8207ZM108.241 49.0371L108.062 49.5042L108.067 49.506L108.241 49.0371ZM108.072 48.3877L108.425 48.0328L107.639 47.2533L107.573 48.358L108.072 48.3877ZM108.662 48.8207V49.3207L108.889 48.3751L108.662 48.8207ZM108.66 48.8207L108.296 48.4783C108.266 48.51 108.242 48.5326 108.223 48.5479C108.204 48.5636 108.195 48.5682 108.197 48.5673C108.198 48.5668 108.218 48.5559 108.256 48.5504C108.296 48.5444 108.353 48.5455 108.414 48.5683L108.241 49.0371L108.067 49.506C108.305 49.5941 108.523 49.5254 108.661 49.4528C108.801 49.3795 108.923 49.2716 109.025 49.163L108.66 48.8207ZM108.241 49.0371L108.419 48.5701C108.5 48.6008 108.547 48.6524 108.568 48.6841C108.587 48.7119 108.587 48.7253 108.583 48.7064C108.578 48.6894 108.573 48.657 108.57 48.6055C108.567 48.5549 108.567 48.4923 108.572 48.4174L108.072 48.3877L107.573 48.358C107.561 48.5608 107.567 48.7676 107.612 48.9489C107.653 49.1114 107.762 49.3893 108.062 49.5042L108.241 49.0371ZM108.072 48.3877L107.72 48.7426C107.923 48.9441 108.158 49.1255 108.435 49.2663L108.662 48.8207L108.889 48.3751C108.719 48.2887 108.566 48.1734 108.425 48.0328L108.072 48.3877ZM108.662 48.8207V48.3207H108.66V48.8207V49.3207H108.662V48.8207Z" fill="#C5821E" mask="url(#path-12-inside-1_9281_115)"/>
<path d="M109.921 47.0449C109.64 48.0657 109.266 49.3468 108.922 50.4785C108.84 50.2598 108.728 50.0597 108.599 49.8799C108.266 49.4155 107.813 49.0822 107.433 48.9023C107.445 48.8583 107.457 48.8075 107.472 48.751C107.508 48.6132 107.555 48.4399 107.61 48.2373C107.675 48.3209 107.745 48.4013 107.818 48.4795C107.814 48.5728 107.816 48.6669 107.83 48.7559C107.848 48.8772 107.886 49.0175 107.972 49.126C108.017 49.1832 108.08 49.2365 108.163 49.2676C108.246 49.2991 108.334 49.3011 108.417 49.2812C108.572 49.2441 108.713 49.1311 108.844 48.9873L108.845 48.9883C109.297 48.4949 109.677 47.6799 109.921 47.0449ZM110.674 40.3047C110.799 40.418 110.894 40.6015 110.948 40.8799C111.012 41.2133 111.012 41.6465 110.96 42.1602C110.872 43.0349 110.641 44.0923 110.385 45.2012C110.4 45.0157 110.402 44.8307 110.384 44.6484L110.382 44.6289L110.346 44.4854C110.299 44.343 110.211 44.2104 110.051 44.1582C109.853 44.0939 109.672 44.1993 109.573 44.2725C109.501 44.325 109.433 44.3927 109.367 44.4639C109.275 44.1011 109.186 43.7319 109.105 43.3604C109.416 42.497 109.737 41.7114 110.043 41.1396C110.201 40.8454 110.349 40.6186 110.482 40.4688C110.566 40.3741 110.631 40.3278 110.674 40.3047Z" fill="#E9BA47" stroke="#C5821E" stroke-width="0.5"/>
<path d="M109.905 44.6543C109.924 44.7337 109.932 44.8593 109.92 45.0322C109.904 45.2552 109.855 45.5317 109.777 45.8438C109.773 45.8334 109.769 45.8232 109.765 45.8125C109.686 45.6055 109.607 45.3553 109.526 45.0723C109.644 44.8998 109.751 44.7734 109.839 44.6953C109.863 44.6736 109.885 44.6581 109.902 44.6465C109.903 44.6491 109.905 44.6515 109.905 44.6543Z" fill="#20697A" stroke="#C5821E" stroke-width="0.5"/>
<path d="M36.8062 40.293C36.7541 40.4375 36.7157 40.6035 36.688 40.7842C36.6254 41.1929 36.6127 41.7058 36.6411 42.2773C36.698 43.4225 36.9189 44.8408 37.2524 46.2129L37.2534 46.2158C37.6979 47.9483 37.9976 48.9953 38.2466 49.8633C38.4723 50.6503 38.6535 51.2883 38.8647 52.1602C38.3919 52.205 38.0295 52.1495 37.7505 52.043C37.4213 51.9173 37.1918 51.7164 37.0269 51.5029C36.8606 51.2877 36.7595 51.0586 36.6919 50.877C36.675 50.8316 36.6603 50.7887 36.647 50.75C36.6342 50.713 36.6213 50.6754 36.6099 50.6445C36.5997 50.617 36.5842 50.5767 36.564 50.542C36.5598 50.5349 36.5528 50.5244 36.5435 50.5117C36.372 49.9738 36.0267 48.8291 35.8413 48.21C35.6247 47.4848 35.2892 46.3206 35.0142 45.1494C34.7369 43.9691 34.5288 42.8117 34.5542 42.0869C34.5763 41.4556 34.9468 40.8938 35.519 40.6182H35.52C35.9031 40.4325 36.3268 40.3456 36.6646 40.3066C36.714 40.3009 36.7614 40.2967 36.8062 40.293Z" fill="#F0D185" stroke="#C5821E" stroke-width="0.5"/>
<path d="M38.0186 47.1885C38.3433 48.0034 38.7389 48.6911 39.082 49.0322V49.0332C39.1884 49.1399 39.304 49.2269 39.4277 49.2686C39.4739 49.284 39.5222 49.2896 39.5703 49.291C39.2171 49.5591 39.0007 49.8945 38.874 50.2412C38.8014 49.9825 38.7285 49.7205 38.6533 49.458C38.4349 48.6958 38.2125 47.9259 38.0186 47.1885ZM40.4424 48.8682L40.4111 48.876C40.2498 48.9244 40.1034 48.9829 39.9697 49.0479C39.9994 48.9922 40.0195 48.9335 40.0332 48.8779C40.0547 48.7909 40.0625 48.6938 40.0645 48.5908C40.1484 48.5098 40.2281 48.4259 40.3018 48.3379C40.3598 48.5542 40.4078 48.7351 40.4424 48.8682ZM37.2568 40.3018C37.2845 40.3248 37.3237 40.361 37.3711 40.4189C37.5007 40.5775 37.6584 40.8325 37.8311 41.1611C38.1657 41.798 38.534 42.6722 38.8457 43.5498C38.7659 43.9048 38.6831 44.2458 38.6016 44.5625C38.5384 44.4843 38.4769 44.4141 38.415 44.3555C38.3329 44.2775 38.2417 44.208 38.1445 44.165C38.053 44.1247 37.937 44.1019 37.8164 44.1396V44.1377C37.8117 44.1389 37.8073 44.1412 37.8027 44.1426C37.7986 44.144 37.7942 44.1449 37.79 44.1465V44.1475C37.6655 44.1898 37.5879 44.284 37.5439 44.374C37.4986 44.467 37.4775 44.5742 37.4678 44.6768C37.458 44.7805 37.4578 44.8975 37.4658 45.0215C37.3102 44.3029 37.1749 43.5553 37.0908 42.8643C37.0044 42.1547 36.9723 41.5178 37.0195 41.0381C37.0432 40.7978 37.0856 40.6101 37.1426 40.4766C37.1807 40.3873 37.221 40.334 37.2568 40.3018Z" fill="#E9BA47" stroke="#C5821E" stroke-width="0.5"/>
<path d="M37.9819 44.6455C38.0056 44.6613 38.0364 44.6843 38.0728 44.7188C38.1771 44.8177 38.3003 44.9763 38.4341 45.1875C38.3351 45.5232 38.2398 45.8009 38.1489 46.0078C38.0449 45.6269 37.9833 45.29 37.9653 45.0283C37.9535 44.8565 37.9611 44.7318 37.98 44.6533C37.9806 44.6506 37.9813 44.648 37.9819 44.6455Z" fill="#20697A" stroke="#C5821E" stroke-width="0.5"/>
<mask id="path-19-inside-2_9281_115" fill="white">
<path d="M39.817 48.4854C39.825 48.7887 39.7702 48.9891 39.6446 49.0359C39.5444 49.0733 39.4121 49.0065 39.2598 48.8568C39.4669 48.7593 39.6526 48.6337 39.817 48.4854Z"/>
</mask>
<path d="M39.817 48.4854C39.825 48.7887 39.7702 48.9891 39.6446 49.0359C39.5444 49.0733 39.4121 49.0065 39.2598 48.8568C39.4669 48.7593 39.6526 48.6337 39.817 48.4854Z" fill="#20697A"/>
<path d="M39.817 48.4854L40.3168 48.4721L40.2881 47.3867L39.482 48.1142L39.817 48.4854ZM39.6446 49.0359L39.4702 48.5673L39.4697 48.5675L39.6446 49.0359ZM39.2598 48.8568L39.0467 48.4045L38.3972 48.7104L38.9094 49.2135L39.2598 48.8568ZM39.817 48.4854L39.3172 48.4986C39.3188 48.5586 39.317 48.6071 39.3134 48.645C39.3097 48.6836 39.3046 48.7046 39.3023 48.7121C39.2997 48.7208 39.3038 48.7018 39.3263 48.672C39.3513 48.6387 39.3981 48.5942 39.4702 48.5673L39.6446 49.0359L39.8191 49.5045C40.0956 49.4015 40.2118 49.1594 40.2595 49.0016C40.3099 48.8349 40.3215 48.6487 40.3168 48.4721L39.817 48.4854ZM39.6446 49.0359L39.4697 48.5675C39.591 48.5222 39.6798 48.5618 39.6864 48.565C39.6915 48.5674 39.6866 48.5657 39.6714 48.5542C39.6566 48.5431 39.6362 48.5257 39.6102 48.5002L39.2598 48.8568L38.9094 49.2135C39.0056 49.3081 39.1223 49.404 39.257 49.4681C39.3929 49.5327 39.598 49.587 39.8195 49.5043L39.6446 49.0359ZM39.2598 48.8568L39.4728 49.3092C39.7259 49.19 39.9524 49.0366 40.152 48.8565L39.817 48.4854L39.482 48.1142C39.3528 48.2307 39.2079 48.3286 39.0467 48.4045L39.2598 48.8568Z" fill="#C5821E" mask="url(#path-19-inside-2_9281_115)"/>
<path d="M101.756 114.535C102.381 114.535 102.865 115.015 102.865 115.579V115.652C102.833 116.545 102.217 117.347 100.775 118.075C99.2941 118.823 97.0087 119.456 93.812 120.01C88.4971 120.929 81.4398 121.436 73.939 121.436C66.4383 121.436 59.3817 120.929 54.0669 120.01C50.8702 119.456 48.5849 118.823 47.104 118.075C45.6222 117.327 45.0114 116.502 45.0112 115.579C45.0112 115.015 45.4961 114.535 46.1206 114.535C46.5915 114.535 46.9863 114.812 47.1479 115.188L47.1489 115.19C47.1901 115.284 47.2167 115.385 47.2251 115.491L47.231 115.572L47.2837 115.635C47.4091 115.781 47.8101 116.14 48.9829 116.592C50.1586 117.044 52.1267 117.596 55.4087 118.112C60.483 118.911 67.0632 119.349 73.938 119.349C80.8127 119.349 87.393 118.911 92.4673 118.112C95.749 117.596 97.7174 117.044 98.8931 116.592C100.066 116.14 100.466 115.78 100.591 115.635L100.644 115.574L100.651 115.493C100.661 115.382 100.689 115.275 100.732 115.178C100.898 114.804 101.291 114.535 101.756 114.535Z" fill="#F0D185" stroke="#C5821E" stroke-width="0.5"/>
<path d="M110.847 60.2295C111.476 60.2297 111.966 60.7135 111.966 61.2871V61.3398C111.957 61.7292 111.845 62.1282 111.464 62.541C111.056 62.9825 110.33 63.4523 109.059 63.9209C107.294 64.572 104.518 65.2071 100.189 65.7764C98.4032 66.0122 96.4667 66.2196 94.4092 66.4004C88.3844 66.9279 81.3216 67.2129 73.9326 67.2129C70.2534 67.2129 66.6551 67.1425 63.2256 67.0049H63.2246C61.2158 66.9266 59.2646 66.824 57.3887 66.7012C56.0135 66.6101 54.6793 66.5089 53.3926 66.3955L52.1221 66.2773C50.5574 66.1276 49.0697 65.961 47.6758 65.7764C46.175 65.5792 44.8614 65.3738 43.7109 65.1621L42.6133 64.9482C40.9227 64.6 39.6464 64.2395 38.6836 63.873H38.6826C37.4667 63.4123 36.7714 62.9507 36.3809 62.5176C35.9998 62.0947 35.8975 61.6857 35.8975 61.2871C35.8976 60.7134 36.3883 60.2295 37.0176 60.2295C37.2746 60.2295 37.51 60.3107 37.6982 60.4463L37.7764 60.5078C37.9546 60.663 38.0785 60.8727 38.1211 61.1055L38.1367 61.1943L38.2061 61.252C38.4715 61.4739 39.4843 62.1139 42.8564 62.8291C44.4272 63.1634 46.5163 63.5131 49.2891 63.8447C50.3723 63.9747 51.5085 64.0938 52.6865 64.2061H52.6875C54.2323 64.3495 55.8538 64.478 57.5381 64.5889C59.3734 64.7093 61.2827 64.8093 63.2451 64.8877C66.6762 65.0256 70.2734 65.0977 73.9316 65.0977C81.3146 65.0976 88.447 64.808 94.4766 64.2695C95.9091 64.1423 97.2793 64 98.5752 63.8457C102.944 63.3239 105.617 62.7542 107.242 62.2783C108.864 61.8036 109.459 61.4178 109.656 61.2539L109.727 61.1953L109.743 61.1055C109.775 60.9288 109.854 60.766 109.971 60.6289L109.972 60.6279C110.176 60.3865 110.49 60.2295 110.847 60.2295Z" fill="#F0D185" stroke="#C5821E" stroke-width="0.5"/>
<path d="M110.045 65.04C110.664 65.04 111.155 65.5219 111.165 66.1035V66.1201C111.165 66.7759 110.825 67.3093 110.281 67.7578C109.734 68.209 109.002 68.5547 108.276 68.8271H108.275C108.156 68.8722 108.037 68.9161 107.919 68.957L107.568 69.0742C105.929 69.6076 103.684 70.0911 100.88 70.5166L99.6436 70.6953C98.0133 70.919 96.2548 71.1195 94.3906 71.2939C88.4209 71.8543 81.3762 72.1572 73.9971 72.1572C70.3044 72.1572 66.6914 72.0816 63.2568 71.9346C61.2395 71.8494 59.2821 71.7411 57.4053 71.6064C55.319 71.4595 53.3331 71.2813 51.4707 71.0781C50.387 70.9601 49.3457 70.8325 48.3516 70.6953C45.9548 70.3645 43.9171 69.9962 42.2666 69.5918C41.7571 69.4668 41.2842 69.3386 40.8496 69.207L40.4277 69.0742C40.1423 68.9819 39.8402 68.8756 39.5391 68.7568H39.5381C38.8415 68.4836 38.1561 68.1407 37.6484 67.7012C37.1446 67.2649 36.8331 66.7499 36.833 66.1221C36.833 65.5323 37.3285 65.04 37.9541 65.04C38.2106 65.0401 38.444 65.1226 38.6309 65.2607L38.6318 65.2617C38.8554 65.4243 39.0112 65.6662 39.0576 65.9424L39.0723 66.0322L39.1406 66.0908C39.3615 66.2817 40.1002 66.7751 42.3164 67.3633H42.3174C43.9354 67.792 46.3506 68.2737 49.9443 68.7217C50.4989 68.7905 51.0688 68.8585 51.6514 68.9219C53.4383 69.1176 55.3489 69.2903 57.3506 69.4336C59.2287 69.5686 61.1893 69.6794 63.2109 69.7676C66.6682 69.9177 70.3009 69.9951 73.999 69.9951C81.384 69.9951 88.5091 69.6851 94.4863 69.1133C95.7277 68.9948 96.9199 68.8637 98.0547 68.7217C102.318 68.1904 104.924 67.6118 106.508 67.1289C108.088 66.647 108.667 66.2563 108.858 66.0908L108.927 66.0312L108.941 65.9424C108.974 65.7445 109.065 65.5622 109.198 65.4141C109.403 65.1862 109.707 65.0401 110.045 65.04Z" fill="#F0D185" stroke="#C5821E" stroke-width="0.5"/>
<path d="M109.11 69.9844C109.734 69.9844 110.227 70.4753 110.228 71.0654V71.1553C110.198 71.774 109.868 72.2814 109.354 72.71C108.813 73.1622 108.088 73.5077 107.373 73.7793L107.372 73.7803L106.712 74.0156C104.881 74.6261 102.278 75.1723 98.9688 75.6377C97.4766 75.8476 95.8745 76.0366 94.1816 76.2041C88.2833 76.7863 81.2759 77.1016 73.9316 77.1016C70.3214 77.1016 66.7906 77.0259 63.4326 76.8789C61.4267 76.791 59.484 76.6793 57.6211 76.542L56.2021 76.4326C54.8001 76.3179 53.4491 76.1889 52.1592 76.0469C51.0228 75.922 49.931 75.7841 48.8945 75.6387C46.3572 75.2819 44.2328 74.8762 42.5537 74.4326C42.0451 74.2977 41.5784 74.159 41.1533 74.0166H41.1523C40.9186 73.9392 40.6761 73.8535 40.4307 73.7578L39.9033 73.5391C39.3812 73.3056 38.8835 73.027 38.4873 72.6904C37.9629 72.2449 37.6348 71.7155 37.6348 71.0654C37.6349 70.4754 38.1285 69.9845 38.752 69.9844C39.0473 69.9844 39.313 70.0939 39.5117 70.2734L39.5127 70.2744C39.6931 70.4356 39.8167 70.6543 39.8564 70.8984L39.8711 70.9863L39.9385 71.0459C40.1189 71.2047 40.655 71.5786 42.1006 72.04C43.63 72.529 46.1926 73.1226 50.4609 73.667H50.4619C50.8535 73.7165 51.2513 73.7666 51.6562 73.8135C53.4642 74.0243 55.4058 74.2071 57.4482 74.3613C59.3247 74.5018 61.289 74.6195 63.3145 74.709C66.7132 74.8618 70.2901 74.9395 73.9307 74.9395C81.3085 74.9395 88.4245 74.6163 94.3398 74.0156C95.3997 73.9082 96.422 73.7925 97.4004 73.667L97.3994 73.666C101.558 73.1361 104.098 72.5593 105.64 72.0781C107.178 71.598 107.739 71.2092 107.924 71.0449L107.99 70.9863L108.005 70.8984C108.04 70.6802 108.142 70.4826 108.292 70.3311L108.294 70.3281C108.497 70.1164 108.786 69.9844 109.11 69.9844Z" fill="#F0D185" stroke="#C5821E" stroke-width="0.5"/>
<rect x="59.5312" y="9.75635" width="29.0255" height="5.2196" fill="#C5821E" stroke="#C5821E" stroke-width="0.5"/>
<mask id="path-26-outside-3_9281_115" maskUnits="userSpaceOnUse" x="56.8556" y="7.84998" width="5.07028" height="9.03558" fill="black">
<rect fill="white" x="56.8556" y="7.84998" width="5.07028" height="9.03558"/>
<path d="M59.6885 15.87C59.0489 15.8652 58.5358 15.3978 58.2018 14.7851C57.8623 14.162 57.6654 13.323 57.6725 12.415C57.6797 11.5071 57.8896 10.6709 58.2389 10.0528C58.5824 9.44503 59.1027 8.98596 59.7423 8.99032C60.2065 8.99365 60.6016 9.24199 60.9123 9.61103C60.6372 9.78743 60.3968 10.0248 60.2009 10.2983C59.7757 10.8918 59.525 11.6878 59.5182 12.5454C59.5115 13.4033 59.7497 14.2035 60.1656 14.8031C60.3263 15.0348 60.5187 15.2416 60.7371 15.4088C60.444 15.6932 60.0897 15.8729 59.6885 15.87Z"/>
</mask>
<path d="M59.6885 15.87C59.0489 15.8652 58.5358 15.3978 58.2018 14.7851C57.8623 14.162 57.6654 13.323 57.6725 12.415C57.6797 11.5071 57.8896 10.6709 58.2389 10.0528C58.5824 9.44503 59.1027 8.98596 59.7423 8.99032C60.2065 8.99365 60.6016 9.24199 60.9123 9.61103C60.6372 9.78743 60.3968 10.0248 60.2009 10.2983C59.7757 10.8918 59.525 11.6878 59.5182 12.5454C59.5115 13.4033 59.7497 14.2035 60.1656 14.8031C60.3263 15.0348 60.5187 15.2416 60.7371 15.4088C60.444 15.6932 60.0897 15.8729 59.6885 15.87Z" fill="#F0D185"/>
<path d="M59.6885 15.87L59.6844 16.37L59.6846 16.37L59.6885 15.87ZM58.2018 14.7851L57.7627 15.0245L57.7628 15.0246L58.2018 14.7851ZM57.6725 12.415L57.1725 12.4114L57.1725 12.4115L57.6725 12.415ZM58.2389 10.0528L57.8036 9.80699L57.8036 9.80707L58.2389 10.0528ZM59.7423 8.99032L59.7462 8.49034L59.7461 8.49034L59.7423 8.99032ZM60.9123 9.61103L61.182 10.0319C61.3032 9.9542 61.385 9.82809 61.4066 9.68582C61.4283 9.54354 61.3875 9.39888 61.2949 9.28885L60.9123 9.61103ZM60.2009 10.2983L59.7945 10.0073L59.7944 10.0073L60.2009 10.2983ZM59.5182 12.5454L59.0182 12.5418L59.0182 12.5419L59.5182 12.5454ZM60.1656 14.8031L59.7547 15.0882L59.7547 15.0883L60.1656 14.8031ZM60.7371 15.4088L61.0852 15.7674C61.1896 15.6661 61.2447 15.5245 61.2362 15.3793C61.2278 15.2342 61.1566 15.1 61.0411 15.0116L60.7371 15.4088ZM59.6885 15.87L59.6926 15.37C59.318 15.3672 58.937 15.0888 58.6409 14.5456L58.2018 14.7851L57.7628 15.0246C58.1346 15.7068 58.7798 16.3632 59.6844 16.37L59.6885 15.87ZM58.2018 14.7851L58.6409 14.5456C58.3492 14.0104 58.166 13.2582 58.1725 12.4186L57.6725 12.415L57.1725 12.4115C57.1649 13.3878 57.3754 14.3137 57.7627 15.0245L58.2018 14.7851ZM57.6725 12.415L58.1725 12.4186C58.1791 11.579 58.3741 10.8295 58.6741 10.2985L58.2389 10.0528L57.8036 9.80707C57.4051 10.5123 57.1802 11.4351 57.1725 12.4114L57.6725 12.415ZM58.2389 10.0528L58.6741 10.2986C58.9784 9.76018 59.3637 9.48775 59.7386 9.49031L59.7423 8.99032L59.7461 8.49034C58.8418 8.48417 58.1863 9.12989 57.8036 9.80699L58.2389 10.0528ZM59.7423 8.99032L59.7384 9.49031C60.0103 9.49226 60.2787 9.63511 60.5297 9.93322L60.9123 9.61103L61.2949 9.28885C60.9244 8.84888 60.4026 8.49504 59.7462 8.49034L59.7423 8.99032ZM60.9123 9.61103L60.6426 9.19017C60.3078 9.40482 60.0228 9.68866 59.7945 10.0073L60.2009 10.2983L60.6073 10.5893C60.7709 10.3609 60.9665 10.17 61.182 10.0319L60.9123 9.61103ZM60.2009 10.2983L59.7944 10.0073C59.3024 10.6942 59.0257 11.5934 59.0182 12.5418L59.5182 12.5454L60.0182 12.5491C60.0243 11.7822 60.249 11.0894 60.6073 10.5893L60.2009 10.2983ZM59.5182 12.5454L59.0182 12.5419C59.0108 13.4904 59.2733 14.3942 59.7547 15.0882L60.1656 14.8031L60.5765 14.5179C60.2261 14.0127 60.0122 13.3162 60.0182 12.549L59.5182 12.5454ZM60.1656 14.8031L59.7547 15.0883C59.9421 15.3583 60.1695 15.6041 60.433 15.8059L60.7371 15.4088L61.0411 15.0116C60.8679 14.879 60.7106 14.7112 60.5765 14.5179L60.1656 14.8031ZM60.7371 15.4088L60.3889 15.0501C60.1646 15.2679 59.9305 15.3717 59.6924 15.37L59.6885 15.87L59.6846 16.37C60.2489 16.374 60.7235 16.1185 61.0852 15.7674L60.7371 15.4088Z" fill="#C5821E" mask="url(#path-26-outside-3_9281_115)"/>
<mask id="path-28-outside-4_9281_115" maskUnits="userSpaceOnUse" x="86.3163" y="7.84754" width="5.07028" height="9.03558" fill="black">
<rect fill="white" x="86.3163" y="7.84754" width="5.07028" height="9.03558"/>
<path d="M88.5879 15.8673C89.2358 15.8625 89.7603 15.4 90.1039 14.7851C90.4522 14.1614 90.6549 13.3212 90.6478 12.412C90.6406 11.503 90.4249 10.6664 90.0668 10.048C89.7136 9.4382 89.1819 8.98319 88.534 8.98763C88.0576 8.99119 87.6499 9.24398 87.33 9.62129C87.598 9.79652 87.8328 10.0291 88.0247 10.297C88.4499 10.8905 88.7006 11.6864 88.7074 12.5441C88.714 13.4019 88.4759 14.2022 88.06 14.8017C87.9037 15.0269 87.7179 15.2289 87.507 15.3936C87.8092 15.6856 88.1745 15.8702 88.5879 15.8673Z"/>
</mask>
<path d="M88.5879 15.8673C89.2358 15.8625 89.7603 15.4 90.1039 14.7851C90.4522 14.1614 90.6549 13.3212 90.6478 12.412C90.6406 11.503 90.4249 10.6664 90.0668 10.048C89.7136 9.4382 89.1819 8.98319 88.534 8.98763C88.0576 8.99119 87.6499 9.24398 87.33 9.62129C87.598 9.79652 87.8328 10.0291 88.0247 10.297C88.4499 10.8905 88.7006 11.6864 88.7074 12.5441C88.714 13.4019 88.4759 14.2022 88.06 14.8017C87.9037 15.0269 87.7179 15.2289 87.507 15.3936C87.8092 15.6856 88.1745 15.8702 88.5879 15.8673Z" fill="#F0D185"/>
<path d="M88.5879 15.8673L88.5919 16.3673L88.5916 16.3673L88.5879 15.8673ZM90.1039 14.7851L90.5404 15.0292L90.5404 15.0292L90.1039 14.7851ZM90.6478 12.412L91.1478 12.4084L91.1478 12.4084L90.6478 12.412ZM90.0668 10.048L90.4994 9.79758L90.4995 9.79765L90.0668 10.048ZM88.534 8.98763L88.53 8.48765L88.5303 8.48765L88.534 8.98763ZM87.33 9.62129L87.0565 10.0397C86.9365 9.96119 86.8559 9.83493 86.8352 9.69299C86.8145 9.55106 86.8558 9.40713 86.9485 9.29778L87.33 9.62129ZM88.0247 10.297L88.4311 10.006L88.4312 10.006L88.0247 10.297ZM88.7074 12.5441L89.2074 12.5405L89.2074 12.5405L88.7074 12.5441ZM88.06 14.8017L88.4709 15.0869L88.4708 15.087L88.06 14.8017ZM87.507 15.3936L87.1597 15.7531C87.0555 15.6525 87.0001 15.5117 87.0077 15.3672C87.0152 15.2226 87.085 15.0885 87.1991 14.9994L87.507 15.3936ZM88.5879 15.8673L88.5838 15.3673C88.9731 15.3644 89.3646 15.0828 89.6673 14.541L90.1039 14.7851L90.5404 15.0292C90.156 15.7171 89.4984 16.3605 88.5919 16.3673L88.5879 15.8673ZM90.1039 14.7851L89.6673 14.5411C89.9662 14.006 90.1544 13.2542 90.1478 12.4156L90.6478 12.412L91.1478 12.4084C91.1555 13.3881 90.9382 14.3169 90.5404 15.0292L90.1039 14.7851ZM90.6478 12.412L90.1478 12.4157C90.1411 11.5771 89.9413 10.8289 89.6341 10.2983L90.0668 10.048L90.4995 9.79765C90.9084 10.504 91.14 11.4288 91.1478 12.4084L90.6478 12.412ZM90.0668 10.048L89.6342 10.2983C89.3229 9.76099 88.9271 9.48495 88.5378 9.48762L88.534 8.98763L88.5303 8.48765C89.4368 8.48143 90.1043 9.1154 90.4994 9.79758L90.0668 10.048ZM88.534 8.98763L88.5381 9.48762C88.2516 9.48976 87.9705 9.6393 87.7114 9.94479L87.33 9.62129L86.9485 9.29778C87.3293 8.84867 87.8635 8.49263 88.53 8.48765L88.534 8.98763ZM87.33 9.62129L87.6034 9.20287C87.9286 9.41548 88.2071 9.69325 88.4311 10.006L88.0247 10.297L87.6183 10.588C87.4586 10.365 87.2673 10.1776 87.0565 10.0397L87.33 9.62129ZM88.0247 10.297L88.4312 10.006C88.9232 10.6929 89.1999 11.592 89.2074 12.5405L88.7074 12.5441L88.2074 12.5477C88.2013 11.7808 87.9766 11.0881 87.6183 10.588L88.0247 10.297ZM88.7074 12.5441L89.2074 12.5405C89.2147 13.4889 88.9523 14.3929 88.4709 15.0869L88.06 14.8017L87.6491 14.5166C87.9994 14.0115 88.2133 13.3148 88.2074 12.5477L88.7074 12.5441ZM88.06 14.8017L88.4708 15.087C88.289 15.349 88.0694 15.589 87.8149 15.7878L87.507 15.3936L87.1991 14.9994C87.3664 14.8688 87.5185 14.7048 87.6491 14.5165L88.06 14.8017ZM87.507 15.3936L87.8543 15.0341C88.0878 15.2598 88.3331 15.369 88.5841 15.3673L88.5879 15.8673L88.5916 16.3673C88.0159 16.3713 87.5307 16.1115 87.1597 15.7531L87.507 15.3936Z" fill="#C5821E" mask="url(#path-28-outside-4_9281_115)"/>
<circle cx="5.22532" cy="5.22532" r="4.97532" transform="matrix(-1 0 0 1 58.1182 84.6035)" fill="#C5821E" stroke="#C5821E" stroke-width="0.5"/>
<mask id="path-31-inside-5_9281_115" fill="white">
<path d="M51.9819 84.6846C49.5305 85.1157 47.6675 87.2541 47.6675 89.8291C47.6677 92.7148 50.0073 95.0537 52.8931 95.0537C54.5172 95.0536 55.9679 94.3127 56.9263 93.1504C56.3248 93.4113 55.6618 93.5576 54.9644 93.5576C52.2372 93.5576 50.0259 91.3463 50.0259 88.6191C50.026 87.0127 50.794 85.5862 51.9819 84.6846Z"/>
</mask>
<path d="M51.9819 84.6846C49.5305 85.1157 47.6675 87.2541 47.6675 89.8291C47.6677 92.7148 50.0073 95.0537 52.8931 95.0537C54.5172 95.0536 55.9679 94.3127 56.9263 93.1504C56.3248 93.4113 55.6618 93.5576 54.9644 93.5576C52.2372 93.5576 50.0259 91.3463 50.0259 88.6191C50.026 87.0127 50.794 85.5862 51.9819 84.6846Z" fill="#F8E8C2"/>
<path d="M51.9819 84.6846L51.8953 84.1921L52.2842 85.0828L51.9819 84.6846ZM47.6675 89.8291L47.1675 89.8291V89.8291H47.6675ZM52.8931 95.0537L52.8931 95.5537H52.8931V95.0537ZM56.9263 93.1504L56.7273 92.6917L57.3121 93.4685L56.9263 93.1504ZM54.9644 93.5576L54.9644 94.0576H54.9644V93.5576ZM50.0259 88.6191L49.5259 88.6191L49.5259 88.6191L50.0259 88.6191ZM51.9819 84.6846L52.0685 85.177C49.8518 85.5669 48.1675 87.5012 48.1675 89.8291H47.6675H47.1675C47.1675 87.0069 49.2092 84.6645 51.8953 84.1921L51.9819 84.6846ZM47.6675 89.8291L48.1675 89.8291C48.1677 92.4386 50.2834 94.5537 52.8931 94.5537V95.0537V95.5537C49.7313 95.5537 47.1677 92.991 47.1675 89.8291L47.6675 89.8291ZM52.8931 95.0537L52.893 94.5537C54.3616 94.5536 55.6731 93.8844 56.5405 92.8323L56.9263 93.1504L57.3121 93.4685C56.2628 94.7411 54.6728 95.5536 52.8931 95.5537L52.8931 95.0537ZM56.9263 93.1504L57.1252 93.6091C56.4629 93.8963 55.7324 94.0576 54.9644 94.0576L54.9644 93.5576L54.9643 93.0576C55.5911 93.0576 56.1866 92.9262 56.7273 92.6917L56.9263 93.1504ZM54.9644 93.5576V94.0576C51.9611 94.0576 49.5259 91.6224 49.5259 88.6191H50.0259H50.5259C50.5259 91.0701 52.5134 93.0576 54.9644 93.0576V93.5576ZM50.0259 88.6191L49.5259 88.6191C49.526 86.8495 50.3727 85.2783 51.6796 84.2863L51.9819 84.6846L52.2842 85.0828C51.2152 85.8942 50.526 87.176 50.5259 88.6192L50.0259 88.6191Z" fill="#C5821E" mask="url(#path-31-inside-5_9281_115)"/>
<circle cx="92.3884" cy="101.421" r="4.97532" fill="#C5821E" stroke="#C5821E" stroke-width="0.5"/>
<mask id="path-34-inside-6_9281_115" fill="white">
<path d="M93.2974 96.2764C95.7497 96.7067 97.6138 98.8452 97.6138 101.421C97.6137 104.307 95.274 106.646 92.3882 106.646C90.7645 106.646 89.3143 105.905 88.356 104.743C88.9573 105.004 89.6198 105.15 90.3169 105.15C93.044 105.15 95.2554 102.939 95.2554 100.212C95.2552 98.6048 94.4863 97.178 93.2974 96.2764Z"/>
</mask>
<path d="M93.2974 96.2764C95.7497 96.7067 97.6138 98.8452 97.6138 101.421C97.6137 104.307 95.274 106.646 92.3882 106.646C90.7645 106.646 89.3143 105.905 88.356 104.743C88.9573 105.004 89.6198 105.15 90.3169 105.15C93.044 105.15 95.2554 102.939 95.2554 100.212C95.2552 98.6048 94.4863 97.178 93.2974 96.2764Z" fill="#F8E8C2"/>
<path d="M93.2974 96.2764L93.3838 95.7839L92.9952 96.6748L93.2974 96.2764ZM97.6138 101.421L98.1138 101.421V101.421H97.6138ZM92.3882 106.646L92.3882 107.146H92.3882V106.646ZM88.356 104.743L88.5548 104.284L87.9702 105.061L88.356 104.743ZM90.3169 105.15L90.3169 105.65H90.3169V105.15ZM95.2554 100.212L95.7554 100.212L95.7554 100.212L95.2554 100.212ZM93.2974 96.2764L93.2109 96.7688C95.4286 97.158 97.1138 99.0925 97.1138 101.421H97.6138H98.1138C98.1138 98.5979 96.0709 96.2554 93.3838 95.7839L93.2974 96.2764ZM97.6138 101.421L97.1138 101.421C97.1137 104.031 94.9979 106.146 92.3882 106.146V106.646V107.146C95.5502 107.146 98.1137 104.583 98.1138 101.421L97.6138 101.421ZM92.3882 106.646L92.3882 106.146C90.9203 106.146 89.6093 105.477 88.7417 104.425L88.356 104.743L87.9702 105.061C89.0194 106.333 90.6087 107.146 92.3882 107.146L92.3882 106.646ZM88.356 104.743L88.1571 105.202C88.819 105.489 89.549 105.65 90.3169 105.65L90.3169 105.15L90.3169 104.65C89.6906 104.65 89.0956 104.519 88.5548 104.284L88.356 104.743ZM90.3169 105.15V105.65C93.3202 105.65 95.7554 103.215 95.7554 100.212H95.2554H94.7554C94.7554 102.663 92.7679 104.65 90.3169 104.65V105.15ZM95.2554 100.212L95.7554 100.212C95.7552 98.4413 94.9074 96.8698 93.5995 95.878L93.2974 96.2764L92.9952 96.6748C94.0651 97.4861 94.7553 98.7682 94.7554 100.212L95.2554 100.212Z" fill="#C5821E" mask="url(#path-34-inside-6_9281_115)"/>
<circle cx="5.22532" cy="5.22532" r="4.97532" transform="matrix(-1 0 0 1 71.6138 101.195)" fill="#C5821E" stroke="#C5821E" stroke-width="0.5"/>
<mask id="path-37-inside-7_9281_115" fill="white">
<path d="M63.8735 101.84C62.2582 102.729 61.1636 104.447 61.1636 106.421C61.1637 109.307 63.5034 111.646 66.3892 111.646C69.1394 111.645 71.3915 109.521 71.5972 106.823C70.8156 108.256 69.2954 109.229 67.5483 109.229C65.0032 109.228 62.9399 107.164 62.9399 104.619C62.94 103.575 63.2882 102.613 63.8735 101.84Z"/>
</mask>
<path d="M63.8735 101.84C62.2582 102.729 61.1636 104.447 61.1636 106.421C61.1637 109.307 63.5034 111.646 66.3892 111.646C69.1394 111.645 71.3915 109.521 71.5972 106.823C70.8156 108.256 69.2954 109.229 67.5483 109.229C65.0032 109.228 62.9399 107.164 62.9399 104.619C62.94 103.575 63.2882 102.613 63.8735 101.84Z" fill="#F8E8C2"/>
<path d="M63.8735 101.84L63.6325 101.402L64.2721 102.142L63.8735 101.84ZM61.1636 106.421L60.6636 106.421V106.421H61.1636ZM66.3892 111.646L66.3892 112.146H66.3892V111.646ZM71.5972 106.823L71.1582 106.584L72.0957 106.861L71.5972 106.823ZM67.5483 109.229L67.5483 109.729L67.5483 109.729L67.5483 109.229ZM62.9399 104.619L62.4399 104.619L62.4399 104.619L62.9399 104.619ZM63.8735 101.84L64.1146 102.278C62.6525 103.082 61.6636 104.637 61.6636 106.421H61.1636H60.6636C60.6636 104.257 61.8639 102.375 63.6325 101.402L63.8735 101.84ZM61.1636 106.421L61.6636 106.421C61.6637 109.03 63.7794 111.146 66.3892 111.146V111.646V112.146C63.2273 112.146 60.6637 109.583 60.6636 106.421L61.1636 106.421ZM66.3892 111.646L66.3891 111.146C68.8758 111.145 70.9127 109.224 71.0986 106.785L71.5972 106.823L72.0957 106.861C71.8704 109.817 69.4029 112.145 66.3892 112.146L66.3892 111.646ZM71.5972 106.823L72.0361 107.063C71.1705 108.65 69.4856 109.729 67.5483 109.729V109.229V108.729C69.1051 108.729 70.4607 107.862 71.1582 106.584L71.5972 106.823ZM67.5483 109.229L67.5483 109.729C64.7269 109.728 62.4399 107.44 62.4399 104.619H62.9399H63.4399C63.4399 106.888 65.2794 108.728 67.5484 108.729L67.5483 109.229ZM62.9399 104.619L62.4399 104.619C62.44 103.462 62.8263 102.394 63.475 101.538L63.8735 101.84L64.2721 102.142C63.75 102.831 63.44 103.688 63.4399 104.619L62.9399 104.619Z" fill="#C5821E" mask="url(#path-37-inside-7_9281_115)"/>
<circle cx="5.22532" cy="5.22532" r="4.97532" transform="matrix(-1 0 0 1 82.6138 80.1953)" fill="#C5821E" stroke="#C5821E" stroke-width="0.5"/>
<mask id="path-40-inside-8_9281_115" fill="white">
<path d="M81.0659 81.709C81.2684 82.2279 81.3803 82.7922 81.3804 83.3828C81.3804 85.928 79.3171 87.992 76.772 87.9922C74.5642 87.9922 72.7206 86.439 72.27 84.3662C72.2002 84.7068 72.1636 85.0597 72.1636 85.4209C72.1638 88.3065 74.5026 90.6453 77.3882 90.6455C80.2739 90.6455 82.6136 88.3066 82.6138 85.4209C82.6138 83.9693 82.0216 82.6559 81.0659 81.709Z"/>
</mask>
<path d="M81.0659 81.709C81.2684 82.2279 81.3803 82.7922 81.3804 83.3828C81.3804 85.928 79.3171 87.992 76.772 87.9922C74.5642 87.9922 72.7206 86.439 72.27 84.3662C72.2002 84.7068 72.1636 85.0597 72.1636 85.4209C72.1638 88.3065 74.5026 90.6453 77.3882 90.6455C80.2739 90.6455 82.6136 88.3066 82.6138 85.4209C82.6138 83.9693 82.0216 82.6559 81.0659 81.709Z" fill="#F8E8C2"/>
<path d="M81.0659 81.709L80.6001 81.8907L81.4178 81.3538L81.0659 81.709ZM81.3804 83.3828L81.8804 83.3828V83.3828H81.3804ZM76.772 87.9922L76.772 88.4922H76.772V87.9922ZM72.27 84.3662L71.7802 84.2658L72.7586 84.26L72.27 84.3662ZM72.1636 85.4209L71.6636 85.4209V85.4209H72.1636ZM77.3882 90.6455L77.3882 91.1455L77.3881 91.1455L77.3882 90.6455ZM82.6138 85.4209L83.1138 85.4209L83.1138 85.4209L82.6138 85.4209ZM81.0659 81.709L81.5317 81.5273C81.7562 82.1027 81.8803 82.7285 81.8804 83.3828L81.3804 83.3828L80.8804 83.3828C80.8803 82.8559 80.7805 82.3532 80.6001 81.8907L81.0659 81.709ZM81.3804 83.3828H81.8804C81.8804 86.2041 79.5934 88.492 76.772 88.4922L76.772 87.9922L76.7719 87.4922C79.0409 87.492 80.8804 85.652 80.8804 83.3828H81.3804ZM76.772 87.9922V88.4922C74.3237 88.4922 72.2808 86.7699 71.7814 84.4724L72.27 84.3662L72.7586 84.26C73.1603 86.1081 74.8047 87.4922 76.772 87.4922V87.9922ZM72.27 84.3662L72.7598 84.4666C72.6968 84.7743 72.6636 85.0936 72.6636 85.4209H72.1636H71.6636C71.6636 85.0258 71.7037 84.6393 71.7802 84.2658L72.27 84.3662ZM72.1636 85.4209L72.6636 85.4209C72.6638 88.0303 74.7788 90.1453 77.3882 90.1455L77.3882 90.6455L77.3881 91.1455C74.2265 91.1453 71.6638 88.5826 71.6636 85.4209L72.1636 85.4209ZM77.3882 90.6455V90.1455C79.9979 90.1455 82.1136 88.0304 82.1138 85.4209L82.6138 85.4209L83.1138 85.4209C83.1136 88.5828 80.55 91.1455 77.3882 91.1455V90.6455ZM82.6138 85.4209H82.1138C82.1138 84.1081 81.5788 82.9211 80.714 82.0642L81.0659 81.709L81.4178 81.3538C82.4643 82.3907 83.1138 83.8304 83.1138 85.4209H82.6138Z" fill="#C5821E" mask="url(#path-40-inside-8_9281_115)"/>
<mask id="path-42-inside-9_9281_115" fill="white">
<path d="M59.2205 51.0756C62.1201 51.3785 64.2248 53.9748 63.922 56.8745C63.9196 56.8978 63.9155 56.921 63.9128 56.9442L53.4161 55.8482C53.4183 55.8249 53.419 55.8015 53.4215 55.7781C53.7243 52.8784 56.3207 50.7728 59.2205 51.0756Z"/>
</mask>
<path d="M59.2205 51.0756C62.1201 51.3785 64.2248 53.9748 63.922 56.8745C63.9196 56.8978 63.9155 56.921 63.9128 56.9442L53.4161 55.8482C53.4183 55.8249 53.419 55.8015 53.4215 55.7781C53.7243 52.8784 56.3207 50.7728 59.2205 51.0756Z" fill="#F8E8C2"/>
<path d="M59.2205 51.0756L59.2724 50.5783L59.2724 50.5783L59.2205 51.0756ZM63.922 56.8745L64.4193 56.9264L64.4193 56.9264L63.922 56.8745ZM63.9128 56.9442L63.8609 57.4415L64.3517 57.4928L64.4093 57.0026L63.9128 56.9442ZM53.4161 55.8482L52.9182 55.8028L52.8734 56.2943L53.3642 56.3455L53.4161 55.8482ZM53.4215 55.7781L52.9242 55.7262L52.9242 55.7262L53.4215 55.7781ZM59.2205 51.0756L59.1685 51.5729C61.7934 51.8471 63.6988 54.1975 63.4247 56.8226L63.922 56.8745L64.4193 56.9264C64.7507 53.7522 62.4467 50.9099 59.2724 50.5783L59.2205 51.0756ZM63.922 56.8745L63.4247 56.8225C63.4246 56.8237 63.4242 56.8268 63.4226 56.8384C63.4213 56.8473 63.4185 56.8664 63.4162 56.8858L63.9128 56.9442L64.4093 57.0026C64.4098 56.9988 64.4104 56.9947 64.4124 56.9803C64.4141 56.9687 64.417 56.9486 64.4193 56.9264L63.922 56.8745ZM63.9128 56.9442L63.9647 56.4469L53.4681 55.3509L53.4161 55.8482L53.3642 56.3455L63.8609 57.4415L63.9128 56.9442ZM53.4161 55.8482L53.9141 55.8936C53.9158 55.8742 53.917 55.8549 53.9176 55.846C53.9184 55.8343 53.9187 55.8311 53.9188 55.83L53.4215 55.7781L52.9242 55.7262C52.9219 55.7484 52.9205 55.7687 52.9198 55.7804C52.9188 55.7948 52.9185 55.799 52.9182 55.8028L53.4161 55.8482ZM53.4215 55.7781L53.9188 55.83C54.1929 53.2049 56.5435 51.2988 59.1686 51.5729L59.2205 51.0756L59.2724 50.5783C56.098 50.2468 53.2556 52.5518 52.9242 55.7262L53.4215 55.7781Z" fill="#C5821E" mask="url(#path-42-inside-9_9281_115)"/>
<mask id="path-44-inside-10_9281_115" fill="white">
<path d="M88.6006 49.9855C91.5014 49.6945 94.0886 51.8104 94.3797 54.7113C94.382 54.7346 94.3828 54.7581 94.3848 54.7814L83.8838 55.8354C83.8812 55.8121 83.8772 55.789 83.8749 55.7656C83.5837 52.8647 85.6996 50.2766 88.6006 49.9855Z"/>
</mask>
<path d="M88.6006 49.9855C91.5014 49.6945 94.0886 51.8104 94.3797 54.7113C94.382 54.7346 94.3828 54.7581 94.3848 54.7814L83.8838 55.8354C83.8812 55.8121 83.8772 55.789 83.8749 55.7656C83.5837 52.8647 85.6996 50.2766 88.6006 49.9855Z" fill="#F8E8C2"/>
<path d="M88.6006 49.9855L88.5507 49.488L88.5506 49.488L88.6006 49.9855ZM94.3797 54.7113L94.8772 54.6614L94.8772 54.6614L94.3797 54.7113ZM94.3848 54.7814L94.4347 55.2789L94.9257 55.2297L94.8829 54.738L94.3848 54.7814ZM83.8838 55.8354L83.387 55.8918L83.4427 56.3821L83.9338 56.3329L83.8838 55.8354ZM83.8749 55.7656L83.3774 55.8155L83.3774 55.8156L83.8749 55.7656ZM88.6006 49.9855L88.6505 50.483C91.2764 50.2196 93.6186 52.1351 93.8822 54.7612L94.3797 54.7113L94.8772 54.6614C94.5585 51.4858 91.7263 49.1694 88.5507 49.488L88.6006 49.9855ZM94.3797 54.7113L93.8822 54.7612C93.8823 54.7623 93.8826 54.7655 93.8833 54.7772C93.8839 54.7861 93.885 54.8054 93.8867 54.8248L94.3848 54.7814L94.8829 54.738C94.8826 54.7342 94.8823 54.73 94.8814 54.7156C94.8807 54.7039 94.8794 54.6836 94.8772 54.6614L94.3797 54.7113ZM94.3848 54.7814L94.3349 54.2839L83.8339 55.3379L83.8838 55.8354L83.9338 56.3329L94.4347 55.2789L94.3848 54.7814ZM83.8838 55.8354L84.3806 55.7789C84.3784 55.7595 84.3757 55.7404 84.3745 55.7315C84.3728 55.7199 84.3725 55.7168 84.3724 55.7156L83.8749 55.7656L83.3774 55.8156C83.3796 55.8378 83.3824 55.8579 83.384 55.8695C83.386 55.8839 83.3866 55.888 83.387 55.8918L83.8838 55.8354ZM83.8749 55.7656L84.3724 55.7157C84.1088 53.0895 86.0243 50.7466 88.6505 50.483L88.6006 49.9855L88.5506 49.488C85.3749 49.8067 83.0586 52.6398 83.3774 55.8155L83.8749 55.7656Z" fill="#C5821E" mask="url(#path-44-inside-10_9281_115)"/>
<path d="M34.2207 51.2764C34.2207 50.4117 35.2758 49.9026 35.9941 50.4697L35.9961 50.4717C36.0378 50.504 36.0988 50.5682 36.1816 50.667C36.2646 50.7659 36.3462 50.8704 36.4453 50.9912C36.5397 51.1063 36.6429 51.2272 36.748 51.3311C36.8505 51.4322 36.9698 51.5329 37.0996 51.5928C38.0272 52.0216 39.3759 52.3743 40.541 52.6299L41.623 52.8525C48.9744 54.2801 60.1594 54.827 67.627 54.9834C76.2831 55.1626 86.0907 54.98 94.7227 54.291C96.5455 54.1465 99.729 53.8617 102.874 53.4199C106.006 52.9799 109.141 52.3797 110.841 51.5928L110.842 51.5918C110.965 51.5342 111.083 51.4334 111.184 51.334C111.288 51.2304 111.395 51.1087 111.492 50.9922C111.595 50.8693 111.68 50.7636 111.766 50.6631C111.85 50.5642 111.909 50.5011 111.945 50.4717C112.724 49.89 113.72 50.4492 113.72 51.2764C113.72 51.9239 113.369 52.4388 112.813 52.8662C112.255 53.2961 111.516 53.6149 110.81 53.8623C107.755 54.9227 102.543 55.7285 96.2061 56.2734C89.8757 56.8178 82.4448 57.1003 74.9668 57.1221C67.4889 57.1439 59.967 56.9047 53.4551 56.4072C46.9378 55.9093 41.4489 55.1542 38.0273 54.1475C37.1768 53.8968 36.2098 53.5685 35.458 53.0947C34.7054 52.6204 34.2208 52.035 34.2207 51.2764Z" fill="#F0D185" stroke="#C5821E" stroke-width="0.5"/>
</svg>
